<svg xmlns="http://www.w3.org/2000/svg" xmlns:xlink="http://www.w3.org/1999/xlink" width="830" height="300" viewBox="0 0 830 300">
  <defs>
    <clipPath id="clip-Github_Readme">
      <rect width="830" height="300"/>
    </clipPath>
  </defs>
  <g id="Github_Readme" data-name="Github Readme" clip-path="url(#clip-Github_Readme)">
    <rect width="830" height="300" fill="#0a0a0a"/>
    <path id="Logo_Text" data-name="Logo Text" d="M14.742-34.316A13.825,13.825,0,0,1,9-35.418a8.569,8.569,0,0,1-3.769-3.16A8.6,8.6,0,0,1,3.9-43.361a9.342,9.342,0,0,1,1.16-4.667,9.25,9.25,0,0,1,3.595-3.45A17.963,17.963,0,0,1,14.8-53.449l10.32-1.681v5.8L16.25-47.825a6.473,6.473,0,0,0-3.363,1.449,3.582,3.582,0,0,0-1.1,2.725,3.083,3.083,0,0,0,1.247,2.58,4.945,4.945,0,0,0,3.1.957,8.511,8.511,0,0,0,4.2-1.015,7.228,7.228,0,0,0,2.841-2.812,7.882,7.882,0,0,0,1.015-3.943V-56A4.283,4.283,0,0,0,22.6-59.392a6.247,6.247,0,0,0-4.2-1.363,7.4,7.4,0,0,0-4.319,1.3A7.56,7.56,0,0,0,11.321-56l-6.2-3.015a10.946,10.946,0,0,1,2.928-4.319,14.747,14.747,0,0,1,4.725-2.87,16.4,16.4,0,0,1,5.914-1.044,15.624,15.624,0,0,1,6.842,1.42,11.122,11.122,0,0,1,4.609,3.943A10.493,10.493,0,0,1,31.788-56v20.989H24.6V-40.4l1.623-.116a12.759,12.759,0,0,1-2.9,3.392A12.244,12.244,0,0,1,19.5-35.041,14.785,14.785,0,0,1,14.742-34.316Zm23.482-.7V-66.552h7.6v31.541Zm0-35.078v-8.117h7.6v8.117ZM52.255-35.012V-66.552h7.131v6.2l-.58-1.1A8.338,8.338,0,0,1,62.43-65.77a11.423,11.423,0,0,1,5.885-1.478,12.436,12.436,0,0,1,6.175,1.507,10.722,10.722,0,0,1,4.2,4.2A12.557,12.557,0,0,1,80.2-55.3v20.293h-7.6v-18.5a7.48,7.48,0,0,0-.812-3.595,5.939,5.939,0,0,0-2.232-2.348,6.424,6.424,0,0,0-3.334-.841,6.466,6.466,0,0,0-3.3.841A5.879,5.879,0,0,0,60.662-57.1a7.48,7.48,0,0,0-.812,3.595v18.5Zm45.8.7a15.876,15.876,0,0,1-8.784-2.406,12.225,12.225,0,0,1-5.131-6.523l5.682-2.725A9.993,9.993,0,0,0,93.217-41.8a8.3,8.3,0,0,0,4.841,1.507,5.327,5.327,0,0,0,3.3-.928,2.917,2.917,0,0,0,1.218-2.435,2.363,2.363,0,0,0-.493-1.536,4.114,4.114,0,0,0-1.334-1.044,10.277,10.277,0,0,0-1.826-.725L93.768-48.4a12.306,12.306,0,0,1-6.059-3.537,8.314,8.314,0,0,1-2.058-5.624,8.8,8.8,0,0,1,1.478-5.073,9.817,9.817,0,0,1,4.117-3.392A14.31,14.31,0,0,1,97.3-67.248,14.528,14.528,0,0,1,105.19-65.1a11.765,11.765,0,0,1,4.87,6.03l-5.8,2.725a6.99,6.99,0,0,0-2.725-3.421,7.563,7.563,0,0,0-4.29-1.276,4.742,4.742,0,0,0-3.015.87,2.748,2.748,0,0,0-1.1,2.261,2.494,2.494,0,0,0,.464,1.507,3.4,3.4,0,0,0,1.3,1.044,14.6,14.6,0,0,0,1.942.754l5.044,1.507a12.906,12.906,0,0,1,6,3.479A8.121,8.121,0,0,1,110-43.941a8.585,8.585,0,0,1-1.507,5.015,9.993,9.993,0,0,1-4.175,3.392A14.958,14.958,0,0,1,98.059-34.316Zm17.22-.7V-78.9h7.6v43.89Zm28.99.7a16.18,16.18,0,0,1-8.523-2.2,15.347,15.347,0,0,1-5.682-5.972,17.326,17.326,0,0,1-2.029-8.349,16.993,16.993,0,0,1,2.058-8.436,15.509,15.509,0,0,1,5.624-5.827,15.164,15.164,0,0,1,7.972-2.145,16.3,16.3,0,0,1,6.523,1.218,13.912,13.912,0,0,1,4.783,3.363,15.057,15.057,0,0,1,3.015,4.9,16.633,16.633,0,0,1,1.044,5.943q0,.812-.087,1.681a6.253,6.253,0,0,1-.319,1.507H134.3v-5.8h20.061l-3.595,2.725a8.639,8.639,0,0,0-.261-4.754,6.808,6.808,0,0,0-2.551-3.3,7.33,7.33,0,0,0-4.261-1.218,7.675,7.675,0,0,0-4.232,1.189,7.357,7.357,0,0,0-2.812,3.479,12.073,12.073,0,0,0-.725,5.537,10.253,10.253,0,0,0,.783,5.131,7.619,7.619,0,0,0,3.015,3.45,8.687,8.687,0,0,0,4.609,1.218,8.437,8.437,0,0,0,4.435-1.1,7.949,7.949,0,0,0,2.87-2.957l6.146,3.015a10.741,10.741,0,0,1-2.9,4,14.49,14.49,0,0,1-4.667,2.725A17.194,17.194,0,0,1,144.268-34.316ZM168.04-22.2a15.14,15.14,0,0,1-2.493-.2,8.391,8.391,0,0,1-2.2-.667v-6.378q.754.174,1.826.348a12.541,12.541,0,0,0,2,.174,5.121,5.121,0,0,0,3.8-1.218,11.583,11.583,0,0,0,2.116-3.189l2.087-4.87-.116,6.378-13.741-34.73h8.175l9.625,25.627h-2.9l9.567-25.627h8.233l-13.741,34.73a19.809,19.809,0,0,1-2.957,5.218,12.02,12.02,0,0,1-4.03,3.276A11.7,11.7,0,0,1,168.04-22.2Zm30.845-12.813v-8.117h7.653v8.117ZM250.731-83.32,239.045-43.233a20.183,20.183,0,0,0-.951,4.281.933.933,0,0,0,.289.645.828.828,0,0,0,.595.306,1.914,1.914,0,0,0,1.053-.442A26.9,26.9,0,0,0,243.9-42.52l1.155.713a30.379,30.379,0,0,1-4.943,5.5,7.48,7.48,0,0,1-4.671,2.106,2.467,2.467,0,0,1-1.9-.815,3.3,3.3,0,0,1-.747-2.31,18.545,18.545,0,0,1,1.019-5.2l1.325-4.213q-4.926,7.61-8.969,10.531a9.223,9.223,0,0,1-5.334,2,5.727,5.727,0,0,1-4.5-2.293,9.41,9.41,0,0,1-1.919-6.234,22.193,22.193,0,0,1,3.227-10.8,27.274,27.274,0,0,1,8.527-9.342q4.179-2.888,7.678-2.888a6.33,6.33,0,0,1,3.159.747,8.821,8.821,0,0,1,2.616,2.48l3.329-11.822q.374-1.257.611-2a8.141,8.141,0,0,0,.408-2.242,1.559,1.559,0,0,0-.51-1.189,2.823,2.823,0,0,0-1.834-.578,22.534,22.534,0,0,0-2.582.238v-1.257Zm-12.6,24.12a4.874,4.874,0,0,0-1.257-3.5,4.211,4.211,0,0,0-3.193-1.325q-4.281,0-8.918,7.066t-4.637,13.521a5.923,5.923,0,0,0,1.121,3.89,3.392,3.392,0,0,0,2.684,1.342q3.533,0,8.867-7.644T238.127-59.2Zm17.344,11.381a21.039,21.039,0,0,0-.238,2.82,6.981,6.981,0,0,0,2.14,5.147,7.105,7.105,0,0,0,5.2,2.123,11.482,11.482,0,0,0,4.705-1,38.081,38.081,0,0,0,6.71-4.433l.713.985Q266.648-34.2,259.344-34.2q-4.96,0-7.474-3.125a10.75,10.75,0,0,1-2.514-6.9,20.345,20.345,0,0,1,3.125-10.362,23.576,23.576,0,0,1,7.848-8.238,18.165,18.165,0,0,1,9.716-2.939q3.6,0,5.334,1.461a4.4,4.4,0,0,1,1.733,3.465,8.158,8.158,0,0,1-2.242,5.4,20.643,20.643,0,0,1-8.7,5.436A48.367,48.367,0,0,1,255.471-47.819Zm.238-1.665a28.717,28.717,0,0,0,8.187-1.97,16.505,16.505,0,0,0,6.268-4.467,8.046,8.046,0,0,0,2.089-4.943,3.092,3.092,0,0,0-.9-2.31,3.51,3.51,0,0,0-2.565-.883q-3.465,0-7.355,3.686T255.709-49.484ZM278.861-63.65l9.818-2.106a34.892,34.892,0,0,1,1.7,5.13,74.817,74.817,0,0,1,1.495,9.1q.272,2.65.747,11.211,4.247-4.688,5.062-5.809,4.484-6.081,5.164-7.134a14.943,14.943,0,0,0,1.563-3.159,5.629,5.629,0,0,0,.374-1.936q0-.883-1.58-2.038a3.236,3.236,0,0,1-1.58-2.582,2.643,2.643,0,0,1,.866-1.936,2.836,2.836,0,0,1,2.055-.849,3.337,3.337,0,0,1,2.514,1.172,4.109,4.109,0,0,1,1.087,2.9,10.26,10.26,0,0,1-.544,3.329,30.225,30.225,0,0,1-3.3,6.3,101.173,101.173,0,0,1-7.78,9.971q-.679.781-7.542,7.882h-1.257q-.815-21.5-3.4-26.838a2.912,2.912,0,0,0-2.82-1.733,13.539,13.539,0,0,0-2.412.306Zm46.781-.917a14.05,14.05,0,0,0-.793-3.879,14.363,14.363,0,0,1-.963-3.822,3.222,3.222,0,0,1,.694-2.237,2.221,2.221,0,0,1,1.713-.764,1.956,1.956,0,0,1,1.529.764,3.268,3.268,0,0,1,.651,2.18,12.287,12.287,0,0,1-.75,3.553,18.858,18.858,0,0,0-.92,4.2,13.061,13.061,0,0,0,2.8-2.406,14.226,14.226,0,0,1,2.859-2.774,3.763,3.763,0,0,1,1.9-.538,2.135,2.135,0,0,1,1.571.637,2.069,2.069,0,0,1,.637,1.515,2.44,2.44,0,0,1-.934,1.868q-.934.821-4.671,1.642a20.392,20.392,0,0,0-3.624,1.1,12.981,12.981,0,0,0,3.6,1.161q3.426.623,4.487,1.557a2.7,2.7,0,0,1,1.062,2.038,1.991,1.991,0,0,1-.637,1.472,2.06,2.06,0,0,1-1.486.623,3.844,3.844,0,0,1-1.883-.595,12.666,12.666,0,0,1-2.789-2.661,15,15,0,0,0-2.888-2.6,13.377,13.377,0,0,0,.651,3.51,19.363,19.363,0,0,1,1.019,4.558,2.8,2.8,0,0,1-.679,1.911,1.931,1.931,0,0,1-1.444.779,2.668,2.668,0,0,1-1.9-.821,2.6,2.6,0,0,1-.595-1.9,10.433,10.433,0,0,1,.651-3.27q.651-1.911.821-2.633a17.775,17.775,0,0,0,.311-2.137,15.594,15.594,0,0,0-2.916,2.463,16.417,16.417,0,0,1-3.114,2.944,2.877,2.877,0,0,1-1.529.453,2.287,2.287,0,0,1-1.642-.651,1.966,1.966,0,0,1-.679-1.444,2.519,2.519,0,0,1,.58-1.486,4.228,4.228,0,0,1,1.741-1.288,22.041,22.041,0,0,1,3.482-.906,18.482,18.482,0,0,0,3.426-1.076,14.556,14.556,0,0,0-3.652-1.189,14.4,14.4,0,0,1-4.3-1.331,2.744,2.744,0,0,1-1.274-2.265,1.948,1.948,0,0,1,.637-1.4,2.037,2.037,0,0,1,1.486-.637,4.036,4.036,0,0,1,1.982.595,11.293,11.293,0,0,1,2.6,2.392A13.894,13.894,0,0,0,325.642-64.568Z" transform="translate(245.1 202.32)" fill="#fff"/>
  </g>
</svg>
