<svg xmlns="http://www.w3.org/2000/svg" width="819" height="460" viewBox="0 0 819 460">
  <g id="Dec_s_Pets" data-name="Dec&apos;s Pets" transform="translate(38 106.24)">
    <rect id="Background" width="819" height="460" transform="translate(-38 -106.24)" fill="#dff3f8"/>
    <path id="Text" d="M4.6,79.319q-2.02,0-2.02-1.6v-.337q0-1.01,1.683-3.072A6.575,6.575,0,0,0,5.95,70.145V28.735a6.575,6.575,0,0,0-1.683-4.166Q2.583,22.507,2.583,21.5V21.16q0-1.6,2.02-1.6H24.466q17.591,0,27.4,8.332t9.805,21.883q0,13.214-9.048,21.378T28.674,79.319Zm23.735-5.892H31.7a12.963,12.963,0,0,0,10.1-4.292q3.872-4.292,3.872-12.288a46.062,46.062,0,0,0-2.525-15.36A28.991,28.991,0,0,0,36,29.871a14.555,14.555,0,0,0-10.268-4.419H24.8q-3.787,0-3.787,4.04V64.758a9.574,9.574,0,0,0,1.936,6.4A6.7,6.7,0,0,0,28.338,73.427Zm73.813-7.407a1.894,1.894,0,0,1,2.062-.547,1.512,1.512,0,0,1,1.052,1.725,10.023,10.023,0,0,1-1.136,4.04,17.751,17.751,0,0,1-2.988,4.166A14.511,14.511,0,0,1,95.8,78.814a20.817,20.817,0,0,1-7.7,1.347q-9.427,0-15.36-5.892T66.8,58.867q0-9.174,6.06-14.939a21,21,0,0,1,14.813-5.85q7.491-.084,12.12,3.282a10.511,10.511,0,0,1,4.629,8.922,10.167,10.167,0,0,1-3.745,7.743,18.367,18.367,0,0,1-9.721,4.292,38.653,38.653,0,0,1-8.417.589q3.535,6.817,10.6,6.817Q99.374,69.724,102.151,66.021ZM85.907,42.538a4.7,4.7,0,0,0-4.166,2.609,13.187,13.187,0,0,0-1.557,6.817,26.651,26.651,0,0,0,.757,6.481,24.833,24.833,0,0,0,4.208-.168q5.723-1.01,5.723-9.09A8.322,8.322,0,0,0,89.4,44.474,4.159,4.159,0,0,0,85.907,42.538ZM131.525,80.16q-9.595,0-15.739-6.27a20.51,20.51,0,0,1-6.144-14.855q0-9.511,6.228-15.192a23.87,23.87,0,0,1,27.859-2.357q5.218,3.493,5.218,9.048a4.733,4.733,0,0,1-1.473,3.535Q146,55.5,142.8,55.416a7.287,7.287,0,0,1-4.924-2.272,13.169,13.169,0,0,1-2.988-4.545,16,16,0,0,0-2.525-4.419,4.613,4.613,0,0,0-3.619-1.978,5.074,5.074,0,0,0-4.25,2.777,12.563,12.563,0,0,0-1.641,6.649q0,8.248,3.745,13.214a11.873,11.873,0,0,0,9.974,4.966,11.283,11.283,0,0,0,9.342-4.882,1.878,1.878,0,0,1,2.02-.715,1.494,1.494,0,0,1,1.178,1.641,13.746,13.746,0,0,1-4.8,10.1Q139.689,80.16,131.525,80.16Zm26.007-36.949a1.97,1.97,0,0,1-2.651-.421,1.542,1.542,0,0,1-.042-2.441,39.6,39.6,0,0,0,3.7-4.082,6.277,6.277,0,0,0,1.178-3.156q.168-1.852-1.094-1.852a5.31,5.31,0,0,1-4.292-2.23,8.731,8.731,0,0,1-1.767-5.6,9.182,9.182,0,0,1,2.315-6.523,8.053,8.053,0,0,1,6.186-2.483,8.477,8.477,0,0,1,6.355,2.777,10.4,10.4,0,0,1,2.651,7.491Q170.073,35.637,157.532,43.212Zm31.31,36.865q-8.08,0-13.3-2.735t-5.218-7.112a4.921,4.921,0,0,1,1.641-4.04,6.618,6.618,0,0,1,4.335-1.347,5.907,5.907,0,0,1,4.545,1.81,9.453,9.453,0,0,1,2.272,3.956,11.039,11.039,0,0,0,2.02,3.956,4.506,4.506,0,0,0,3.7,1.81q4.545,0,4.545-4.629a5.716,5.716,0,0,0-2.315-4.8,16.494,16.494,0,0,0-5.6-2.693q-3.282-.926-6.523-2.1a12.868,12.868,0,0,1-5.555-3.956,11.064,11.064,0,0,1-2.315-7.322,10.906,10.906,0,0,1,4.966-9.216q4.966-3.577,12.793-3.577t12.751,2.946q4.924,2.946,4.924,7.154a4.72,4.72,0,0,1-1.641,3.661,5.772,5.772,0,0,1-4,1.473,5.605,5.605,0,0,1-4.377-1.767,9.153,9.153,0,0,1-2.146-3.914,13.22,13.22,0,0,0-1.683-3.914,3.492,3.492,0,0,0-3.072-1.767,3.405,3.405,0,0,0-2.9,1.431,5.528,5.528,0,0,0-1.052,3.367,6.369,6.369,0,0,0,2.23,5.05,15.143,15.143,0,0,0,5.387,2.946q3.156,1.01,6.312,2.188a12.791,12.791,0,0,1,5.387,3.83,10.423,10.423,0,0,1,2.23,6.944q0,5.387-4.924,8.879T188.842,80.076Zm44.44-.757q-2.02,0-2.02-1.6v-.337q0-1.01,1.683-3.072a6.575,6.575,0,0,0,1.683-4.166V28.735a6.575,6.575,0,0,0-1.683-4.166q-1.683-2.062-1.683-3.072V21.16q0-1.6,2.02-1.6h20.957q12.2,0,19.526,4.882t7.322,15.066q0,9.511-6.565,15.192t-17.506,5.681H250.03v9.763a6.194,6.194,0,0,0,1.894,4.166q1.894,2.062,1.894,3.072v.337q0,1.6-2.02,1.6ZM253.9,54.49h3.114a6.873,6.873,0,0,0,6.1-3.282,14.615,14.615,0,0,0,2.146-8.164q0-7.827-3.409-12.751t-7.617-4.924H253.06q-3.03,0-3.03,4.04V50.45Q250.03,54.49,253.9,54.49Zm64.639,11.531a1.894,1.894,0,0,1,2.062-.547,1.512,1.512,0,0,1,1.052,1.725,10.023,10.023,0,0,1-1.136,4.04,17.749,17.749,0,0,1-2.988,4.166,14.511,14.511,0,0,1-5.345,3.409,20.818,20.818,0,0,1-7.7,1.347q-9.427,0-15.36-5.892t-5.934-15.4q0-9.174,6.06-14.939a21,21,0,0,1,14.813-5.85q7.491-.084,12.12,3.282a10.511,10.511,0,0,1,4.629,8.922,10.167,10.167,0,0,1-3.745,7.743,18.367,18.367,0,0,1-9.721,4.292,38.653,38.653,0,0,1-8.417.589q3.535,6.817,10.6,6.817Q315.764,69.724,318.541,66.021ZM302.3,42.538a4.7,4.7,0,0,0-4.166,2.609,13.187,13.187,0,0,0-1.557,6.817,26.651,26.651,0,0,0,.757,6.481,24.833,24.833,0,0,0,4.208-.168q5.723-1.01,5.723-9.09a8.322,8.322,0,0,0-1.473-4.713A4.159,4.159,0,0,0,302.3,42.538ZM343.959,80.16q-6.4,0-10.058-4.04T330.24,64.59V44.643h-3.2a1.872,1.872,0,0,1-1.936-1.936V40.855a1.711,1.711,0,0,1,1.936-1.936h1.6A10.051,10.051,0,0,0,335.29,36.6a10.753,10.753,0,0,0,3.619-6.186q.421-2.188,2.272-2.188h1.936q2.272,0,2.272,2.188v8.5h8.669A1.872,1.872,0,0,1,356,40.855v1.852a1.872,1.872,0,0,1-1.936,1.936H345.39v20.2a4.8,4.8,0,0,0,1.094,3.325,3.476,3.476,0,0,0,2.693,1.22,6.171,6.171,0,0,0,5.555-3.114,2.161,2.161,0,0,1,1.347-.884,1.613,1.613,0,0,1,1.3.295,1.4,1.4,0,0,1,.547,1.178,13.182,13.182,0,0,1-3.745,9.3Q350.44,80.16,343.959,80.16Zm35.855-.084q-8.08,0-13.3-2.735T361.3,70.229a4.921,4.921,0,0,1,1.641-4.04,6.618,6.618,0,0,1,4.335-1.347,5.907,5.907,0,0,1,4.545,1.81,9.453,9.453,0,0,1,2.272,3.956,11.04,11.04,0,0,0,2.02,3.956,4.506,4.506,0,0,0,3.7,1.81q4.545,0,4.545-4.629a5.716,5.716,0,0,0-2.315-4.8,16.494,16.494,0,0,0-5.6-2.693q-3.282-.926-6.523-2.1a12.868,12.868,0,0,1-5.555-3.956,11.064,11.064,0,0,1-2.315-7.322,10.906,10.906,0,0,1,4.966-9.216q4.966-3.577,12.793-3.577t12.751,2.946q4.924,2.946,4.924,7.154a4.72,4.72,0,0,1-1.641,3.661,5.772,5.772,0,0,1-4,1.473,5.605,5.605,0,0,1-4.377-1.767,9.154,9.154,0,0,1-2.146-3.914,13.22,13.22,0,0,0-1.683-3.914,3.492,3.492,0,0,0-3.072-1.767,3.4,3.4,0,0,0-2.9,1.431,5.528,5.528,0,0,0-1.052,3.367,6.369,6.369,0,0,0,2.23,5.05,15.143,15.143,0,0,0,5.387,2.946q3.156,1.01,6.312,2.188a12.791,12.791,0,0,1,5.387,3.83,10.423,10.423,0,0,1,2.23,6.944q0,5.387-4.924,8.879T379.814,80.076Z" transform="translate(231.367 82.415)"/>
    <path id="Paw" d="M80.5,77.466C80.284,90.664,73.251,95.44,65.786,95s-12.658-3.9-17.96-3.9l-.217.121c-5.3,0-10.494,3.583-17.959,4.023s-14.5-4.094-14.713-17.292C15.369,65.831,24.6,64.94,32.463,50.625c6.923-12.6,15.146-11.585,15.146-11.585h.217s8.294-.965,15.146,11.585C70.8,64.959,80.066,65.349,80.5,77.466ZM34.277,33.6c6.612-.5,11.4-8.424,10.7-17.7S38.344-.476,31.731.025s-11.4,8.424-10.7,17.7S27.665,34.1,34.277,33.6Zm25.062.161c6.462,1.761,13.7-4.156,16.172-13.216S74.745,2.714,68.284.953s-13.7,4.156-16.172,13.216S52.878,32,59.339,33.764ZM89.277,26.51c-5.627-1.534-11.933,3.618-14.083,11.509s.667,15.53,6.294,17.064S93.42,51.463,95.571,43.573,94.9,28.043,89.277,26.51ZM22.87,38.018c-2.151-7.89-8.456-13.043-14.083-11.509S.341,35.683,2.492,43.573s8.456,13.043,14.083,11.509S25.02,45.908,22.87,38.018Z" transform="translate(63.174 98.204) rotate(-22)" fill="#ef0d50"/>
  </g>
</svg>
