<svg xmlns="http://www.w3.org/2000/svg" xmlns:xlink="http://www.w3.org/1999/xlink" width="819" height="460" viewBox="0 0 819 460">
  <defs>
    <clipPath id="clip-path">
      <rect id="Rectangle_2270" data-name="Rectangle 2270" width="819" height="460" fill="#1d55a4"/>
    </clipPath>
    <clipPath id="clip-path-2">
      <path id="Path_3952" data-name="Path 3952" d="M1266.064,566.676a1.153,1.153,0,1,1-1.153-1.153,1.153,1.153,0,0,1,1.153,1.153Zm0-17.294a1.153,1.153,0,1,1-1.153-1.153,1.153,1.153,0,0,1,1.153,1.153Zm0-17.294a1.153,1.153,0,1,1-1.153-1.153,1.153,1.153,0,0,1,1.153,1.153Zm0-17.294a1.153,1.153,0,1,1-1.153-1.153,1.153,1.153,0,0,1,1.153,1.153Zm0-17.294a1.153,1.153,0,1,1-1.153-1.153,1.153,1.153,0,0,1,1.153,1.153Zm0-17.294a1.153,1.153,0,1,1-1.153-1.153,1.153,1.153,0,0,1,1.153,1.153Zm0-17.294a1.153,1.153,0,1,1-1.153-1.153,1.153,1.153,0,0,1,1.153,1.153Zm0-17.294a1.153,1.153,0,1,1-1.153-1.153,1.153,1.153,0,0,1,1.153,1.153Zm0-17.294a1.153,1.153,0,1,1-1.153-1.153,1.153,1.153,0,0,1,1.153,1.153Zm0-17.294a1.153,1.153,0,1,1-1.153-1.153,1.153,1.153,0,0,1,1.153,1.153Zm0-17.294a1.153,1.153,0,1,1-1.153-1.153,1.153,1.153,0,0,1,1.153,1.153Zm0-17.294a1.153,1.153,0,1,1-1.153-1.153,1.153,1.153,0,0,1,1.153,1.153Zm0-17.294a1.153,1.153,0,1,1-1.153-1.152,1.153,1.153,0,0,1,1.153,1.152Zm17.293,207.523a1.153,1.153,0,1,1-1.153-1.153,1.153,1.153,0,0,1,1.153,1.153Zm-34.587,0a1.153,1.153,0,1,1-1.153-1.153,1.153,1.153,0,0,1,1.153,1.153Zm69.175-17.293a1.153,1.153,0,1,1-1.153-1.153A1.153,1.153,0,0,1,1317.945,549.383Zm-17.294,0a1.153,1.153,0,1,1-1.153-1.153A1.153,1.153,0,0,1,1300.651,549.383Zm-17.293,0a1.153,1.153,0,1,1-1.153-1.153A1.153,1.153,0,0,1,1283.358,549.383Zm-34.587,0a1.153,1.153,0,1,1-1.153-1.153,1.153,1.153,0,0,1,1.153,1.153Zm-17.293,0a1.153,1.153,0,1,1-1.153-1.153A1.153,1.153,0,0,1,1231.477,549.383Zm-17.294,0a1.153,1.153,0,1,1-1.153-1.153,1.153,1.153,0,0,1,1.153,1.153Zm121.055-17.294a1.153,1.153,0,1,1-1.153-1.153,1.153,1.153,0,0,1,1.153,1.153Zm-17.294,0a1.153,1.153,0,1,1-1.153-1.153,1.153,1.153,0,0,1,1.153,1.153Zm-17.293,0a1.153,1.153,0,1,1-1.153-1.153,1.153,1.153,0,0,1,1.153,1.153Zm-17.294,0a1.153,1.153,0,1,1-1.153-1.153,1.153,1.153,0,0,1,1.153,1.153Zm-34.587,0a1.153,1.153,0,1,1-1.153-1.153,1.153,1.153,0,0,1,1.153,1.153Zm-17.293,0a1.153,1.153,0,1,1-1.153-1.153,1.153,1.153,0,0,1,1.153,1.153Zm-17.293,0a1.153,1.153,0,1,1-1.153-1.153,1.153,1.153,0,0,1,1.153,1.153Zm-17.294,0a1.153,1.153,0,1,1-1.153-1.153,1.152,1.152,0,0,1,1.153,1.153ZM1352.531,514.8a1.153,1.153,0,1,1-1.153-1.153,1.153,1.153,0,0,1,1.153,1.153Zm-17.293,0a1.153,1.153,0,1,1-1.153-1.153,1.153,1.153,0,0,1,1.153,1.153Zm-17.294,0a1.153,1.153,0,1,1-1.153-1.153,1.153,1.153,0,0,1,1.153,1.153Zm-17.293,0a1.153,1.153,0,1,1-1.153-1.153,1.153,1.153,0,0,1,1.153,1.153Zm-17.294,0a1.153,1.153,0,1,1-1.153-1.153,1.153,1.153,0,0,1,1.153,1.153Zm-34.587,0a1.153,1.153,0,1,1-1.153-1.153,1.153,1.153,0,0,1,1.153,1.153Zm-17.294,0a1.153,1.153,0,1,1-1.153-1.153,1.153,1.153,0,0,1,1.153,1.153Zm-17.294,0a1.153,1.153,0,1,1-1.153-1.153,1.153,1.153,0,0,1,1.153,1.153Zm-17.293,0a1.153,1.153,0,1,1-1.153-1.153,1.153,1.153,0,0,1,1.153,1.153Zm-17.294,0a1.153,1.153,0,1,1-1.153-1.153A1.153,1.153,0,0,1,1179.6,514.8ZM1352.531,497.5a1.153,1.153,0,1,1-1.153-1.153,1.153,1.153,0,0,1,1.153,1.153Zm-17.294,0a1.153,1.153,0,1,1-1.153-1.153,1.153,1.153,0,0,1,1.153,1.153Zm-17.293,0a1.153,1.153,0,1,1-1.153-1.153,1.153,1.153,0,0,1,1.153,1.153Zm-17.293,0a1.153,1.153,0,1,1-1.153-1.153,1.153,1.153,0,0,1,1.153,1.153Zm-17.294,0a1.153,1.153,0,1,1-1.153-1.153,1.153,1.153,0,0,1,1.153,1.153Zm-34.587,0a1.153,1.153,0,1,1-1.153-1.153,1.153,1.153,0,0,1,1.153,1.153Zm-17.294,0a1.153,1.153,0,1,1-1.153-1.153,1.153,1.153,0,0,1,1.153,1.153Zm-17.294,0a1.153,1.153,0,1,1-1.153-1.153,1.153,1.153,0,0,1,1.153,1.153Zm-17.294,0a1.153,1.153,0,1,1-1.153-1.153,1.152,1.152,0,0,1,1.153,1.153Zm-17.293,0a1.153,1.153,0,1,1-1.153-1.153,1.153,1.153,0,0,1,1.153,1.153Zm190.229-17.294a1.153,1.153,0,1,1-1.153-1.153,1.153,1.153,0,0,1,1.153,1.153Zm-17.294,0a1.153,1.153,0,1,1-1.153-1.153,1.153,1.153,0,0,1,1.153,1.153Zm-17.293,0a1.153,1.153,0,1,1-1.153-1.153,1.153,1.153,0,0,1,1.153,1.153Zm-17.294,0a1.153,1.153,0,1,1-1.153-1.153,1.153,1.153,0,0,1,1.153,1.153Zm-17.294,0a1.153,1.153,0,1,1-1.153-1.153,1.153,1.153,0,0,1,1.153,1.153Zm-17.293,0a1.153,1.153,0,1,1-1.153-1.153,1.153,1.153,0,0,1,1.153,1.153Zm-34.587,0a1.153,1.153,0,1,1-1.153-1.153,1.153,1.153,0,0,1,1.153,1.153Zm-17.293,0a1.153,1.153,0,1,1-1.153-1.153,1.153,1.153,0,0,1,1.153,1.153Zm-17.294,0a1.153,1.153,0,1,1-1.153-1.153,1.153,1.153,0,0,1,1.153,1.153Zm-17.294,0a1.153,1.153,0,1,1-1.153-1.153,1.152,1.152,0,0,1,1.153,1.153Zm-17.293,0a1.153,1.153,0,1,1-1.153-1.153,1.153,1.153,0,0,1,1.153,1.153Zm-17.294,0a1.153,1.153,0,1,1-1.153-1.153,1.153,1.153,0,0,1,1.153,1.153Zm207.525-17.294a1.153,1.153,0,1,1-1.153-1.153A1.153,1.153,0,0,1,1369.825,462.915Zm-17.294,0a1.153,1.153,0,1,1-1.153-1.153,1.152,1.152,0,0,1,1.153,1.153Zm-17.293,0a1.153,1.153,0,1,1-1.153-1.153A1.153,1.153,0,0,1,1335.238,462.915Zm-17.294,0a1.153,1.153,0,1,1-1.153-1.153A1.153,1.153,0,0,1,1317.944,462.915Zm-17.293,0a1.153,1.153,0,1,1-1.153-1.153A1.153,1.153,0,0,1,1300.651,462.915Zm-17.294,0a1.153,1.153,0,1,1-1.153-1.153A1.153,1.153,0,0,1,1283.357,462.915Zm-34.587,0a1.153,1.153,0,1,1-1.153-1.153,1.153,1.153,0,0,1,1.153,1.153Zm-17.293,0a1.153,1.153,0,1,1-1.153-1.153,1.153,1.153,0,0,1,1.153,1.153Zm-17.293,0a1.153,1.153,0,1,1-1.153-1.153,1.153,1.153,0,0,1,1.153,1.153Zm-17.294,0a1.153,1.153,0,1,1-1.153-1.153,1.152,1.152,0,0,1,1.153,1.153Zm-17.293,0a1.153,1.153,0,1,1-1.153-1.153,1.153,1.153,0,0,1,1.153,1.153Zm-17.293,0a1.153,1.153,0,1,1-1.153-1.153,1.153,1.153,0,0,1,1.153,1.153Zm207.523-17.294a1.153,1.153,0,1,1-1.153-1.153,1.153,1.153,0,0,1,1.153,1.153Zm-17.294,0a1.153,1.153,0,1,1-1.153-1.153,1.153,1.153,0,0,1,1.153,1.153Zm-17.293,0a1.153,1.153,0,1,1-1.153-1.153,1.153,1.153,0,0,1,1.153,1.153Zm-17.294,0a1.153,1.153,0,1,1-1.153-1.153,1.153,1.153,0,0,1,1.153,1.153Zm-17.294,0a1.153,1.153,0,1,1-1.153-1.153,1.153,1.153,0,0,1,1.153,1.153Zm-17.294,0a1.153,1.153,0,1,1-1.153-1.153,1.153,1.153,0,0,1,1.153,1.153Zm-34.587,0a1.153,1.153,0,1,1-1.153-1.153,1.153,1.153,0,0,1,1.153,1.153Zm-17.294,0a1.153,1.153,0,1,1-1.153-1.153,1.153,1.153,0,0,1,1.153,1.153Zm-17.294,0a1.153,1.153,0,1,1-1.153-1.153,1.153,1.153,0,0,1,1.153,1.153Zm-17.293,0a1.153,1.153,0,1,1-1.153-1.153,1.153,1.153,0,0,1,1.153,1.153Zm-17.294,0a1.153,1.153,0,1,1-1.153-1.153,1.153,1.153,0,0,1,1.153,1.153Zm-17.293,0a1.153,1.153,0,1,1-1.153-1.153,1.153,1.153,0,0,1,1.153,1.153Zm190.229-17.294a1.153,1.153,0,1,1-1.153-1.153,1.153,1.153,0,0,1,1.153,1.153Zm-17.294,0a1.153,1.153,0,1,1-1.153-1.153,1.153,1.153,0,0,1,1.153,1.153Zm-17.294,0a1.153,1.153,0,1,1-1.153-1.153,1.153,1.153,0,0,1,1.153,1.153Zm-17.294,0a1.153,1.153,0,1,1-1.153-1.153,1.153,1.153,0,0,1,1.153,1.153Zm-17.293,0a1.153,1.153,0,1,1-1.153-1.153,1.153,1.153,0,0,1,1.153,1.153Zm-34.587,0a1.153,1.153,0,1,1-1.153-1.153,1.153,1.153,0,0,1,1.153,1.153Zm-17.294,0a1.153,1.153,0,1,1-1.153-1.153,1.153,1.153,0,0,1,1.153,1.153Zm-17.294,0a1.153,1.153,0,1,1-1.153-1.153,1.153,1.153,0,0,1,1.153,1.153Zm-17.293,0a1.153,1.153,0,1,1-1.153-1.153,1.153,1.153,0,0,1,1.153,1.153Zm-17.293,0a1.153,1.153,0,1,1-1.153-1.153A1.153,1.153,0,0,1,1179.595,428.327Zm172.937-17.292a1.153,1.153,0,1,1-1.153-1.153A1.153,1.153,0,0,1,1352.531,411.035Zm-17.293,0a1.153,1.153,0,1,1-1.153-1.153A1.153,1.153,0,0,1,1335.238,411.035Zm-17.294,0a1.153,1.153,0,1,1-1.153-1.153A1.153,1.153,0,0,1,1317.944,411.035Zm-17.294,0a1.153,1.153,0,1,1-1.153-1.153A1.153,1.153,0,0,1,1300.65,411.035Zm-17.293,0a1.153,1.153,0,1,1-1.153-1.153A1.153,1.153,0,0,1,1283.357,411.035Zm-34.587,0a1.153,1.153,0,1,1-1.153-1.153A1.153,1.153,0,0,1,1248.77,411.035Zm-17.294,0a1.153,1.153,0,1,1-1.153-1.153,1.153,1.153,0,0,1,1.153,1.153Zm-17.294,0a1.153,1.153,0,1,1-1.153-1.153,1.153,1.153,0,0,1,1.153,1.153Zm-17.293,0a1.153,1.153,0,1,1-1.153-1.153,1.153,1.153,0,0,1,1.153,1.153Zm-17.294,0a1.153,1.153,0,1,1-1.153-1.153,1.153,1.153,0,0,1,1.153,1.153Zm155.642-17.294a1.153,1.153,0,1,1-1.153-1.153,1.153,1.153,0,0,1,1.153,1.153Zm-17.293,0a1.153,1.153,0,1,1-1.153-1.153,1.153,1.153,0,0,1,1.153,1.153Zm-17.293,0a1.153,1.153,0,1,1-1.153-1.153,1.153,1.153,0,0,1,1.153,1.153Zm-17.294,0a1.153,1.153,0,1,1-1.153-1.153,1.153,1.153,0,0,1,1.153,1.153Zm-34.587,0a1.153,1.153,0,1,1-1.153-1.153,1.153,1.153,0,0,1,1.153,1.153Zm-17.294,0a1.153,1.153,0,1,1-1.153-1.153,1.153,1.153,0,0,1,1.153,1.153Zm-17.294,0a1.153,1.153,0,1,1-1.153-1.153,1.153,1.153,0,0,1,1.153,1.153Zm-17.293,0a1.153,1.153,0,1,1-1.153-1.153,1.153,1.153,0,0,1,1.153,1.153Zm121.055-17.294a1.153,1.153,0,1,1-1.153-1.153,1.153,1.153,0,0,1,1.153,1.153Zm-17.293,0a1.153,1.153,0,1,1-1.153-1.153,1.153,1.153,0,0,1,1.153,1.153Zm-17.294,0a1.153,1.153,0,1,1-1.153-1.153,1.153,1.153,0,0,1,1.153,1.153Zm-34.587,0c0,.637-1.153,1.153-1.153,1.153s-1.153-.516-1.153-1.153a1.153,1.153,0,0,1,2.307,0Zm-17.294,0a1.153,1.153,0,1,1-1.153-1.153,1.153,1.153,0,0,1,1.153,1.153Zm-17.294,0a1.153,1.153,0,1,1-1.153-1.153,1.153,1.153,0,0,1,1.153,1.153Zm69.175-17.294A1.153,1.153,0,1,1,1282.2,358a1.153,1.153,0,0,1,1.153,1.153Zm-34.587,0a1.153,1.153,0,1,1-1.153-1.153,1.153,1.153,0,0,1,1.153,1.153Z" transform="translate(-1159.995 -358)" fill="#fff"/>
    </clipPath>
    <clipPath id="clip-path-3">
      <path id="Path_3951" data-name="Path 3951" d="M0,0H209.958V209.958H0Z" fill="#fff"/>
    </clipPath>
  </defs>
  <g id="EDR" transform="translate(38 106.24)">
    <rect id="Rectangle_2270-2" data-name="Rectangle 2270" width="819" height="460" transform="translate(-38 -106.24)" fill="#1d55a4"/>
    <g id="Group_1468" data-name="Group 1468" transform="translate(66.938 79.199)">
      <path id="Path_3939" data-name="Path 3939" d="M0,53.9q.395-2.826.792-5.645A39.014,39.014,0,0,1,7.482,31.245,23.332,23.332,0,0,1,22.05,22.419a38.443,38.443,0,0,1,14.162-.409c7.053.887,14.076,2.141,21.132,3.154a70.2,70.2,0,0,0,23.216.373,64.975,64.975,0,0,0,9.7-3.528,2.005,2.005,0,0,1,1.23-.238A17.652,17.652,0,0,1,89.911,23a31.965,31.965,0,0,1-15.66,4.41,206.575,206.575,0,0,1-31.832-1.12,61.159,61.159,0,0,0-18.9.476c-8.2,1.751-16.479,9.04-17.511,21.534A61.266,61.266,0,0,0,9.839,72.445,97.212,97.212,0,0,0,20.951,94.807c.328.5.638,1.016,1.151,1.832a41.769,41.769,0,0,0-5.64.052c-2.438.35-3.725-.747-4.96-3.033A86.63,86.63,0,0,1,1.794,69.631C1.13,66.3.771,62.918.259,59.571A3.968,3.968,0,0,0,0,58.857Z" transform="translate(0 -10.185)" fill="#fff"/>
      <path id="Path_3940" data-name="Path 3940" d="M194.286,48.04q-.381,2.876-.766,5.752A93.383,93.383,0,0,1,183.452,84.28a3.6,3.6,0,0,1-3.916,2.341c-1.694-.2-3.418-.074-5.134-.109-.117,0-.238-.109-.528-.252.29-.576.559-1.151.844-1.691,3.093-5.947,6.58-11.707,9.154-17.908a67.561,67.561,0,0,0,4.384-34.516c-.385-3.123-.871-6.242-1.53-9.3-1.9-8.923-7.524-14.174-14.8-17.666a29.631,29.631,0,0,0-14.837-2.348A100.282,100.282,0,0,0,127.248,9.34c-1.665.616-3.33,1.151-5.017,1.725a3.675,3.675,0,0,1-.792-.081c1.477-.795,2.617-1.444,3.768-2.013A81.121,81.121,0,0,1,156.666.3c.24-.062,9.594-.3,9.594-.3a28.309,28.309,0,0,1,23.551,17.5,62.075,62.075,0,0,1,3.973,18.18c.174,1.627.354,3.25.528,4.879Z" transform="translate(-46.159)" fill="#fff"/>
      <path id="Path_3941" data-name="Path 3941" d="M70.744,51.94v2.486H49.993v14.1H63.617c.147.238.238.3.238.373C64,71.28,64,71.28,61.654,71.28H50V88.9H70.732v2.638H43.17V51.94Z" transform="translate(-18.058 -19.896)" fill="#fff"/>
      <path id="Path_3942" data-name="Path 3942" d="M180.719,80.75c.152,4.843,1.218,9.192,5.108,12.278,4.939,3.92,13.381,1.615,16.288-4.332l.5-1.023c1.872.433,1.941.528,1.313,2.11a16.043,16.043,0,0,1-14.973,9.925A14.656,14.656,0,0,1,175.138,87.83a16.976,16.976,0,0,1,5.667-17c6.785-5.709,19.8-3.806,22.493,7.113.676,2.743.616,2.79-2.158,2.79H180.721ZM195.8,78.112a7.824,7.824,0,0,0-7.7-7.979,7.991,7.991,0,0,0-7.23,7.979Z" transform="translate(-71.372 -26.847)" fill="#fff"/>
      <path id="Path_3943" data-name="Path 3943" d="M138.32,62.347V60.87c.1-.064.164-.147.238-.147,4.52-.2,7-2.712,8.288-7.137.428-1.461.749-2.955,1.118-4.432h1.7c.031.476.09.928.09,1.387,0,2.681.031,5.36,0,8.041,0,.8.238,1.056,1.056,1.056,1.879-.048,3.756,0,5.724,0v2.638h-6.775v1.5c0,6.373.026,12.741,0,19.11,0,1.646.238,3.107,1.889,3.856a3.773,3.773,0,0,0,4.4-1.123,2.93,2.93,0,0,1,.395-.252l1.482.987a8.647,8.647,0,0,1-7.344,4.658c-4.306.274-6.754-1.741-6.858-6.057-.19-6.975-.1-13.962-.138-20.946V62.343Z" transform="translate(-58.367 -18.573)" fill="#fff"/>
      <path id="Path_3944" data-name="Path 3944" d="M108.514,85.175H102.6c-.031-.343-.09-.671-.09-1V41.605c0-.754.159-1.2.94-1.451,1.637-.528,3.24-1.13,5.086-1.784Z" transform="translate(-43.794 -13.996)" fill="#fff"/>
      <path id="Path_3945" data-name="Path 3945" d="M129.806,99.01h-6.073V70.782a1.563,1.563,0,0,1,1.244-1.794c1.582-.476,2.964-1.582,4.853-1.139Z" transform="translate(-52.863 -26.945)" fill="#fff"/>
      <path id="Path_3946" data-name="Path 3946" d="M126.227,45.416a3.471,3.471,0,0,1-3.487-3.078,3.541,3.541,0,0,1,7.042,0A3.33,3.33,0,0,1,126.227,45.416Z" transform="translate(-52.391 -16.551)" fill="#fff"/>
      <line id="Line_1733" data-name="Line 1733" x2="118.945" transform="translate(15.463 89.777)" fill="none" stroke="#fff" stroke-linecap="round" stroke-width="1"/>
    </g>
    <g id="Group_1469" data-name="Group 1469" transform="translate(239.732 96.541)">
      <path id="Path_3956" data-name="Path 3956" d="M9.592-14.316a14.809,14.809,0,0,1,6.8,1.487,10.637,10.637,0,0,1,4.513,4.268A12.838,12.838,0,0,1,22.5-2.071a12.549,12.549,0,0,1-1.592,6.437A10.512,10.512,0,0,1,16.4,8.546,15.107,15.107,0,0,1,9.592,10H1.65V-14.316Zm0,21.061a8.776,8.776,0,0,0,6.542-2.309,8.879,8.879,0,0,0,2.274-6.507,9.179,9.179,0,0,0-2.274-6.612,8.626,8.626,0,0,0-6.542-2.379H5.638V6.745ZM44.122-.112a12.47,12.47,0,0,1-.14,1.959H29.253a5.349,5.349,0,0,0,1.714,3.708,5.411,5.411,0,0,0,3.778,1.4,4.667,4.667,0,0,0,4.548-2.694h4.3a8.683,8.683,0,0,1-3.166,4.356,9.29,9.29,0,0,1-5.685,1.7A9.845,9.845,0,0,1,29.8,9.071a8.836,8.836,0,0,1-3.429-3.5A10.672,10.672,0,0,1,25.125.342a10.923,10.923,0,0,1,1.207-5.23,8.488,8.488,0,0,1,3.394-3.481,10.1,10.1,0,0,1,5.02-1.224A9.818,9.818,0,0,1,39.608-8.4a8.4,8.4,0,0,1,3.324,3.341A10.062,10.062,0,0,1,44.122-.112ZM39.958-1.372a4.539,4.539,0,0,0-1.574-3.533,5.629,5.629,0,0,0-3.813-1.329,5.122,5.122,0,0,0-3.533,1.312,5.483,5.483,0,0,0-1.749,3.551ZM57.766-9.593a8.644,8.644,0,0,1,4.076.945,6.718,6.718,0,0,1,2.816,2.8,9.207,9.207,0,0,1,1.015,4.478V10H61.719V-.777a5.6,5.6,0,0,0-1.294-3.971A4.607,4.607,0,0,0,56.891-6.13,4.664,4.664,0,0,0,53.34-4.748,5.548,5.548,0,0,0,52.028-.777V10H48.04V-9.278h3.988v2.2a6.6,6.6,0,0,1,2.5-1.854A8,8,0,0,1,57.766-9.593ZM75.4-6.025V4.646A2.048,2.048,0,0,0,75.905,6.2a2.522,2.522,0,0,0,1.732.472h2.449V10H76.937a6.069,6.069,0,0,1-4.128-1.259,5.191,5.191,0,0,1-1.434-4.093V-6.025H69.1V-9.278h2.274v-4.793H75.4v4.793h4.688v3.254ZM82.43.273A10.668,10.668,0,0,1,83.637-4.87a8.847,8.847,0,0,1,3.289-3.481,8.81,8.81,0,0,1,4.6-1.242A8.415,8.415,0,0,1,95.5-8.7,8.058,8.058,0,0,1,98.208-6.48v-2.8h4.023V10H98.208V7.13A7.921,7.921,0,0,1,95.444,9.4a8.518,8.518,0,0,1-3.988.91,8.476,8.476,0,0,1-4.548-1.277,9.056,9.056,0,0,1-3.271-3.568A10.978,10.978,0,0,1,82.43.273Zm15.778.07a6.98,6.98,0,0,0-.822-3.463A5.771,5.771,0,0,0,95.234-5.36a5.629,5.629,0,0,0-2.869-.77,5.73,5.73,0,0,0-2.869.752,5.673,5.673,0,0,0-2.152,2.2A6.881,6.881,0,0,0,86.523.273a7.181,7.181,0,0,0,.822,3.5,5.8,5.8,0,0,0,2.169,2.292,5.563,5.563,0,0,0,2.851.787,5.629,5.629,0,0,0,2.869-.77,5.742,5.742,0,0,0,2.152-2.257A7.08,7.08,0,0,0,98.208.342ZM111.467-15.89V10h-3.988V-15.89ZM138.44,10l-5.6-9.726H129.8V10h-3.988V-14.316h8.4a10.44,10.44,0,0,1,4.74.98,6.8,6.8,0,0,1,2.9,2.624,7.139,7.139,0,0,1,.962,3.673,7.28,7.28,0,0,1-1.382,4.321,7.013,7.013,0,0,1-4.251,2.641L143.2,10ZM129.8-2.911h4.408a4.625,4.625,0,0,0,3.376-1.12,4.031,4.031,0,0,0,1.137-3.009A3.889,3.889,0,0,0,137.6-10a4.757,4.757,0,0,0-3.394-1.067H129.8Zm35.789,2.8a12.469,12.469,0,0,1-.14,1.959H150.72a5.349,5.349,0,0,0,1.714,3.708,5.411,5.411,0,0,0,3.778,1.4,4.667,4.667,0,0,0,4.548-2.694h4.3A8.683,8.683,0,0,1,161.9,8.616a9.29,9.29,0,0,1-5.685,1.7,9.845,9.845,0,0,1-4.95-1.242,8.836,8.836,0,0,1-3.428-3.5,10.672,10.672,0,0,1-1.242-5.23,10.923,10.923,0,0,1,1.207-5.23,8.488,8.488,0,0,1,3.394-3.481,10.1,10.1,0,0,1,5.02-1.224A9.818,9.818,0,0,1,161.076-8.4,8.4,8.4,0,0,1,164.4-5.063,10.062,10.062,0,0,1,165.589-.112Zm-4.163-1.259a4.539,4.539,0,0,0-1.574-3.533,5.629,5.629,0,0,0-3.813-1.329A5.122,5.122,0,0,0,152.5-4.923a5.483,5.483,0,0,0-1.749,3.551ZM176.5,10.313a9.712,9.712,0,0,1-4.076-.822,7.159,7.159,0,0,1-2.851-2.239,5.581,5.581,0,0,1-1.12-3.166h4.128a2.815,2.815,0,0,0,1.172,2.047,4.255,4.255,0,0,0,2.676.822,4.508,4.508,0,0,0,2.606-.647,1.953,1.953,0,0,0,.927-1.662,1.706,1.706,0,0,0-1.032-1.609,19.346,19.346,0,0,0-3.271-1.154A31.571,31.571,0,0,1,172.131.727a6.194,6.194,0,0,1-2.361-1.714,4.493,4.493,0,0,1-1-3.044,4.746,4.746,0,0,1,.91-2.816,6.057,6.057,0,0,1,2.606-2.012,9.738,9.738,0,0,1,3.9-.735,8.055,8.055,0,0,1,5.3,1.662A5.967,5.967,0,0,1,183.641-3.4h-3.988a2.841,2.841,0,0,0-1.05-2.064,3.925,3.925,0,0,0-2.554-.77,4.145,4.145,0,0,0-2.414.595,1.841,1.841,0,0,0-.84,1.574,1.7,1.7,0,0,0,.56,1.294,3.987,3.987,0,0,0,1.364.822q.8.3,2.379.752A25.88,25.88,0,0,1,180.545-.06a6.415,6.415,0,0,1,2.326,1.7,4.489,4.489,0,0,1,1.015,2.974,4.987,4.987,0,0,1-.91,2.939A6.031,6.031,0,0,1,180.4,9.578,9.581,9.581,0,0,1,176.5,10.313ZM192.842-6.025V4.646a2.048,2.048,0,0,0,.507,1.557,2.522,2.522,0,0,0,1.732.472h2.449V10h-3.149a6.069,6.069,0,0,1-4.128-1.259,5.191,5.191,0,0,1-1.434-4.093V-6.025h-2.274V-9.278h2.274v-4.793h4.023v4.793h4.688v3.254Zm16.723,16.338a9.872,9.872,0,0,1-4.933-1.242,8.922,8.922,0,0,1-3.464-3.5,10.553,10.553,0,0,1-1.259-5.23A10.351,10.351,0,0,1,201.2-4.87a8.941,8.941,0,0,1,3.533-3.5,10.832,10.832,0,0,1,10.006,0,8.941,8.941,0,0,1,3.533,3.5A10.351,10.351,0,0,1,219.57.342a10.136,10.136,0,0,1-1.329,5.213,9.205,9.205,0,0,1-3.621,3.516A10.436,10.436,0,0,1,209.564,10.313Zm0-3.463a5.935,5.935,0,0,0,2.886-.735,5.6,5.6,0,0,0,2.187-2.2,7.086,7.086,0,0,0,.84-3.568,7.234,7.234,0,0,0-.8-3.551A5.432,5.432,0,0,0,212.538-5.4a5.836,5.836,0,0,0-2.869-.735,5.739,5.739,0,0,0-2.851.735,5.244,5.244,0,0,0-2.082,2.187,7.5,7.5,0,0,0-.77,3.551,6.764,6.764,0,0,0,1.592,4.81A5.26,5.26,0,0,0,209.564,6.85ZM227.512-6.48a6.263,6.263,0,0,1,2.326-2.292,6.881,6.881,0,0,1,3.446-.822v4.128H232.27a4.857,4.857,0,0,0-3.551,1.189q-1.207,1.189-1.207,4.128V10h-3.988V-9.278h3.988ZM235.628.273a10.668,10.668,0,0,1,1.207-5.143,8.847,8.847,0,0,1,3.289-3.481,8.81,8.81,0,0,1,4.6-1.242,8.415,8.415,0,0,1,3.971.892,8.058,8.058,0,0,1,2.711,2.222v-2.8h4.023V10h-4.023V7.13A7.921,7.921,0,0,1,248.643,9.4a8.518,8.518,0,0,1-3.988.91,8.476,8.476,0,0,1-4.548-1.277,9.056,9.056,0,0,1-3.271-3.568A10.978,10.978,0,0,1,235.628.273Zm15.778.07a6.98,6.98,0,0,0-.822-3.463,5.771,5.771,0,0,0-2.152-2.239,5.629,5.629,0,0,0-2.869-.77,5.73,5.73,0,0,0-2.869.752,5.673,5.673,0,0,0-2.152,2.2,6.881,6.881,0,0,0-.822,3.446,7.181,7.181,0,0,0,.822,3.5,5.8,5.8,0,0,0,2.169,2.292,5.563,5.563,0,0,0,2.851.787,5.629,5.629,0,0,0,2.869-.77,5.742,5.742,0,0,0,2.152-2.257A7.08,7.08,0,0,0,251.406.342ZM265.33-6.025V4.646a2.048,2.048,0,0,0,.507,1.557,2.522,2.522,0,0,0,1.732.472h2.449V10H266.87a6.069,6.069,0,0,1-4.128-1.259,5.191,5.191,0,0,1-1.434-4.093V-6.025h-2.274V-9.278h2.274v-4.793h4.023v4.793h4.688v3.254Zm10.391-5.807a2.471,2.471,0,0,1-1.819-.735,2.471,2.471,0,0,1-.735-1.819,2.471,2.471,0,0,1,.735-1.819,2.471,2.471,0,0,1,1.819-.735,2.429,2.429,0,0,1,1.784.735,2.471,2.471,0,0,1,.735,1.819,2.471,2.471,0,0,1-.735,1.819A2.429,2.429,0,0,1,275.721-11.832Zm1.959,2.554V10h-3.988V-9.278Zm13.609,19.591a9.872,9.872,0,0,1-4.933-1.242,8.922,8.922,0,0,1-3.464-3.5,10.553,10.553,0,0,1-1.259-5.23,10.351,10.351,0,0,1,1.294-5.213,8.941,8.941,0,0,1,3.533-3.5,10.832,10.832,0,0,1,10.006,0A8.941,8.941,0,0,1,300-4.87,10.351,10.351,0,0,1,301.295.342a10.136,10.136,0,0,1-1.329,5.213,9.205,9.205,0,0,1-3.621,3.516A10.437,10.437,0,0,1,291.289,10.313Zm0-3.463a5.935,5.935,0,0,0,2.886-.735,5.6,5.6,0,0,0,2.187-2.2A7.086,7.086,0,0,0,297.2.342a7.233,7.233,0,0,0-.8-3.551A5.432,5.432,0,0,0,294.263-5.4a5.836,5.836,0,0,0-2.869-.735,5.738,5.738,0,0,0-2.851.735,5.244,5.244,0,0,0-2.082,2.187,7.5,7.5,0,0,0-.77,3.551,6.764,6.764,0,0,0,1.592,4.81A5.26,5.26,0,0,0,291.289,6.85ZM314.974-9.593a8.644,8.644,0,0,1,4.076.945,6.718,6.718,0,0,1,2.816,2.8,9.207,9.207,0,0,1,1.015,4.478V10h-3.953V-.777a5.6,5.6,0,0,0-1.294-3.971A4.607,4.607,0,0,0,314.1-6.13a4.664,4.664,0,0,0-3.551,1.382,5.548,5.548,0,0,0-1.312,3.971V10h-3.988V-9.278h3.988v2.2a6.6,6.6,0,0,1,2.5-1.854A8,8,0,0,1,314.974-9.593ZM334.95,10.313a9.712,9.712,0,0,1-4.076-.822,7.159,7.159,0,0,1-2.851-2.239A5.581,5.581,0,0,1,326.9,4.086h4.128A2.815,2.815,0,0,0,332.2,6.132a4.256,4.256,0,0,0,2.676.822,4.508,4.508,0,0,0,2.606-.647,1.953,1.953,0,0,0,.927-1.662,1.706,1.706,0,0,0-1.032-1.609,19.345,19.345,0,0,0-3.271-1.154A31.572,31.572,0,0,1,330.577.727a6.194,6.194,0,0,1-2.361-1.714,4.493,4.493,0,0,1-1-3.044,4.747,4.747,0,0,1,.91-2.816,6.057,6.057,0,0,1,2.606-2.012,9.738,9.738,0,0,1,3.9-.735,8.055,8.055,0,0,1,5.3,1.662A5.967,5.967,0,0,1,342.087-3.4H338.1a2.841,2.841,0,0,0-1.05-2.064,3.925,3.925,0,0,0-2.554-.77,4.146,4.146,0,0,0-2.414.595,1.841,1.841,0,0,0-.84,1.574,1.7,1.7,0,0,0,.56,1.294,3.987,3.987,0,0,0,1.364.822q.8.3,2.379.752A25.879,25.879,0,0,1,338.991-.06a6.415,6.415,0,0,1,2.326,1.7,4.489,4.489,0,0,1,1.015,2.974,4.987,4.987,0,0,1-.91,2.939,6.03,6.03,0,0,1-2.571,2.029A9.581,9.581,0,0,1,334.95,10.313Z" transform="translate(-0.54 16.94)" fill="#fff"/>
      <path id="Path_3957" data-name="Path 3957" d="M7.332,7.735a7.827,7.827,0,0,1-3.285-.649,5.371,5.371,0,0,1-2.23-1.811,4.757,4.757,0,0,1-.865-2.6h2A3.8,3.8,0,0,0,4.169,5.1,4.388,4.388,0,0,0,7.332,6.14a4.442,4.442,0,0,0,3.041-.987,3.185,3.185,0,0,0,1.122-2.5,2.954,2.954,0,0,0-.622-1.96A3.806,3.806,0,0,0,9.332-.416a23.906,23.906,0,0,0-2.541-.8,22.217,22.217,0,0,1-3-1A4.776,4.776,0,0,1,1.9-3.728a4.482,4.482,0,0,1-.784-2.784,4.635,4.635,0,0,1,.757-2.609,5.07,5.07,0,0,1,2.136-1.8,7.347,7.347,0,0,1,3.163-.649A6.58,6.58,0,0,1,11.4-10.283a4.825,4.825,0,0,1,1.852,3.312H11.2A3.4,3.4,0,0,0,9.927-9.04a4.4,4.4,0,0,0-2.92-.906,4.409,4.409,0,0,0-2.839.906A2.993,2.993,0,0,0,3.034-6.566a2.858,2.858,0,0,0,.622,1.919A3.963,3.963,0,0,0,5.21-3.538a23.026,23.026,0,0,0,2.528.811,22.827,22.827,0,0,1,2.974,1.014A4.844,4.844,0,0,1,12.631-.186a4.434,4.434,0,0,1,.784,2.757,4.865,4.865,0,0,1-.7,2.514A5.13,5.13,0,0,1,10.63,7,6.961,6.961,0,0,1,7.332,7.735Zm11.6-11.706a5.969,5.969,0,0,1,2.23-2.474A6.554,6.554,0,0,1,24.8-7.431,7.062,7.062,0,0,1,28.4-6.5a6.486,6.486,0,0,1,2.514,2.649A8.423,8.423,0,0,1,31.824.138a8.5,8.5,0,0,1-.906,4A6.557,6.557,0,0,1,28.4,6.815a6.984,6.984,0,0,1-3.609.946,6.571,6.571,0,0,1-3.623-.987A5.944,5.944,0,0,1,18.929,4.3V14.52H17.064V-7.215h1.865ZM29.905.138a6.639,6.639,0,0,0-.716-3.176,4.982,4.982,0,0,0-1.96-2.041,5.613,5.613,0,0,0-2.812-.7,5.419,5.419,0,0,0-2.771.73,5.208,5.208,0,0,0-1.987,2.082,6.5,6.5,0,0,0-.73,3.136,6.5,6.5,0,0,0,.73,3.136,5.208,5.208,0,0,0,1.987,2.082,5.419,5.419,0,0,0,2.771.73A5.529,5.529,0,0,0,27.229,5.4a5.035,5.035,0,0,0,1.96-2.082A6.74,6.74,0,0,0,29.905.138Zm18.761-.73q0,.973-.054,1.487H36.366a5.941,5.941,0,0,0,.811,2.866,4.775,4.775,0,0,0,1.919,1.8,5.617,5.617,0,0,0,2.6.608,5.212,5.212,0,0,0,3.1-.892A4.189,4.189,0,0,0,46.45,2.869h2A6.251,6.251,0,0,1,46.139,6.4a7.068,7.068,0,0,1-4.447,1.365,7.444,7.444,0,0,1-3.731-.933A6.586,6.586,0,0,1,35.379,4.18,8.282,8.282,0,0,1,34.447.165a8.461,8.461,0,0,1,.919-4.028,6.389,6.389,0,0,1,2.568-2.649,7.586,7.586,0,0,1,3.758-.919,7.211,7.211,0,0,1,3.69.919,6.352,6.352,0,0,1,2.433,2.474A7.055,7.055,0,0,1,48.666-.592ZM46.747-.646a5.244,5.244,0,0,0-.662-2.812,4.47,4.47,0,0,0-1.879-1.757,5.721,5.721,0,0,0-2.6-.595,5.156,5.156,0,0,0-3.6,1.352A5.4,5.4,0,0,0,36.366-.646Zm4.515.811a8.381,8.381,0,0,1,.919-4.015A6.548,6.548,0,0,1,54.722-6.5a7.3,7.3,0,0,1,3.7-.933,7.207,7.207,0,0,1,4.5,1.352A6.119,6.119,0,0,1,65.211-2.4H63.184a4.15,4.15,0,0,0-1.636-2.5,5.2,5.2,0,0,0-3.122-.906,5.321,5.321,0,0,0-2.676.676A4.739,4.739,0,0,0,53.87-3.119,7.112,7.112,0,0,0,53.181.165a7.2,7.2,0,0,0,.689,3.3,4.724,4.724,0,0,0,1.879,2.028,5.321,5.321,0,0,0,2.676.676,5.2,5.2,0,0,0,3.122-.906,4.161,4.161,0,0,0,1.636-2.528h2.028a6.191,6.191,0,0,1-2.3,3.65,7.122,7.122,0,0,1-4.488,1.379,7.3,7.3,0,0,1-3.7-.933A6.548,6.548,0,0,1,52.181,4.18,8.381,8.381,0,0,1,51.262.165ZM69.645-10a1.327,1.327,0,0,1-.973-.406,1.359,1.359,0,0,1-.405-1,1.315,1.315,0,0,1,.405-.987,1.351,1.351,0,0,1,.973-.392,1.351,1.351,0,0,1,.973.392,1.315,1.315,0,0,1,.406.987,1.359,1.359,0,0,1-.406,1A1.327,1.327,0,0,1,69.645-10Zm.946,2.784V7.545H68.7V-7.215ZM74.024.138a8.423,8.423,0,0,1,.906-3.987A6.486,6.486,0,0,1,77.444-6.5a7.115,7.115,0,0,1,3.636-.933,6.622,6.622,0,0,1,3.636.973,5.664,5.664,0,0,1,2.2,2.487V-7.215h1.892V7.545H86.919V4.274a5.928,5.928,0,0,1-2.23,2.5,6.554,6.554,0,0,1-3.636.987,6.984,6.984,0,0,1-3.609-.946A6.557,6.557,0,0,1,74.93,4.139,8.5,8.5,0,0,1,74.024.138Zm12.9.027a6.5,6.5,0,0,0-.73-3.136A5.208,5.208,0,0,0,84.2-5.052a5.419,5.419,0,0,0-2.771-.73,5.613,5.613,0,0,0-2.812.7,4.982,4.982,0,0,0-1.96,2.041A6.639,6.639,0,0,0,75.943.138a6.74,6.74,0,0,0,.716,3.176A5.035,5.035,0,0,0,78.62,5.4a5.53,5.53,0,0,0,2.812.716,5.419,5.419,0,0,0,2.771-.73A5.208,5.208,0,0,0,86.189,3.3,6.5,6.5,0,0,0,86.919.165Zm8.11-12.625v20H93.137v-20ZM100.274-10a1.327,1.327,0,0,1-.973-.406,1.359,1.359,0,0,1-.406-1,1.315,1.315,0,0,1,.406-.987,1.351,1.351,0,0,1,.973-.392,1.35,1.35,0,0,1,.973.392,1.315,1.315,0,0,1,.406.987,1.359,1.359,0,0,1-.406,1A1.327,1.327,0,0,1,100.274-10Zm.946,2.784V7.545H99.328V-7.215ZM110.6,7.762a6.857,6.857,0,0,1-4.15-1.176,4.285,4.285,0,0,1-1.8-3.2H106.6A2.792,2.792,0,0,0,107.776,5.4a4.6,4.6,0,0,0,2.8.77,3.675,3.675,0,0,0,2.42-.73,2.264,2.264,0,0,0,.879-1.811,1.684,1.684,0,0,0-.487-1.244,3.452,3.452,0,0,0-1.23-.77A19.2,19.2,0,0,0,110.141,1a20.48,20.48,0,0,1-2.676-.865,4.559,4.559,0,0,1-1.744-1.284A3.433,3.433,0,0,1,105-3.43a3.4,3.4,0,0,1,.649-2,4.427,4.427,0,0,1,1.838-1.46,6.465,6.465,0,0,1,2.7-.541,5.843,5.843,0,0,1,3.839,1.2A4.368,4.368,0,0,1,115.6-2.917H113.71a2.874,2.874,0,0,0-1.014-2.1,3.8,3.8,0,0,0-2.555-.8,3.748,3.748,0,0,0-2.325.676,2.033,2.033,0,0,0-.892,1.676,1.976,1.976,0,0,0,.527,1.419,3.622,3.622,0,0,0,1.311.865q.784.311,2.109.689a19.913,19.913,0,0,1,2.541.838,4.408,4.408,0,0,1,1.622,1.189,3.184,3.184,0,0,1,.7,2.082,3.626,3.626,0,0,1-.649,2.122,4.413,4.413,0,0,1-1.811,1.473A6.281,6.281,0,0,1,110.6,7.762ZM121.766-5.62V3.544a2.624,2.624,0,0,0,.514,1.865,2.53,2.53,0,0,0,1.811.514h1.73V7.545h-2.028a4.158,4.158,0,0,1-2.974-.933,4.109,4.109,0,0,1-.973-3.068V-5.62h-2.055V-7.215h2.055v-3.7h1.919v3.7h4.055V-5.62ZM134.012,7.762a6.857,6.857,0,0,1-4.15-1.176,4.285,4.285,0,0,1-1.8-3.2h1.946A2.792,2.792,0,0,0,131.187,5.4a4.6,4.6,0,0,0,2.8.77,3.675,3.675,0,0,0,2.42-.73,2.264,2.264,0,0,0,.879-1.811,1.684,1.684,0,0,0-.487-1.244,3.452,3.452,0,0,0-1.23-.77A19.2,19.2,0,0,0,133.552,1a20.48,20.48,0,0,1-2.676-.865,4.559,4.559,0,0,1-1.744-1.284,3.433,3.433,0,0,1-.716-2.284,3.4,3.4,0,0,1,.649-2,4.428,4.428,0,0,1,1.838-1.46,6.465,6.465,0,0,1,2.7-.541,5.843,5.843,0,0,1,3.839,1.2,4.368,4.368,0,0,1,1.568,3.312h-1.892a2.874,2.874,0,0,0-1.014-2.1,3.8,3.8,0,0,0-2.555-.8,3.748,3.748,0,0,0-2.325.676,2.033,2.033,0,0,0-.892,1.676,1.976,1.976,0,0,0,.527,1.419,3.622,3.622,0,0,0,1.311.865q.784.311,2.109.689a19.914,19.914,0,0,1,2.541.838,4.408,4.408,0,0,1,1.622,1.189,3.184,3.184,0,0,1,.7,2.082,3.626,3.626,0,0,1-.649,2.122,4.413,4.413,0,0,1-1.811,1.473A6.281,6.281,0,0,1,134.012,7.762ZM151.07-10a1.327,1.327,0,0,1-.973-.406,1.359,1.359,0,0,1-.406-1,1.315,1.315,0,0,1,.406-.987,1.351,1.351,0,0,1,.973-.392,1.351,1.351,0,0,1,.973.392,1.315,1.315,0,0,1,.406.987,1.359,1.359,0,0,1-.406,1A1.327,1.327,0,0,1,151.07-10Zm.946,2.784V7.545h-1.892V-7.215Zm11.219-.27a5.933,5.933,0,0,1,4.325,1.636,6.333,6.333,0,0,1,1.676,4.744V7.545h-1.865V-.889a5.149,5.149,0,0,0-1.2-3.677,4.307,4.307,0,0,0-3.285-1.271,4.452,4.452,0,0,0-3.406,1.352,5.6,5.6,0,0,0-1.271,3.974V7.545h-1.892V-7.215h1.892V-4.7a4.83,4.83,0,0,1,2.028-2.068A6.206,6.206,0,0,1,163.235-7.485Zm23.195-3.866a11.794,11.794,0,0,1,5.38,1.135,7.927,7.927,0,0,1,3.433,3.271,10.287,10.287,0,0,1,1.189,5.082,10.152,10.152,0,0,1-1.189,5.042,7.868,7.868,0,0,1-3.433,3.244,11.914,11.914,0,0,1-5.38,1.122h-5.6v-18.9Zm0,17.329a8.148,8.148,0,0,0,6.015-2.068,7.8,7.8,0,0,0,2.068-5.772,7.934,7.934,0,0,0-2.068-5.826,8.085,8.085,0,0,0-6.015-2.1h-3.7V5.977ZM213.275-.592q0,.973-.054,1.487H200.974a5.94,5.94,0,0,0,.811,2.866,4.775,4.775,0,0,0,1.919,1.8,5.617,5.617,0,0,0,2.6.608,5.212,5.212,0,0,0,3.1-.892,4.189,4.189,0,0,0,1.663-2.406h2A6.251,6.251,0,0,1,210.747,6.4,7.068,7.068,0,0,1,206.3,7.762a7.444,7.444,0,0,1-3.731-.933,6.586,6.586,0,0,1-2.582-2.649,8.282,8.282,0,0,1-.933-4.015,8.461,8.461,0,0,1,.919-4.028,6.389,6.389,0,0,1,2.568-2.649,7.586,7.586,0,0,1,3.758-.919,7.211,7.211,0,0,1,3.69.919,6.352,6.352,0,0,1,2.433,2.474A7.054,7.054,0,0,1,213.275-.592Zm-1.919-.054a5.244,5.244,0,0,0-.662-2.812,4.47,4.47,0,0,0-1.879-1.757,5.721,5.721,0,0,0-2.6-.595,5.156,5.156,0,0,0-3.6,1.352,5.4,5.4,0,0,0-1.649,3.812Zm12.3-6.84a5.933,5.933,0,0,1,4.325,1.636,6.333,6.333,0,0,1,1.676,4.744V7.545h-1.865V-.889a5.149,5.149,0,0,0-1.2-3.677A4.307,4.307,0,0,0,223.3-5.836,4.452,4.452,0,0,0,219.9-4.485a5.6,5.6,0,0,0-1.271,3.974V7.545h-1.892V-7.215h1.892V-4.7a4.83,4.83,0,0,1,2.028-2.068A6.206,6.206,0,0,1,223.656-7.485ZM236.307-5.62V3.544a2.624,2.624,0,0,0,.514,1.865,2.53,2.53,0,0,0,1.811.514h1.73V7.545h-2.028a4.158,4.158,0,0,1-2.974-.933,4.108,4.108,0,0,1-.973-3.068V-5.62h-2.055V-7.215h2.055v-3.7h1.919v3.7h4.055V-5.62Zm6.3,5.758a8.423,8.423,0,0,1,.906-3.987A6.486,6.486,0,0,1,246.026-6.5a7.115,7.115,0,0,1,3.636-.933,6.622,6.622,0,0,1,3.636.973,5.664,5.664,0,0,1,2.2,2.487V-7.215h1.892V7.545H255.5V4.274a5.928,5.928,0,0,1-2.23,2.5,6.554,6.554,0,0,1-3.636.987,6.984,6.984,0,0,1-3.609-.946,6.557,6.557,0,0,1-2.514-2.676A8.5,8.5,0,0,1,242.606.138Zm12.9.027a6.5,6.5,0,0,0-.73-3.136,5.208,5.208,0,0,0-1.987-2.082,5.419,5.419,0,0,0-2.771-.73,5.613,5.613,0,0,0-2.812.7,4.982,4.982,0,0,0-1.96,2.041,6.639,6.639,0,0,0-.716,3.176,6.74,6.74,0,0,0,.716,3.176A5.035,5.035,0,0,0,247.2,5.4a5.53,5.53,0,0,0,2.812.716,5.419,5.419,0,0,0,2.771-.73A5.208,5.208,0,0,0,254.771,3.3,6.5,6.5,0,0,0,255.5.165Zm8.11-12.625v20h-1.892v-20Zm21.762,20L280.7-.349h-3.487V7.545h-1.892v-18.9h5.677a6.828,6.828,0,0,1,4.8,1.514,5.161,5.161,0,0,1,1.636,3.974,5.372,5.372,0,0,1-1.176,3.5,5.628,5.628,0,0,1-3.474,1.879l4.866,8.029Zm-8.164-9.435h3.812a4.636,4.636,0,0,0,3.339-1.081,3.831,3.831,0,0,0,1.122-2.893A3.754,3.754,0,0,0,284.4-8.742a4.856,4.856,0,0,0-3.406-1.014h-3.785Zm27.331,1.3q0,.973-.054,1.487H292.24a5.941,5.941,0,0,0,.811,2.866,4.775,4.775,0,0,0,1.919,1.8,5.617,5.617,0,0,0,2.6.608,5.212,5.212,0,0,0,3.1-.892,4.189,4.189,0,0,0,1.663-2.406h2A6.25,6.25,0,0,1,302.013,6.4a7.068,7.068,0,0,1-4.447,1.365,7.444,7.444,0,0,1-3.731-.933,6.586,6.586,0,0,1-2.582-2.649,8.282,8.282,0,0,1-.933-4.015,8.461,8.461,0,0,1,.919-4.028,6.389,6.389,0,0,1,2.568-2.649,7.586,7.586,0,0,1,3.758-.919,7.211,7.211,0,0,1,3.69.919,6.353,6.353,0,0,1,2.433,2.474A7.055,7.055,0,0,1,304.54-.592Zm-1.919-.054a5.244,5.244,0,0,0-.662-2.812,4.47,4.47,0,0,0-1.879-1.757,5.721,5.721,0,0,0-2.6-.595,5.156,5.156,0,0,0-3.6,1.352A5.4,5.4,0,0,0,292.24-.646Zm10.462,8.407a6.857,6.857,0,0,1-4.15-1.176,4.285,4.285,0,0,1-1.8-3.2h1.946A2.792,2.792,0,0,0,310.258,5.4a4.6,4.6,0,0,0,2.8.77,3.675,3.675,0,0,0,2.419-.73,2.264,2.264,0,0,0,.879-1.811,1.684,1.684,0,0,0-.487-1.244,3.452,3.452,0,0,0-1.23-.77A19.2,19.2,0,0,0,312.623,1a20.48,20.48,0,0,1-2.676-.865A4.559,4.559,0,0,1,308.2-1.146a3.433,3.433,0,0,1-.716-2.284,3.4,3.4,0,0,1,.649-2,4.427,4.427,0,0,1,1.838-1.46,6.465,6.465,0,0,1,2.7-.541,5.843,5.843,0,0,1,3.839,1.2,4.369,4.369,0,0,1,1.568,3.312h-1.892a2.874,2.874,0,0,0-1.014-2.1,3.8,3.8,0,0,0-2.555-.8,3.748,3.748,0,0,0-2.325.676,2.033,2.033,0,0,0-.892,1.676,1.976,1.976,0,0,0,.527,1.419,3.622,3.622,0,0,0,1.311.865q.784.311,2.109.689a19.914,19.914,0,0,1,2.541.838,4.408,4.408,0,0,1,1.622,1.189,3.184,3.184,0,0,1,.7,2.082,3.626,3.626,0,0,1-.649,2.122,4.413,4.413,0,0,1-1.811,1.473A6.281,6.281,0,0,1,313.083,7.762ZM324.248-5.62V3.544a2.624,2.624,0,0,0,.514,1.865,2.53,2.53,0,0,0,1.811.514h1.73V7.545h-2.028a4.158,4.158,0,0,1-2.974-.933,4.108,4.108,0,0,1-.973-3.068V-5.62h-2.055V-7.215h2.055v-3.7h1.919v3.7H328.3V-5.62ZM337.873,7.762a7.52,7.52,0,0,1-3.744-.933,6.741,6.741,0,0,1-2.622-2.649,8.093,8.093,0,0,1-.96-4.015,8,8,0,0,1,.973-4.015A6.807,6.807,0,0,1,334.169-6.5a7.6,7.6,0,0,1,3.758-.933A7.672,7.672,0,0,1,341.7-6.5a6.69,6.69,0,0,1,2.649,2.649,8.093,8.093,0,0,1,.96,4.015,8.022,8.022,0,0,1-.973,4,6.733,6.733,0,0,1-2.676,2.663A7.748,7.748,0,0,1,337.873,7.762Zm0-1.649a5.661,5.661,0,0,0,2.7-.662,5.055,5.055,0,0,0,2.014-2,6.489,6.489,0,0,0,.77-3.285,6.583,6.583,0,0,0-.757-3.285,4.969,4.969,0,0,0-2-2,5.662,5.662,0,0,0-2.7-.662,5.662,5.662,0,0,0-2.7.662,4.884,4.884,0,0,0-1.987,2,6.68,6.68,0,0,0-.743,3.285,6.68,6.68,0,0,0,.743,3.285,4.908,4.908,0,0,0,1.973,2A5.583,5.583,0,0,0,337.873,6.113ZM350.66-4.593a4.624,4.624,0,0,1,1.906-2.136,6.105,6.105,0,0,1,3.149-.757v1.973H355.2A4.773,4.773,0,0,0,351.9-4.4,4.755,4.755,0,0,0,350.66-.7V7.545h-1.892V-7.215h1.892ZM357.689.138a8.423,8.423,0,0,1,.906-3.987A6.486,6.486,0,0,1,361.108-6.5a7.115,7.115,0,0,1,3.636-.933,6.622,6.622,0,0,1,3.636.973,5.664,5.664,0,0,1,2.2,2.487V-7.215h1.892V7.545h-1.892V4.274a5.927,5.927,0,0,1-2.23,2.5,6.554,6.554,0,0,1-3.636.987,6.984,6.984,0,0,1-3.609-.946,6.557,6.557,0,0,1-2.514-2.676A8.5,8.5,0,0,1,357.689.138Zm12.9.027a6.5,6.5,0,0,0-.73-3.136,5.208,5.208,0,0,0-1.987-2.082,5.419,5.419,0,0,0-2.771-.73,5.613,5.613,0,0,0-2.812.7,4.982,4.982,0,0,0-1.96,2.041,6.639,6.639,0,0,0-.716,3.176,6.74,6.74,0,0,0,.716,3.176,5.035,5.035,0,0,0,1.96,2.082,5.53,5.53,0,0,0,2.812.716,5.419,5.419,0,0,0,2.771-.73A5.208,5.208,0,0,0,369.854,3.3,6.5,6.5,0,0,0,370.584.165Zm8.678-5.785V3.544a2.624,2.624,0,0,0,.514,1.865,2.53,2.53,0,0,0,1.811.514h1.73V7.545h-2.027a4.158,4.158,0,0,1-2.974-.933,4.109,4.109,0,0,1-.973-3.068V-5.62h-2.055V-7.215h2.055v-3.7h1.919v3.7h4.055V-5.62ZM387.372-10a1.327,1.327,0,0,1-.973-.406,1.359,1.359,0,0,1-.405-1,1.315,1.315,0,0,1,.405-.987,1.351,1.351,0,0,1,.973-.392,1.35,1.35,0,0,1,.973.392,1.315,1.315,0,0,1,.406.987,1.359,1.359,0,0,1-.406,1A1.327,1.327,0,0,1,387.372-10Zm.946,2.784V7.545h-1.892V-7.215ZM399.077,7.762a7.52,7.52,0,0,1-3.744-.933,6.741,6.741,0,0,1-2.622-2.649,8.093,8.093,0,0,1-.96-4.015,8,8,0,0,1,.973-4.015A6.807,6.807,0,0,1,395.374-6.5a7.6,7.6,0,0,1,3.758-.933A7.672,7.672,0,0,1,402.9-6.5a6.69,6.69,0,0,1,2.649,2.649,8.093,8.093,0,0,1,.96,4.015,8.022,8.022,0,0,1-.973,4,6.733,6.733,0,0,1-2.676,2.663A7.748,7.748,0,0,1,399.077,7.762Zm0-1.649a5.661,5.661,0,0,0,2.7-.662,5.055,5.055,0,0,0,2.014-2,6.49,6.49,0,0,0,.77-3.285,6.583,6.583,0,0,0-.757-3.285,4.969,4.969,0,0,0-2-2,5.661,5.661,0,0,0-2.7-.662,5.662,5.662,0,0,0-2.7.662,4.884,4.884,0,0,0-1.987,2A6.681,6.681,0,0,0,393.67.165a6.681,6.681,0,0,0,.743,3.285,4.909,4.909,0,0,0,1.973,2A5.583,5.583,0,0,0,399.077,6.113Zm17.815-13.6a5.933,5.933,0,0,1,4.325,1.636,6.333,6.333,0,0,1,1.676,4.744V7.545h-1.865V-.889a5.149,5.149,0,0,0-1.2-3.677,4.307,4.307,0,0,0-3.285-1.271,4.452,4.452,0,0,0-3.406,1.352,5.6,5.6,0,0,0-1.271,3.974V7.545h-1.892V-7.215h1.892V-4.7a4.83,4.83,0,0,1,2.028-2.068A6.206,6.206,0,0,1,416.892-7.485ZM432.166,7.762a6.857,6.857,0,0,1-4.15-1.176,4.285,4.285,0,0,1-1.8-3.2h1.946A2.792,2.792,0,0,0,429.341,5.4a4.6,4.6,0,0,0,2.8.77,3.675,3.675,0,0,0,2.419-.73,2.264,2.264,0,0,0,.879-1.811,1.684,1.684,0,0,0-.487-1.244,3.452,3.452,0,0,0-1.23-.77A19.2,19.2,0,0,0,431.707,1,20.481,20.481,0,0,1,429.03.138a4.559,4.559,0,0,1-1.744-1.284,3.433,3.433,0,0,1-.716-2.284,3.4,3.4,0,0,1,.649-2,4.428,4.428,0,0,1,1.838-1.46,6.465,6.465,0,0,1,2.7-.541,5.843,5.843,0,0,1,3.839,1.2,4.368,4.368,0,0,1,1.568,3.312h-1.892a2.874,2.874,0,0,0-1.014-2.1,3.8,3.8,0,0,0-2.555-.8,3.748,3.748,0,0,0-2.325.676,2.033,2.033,0,0,0-.892,1.676,1.976,1.976,0,0,0,.527,1.419,3.622,3.622,0,0,0,1.311.865q.784.311,2.109.689a19.912,19.912,0,0,1,2.541.838A4.407,4.407,0,0,1,436.6,1.544a3.184,3.184,0,0,1,.7,2.082,3.626,3.626,0,0,1-.649,2.122,4.413,4.413,0,0,1-1.811,1.473A6.28,6.28,0,0,1,432.166,7.762Z" transform="translate(-0.952 56.641)" fill="#fff"/>
    </g>
    <g id="Mask_Group_39" data-name="Mask Group 39" transform="translate(-38 -106.24)" clip-path="url(#clip-path)">
      <g id="safety-hero-dots" transform="translate(-76.189 -71.515)" clip-path="url(#clip-path-2)">
        <g id="Group_1474" data-name="Group 1474" transform="translate(-0.063 -0.065)" clip-path="url(#clip-path-3)">
          <path id="Path_3950" data-name="Path 3950" d="M-8.19-8.19H207.222V207.222H-8.19Z" transform="translate(5.463 5.463)" fill="#fff"/>
        </g>
      </g>
      <g id="safety-hero-dots-2" data-name="safety-hero-dots" transform="translate(701.499 307.985)" clip-path="url(#clip-path-2)">
        <g id="Group_1475" data-name="Group 1475" transform="translate(-0.063 -0.065)" clip-path="url(#clip-path-3)">
          <path id="Path_3953" data-name="Path 3953" d="M-8.19-8.19H207.222V207.222H-8.19Z" transform="translate(5.463 5.463)" fill="#fff"/>
        </g>
      </g>
    </g>
  </g>
</svg>
