<svg xmlns="http://www.w3.org/2000/svg" width="819" height="460" viewBox="0 0 819 460">
  <g id="golang" transform="translate(-1050 -886)">
    <rect id="bg" width="819" height="460" transform="translate(1050 886)" fill="#00acd7"/>
    <g id="logo" transform="translate(1231.125 1035.162)">
      <g id="Group_1499" data-name="Group 1499" transform="translate(31.815 41.158)">
        <g id="Group_1498" data-name="Group 1498">
          <g id="Group_1497" data-name="Group 1497">
            <path id="Path_3979" data-name="Path 3979" d="M40.643,105.2c-.843,0-1.053-.421-.632-1.053l4.425-5.689A3.018,3.018,0,0,1,46.753,97.4h75.218c.843,0,1.053.632.632,1.264l-3.582,5.478a3.21,3.21,0,0,1-2.107,1.264Z" transform="translate(-39.8 -97.4)" fill="#fff"/>
          </g>
        </g>
      </g>
      <g id="Group_1502" data-name="Group 1502" transform="translate(0 60.542)">
        <g id="Group_1501" data-name="Group 1501">
          <g id="Group_1500" data-name="Group 1500">
            <path id="Path_3980" data-name="Path 3980" d="M25.543,114.4c-.843,0-1.053-.421-.632-1.053l4.425-5.689a3.018,3.018,0,0,1,2.318-1.053h96.076a.968.968,0,0,1,1.053,1.264l-1.686,5.057a1.843,1.843,0,0,1-1.9,1.264Z" transform="translate(-24.7 -106.6)" fill="#fff"/>
          </g>
        </g>
      </g>
      <g id="Group_1505" data-name="Group 1505" transform="translate(50.988 79.925)">
        <g id="Group_1504" data-name="Group 1504" transform="translate(0 0)">
          <g id="Group_1503" data-name="Group 1503">
            <path id="Path_3981" data-name="Path 3981" d="M49.743,123.6c-.843,0-1.053-.632-.632-1.264l2.95-5.267a2.794,2.794,0,0,1,2.107-1.264H96.306c.843,0,1.264.632,1.264,1.475l-.421,5.057a1.583,1.583,0,0,1-1.475,1.475Z" transform="translate(-48.9 -115.8)" fill="#fff"/>
          </g>
        </g>
      </g>
      <g id="Group_1509" data-name="Group 1509" transform="translate(114.86 0)">
        <g id="CXHf1q_3_">
          <g id="Group_1508" data-name="Group 1508">
            <g id="Group_1506" data-name="Group 1506">
              <path id="Path_3982" data-name="Path 3982" d="M234.886,123.027c-13.274,3.371-22.334,5.9-35.4,9.271-3.16.843-3.371,1.053-6.11-2.107-3.16-3.582-5.478-5.9-9.9-8.006-13.274-6.531-26.126-4.635-38.136,3.16-14.327,9.271-21.7,22.966-21.491,40.032.211,16.856,11.8,30.761,28.444,33.079,14.327,1.9,26.337-3.16,35.818-13.906,1.9-2.318,3.582-4.846,5.689-7.8H153.137c-4.425,0-5.478-2.739-4-6.321,2.739-6.532,7.8-17.488,10.745-22.966a5.689,5.689,0,0,1,5.267-3.371h76.693c-.421,5.689-.421,11.377-1.264,17.066a89.856,89.856,0,0,1-17.277,41.3c-15.17,20.016-34.975,32.447-60.048,35.818-20.648,2.739-39.821-1.264-56.677-13.906-15.591-11.8-24.441-27.39-26.758-46.774-2.739-22.966,4-43.614,17.909-61.733,14.959-19.595,34.765-32.025,58.994-36.45,19.805-3.582,38.768-1.264,55.834,10.324a66.045,66.045,0,0,1,24.441,29.708C238.257,121.341,237.415,122.394,234.886,123.027Z" transform="translate(-79.215 -77.866)" fill="#fff"/>
            </g>
            <g id="Group_1507" data-name="Group 1507" transform="translate(150.186 1.951)">
              <path id="Path_3983" data-name="Path 3983" d="M225.722,238.515c-19.173-.421-36.661-5.9-51.409-18.541a66.079,66.079,0,0,1-22.755-40.664c-3.792-23.808,2.739-44.878,17.066-63.63C184,95.454,202.545,84.919,227.618,80.495c21.491-3.792,41.717-1.686,60.048,10.745,16.645,11.377,26.969,26.758,29.708,46.985,3.582,28.444-4.635,51.62-24.23,71.425-13.906,14.117-30.972,22.966-50.567,26.969C236.889,237.672,231.2,237.883,225.722,238.515Zm50.145-85.12a60.635,60.635,0,0,0-.632-6.953c-3.793-20.859-22.966-32.658-42.982-28.022-19.595,4.425-32.236,16.856-36.871,36.661-3.792,16.434,4.214,33.079,19.384,39.821,11.588,5.057,23.176,4.425,34.343-1.264C265.754,185,274.813,171.515,275.867,153.395Z" transform="translate(-150.496 -78.792)" fill="#fff"/>
            </g>
          </g>
        </g>
      </g>
    </g>
  </g>
</svg>
