<svg id="javascript" xmlns="http://www.w3.org/2000/svg" width="820" height="460" viewBox="0 0 820 460">
  <rect id="bg" width="820" height="460" fill="#fff"/>
  <g id="logo" transform="translate(298 118)">
    <rect id="Rectangle_2289" data-name="Rectangle 2289" width="225" height="225" fill="#f7df1e"/>
    <path id="Path_4057" data-name="Path 4057" d="M257.851,359.625c4.536,7.406,10.437,12.849,20.873,12.849,8.767,0,14.368-4.382,14.368-10.437,0-7.256-5.754-9.825-15.4-14.047l-5.29-2.27c-15.269-6.505-25.412-14.654-25.412-31.882,0-15.869,12.091-27.95,30.988-27.95,13.453,0,23.125,4.682,30.095,16.942l-16.477,10.58c-3.628-6.505-7.542-9.068-13.618-9.068-6.2,0-10.126,3.932-10.126,9.068,0,6.348,3.932,8.918,13.01,12.849l5.29,2.266c17.978,7.71,28.129,15.569,28.129,33.24,0,19.05-14.965,29.487-35.063,29.487-19.651,0-32.346-9.364-38.558-21.638ZM183.1,361.459c3.324,5.9,6.348,10.883,13.618,10.883,6.952,0,11.337-2.72,11.337-13.3V287.1h21.159v72.234c0,21.91-12.846,31.882-31.6,31.882-16.942,0-26.753-8.767-31.742-19.327Z" transform="translate(-106.591 -183.708)"/>
  </g>
</svg>
