<svg id="laravel" xmlns="http://www.w3.org/2000/svg" width="820" height="460" viewBox="0 0 820 460">
  <rect id="bg" width="820" height="460" fill="#fff"/>
  <path id="laravel-2" data-name="laravel" d="M181.7,31.765V93.942h22.657v10.725H169.633v-72.9Zm65.241,30.93V56.138h11.432v48.529H246.935V98.1a15.711,15.711,0,0,1-6.557,5.728,19.248,19.248,0,0,1-8.546,2.081,25.01,25.01,0,0,1-10.174-2.029,23.8,23.8,0,0,1-7.92-5.571A26.015,26.015,0,0,1,206.762,80.4a26.2,26.2,0,0,1,1.837-9.738,25.763,25.763,0,0,1,5.137-8.172,23.817,23.817,0,0,1,7.92-5.574,24.966,24.966,0,0,1,10.174-2.032,19.24,19.24,0,0,1,8.549,2.086,15.757,15.757,0,0,1,6.557,5.725Zm-1.051,23.641a17.287,17.287,0,0,0,0-11.873,15.033,15.033,0,0,0-2.934-4.894,14.211,14.211,0,0,0-4.563-3.333,13.865,13.865,0,0,0-5.929-1.249,13.5,13.5,0,0,0-5.874,1.249,14.138,14.138,0,0,0-7.392,8.226,18.164,18.164,0,0,0,0,11.871,14.133,14.133,0,0,0,7.392,8.229,13.463,13.463,0,0,0,5.874,1.249,13.855,13.855,0,0,0,5.929-1.246,14.182,14.182,0,0,0,4.563-3.333,15.019,15.019,0,0,0,2.934-4.9Zm21.5,18.328V56.135h31.049V67.3H278.821v37.36ZM339.87,62.695V56.138H351.3v48.529H339.868V98.1a15.728,15.728,0,0,1-6.557,5.728,19.248,19.248,0,0,1-8.546,2.081,25,25,0,0,1-10.174-2.029,23.8,23.8,0,0,1-7.92-5.571A26.015,26.015,0,0,1,299.7,80.4a26.148,26.148,0,0,1,1.837-9.738,25.763,25.763,0,0,1,5.137-8.172,23.818,23.818,0,0,1,7.92-5.574,24.957,24.957,0,0,1,10.174-2.032,19.239,19.239,0,0,1,8.549,2.086,15.774,15.774,0,0,1,6.557,5.725Zm-1.051,23.641a17.329,17.329,0,0,0,0-11.873,15.031,15.031,0,0,0-2.937-4.894,14.211,14.211,0,0,0-4.563-3.333,13.845,13.845,0,0,0-5.926-1.249,13.5,13.5,0,0,0-5.874,1.249,14.154,14.154,0,0,0-7.394,8.226,18.163,18.163,0,0,0,0,11.871,14.149,14.149,0,0,0,7.394,8.229,13.463,13.463,0,0,0,5.874,1.249,13.835,13.835,0,0,0,5.926-1.246,14.182,14.182,0,0,0,4.563-3.333A15.02,15.02,0,0,0,338.819,86.336Zm58.318-30.2h11.581l-18.767,48.529H375.585L356.819,56.135H368.4L382.768,93.3Zm36.514-1.246c15.569,0,26.185,13.7,24.191,29.729H419.914c0,4.186,4.257,12.28,14.366,12.28,8.7,0,14.523-7.595,14.529-7.6l7.722,5.934c-6.9,7.321-12.559,10.684-21.414,10.684-15.824,0-26.546-9.939-26.546-25.513A25.206,25.206,0,0,1,433.652,54.889ZM419.944,76.183h27.4c-.084-.935-1.569-12.28-13.781-12.28S420.033,75.248,419.944,76.183Zm45.345,28.48v-72.9h11.434v72.9ZM134.839,31.2a2.168,2.168,0,0,1,.076.564v29.6a2.157,2.157,0,0,1-1.092,1.872l-25.02,14.3v28.35a2.157,2.157,0,0,1-1.092,1.87L55.487,137.612a2.2,2.2,0,0,1-.379.157c-.051.016-.1.046-.146.06a2.2,2.2,0,0,1-1.116,0c-.06-.016-.114-.049-.171-.07a1.946,1.946,0,0,1-.358-.146L1.089,107.761A2.157,2.157,0,0,1,0,105.886v-88.8a2.168,2.168,0,0,1,.076-.564,1.821,1.821,0,0,1,.076-.182,2.443,2.443,0,0,1,.141-.336,2.068,2.068,0,0,1,.146-.19,2.261,2.261,0,0,1,.2-.255A2.117,2.117,0,0,1,.848,15.4a2.3,2.3,0,0,1,.238-.182l0,0L27.2.288a2.195,2.195,0,0,1,2.168,0L55.487,15.215h.005c.087.054.157.125.238.184a2.081,2.081,0,0,1,.211.163,2.5,2.5,0,0,1,.2.252,2.027,2.027,0,0,1,.149.192,2.443,2.443,0,0,1,.141.336c.022.06.057.117.076.182a2.168,2.168,0,0,1,.073.564V72.55L78.339,60.11V31.76a2.167,2.167,0,0,1,.073-.564c.019-.065.054-.119.079-.182a2.136,2.136,0,0,1,.138-.336,1.7,1.7,0,0,1,.149-.19,2.012,2.012,0,0,1,.2-.252,2.082,2.082,0,0,1,.211-.163,1.958,1.958,0,0,1,.241-.184v0L105.541,14.96a2.189,2.189,0,0,1,2.17,0l26.112,14.927h0a2.87,2.87,0,0,1,.244.184c.068.054.149.1.211.163a2.134,2.134,0,0,1,.192.252,2.029,2.029,0,0,1,.149.192,2.148,2.148,0,0,1,.141.336A1.514,1.514,0,0,1,134.839,31.2ZM130.564,60.11V35.5l-9.139,5.224L108.8,47.936V72.55l21.758-12.44Zm-26.112,44.526V80.006L92.031,87.046,56.576,107.137V132l47.876-27.367ZM4.352,20.824v83.813L52.224,132V107.146L27.215,93.094l-.005-.008-.011,0a2.125,2.125,0,0,1-.233-.179,2.468,2.468,0,0,1-.209-.157l-.005-.008a2.064,2.064,0,0,1-.179-.228,1.965,1.965,0,0,1-.163-.209l0-.008a1.729,1.729,0,0,1-.114-.271,1.467,1.467,0,0,1-.1-.241v0a2.079,2.079,0,0,1-.046-.317,2.4,2.4,0,0,1-.033-.244V33.261L13.494,26.048ZM28.288,4.653,6.538,17.09l21.75,12.432L50.04,17.087,28.288,4.653ZM39.6,82.25l12.621-7.213V20.824l-9.137,5.224L30.464,33.263V87.474L39.6,82.25Zm67.024-62.922L84.875,31.76l21.752,12.434,21.75-12.434-21.75-12.432Zm-2.176,28.608L91.828,40.72,82.691,35.5V60.11l12.621,7.216,9.139,5.224V47.933ZM54.4,103.4,86.3,85.317l15.949-9.039L80.515,63.852,55.487,78.158,32.678,91.2Z" transform="translate(172 160.764)" fill="#ff2d20" fill-rule="evenodd"/>
</svg>
