<svg id="mongodb" xmlns="http://www.w3.org/2000/svg" width="820" height="460" viewBox="0 0 820 460">
  <rect id="bg" width="820" height="460" fill="#e8fbf7"/>
  <g id="logo" transform="translate(156 166)">
    <path id="Path_3997" data-name="Path 3997" d="M37.994,13.22C33.016,7.314,28.729,1.315,27.854.069a.223.223,0,0,0-.323,0C26.655,1.315,22.368,7.314,17.39,13.22c-42.729,54.5,6.73,91.272,6.73,91.272l.415.277c.369,5.675,1.291,13.843,1.291,13.843h3.688s.922-8.121,1.291-13.843l.415-.323C31.265,104.493,80.723,67.716,37.994,13.22ZM27.669,103.662a20.437,20.437,0,0,1-2.812-2.861v-.093l2.673-59.341a.138.138,0,1,1,.277,0l2.673,59.341v.093A20.434,20.434,0,0,1,27.669,103.662Z" transform="translate(0 0)" fill="#001e2b"/>
    <path id="Path_3998" data-name="Path 3998" d="M217.153,139.477l-20.61-50.338L196.5,89H180.462v3.384h2.588a2.923,2.923,0,0,1,2.911,2.967l-.462,50.662a2.955,2.955,0,0,1-2.865,2.92l-2.634.046v3.337h15.619v-3.337L194,148.933a2.956,2.956,0,0,1-2.865-2.92V98.27L213.6,152.316a2.032,2.032,0,0,0,3.789,0l21.95-52.841.324,46.537a2.973,2.973,0,0,1-2.911,2.966h-1.664v3.337h18.3v-3.337h-2.5a3,3,0,0,1-2.911-2.92L247.838,95.4A2.965,2.965,0,0,1,250.7,92.43l2.68-.046V89H237.763Z" transform="translate(-96.925 -47.924)" fill="#001e2b"/>
    <path id="Path_3999" data-name="Path 3999" d="M520.246,168.02a2.8,2.8,0,0,1-.788-2.043V141.09c0-4.736-1.39-8.451-4.17-11.1-2.733-2.647-6.532-3.993-11.258-3.993a17.886,17.886,0,0,0-15.521,7.986.36.36,0,0,1-.324.139.219.219,0,0,1-.232-.232l-1.715-6.64h-2.873L476,131.479V133.8h1.9a3.1,3.1,0,0,1,2.131.7,2.737,2.737,0,0,1,.787,2.135v29.3a2.7,2.7,0,0,1-2.826,2.832h-1.853v3.389H493.1v-3.389h-1.853a2.7,2.7,0,0,1-2.826-2.832V146.523a18.832,18.832,0,0,1,1.576-7.336,14.685,14.685,0,0,1,4.726-5.9,12.265,12.265,0,0,1,7.459-2.275c3.243,0,5.7,1.021,7.228,3.065a12.816,12.816,0,0,1,2.317,7.847v23.959a2.7,2.7,0,0,1-2.826,2.832h-1.853v3.389H524v-3.389h-1.853A2.332,2.332,0,0,1,520.246,168.02Z" transform="translate(-256.313 -67.848)" fill="#001e2b"/>
    <path id="Path_4000" data-name="Path 4000" d="M863.636,92.79A32.782,32.782,0,0,0,848.057,89H826v3.374h2.16a3.13,3.13,0,0,1,2.3,1.063,3.266,3.266,0,0,1,1.057,2.311v49.733a3.265,3.265,0,0,1-1.057,2.311,3.231,3.231,0,0,1-2.3,1.063H826v3.374h22.057a32.782,32.782,0,0,0,15.578-3.79,28.45,28.45,0,0,0,11.258-10.908,33.015,33.015,0,0,0,4.181-16.871,33.134,33.134,0,0,0-4.181-16.87A28.676,28.676,0,0,0,863.636,92.79Zm6.571,27.778c0,5.916-1.057,10.908-3.125,14.929a21.086,21.086,0,0,1-8.226,8.967,22.3,22.3,0,0,1-11.212,2.912h-4.457a3.13,3.13,0,0,1-2.3-1.063A3.265,3.265,0,0,1,839.832,144V97.089a3.166,3.166,0,0,1,1.057-2.311,3.231,3.231,0,0,1,2.3-1.063h4.457a22.3,22.3,0,0,1,11.212,2.912,21.084,21.084,0,0,1,8.226,8.967A32.914,32.914,0,0,1,870.207,120.568Z" transform="translate(-444.778 -47.924)" fill="#001e2b"/>
    <path id="Path_4001" data-name="Path 4001" d="M1000.139,123.943c-2.04-2.357-5.977-4.345-10.606-5.408,6.392-3.189,9.678-7.672,9.678-13.45a14.357,14.357,0,0,0-2.5-8.366,16.63,16.63,0,0,0-7.038-5.685A25.726,25.726,0,0,0,979.153,89H954.185v3.374h1.992a3.167,3.167,0,0,1,2.316,1.063,3.255,3.255,0,0,1,1.066,2.311v49.733a3.671,3.671,0,0,1-3.382,3.374H954v3.374h27.1a30.714,30.714,0,0,0,11.441-2.08,18.6,18.6,0,0,0,8.247-6.1,15.721,15.721,0,0,0,3.055-9.753A15.485,15.485,0,0,0,1000.139,123.943Zm-31.083,22.416a3.254,3.254,0,0,1-1.066-2.311V121.724h12.88q6.805,0,10.421,3.467a11.928,11.928,0,0,1,3.614,9.013,14.012,14.012,0,0,1-1.574,6.378,12.155,12.155,0,0,1-4.772,4.9,14.815,14.815,0,0,1-7.689,1.9h-9.5A3.289,3.289,0,0,1,969.055,146.359Zm-1.019-29.4V97.135a3.154,3.154,0,0,1,1.065-2.311,3.27,3.27,0,0,1,2.316-1.063h6.115c4.4,0,7.643,1.11,9.683,3.235a11.722,11.722,0,0,1,3.055,8.366,12.243,12.243,0,0,1-2.871,8.458c-1.9,2.08-4.772,3.143-8.57,3.143Z" transform="translate(-513.703 -47.924)" fill="#001e2b"/>
    <path id="Path_4002" data-name="Path 4002" d="M391.076,128.948A24.251,24.251,0,0,0,379.307,126a23.627,23.627,0,0,0-11.768,2.948,21.727,21.727,0,0,0-8.413,8.291,25.758,25.758,0,0,0,0,24.6,21.732,21.732,0,0,0,8.413,8.291,24.255,24.255,0,0,0,11.768,2.948,23.631,23.631,0,0,0,11.768-2.948,21.732,21.732,0,0,0,8.413-8.291,25.757,25.757,0,0,0,0-24.6A21.727,21.727,0,0,0,391.076,128.948Zm3.4,20.59c0,5.666-1.379,10.272-4.138,13.588a14.632,14.632,0,0,1-22.066,0c-2.759-3.317-4.138-7.923-4.138-13.588s1.379-10.272,4.138-13.588a14.632,14.632,0,0,1,22.066,0C393.1,139.266,394.478,143.872,394.478,149.538Z" transform="translate(-191.696 -67.848)" fill="#001e2b"/>
    <path id="Path_4003" data-name="Path 4003" d="M744.076,128.948A24.251,24.251,0,0,0,732.307,126a23.627,23.627,0,0,0-11.768,2.948,21.728,21.728,0,0,0-8.413,8.291,25.758,25.758,0,0,0,0,24.6,21.732,21.732,0,0,0,8.413,8.291,24.255,24.255,0,0,0,11.768,2.948,23.632,23.632,0,0,0,11.768-2.948,21.732,21.732,0,0,0,8.413-8.291,25.758,25.758,0,0,0,0-24.6A22.042,22.042,0,0,0,744.076,128.948Zm3.4,20.59c0,5.666-1.38,10.272-4.138,13.588a14.632,14.632,0,0,1-22.066,0c-2.759-3.317-4.138-7.923-4.138-13.588,0-5.712,1.379-10.272,4.138-13.588a14.632,14.632,0,0,1,22.066,0C746.052,139.266,747.478,143.872,747.478,149.538Z" transform="translate(-381.777 -67.848)" fill="#001e2b"/>
    <path id="Path_4004" data-name="Path 4004" d="M618.6,126a21.817,21.817,0,0,0-10.139,2.36,17.94,17.94,0,0,0-7.176,6.432,16.316,16.316,0,0,0-2.592,8.885,15.652,15.652,0,0,0,1.991,7.867,17.81,17.81,0,0,0,5.278,5.738l-6.621,8.978a3.631,3.631,0,0,0-.324,3.794,3.591,3.591,0,0,0,3.241,1.99h1.9a13.845,13.845,0,0,0-4.352,4.488,11.856,11.856,0,0,0-1.805,6.2,11.443,11.443,0,0,0,5.231,9.718c3.426,2.453,8.241,3.7,14.306,3.7a34.541,34.541,0,0,0,11.9-2.036,20.916,20.916,0,0,0,8.935-5.923,13.782,13.782,0,0,0,3.426-9.348c0-3.794-1.389-6.478-4.63-9.069-2.778-2.175-7.13-3.332-12.547-3.332H606.1a.163.163,0,0,1-.093-.047s-.046-.092,0-.138l4.815-6.478a17.028,17.028,0,0,0,3.565,1.2,18.537,18.537,0,0,0,3.75.324,22.618,22.618,0,0,0,10.463-2.36,18.518,18.518,0,0,0,7.269-6.432,15.98,15.98,0,0,0,2.638-8.884c0-3.425-1.667-9.672-6.2-12.865a.046.046,0,0,1,.047-.046l9.954,1.11v-4.581H626.38A25.818,25.818,0,0,0,618.6,126Zm5.555,28.968A11.965,11.965,0,0,1,618.6,156.4a11.566,11.566,0,0,1-8.149-3.285c-2.315-2.175-3.472-5.368-3.472-9.44s1.158-7.265,3.472-9.44a11.567,11.567,0,0,1,8.149-3.286,11.463,11.463,0,0,1,9.908,5.692,13.761,13.761,0,0,1,1.713,7.034,13.1,13.1,0,0,1-1.713,7.034A10.97,10.97,0,0,1,624.158,154.968ZM611.611,172h12.547c3.472,0,5.695.694,7.176,2.175a7.919,7.919,0,0,1,2.222,5.784,9.959,9.959,0,0,1-4.028,8.237c-2.686,2.082-6.3,3.147-10.741,3.147a16.332,16.332,0,0,1-9.491-2.545,8.612,8.612,0,0,1-3.565-7.45,9.936,9.936,0,0,1,1.667-5.6A10.594,10.594,0,0,1,611.611,172Z" transform="translate(-322.006 -67.848)" fill="#001e2b"/>
    <path id="Path_4005" data-name="Path 4005" d="M1078.931,211.766a5.655,5.655,0,0,1-2.931-5,5.767,5.767,0,0,1,.78-2.907,5.282,5.282,0,0,1,2.151-2.09,6.486,6.486,0,0,1,6.138,0,5.656,5.656,0,0,1,2.931,5,5.765,5.765,0,0,1-.78,2.907,5.281,5.281,0,0,1-2.151,2.09,6.286,6.286,0,0,1-3.069.772A5.938,5.938,0,0,1,1078.931,211.766Zm5.635-.636a4.774,4.774,0,0,0,1.786-1.772,5.547,5.547,0,0,0,0-5.178,4.222,4.222,0,0,0-1.786-1.772,5.5,5.5,0,0,0-5.132,0,4.774,4.774,0,0,0-1.786,1.772,5.547,5.547,0,0,0,0,5.178,4.222,4.222,0,0,0,1.786,1.772,5.373,5.373,0,0,0,2.566.636A5.241,5.241,0,0,0,1084.566,211.13Zm-5.04-1.59v-.409l.092-.045h.277a.355.355,0,0,0,.226-.091.248.248,0,0,0,.092-.227v-4.225a.345.345,0,0,0-.092-.227.253.253,0,0,0-.226-.091h-.277l-.092-.045v-.409l.092-.045H1082a2.478,2.478,0,0,1,1.6.454,1.479,1.479,0,0,1,.6,1.272,1.394,1.394,0,0,1-.457,1.09,1.809,1.809,0,0,1-1.145.545l.549.182,1.052,1.68a.349.349,0,0,0,.323.182h.272l.046.046v.408l-.046.046h-1.417l-.092-.046-1.468-2.453h-.365v1.636a.344.344,0,0,0,.092.227.252.252,0,0,0,.226.091h.277l.092.045v.409l-.092.045h-2.428Zm2.335-3a1.085,1.085,0,0,0,.872-.318,1.252,1.252,0,0,0,.318-.863,1.318,1.318,0,0,0-.272-.863.955.955,0,0,0-.78-.318h-.185a.342.342,0,0,0-.226.091.248.248,0,0,0-.092.227v2.044Z" transform="translate(-579.396 -108.233)" fill="#001e2b"/>
  </g>
</svg>
