<svg xmlns="http://www.w3.org/2000/svg" xmlns:xlink="http://www.w3.org/1999/xlink" width="554.167" height="350" viewBox="0 0 554.167 350">
  <defs>
    <clipPath id="clip-path">
      <rect id="Rectangle_2229" data-name="Rectangle 2229" width="497.729" height="248" transform="translate(0)" fill="#fff" stroke="#707070" stroke-width="1"/>
    </clipPath>
  </defs>
  <g id="Card" transform="translate(-1091 -1950)">
    <path id="mockup-1_2_" data-name="mockup-1 (2)" d="M0,0H554.167V350H0Z" transform="translate(1091 1950)" fill="#0f0f0f"/>
    <g id="Mask_Group_23" data-name="Mask Group 23" transform="translate(1145.999 1995)" clip-path="url(#clip-path)">
      <path id="Path_3912" data-name="Path 3912" d="M1.1,173.841,50.484,30.607H84.3l49.384,143.233H105.248L95.064,143.079H39.723L29.347,173.841Zm46.117-53.833H87.57L63.742,48.68h7.3Zm135.469,56.14a45.8,45.8,0,0,1-19.023-3.653,27.675,27.675,0,0,1-16.91-26.34,30.993,30.993,0,0,1,3.843-15.477,30.662,30.662,0,0,1,11.914-11.439q8.071-4.614,20.368-6.537l34.2-5.576v19.226l-29.4,5q-7.494,1.346-11.145,4.806a11.881,11.881,0,0,0-3.651,9.036,10.225,10.225,0,0,0,4.131,8.556,16.381,16.381,0,0,0,10.28,3.172,28.194,28.194,0,0,0,13.931-3.365,23.961,23.961,0,0,0,9.416-9.325,26.149,26.149,0,0,0,3.363-13.074V104.243A14.206,14.206,0,0,0,208.723,93q-5.284-4.518-13.931-4.518A24.528,24.528,0,0,0,180.477,92.8a25.066,25.066,0,0,0-9.127,11.439l-20.561-10a36.3,36.3,0,0,1,9.7-14.323A48.869,48.869,0,0,1,176.153,70.4a54.323,54.323,0,0,1,19.6-3.461,51.758,51.758,0,0,1,22.674,4.71A36.864,36.864,0,0,1,233.7,84.728a34.81,34.81,0,0,1,5.476,19.514v69.6H215.353V155.96l5.38-.385a42.3,42.3,0,0,1-9.608,11.247,40.574,40.574,0,0,1-12.682,6.921A48.977,48.977,0,0,1,182.686,176.148Zm115.677-2.307V30.607H358.7q14.219,0,24.308,4.9a36.419,36.419,0,0,1,15.565,13.843q5.476,8.94,5.476,21.629a34.329,34.329,0,0,1-5.284,18.361q-5.284,8.556-16.814,14.131V91.361q10.568,4.037,16.717,10a33.5,33.5,0,0,1,8.647,13.266,47.209,47.209,0,0,1,2.5,15.381q0,20.572-13.547,32.2T358.7,173.841ZM324.5,150.769H361.39q10.184,0,16.237-5.672t6.053-15.092q0-9.421-6.053-15.189t-16.237-5.768H324.5Zm0-64.6h35.549q8.071,0,12.874-4.71a16.345,16.345,0,0,0,4.8-12.208q0-7.5-4.8-11.92t-12.874-4.422H324.5Zm151.994,89.977a47.966,47.966,0,0,1-20.849-4.518,36.318,36.318,0,0,1-15.084-12.978l2.5-5v20.187H419.421V28.3h25.172V90.015l-3.843-5.191a36.755,36.755,0,0,1,14.6-13.17,46.269,46.269,0,0,1,21.329-4.71,50.07,50.07,0,0,1,26.71,7.306,53.953,53.953,0,0,1,18.927,19.61,54.906,54.906,0,0,1,7.014,27.685,56.2,56.2,0,0,1-6.918,27.685,52.04,52.04,0,0,1-18.831,19.707A51.291,51.291,0,0,1,476.491,176.148Zm-2.882-23.071a29.281,29.281,0,0,0,15.372-4.037,27.892,27.892,0,0,0,10.472-11.151,34.545,34.545,0,0,0,3.747-16.342,33.973,33.973,0,0,0-3.747-16.246,28.533,28.533,0,0,0-25.845-15.285A27.758,27.758,0,0,0,448.34,105.3a34.7,34.7,0,0,0-3.747,16.246,34.546,34.546,0,0,0,3.747,16.342,27.9,27.9,0,0,0,25.268,15.188Z" transform="translate(23.643 26.218)" fill="#fff"/>
    </g>
    <g id="Group_1398" data-name="Group 1398" transform="translate(1141.094 2029.976)">
      <line id="Line_261" data-name="Line 261" x1="0.973" y2="190.998" fill="none" stroke="#fff" stroke-width="3"/>
      <line id="Line_262" data-name="Line 262" x1="27.236" transform="translate(0 190.998)" fill="none" stroke="#fff" stroke-width="3"/>
      <line id="Line_263" data-name="Line 263" x1="27.236" transform="translate(0.486)" fill="none" stroke="#fff" stroke-width="3"/>
    </g>
    <g id="Group_1399" data-name="Group 1399" transform="translate(1318.142 2241.333) rotate(-90)">
      <line id="Line_261-2" data-name="Line 261" x1="0.973" y2="90.619" transform="translate(0 0)" fill="none" stroke="#fff" stroke-width="3"/>
      <line id="Line_262-2" data-name="Line 262" x1="27.236" transform="translate(0 90.619)" fill="none" stroke="#fff" stroke-width="3"/>
      <line id="Line_263-2" data-name="Line 263" x1="27.236" transform="translate(0.486 0)" fill="none" stroke="#fff" stroke-width="3"/>
    </g>
  </g>
</svg>
