<svg xmlns="http://www.w3.org/2000/svg" width="10.767" height="12.158" viewBox="0 0 10.767 12.158">
  <path d="M9.36,11.707A7.27,7.27,0,0,0,8.95,9.7a7.431,7.431,0,0,1-.5-1.978,1.668,1.668,0,0,1,.359-1.157,1.149,1.149,0,0,1,.886-.4,1.012,1.012,0,0,1,.791.4,1.691,1.691,0,0,1,.337,1.128,6.357,6.357,0,0,1-.388,1.838,9.756,9.756,0,0,0-.476,2.175,6.758,6.758,0,0,0,1.45-1.245,7.362,7.362,0,0,1,1.479-1.436,1.947,1.947,0,0,1,.981-.278,1.1,1.1,0,0,1,.813.33,1.07,1.07,0,0,1,.33.784,1.263,1.263,0,0,1-.483.967,6.407,6.407,0,0,1-2.417.85,10.551,10.551,0,0,0-1.875.571,6.717,6.717,0,0,0,1.86.6,5.26,5.26,0,0,1,2.322.806,1.4,1.4,0,0,1,.549,1.055,1.03,1.03,0,0,1-.33.762,1.066,1.066,0,0,1-.769.322,1.989,1.989,0,0,1-.974-.308,6.554,6.554,0,0,1-1.443-1.377,7.762,7.762,0,0,0-1.494-1.348,6.922,6.922,0,0,0,.337,1.816,10.02,10.02,0,0,1,.527,2.358,1.451,1.451,0,0,1-.352.989,1,1,0,0,1-.747.4,1.38,1.38,0,0,1-.981-.425,1.344,1.344,0,0,1-.308-.981,5.4,5.4,0,0,1,.337-1.692q.337-.989.425-1.362a9.2,9.2,0,0,0,.161-1.106,8.069,8.069,0,0,0-1.509,1.274A8.494,8.494,0,0,1,6.24,15.56a1.489,1.489,0,0,1-.791.234,1.183,1.183,0,0,1-.85-.337,1.017,1.017,0,0,1-.352-.747,1.3,1.3,0,0,1,.3-.769,2.188,2.188,0,0,1,.9-.667,11.405,11.405,0,0,1,1.8-.469,9.564,9.564,0,0,0,1.772-.557,7.532,7.532,0,0,0-1.89-.615,7.45,7.45,0,0,1-2.227-.688,1.42,1.42,0,0,1-.659-1.172,1.008,1.008,0,0,1,.33-.725,1.054,1.054,0,0,1,.769-.33,2.088,2.088,0,0,1,1.025.308A5.844,5.844,0,0,1,7.72,10.264,7.189,7.189,0,0,0,9.36,11.707Z" transform="translate(-4.248 -6.17)" fill="#171717"/>
</svg>
