<svg xmlns="http://www.w3.org/2000/svg" width="570" height="355.651" viewBox="0 0 570 355.651">
  <g id="Card" transform="translate(-730 -2607)">
    <g id="Group_1330" data-name="Group 1330" transform="translate(730 2607)">
      <path id="Intersection_1" data-name="Intersection 1" d="M438.04,244.453l-52.663-30.805Zm-21,0-31.663-18.521Zm-21,0-10.663-6.237Zm-336,0L0,209.333Zm-21,0L0,221.617Zm-21,0L0,233.9Zm355.954-.612L269.255,182.574Zm-21,0L248.254,182.574Zm-21,0L227.255,182.574Zm-21,0L206.255,182.574Zm-21,0L185.254,182.574Zm-21,0L164.255,182.574Zm-21,0L143.255,182.574Zm-21,0L122.254,182.574Zm-21,0L101.254,182.574Zm-21,0L80.255,182.574Zm-21,0L0,147.913Zm-21,0L0,160.2Zm-21,0L0,172.481Zm-21,0L0,184.765Zm-21,0L0,197.049Zm210.261-61.267,94.51,55.283Zm95.122,18.789,60.559,35.424Zm-74.122-18.789,73.51,43Zm74.122,6.505L445.936,224.5Zm-53.122-6.505,52.51,30.715Zm53.122-5.778,60.559,35.424Zm-32.121,5.778,31.509,18.431Zm32.121-18.062,60.559,35.424Zm-11.121,18.062,10.509,6.147Zm11.121-30.346,60.559,35.424Zm0-12.284,60.559,35.424ZM0,135.629l60.559,35.424Zm385.376-7.969,60.559,35.424ZM0,123.346,60.559,158.77Zm385.376-7.97L445.936,150.8ZM0,111.062l60.559,35.424Zm385.376-7.969,60.559,35.424ZM0,98.778,60.559,134.2Zm385.376-7.969,60.559,35.424ZM0,86.494l60.559,35.424Zm385.376-7.969,60.559,35.424ZM0,74.21l60.559,35.424Zm385.376-7.969,60.559,35.424ZM0,61.926,60.559,97.35Zm385.376-7.969L445.936,89.38ZM0,49.642,60.559,85.066Zm385.376-7.969L445.936,77.1ZM0,37.359,60.559,72.783Zm385.376-7.969,60.559,35.424Zm-8.5,31.877L272.133,0Zm-21,0L251.133,0Zm-21,0L230.134,0Zm-21,0L209.133,0Zm-21,0L188.133,0Zm-21,0L167.134,0Zm-21,0L146.133,0Zm-21,0L125.134,0Zm-21,0L104.134,0Zm-21,0L83.133,0Zm-21,0L62.134,0Zm-21,0L42.182.613Zm-21,0L21.181.613Zm-21,0L.182.613Zm-21,0L0,12.791Zm-21,0L0,25.075ZM293.134,0l91.631,53.6Zm92.243,17.105,60.559,35.424ZM314.133,0l70.631,41.315Zm71.243,4.821,60.559,35.424ZM335.133,0l49.631,29.031Zm64.048.613,46.755,27.349ZM356.134,0l28.631,16.747Zm64.048.613,25.754,15.065ZM377.134,0l7.631,4.463Zm64.048.613,4.754,2.781Z" transform="translate(62.185 54.833)" fill="none" stroke="#292929" stroke-width="1"/>
      <g id="Group_1332" data-name="Group 1332" transform="translate(0)">
        <line id="Line_46" data-name="Line 46" x2="569.694" transform="translate(0 116.406)" fill="none" stroke="#838383" stroke-width="1"/>
        <line id="Line_63" data-name="Line 63" y2="355.345" transform="translate(62.185 0.306)" fill="none" stroke="#838383" stroke-width="1"/>
        <line id="Line_64" data-name="Line 64" x2="570" transform="translate(0 54.833)" fill="none" stroke="#838383" stroke-width="1"/>
        <line id="Line_65" data-name="Line 65" x2="569.165" transform="translate(0 299.286)" fill="none" stroke="#838383" stroke-width="1"/>
        <line id="Line_47" data-name="Line 47" y2="355.345" transform="translate(122.996)" fill="none" stroke="#838383" stroke-width="1"/>
        <line id="Line_48" data-name="Line 48" y2="355.345" transform="translate(447.313)" fill="none" stroke="#838383" stroke-width="1"/>
        <line id="Line_66" data-name="Line 66" y2="355.651" transform="translate(508.121)" fill="none" stroke="#838383" stroke-width="1"/>
        <line id="Line_60" data-name="Line 60" x2="569.694" transform="translate(0 176.447)" fill="none" stroke="#838383" stroke-width="1"/>
        <line id="Line_61" data-name="Line 61" x2="569" transform="translate(0 237)" fill="none" stroke="#838383" stroke-width="1"/>
      </g>
      <path id="Logo_Text" data-name="Logo Text" d="M10.561,47.736A13.467,13.467,0,0,1,4.97,46.663,8.347,8.347,0,0,1,1.3,43.585,8.378,8.378,0,0,1,0,38.925a9.1,9.1,0,0,1,1.13-4.547,9.01,9.01,0,0,1,3.5-3.361,17.5,17.5,0,0,1,5.987-1.92L20.671,27.46v5.648L12.03,34.576a6.305,6.305,0,0,0-3.276,1.412,3.489,3.489,0,0,0-1.073,2.654A3,3,0,0,0,8.9,41.156a4.817,4.817,0,0,0,3.022.932,8.291,8.291,0,0,0,4.095-.988,7.041,7.041,0,0,0,2.767-2.739,7.678,7.678,0,0,0,.988-3.841V26.613a4.172,4.172,0,0,0-1.553-3.3,6.086,6.086,0,0,0-4.095-1.327,7.212,7.212,0,0,0-4.208,1.271,7.364,7.364,0,0,0-2.683,3.36L1.186,23.676a10.663,10.663,0,0,1,2.852-4.208,14.365,14.365,0,0,1,4.6-2.8A15.974,15.974,0,0,1,14.4,15.656a15.22,15.22,0,0,1,6.664,1.384,10.833,10.833,0,0,1,4.49,3.841,10.222,10.222,0,0,1,1.61,5.733V47.058h-7V41.806l1.581-.113A12.429,12.429,0,0,1,18.92,45a11.927,11.927,0,0,1-3.728,2.033A14.4,14.4,0,0,1,10.561,47.736Zm22.874-.678V16.334h7.4V47.058Zm0-34.169V4.982h7.4v7.907ZM47.1,47.058V16.334H54.05v6.043L53.485,21.3a8.122,8.122,0,0,1,3.53-4.208,11.128,11.128,0,0,1,5.733-1.44,12.115,12.115,0,0,1,6.015,1.468,10.445,10.445,0,0,1,4.095,4.095,12.231,12.231,0,0,1,1.468,6.071V47.058h-7.4V29.041a7.287,7.287,0,0,0-.791-3.5,5.786,5.786,0,0,0-2.174-2.287,6.793,6.793,0,0,0-6.467,0,5.727,5.727,0,0,0-2.2,2.287,7.287,7.287,0,0,0-.791,3.5V47.058Zm44.618.678a15.465,15.465,0,0,1-8.557-2.344,11.908,11.908,0,0,1-5-6.354L83.7,36.384a9.734,9.734,0,0,0,3.3,4.066,8.09,8.09,0,0,0,4.716,1.468,5.189,5.189,0,0,0,3.219-.9,2.842,2.842,0,0,0,1.186-2.372,2.3,2.3,0,0,0-.48-1.5,4.008,4.008,0,0,0-1.3-1.017,10.011,10.011,0,0,0-1.779-.706l-5.027-1.412a11.987,11.987,0,0,1-5.9-3.445,8.1,8.1,0,0,1-2-5.478,8.576,8.576,0,0,1,1.44-4.942,9.563,9.563,0,0,1,4.01-3.3,13.94,13.94,0,0,1,5.9-1.186,14.152,14.152,0,0,1,7.681,2.09,11.46,11.46,0,0,1,4.744,5.874l-5.648,2.655a6.809,6.809,0,0,0-2.654-3.332A7.367,7.367,0,0,0,90.93,21.7a4.619,4.619,0,0,0-2.937.847,2.676,2.676,0,0,0-1.073,2.2,2.429,2.429,0,0,0,.452,1.468,3.308,3.308,0,0,0,1.271,1.017,14.22,14.22,0,0,0,1.892.734l4.914,1.468a12.572,12.572,0,0,1,5.846,3.389,7.911,7.911,0,0,1,2.061,5.535,8.363,8.363,0,0,1-1.468,4.885,9.734,9.734,0,0,1-4.066,3.3A14.57,14.57,0,0,1,91.721,47.736Zm16.774-.678V4.3h7.4V47.058Zm28.239.678a15.761,15.761,0,0,1-8.3-2.146,14.949,14.949,0,0,1-5.535-5.817,16.877,16.877,0,0,1-1.977-8.133,16.553,16.553,0,0,1,2-8.218,15.107,15.107,0,0,1,5.478-5.676,14.772,14.772,0,0,1,7.766-2.09,15.874,15.874,0,0,1,6.354,1.186,13.552,13.552,0,0,1,4.659,3.276,14.667,14.667,0,0,1,2.937,4.772,16.2,16.2,0,0,1,1.017,5.789q0,.791-.085,1.638a6.09,6.09,0,0,1-.311,1.468H127.02V28.138h19.542l-3.5,2.654a8.415,8.415,0,0,0-.254-4.631,6.632,6.632,0,0,0-2.485-3.219,7.14,7.14,0,0,0-4.151-1.186,7.477,7.477,0,0,0-4.123,1.158,7.166,7.166,0,0,0-2.739,3.389A11.761,11.761,0,0,0,128.6,31.7a9.988,9.988,0,0,0,.762,5,7.422,7.422,0,0,0,2.937,3.36,8.462,8.462,0,0,0,4.49,1.186,8.218,8.218,0,0,0,4.321-1.073,7.744,7.744,0,0,0,2.8-2.88l5.987,2.937a10.463,10.463,0,0,1-2.824,3.9,14.116,14.116,0,0,1-4.547,2.654A16.748,16.748,0,0,1,136.734,47.736Zm23.156,11.8a14.748,14.748,0,0,1-2.429-.2,8.174,8.174,0,0,1-2.146-.65V52.48q.734.169,1.779.339a12.216,12.216,0,0,0,1.949.169,4.989,4.989,0,0,0,3.7-1.186A11.282,11.282,0,0,0,164.8,48.7l2.033-4.744-.113,6.213L153.339,16.334H161.3L170.678,41.3h-2.824l9.319-24.963h8.02L171.808,50.164a19.3,19.3,0,0,1-2.88,5.083A11.709,11.709,0,0,1,165,58.438,11.4,11.4,0,0,1,159.891,59.54Zm30.047-12.482V39.151h7.455v7.907ZM240.441,0,229.057,39.05a19.659,19.659,0,0,0-.927,4.17.909.909,0,0,0,.281.629.806.806,0,0,0,.579.3,1.865,1.865,0,0,0,1.026-.43,26.2,26.2,0,0,0,3.773-3.971l1.125.695A29.6,29.6,0,0,1,230.1,45.8a7.286,7.286,0,0,1-4.55,2.052,2.4,2.4,0,0,1-1.853-.794,3.211,3.211,0,0,1-.728-2.25,18.065,18.065,0,0,1,.993-5.063l1.291-4.1q-4.8,7.413-8.736,10.259a8.984,8.984,0,0,1-5.2,1.952,5.579,5.579,0,0,1-4.385-2.234,9.167,9.167,0,0,1-1.87-6.073,21.618,21.618,0,0,1,3.144-10.524,26.568,26.568,0,0,1,8.306-9.1q4.07-2.813,7.479-2.813a6.167,6.167,0,0,1,3.078.728,8.592,8.592,0,0,1,2.548,2.416l3.243-11.516q.364-1.224.6-1.952a7.931,7.931,0,0,0,.4-2.184,1.519,1.519,0,0,0-.5-1.158,2.75,2.75,0,0,0-1.787-.563,21.948,21.948,0,0,0-2.515.232V1.886ZM228.164,23.5a4.748,4.748,0,0,0-1.224-3.409,4.1,4.1,0,0,0-3.111-1.291q-4.17,0-8.687,6.883t-4.517,13.171a5.769,5.769,0,0,0,1.092,3.789,3.3,3.3,0,0,0,2.614,1.307q3.442,0,8.637-7.446T228.164,23.5Zm16.895,11.086a20.491,20.491,0,0,0-.232,2.747,6.8,6.8,0,0,0,2.085,5.014,6.921,6.921,0,0,0,5.063,2.068,11.184,11.184,0,0,0,4.583-.976,37.1,37.1,0,0,0,6.536-4.319l.695.96q-7.843,7.777-14.958,7.777-4.832,0-7.28-3.045A10.471,10.471,0,0,1,239.1,38.09,19.818,19.818,0,0,1,242.146,28a22.966,22.966,0,0,1,7.644-8.025,17.694,17.694,0,0,1,9.465-2.863,7.94,7.94,0,0,1,5.2,1.423,4.291,4.291,0,0,1,1.688,3.375,7.947,7.947,0,0,1-2.184,5.262,20.109,20.109,0,0,1-8.472,5.295A47.115,47.115,0,0,1,245.058,34.582Zm.232-1.622a27.974,27.974,0,0,0,7.975-1.919,16.079,16.079,0,0,0,6.106-4.352,7.838,7.838,0,0,0,2.035-4.815,3.012,3.012,0,0,0-.877-2.25,3.419,3.419,0,0,0-2.5-.86q-3.375,0-7.165,3.591T245.29,32.96Zm22.553-13.8,9.564-2.052a33.983,33.983,0,0,1,1.655,5,72.874,72.874,0,0,1,1.456,8.869q.265,2.581.728,10.921,4.137-4.567,4.931-5.659,4.368-5.924,5.03-6.95a14.553,14.553,0,0,0,1.522-3.078,5.481,5.481,0,0,0,.364-1.886q0-.86-1.539-1.986a3.152,3.152,0,0,1-1.539-2.515,2.574,2.574,0,0,1,.844-1.886,2.763,2.763,0,0,1,2-.827,3.251,3.251,0,0,1,2.449,1.142,4,4,0,0,1,1.059,2.829,9.994,9.994,0,0,1-.529,3.243,29.442,29.442,0,0,1-3.21,6.139,98.536,98.536,0,0,1-7.578,9.713q-.662.761-7.347,7.678h-1.224q-.794-20.948-3.309-26.143a2.837,2.837,0,0,0-2.747-1.688,13.187,13.187,0,0,0-2.35.3Zm45.57-.893a13.687,13.687,0,0,0-.772-3.778,13.99,13.99,0,0,1-.938-3.723,3.14,3.14,0,0,1,.676-2.179,2.164,2.164,0,0,1,1.669-.745,1.905,1.905,0,0,1,1.489.745,3.183,3.183,0,0,1,.634,2.123,11.968,11.968,0,0,1-.731,3.461,18.366,18.366,0,0,0-.9,4.1,12.723,12.723,0,0,0,2.73-2.344,13.86,13.86,0,0,1,2.785-2.7,3.665,3.665,0,0,1,1.848-.524,2.08,2.08,0,0,1,1.531.62,2.015,2.015,0,0,1,.62,1.475,2.377,2.377,0,0,1-.91,1.82q-.91.8-4.55,1.6a19.86,19.86,0,0,0-3.53,1.076,12.646,12.646,0,0,0,3.5,1.131q3.337.607,4.371,1.517a2.634,2.634,0,0,1,1.034,1.986,1.939,1.939,0,0,1-.62,1.434,2.006,2.006,0,0,1-1.448.607,3.745,3.745,0,0,1-1.834-.579,12.337,12.337,0,0,1-2.716-2.592,14.614,14.614,0,0,0-2.813-2.537,13.032,13.032,0,0,0,.634,3.42,18.864,18.864,0,0,1,.993,4.44,2.731,2.731,0,0,1-.662,1.861,1.881,1.881,0,0,1-1.406.758,2.6,2.6,0,0,1-1.848-.8,2.53,2.53,0,0,1-.579-1.848,10.164,10.164,0,0,1,.634-3.185q.634-1.861.8-2.565a17.333,17.333,0,0,0,.3-2.082,15.192,15.192,0,0,0-2.84,2.4,15.992,15.992,0,0,1-3.033,2.868,2.8,2.8,0,0,1-1.489.441,2.228,2.228,0,0,1-1.6-.634,1.915,1.915,0,0,1-.662-1.406,2.454,2.454,0,0,1,.565-1.448,4.118,4.118,0,0,1,1.7-1.255,21.472,21.472,0,0,1,3.392-.882,18.006,18.006,0,0,0,3.337-1.048,14.179,14.179,0,0,0-3.557-1.158,14.027,14.027,0,0,1-4.192-1.3,2.673,2.673,0,0,1-1.241-2.206,1.9,1.9,0,0,1,.62-1.365,1.984,1.984,0,0,1,1.448-.62,3.931,3.931,0,0,1,1.93.579,11,11,0,0,1,2.537,2.33A13.534,13.534,0,0,0,313.413,18.267Z" transform="translate(123.472 147.775)" fill="#fff"/>
    </g>
    <text id="Y" transform="translate(819 2640)" fill="#fff" font-size="23" font-family="TimesNewRomanPS-ItalicMT, Times New Roman" font-style="italic" letter-spacing="-0.02em"><tspan x="0" y="0">y</tspan></text>
    <text id="X" transform="translate(754 2942)" fill="#fff" font-size="21" font-family="TimesNewRomanPS-ItalicMT, Times New Roman" font-style="italic" letter-spacing="-0.02em"><tspan x="0" y="0">x</tspan></text>
  </g>
</svg>
