<svg xmlns="http://www.w3.org/2000/svg" width="560.943" height="350" viewBox="0 0 560.943 350">
  <g id="Card" transform="translate(-730 -2607)">
    <g id="Group_1330" data-name="Group 1330" transform="translate(730 2607)">
      <path id="Intersection_1" data-name="Intersection 1" d="M418.571,240.39l-39.24-22.953Zm-21,0-18.24-10.669Zm-357,0L0,216.658Zm-21,0L0,228.942Zm359.76-35.237,59.609,34.868Zm-3.791,34.634-103-60.248Zm-21,0-103-60.248Zm-21,0-103-60.248Zm-21,0-103-60.248Zm-21,0-103-60.248Zm-21,0-103-60.248Zm-21,0-103-60.248Zm-21,0-103-60.248Zm-21,0-103-60.248Zm-21,0-103-60.248Zm-21,0-103-60.248Zm-21,0L0,155.239Zm-21,0L0,167.523Zm-21,0L0,179.807Zm-21,0L0,192.09Zm-21,0L0,204.375Zm233-60.248,85.186,49.829Zm85.788,13.33,59.609,34.868Zm-64.789-13.33,64.187,37.546Zm64.789,1.046,59.609,34.868Zm-43.789-1.046L378.729,204.8ZM379.331,168.3,438.94,203.17Zm-22.789,11.237,22.187,12.978Zm22.789-23.521,59.609,34.868Zm-1.789,23.521,1.186.694Zm1.789-35.805L438.94,178.6ZM0,142.955l59.609,34.868ZM379.331,131.45l59.609,34.868ZM0,130.672,59.609,165.54Zm379.331-11.505,59.609,34.868ZM0,118.388l59.609,34.868Zm379.331-11.505L438.94,141.75ZM0,106.1l59.609,34.868ZM379.331,94.6l59.609,34.868ZM0,93.82l59.609,34.868ZM379.331,82.314l59.609,34.868ZM0,81.536,59.609,116.4ZM379.331,70.031,438.94,104.9ZM0,69.252,59.609,104.12ZM379.331,57.747,438.94,92.615ZM0,56.968,59.609,91.836ZM379.331,45.463,438.94,80.331ZM0,44.684,59.609,79.552Zm379.331-11.5L438.94,68.047ZM0,32.4,59.609,67.269ZM362.606,60.248,259.609,0Zm-21,0L238.61,0Zm-21,0L217.609,0Zm-21,0L196.61,0Zm-21,0L175.61,0Zm-21,0L154.61,0Zm-21,0L133.61,0Zm-21,0L112.61,0Zm-21,0L91.609,0Zm-21,0L70.61,0Zm-21,0L50.639.6Zm-21,0L29.639.6Zm-21,0L8.638.6Zm-21,0L0,7.832Zm-21,0L0,20.117ZM280.609,0l98.12,57.395Zm98.722,20.9L438.94,55.763ZM301.61,0l77.119,45.111Zm77.721,8.611L438.94,43.479ZM322.609,0l56.12,32.827Zm64.03.6L438.94,31.2ZM343.609,0l35.12,20.543Zm64.029.6,31.3,18.31ZM364.61,0l14.119,8.259Zm64.029.6,10.3,6.026Z" transform="translate(61.152 54.05)" fill="none" stroke="#292929" stroke-width="1"/>
      <g id="Group_1332" data-name="Group 1332" transform="translate(0)">
        <line id="Line_46" data-name="Line 46" x2="560.641" transform="translate(0 114.556)" fill="none" stroke="#838383" stroke-width="1"/>
        <line id="Line_63" data-name="Line 63" y2="349.699" transform="translate(61.152 0.301)" fill="none" stroke="#838383" stroke-width="1"/>
        <line id="Line_64" data-name="Line 64" x2="560.943" transform="translate(0 53.922)" fill="none" stroke="#838383" stroke-width="1"/>
        <line id="Line_65" data-name="Line 65" x2="560.121" transform="translate(0 294.572)" fill="none" stroke="#838383" stroke-width="1"/>
        <line id="Line_47" data-name="Line 47" y2="349.699" transform="translate(121.042)" fill="none" stroke="#838383" stroke-width="1"/>
        <line id="Line_48" data-name="Line 48" y2="349.699" transform="translate(440.205)" fill="none" stroke="#838383" stroke-width="1"/>
        <line id="Line_66" data-name="Line 66" y2="350" transform="translate(500.092)" fill="none" stroke="#838383" stroke-width="1"/>
        <line id="Line_60" data-name="Line 60" x2="560.641" transform="translate(0 173.643)" fill="none" stroke="#838383" stroke-width="1"/>
        <line id="Line_61" data-name="Line 61" x2="560.417" transform="translate(0 233.173)" fill="none" stroke="#838383" stroke-width="1"/>
      </g>
      <path id="Logo_Text" data-name="Logo Text" d="M10.386,47.151a13.193,13.193,0,0,1-5.5-1.06,8.218,8.218,0,0,1-3.61-3.04A8.3,8.3,0,0,1,0,38.448a9.021,9.021,0,0,1,1.111-4.491,8.878,8.878,0,0,1,3.443-3.319,17.154,17.154,0,0,1,5.887-1.9l9.886-1.618V32.7l-8.5,1.45a6.187,6.187,0,0,0-3.221,1.395,3.454,3.454,0,0,0-1.055,2.622,2.971,2.971,0,0,0,1.194,2.482,4.722,4.722,0,0,0,2.971.92,8.124,8.124,0,0,0,4.027-.976,6.939,6.939,0,0,0,2.721-2.706,7.611,7.611,0,0,0,.972-3.793v-7.81a4.128,4.128,0,0,0-1.527-3.264,5.967,5.967,0,0,0-4.027-1.311,7.07,7.07,0,0,0-4.138,1.255,7.268,7.268,0,0,0-2.638,3.319l-5.943-2.9a10.535,10.535,0,0,1,2.8-4.156A14.115,14.115,0,0,1,8.5,16.468a15.647,15.647,0,0,1,5.665-1,14.911,14.911,0,0,1,6.554,1.367,10.667,10.667,0,0,1,4.415,3.794,10.13,10.13,0,0,1,1.583,5.662V46.482H19.828V41.293l1.555-.112a12.262,12.262,0,0,1-2.777,3.264,11.714,11.714,0,0,1-3.666,2.008A14.105,14.105,0,0,1,10.386,47.151Zm22.494-.669V16.134h7.276V46.482Zm0-33.751V4.921h7.276v7.81ZM46.32,46.482V16.134h6.831V22.1l-.555-1.06a8.013,8.013,0,0,1,3.471-4.156A10.9,10.9,0,0,1,61.7,15.464a11.871,11.871,0,0,1,5.915,1.45,10.294,10.294,0,0,1,4.027,4.045,12.125,12.125,0,0,1,1.444,6V46.482H65.815v-17.8a7.224,7.224,0,0,0-.778-3.459A5.7,5.7,0,0,0,62.9,22.968a6.654,6.654,0,0,0-6.359,0,5.645,5.645,0,0,0-2.166,2.259,7.224,7.224,0,0,0-.778,3.459v17.8Zm43.876.669a15.158,15.158,0,0,1-8.414-2.315,11.754,11.754,0,0,1-4.915-6.276l5.443-2.622a9.606,9.606,0,0,0,3.249,4.017A7.931,7.931,0,0,0,90.2,41.4a5.086,5.086,0,0,0,3.166-.893,2.811,2.811,0,0,0,1.166-2.343,2.28,2.28,0,0,0-.472-1.478,3.944,3.944,0,0,0-1.277-1,9.819,9.819,0,0,0-1.749-.7l-4.943-1.395a11.777,11.777,0,0,1-5.8-3.4,8.02,8.02,0,0,1-1.972-5.411A8.5,8.5,0,0,1,79.727,19.9a9.414,9.414,0,0,1,3.943-3.264,13.656,13.656,0,0,1,5.8-1.172,13.87,13.87,0,0,1,7.553,2.064,11.31,11.31,0,0,1,4.665,5.8l-5.554,2.622a6.72,6.72,0,0,0-2.61-3.291,7.222,7.222,0,0,0-4.11-1.227,4.528,4.528,0,0,0-2.888.837,2.648,2.648,0,0,0-1.055,2.176,2.407,2.407,0,0,0,.444,1.45,3.256,3.256,0,0,0,1.25,1,13.946,13.946,0,0,0,1.861.725l4.832,1.45a12.352,12.352,0,0,1,5.748,3.347,7.834,7.834,0,0,1,2.027,5.467,8.287,8.287,0,0,1-1.444,4.826,9.581,9.581,0,0,1-4,3.264A14.273,14.273,0,0,1,90.2,47.151Zm16.5-.669V4.251h7.276v42.23Zm27.77.669a15.446,15.446,0,0,1-8.164-2.12,14.738,14.738,0,0,1-5.443-5.746,16.73,16.73,0,0,1-1.944-8.033,16.408,16.408,0,0,1,1.972-8.117,14.893,14.893,0,0,1,5.387-5.607,14.477,14.477,0,0,1,7.637-2.064,15.55,15.55,0,0,1,6.248,1.172,13.327,13.327,0,0,1,4.582,3.236,14.5,14.5,0,0,1,2.888,4.714,16.067,16.067,0,0,1,1,5.718q0,.781-.083,1.618a6.038,6.038,0,0,1-.305,1.45H124.909V27.793h19.217l-3.443,2.622a8.347,8.347,0,0,0-.25-4.575,6.547,6.547,0,0,0-2.444-3.18,7,7,0,0,0-4.082-1.171,7.329,7.329,0,0,0-4.054,1.144,7.072,7.072,0,0,0-2.694,3.347,11.664,11.664,0,0,0-.694,5.328,9.9,9.9,0,0,0,.75,4.937,7.321,7.321,0,0,0,2.888,3.319,8.293,8.293,0,0,0,4.415,1.172,8.054,8.054,0,0,0,4.249-1.06,7.634,7.634,0,0,0,2.749-2.845l5.887,2.9a10.333,10.333,0,0,1-2.777,3.849,13.867,13.867,0,0,1-4.471,2.622A16.4,16.4,0,0,1,134.462,47.151ZM157.233,58.81a14.44,14.44,0,0,1-2.388-.2,8.012,8.012,0,0,1-2.111-.642V51.837q.722.167,1.749.335a11.962,11.962,0,0,0,1.916.167,4.892,4.892,0,0,0,3.638-1.172,11.148,11.148,0,0,0,2.027-3.068l2-4.686-.111,6.137L150.79,16.134h7.831l9.22,24.658h-2.777l9.164-24.658h7.887L168.952,49.55a19.081,19.081,0,0,1-2.833,5.021,11.525,11.525,0,0,1-3.86,3.152A11.169,11.169,0,0,1,157.233,58.81ZM186.78,46.482v-7.81h7.331v7.81ZM236.445,0,225.25,38.571a19.493,19.493,0,0,0-.911,4.119.9.9,0,0,0,.277.621.792.792,0,0,0,.569.294,1.829,1.829,0,0,0,1.009-.425,25.825,25.825,0,0,0,3.71-3.923l1.106.686a29.188,29.188,0,0,1-4.735,5.3,7.15,7.15,0,0,1-4.475,2.027,2.359,2.359,0,0,1-1.822-.784,3.181,3.181,0,0,1-.716-2.223,17.914,17.914,0,0,1,.976-5l1.269-4.053q-4.719,7.322-8.591,10.133a8.811,8.811,0,0,1-5.109,1.929A5.478,5.478,0,0,1,203.5,45.06a9.082,9.082,0,0,1-1.839-6,21.424,21.424,0,0,1,3.092-10.395,26.2,26.2,0,0,1,8.168-8.989,13.213,13.213,0,0,1,7.355-2.778,6.042,6.042,0,0,1,3.027.719A8.464,8.464,0,0,1,225.8,20l3.189-11.375q.358-1.209.586-1.929a7.865,7.865,0,0,0,.391-2.157A1.5,1.5,0,0,0,229.48,3.4a2.7,2.7,0,0,0-1.757-.556,21.49,21.49,0,0,0-2.473.229V1.863ZM224.371,23.208a4.7,4.7,0,0,0-1.2-3.367,4.025,4.025,0,0,0-3.059-1.275q-4.1,0-8.542,6.8t-4.442,13.01a5.716,5.716,0,0,0,1.074,3.743,3.244,3.244,0,0,0,2.571,1.291q3.384,0,8.494-7.355T224.371,23.208Zm16.614,10.95a20.327,20.327,0,0,0-.228,2.713,6.988,6.988,0,0,0,7.029,7,10.957,10.957,0,0,0,4.507-.964,36.463,36.463,0,0,0,6.427-4.266l.683.948q-7.713,7.682-14.709,7.682-4.751,0-7.159-3.007a10.371,10.371,0,0,1-2.408-6.636,19.638,19.638,0,0,1,2.994-9.97,22.642,22.642,0,0,1,7.517-7.927,17.345,17.345,0,0,1,9.307-2.827,7.783,7.783,0,0,1,5.109,1.406,4.245,4.245,0,0,1,1.66,3.334,7.868,7.868,0,0,1-2.148,5.2,19.764,19.764,0,0,1-8.331,5.23A46.154,46.154,0,0,1,240.985,34.158Zm.228-1.6a27.41,27.41,0,0,0,7.843-1.9,15.814,15.814,0,0,0,6-4.3,7.76,7.76,0,0,0,2-4.756,2.982,2.982,0,0,0-.862-2.223,3.353,3.353,0,0,0-2.457-.85q-3.319,0-7.046,3.547T241.213,32.557Zm22.179-13.631,9.4-2.027a33.667,33.667,0,0,1,1.627,4.936,72.274,72.274,0,0,1,1.432,8.76q.26,2.55.716,10.787,4.068-4.511,4.849-5.59,4.3-5.851,4.947-6.864a14.4,14.4,0,0,0,1.5-3.04,5.435,5.435,0,0,0,.358-1.863q0-.85-1.513-1.961A3.116,3.116,0,0,1,285.2,19.58a2.548,2.548,0,0,1,.83-1.863,2.711,2.711,0,0,1,1.969-.817,3.191,3.191,0,0,1,2.408,1.128,3.964,3.964,0,0,1,1.041,2.795,9.912,9.912,0,0,1-.521,3.2,29.129,29.129,0,0,1-3.157,6.064,97.278,97.278,0,0,1-7.452,9.594q-.651.752-7.224,7.584h-1.2q-.781-20.691-3.254-25.823a2.789,2.789,0,0,0-2.7-1.667,12.914,12.914,0,0,0-2.311.294Zm44.812-.883a13.572,13.572,0,0,0-.759-3.732,13.869,13.869,0,0,1-.922-3.677,3.11,3.11,0,0,1,.664-2.152,2.124,2.124,0,0,1,1.641-.735,1.871,1.871,0,0,1,1.464.735,3.154,3.154,0,0,1,.624,2.1A11.866,11.866,0,0,1,310.2,14a18.21,18.21,0,0,0-.881,4.045A12.526,12.526,0,0,0,312,15.728a13.656,13.656,0,0,1,2.739-2.669,3.593,3.593,0,0,1,1.817-.518,2.04,2.04,0,0,1,1.505.613,2,2,0,0,1,.61,1.457,2.352,2.352,0,0,1-.895,1.8q-.895.79-4.475,1.58a19.466,19.466,0,0,0-3.471,1.062,12.4,12.4,0,0,0,3.444,1.117,9.711,9.711,0,0,1,4.3,1.5,2.605,2.605,0,0,1,1.017,1.961,1.92,1.92,0,0,1-.61,1.416,1.969,1.969,0,0,1-1.424.6,3.671,3.671,0,0,1-1.8-.572,12.153,12.153,0,0,1-2.671-2.561A14.393,14.393,0,0,0,309.315,20a12.924,12.924,0,0,0,.624,3.378,18.7,18.7,0,0,1,.976,4.386,2.705,2.705,0,0,1-.651,1.839,1.848,1.848,0,0,1-1.383.749,2.55,2.55,0,0,1-1.817-.79,2.506,2.506,0,0,1-.569-1.825,10.078,10.078,0,0,1,.624-3.146q.624-1.839.786-2.533A17.191,17.191,0,0,0,308.2,20a14.957,14.957,0,0,0-2.793,2.37,15.754,15.754,0,0,1-2.983,2.833,2.748,2.748,0,0,1-1.464.436,2.186,2.186,0,0,1-1.573-.626,1.9,1.9,0,0,1-.651-1.389,2.43,2.43,0,0,1,.556-1.43,4.051,4.051,0,0,1,1.668-1.239,21.04,21.04,0,0,1,3.336-.872,17.651,17.651,0,0,0,3.281-1.035,13.9,13.9,0,0,0-3.5-1.144,13.751,13.751,0,0,1-4.122-1.28,2.643,2.643,0,0,1-1.22-2.179,1.878,1.878,0,0,1,.61-1.348,1.947,1.947,0,0,1,1.424-.613,3.854,3.854,0,0,1,1.9.572,10.834,10.834,0,0,1,2.495,2.3A13.328,13.328,0,0,0,308.2,18.043Z" transform="translate(121.419 145.318)" fill="#fff"/>
    </g>
    <text id="Y" transform="translate(818 2640)" fill="#fff" font-size="23" font-family="TimesNewRomanPS-ItalicMT, Times New Roman" font-style="italic" letter-spacing="-0.02em"><tspan x="0" y="0">y</tspan></text>
    <text id="X" transform="translate(754 2937.26)" fill="#fff" font-size="21" font-family="TimesNewRomanPS-ItalicMT, Times New Roman" font-style="italic" letter-spacing="-0.02em"><tspan x="0" y="0">x</tspan></text>
  </g>
</svg>
