<svg xmlns="http://www.w3.org/2000/svg" width="930" height="544" viewBox="0 0 930 544">
  <g id="Logo" transform="translate(-731 -314)">
    <g id="Group_1323" data-name="Group 1323" transform="translate(731 314)">
      <g id="Rectangle_2206" data-name="Rectangle 2206" fill="#0a0a0a" stroke="rgba(255,255,255,0.1)" stroke-width="2">
        <rect width="930" height="544" stroke="none"/>
        <rect x="1" y="1" width="928" height="542" fill="none"/>
      </g>
      <path id="Logo_Text" data-name="Logo Text" d="M17.123,77.395a21.835,21.835,0,0,1-9.065-1.74,13.534,13.534,0,0,1-5.952-4.991A13.583,13.583,0,0,1,0,63.11a14.755,14.755,0,0,1,1.831-7.371A14.608,14.608,0,0,1,7.509,50.29a28.37,28.37,0,0,1,9.706-3.113l16.3-2.656v9.157L19.5,56.059a10.223,10.223,0,0,0-5.311,2.289,5.657,5.657,0,0,0-1.74,4.3,4.869,4.869,0,0,0,1.969,4.075,7.809,7.809,0,0,0,4.9,1.511,13.442,13.442,0,0,0,6.639-1.6,11.415,11.415,0,0,0,4.487-4.441,12.449,12.449,0,0,0,1.6-6.227V43.148a6.764,6.764,0,0,0-2.518-5.357,9.867,9.867,0,0,0-6.639-2.152A11.693,11.693,0,0,0,16.07,37.7a11.939,11.939,0,0,0-4.35,5.448l-9.8-4.762a17.288,17.288,0,0,1,4.624-6.822,23.29,23.29,0,0,1,7.463-4.533,25.9,25.9,0,0,1,9.34-1.648,24.676,24.676,0,0,1,10.805,2.243,17.564,17.564,0,0,1,7.28,6.227,16.572,16.572,0,0,1,2.61,9.294V76.3H32.69V67.78l2.564-.183a20.151,20.151,0,0,1-4.578,5.357,19.338,19.338,0,0,1-6.044,3.3A23.35,23.35,0,0,1,17.123,77.395Zm37.085-1.1V26.482h12V76.3Zm0-55.4V8.077h12V20.9Zm22.16,55.4V26.482H87.632v9.8l-.916-1.74a13.168,13.168,0,0,1,5.723-6.822,18.041,18.041,0,0,1,9.294-2.335,19.642,19.642,0,0,1,9.752,2.381,16.934,16.934,0,0,1,6.639,6.639,19.831,19.831,0,0,1,2.381,9.844V76.3h-12V47.085a11.814,11.814,0,0,0-1.282-5.677A9.381,9.381,0,0,0,103.7,37.7a11.013,11.013,0,0,0-10.485,0,9.285,9.285,0,0,0-3.571,3.709,11.814,11.814,0,0,0-1.282,5.677V76.3Zm72.34,1.1a25.074,25.074,0,0,1-13.873-3.8,19.307,19.307,0,0,1-8.1-10.3l8.974-4.3a15.782,15.782,0,0,0,5.357,6.593,13.116,13.116,0,0,0,7.646,2.381,8.413,8.413,0,0,0,5.219-1.465,4.607,4.607,0,0,0,1.923-3.846,3.732,3.732,0,0,0-.778-2.427,6.5,6.5,0,0,0-2.106-1.648,16.231,16.231,0,0,0-2.884-1.145l-8.15-2.289q-6.318-1.831-9.569-5.586a13.13,13.13,0,0,1-3.251-8.882,13.9,13.9,0,0,1,2.335-8.012,15.5,15.5,0,0,1,6.5-5.357,22.6,22.6,0,0,1,9.569-1.923,22.944,22.944,0,0,1,12.453,3.388,18.581,18.581,0,0,1,7.692,9.523l-9.157,4.3a11.039,11.039,0,0,0-4.3-5.4,11.944,11.944,0,0,0-6.776-2.014,7.489,7.489,0,0,0-4.762,1.374,4.339,4.339,0,0,0-1.74,3.571,3.938,3.938,0,0,0,.733,2.381,5.364,5.364,0,0,0,2.06,1.648,23.056,23.056,0,0,0,3.068,1.19l7.967,2.381a20.384,20.384,0,0,1,9.477,5.494,12.826,12.826,0,0,1,3.342,8.974,13.559,13.559,0,0,1-2.381,7.921,15.782,15.782,0,0,1-6.593,5.357A23.623,23.623,0,0,1,148.708,77.395Zm27.2-1.1V6.978h12V76.3Zm45.785,1.1a25.553,25.553,0,0,1-13.461-3.48,24.238,24.238,0,0,1-8.974-9.432,27.363,27.363,0,0,1-3.2-13.186A26.837,26.837,0,0,1,199.3,37.974a24.494,24.494,0,0,1,8.882-9.2,23.95,23.95,0,0,1,12.591-3.388,25.737,25.737,0,0,1,10.3,1.923,21.972,21.972,0,0,1,7.554,5.311,23.78,23.78,0,0,1,4.762,7.738,26.269,26.269,0,0,1,1.648,9.386q0,1.282-.137,2.656a9.875,9.875,0,0,1-.5,2.381H205.939V45.62h31.683l-5.677,4.3a13.644,13.644,0,0,0-.412-7.509A10.752,10.752,0,0,0,227.5,37.2a11.576,11.576,0,0,0-6.73-1.923,12.122,12.122,0,0,0-6.685,1.877,11.619,11.619,0,0,0-4.441,5.494,19.068,19.068,0,0,0-1.145,8.745,16.193,16.193,0,0,0,1.236,8.1,12.034,12.034,0,0,0,4.762,5.448,13.72,13.72,0,0,0,7.28,1.923,13.324,13.324,0,0,0,7.005-1.74,12.555,12.555,0,0,0,4.533-4.67l9.706,4.762a16.963,16.963,0,0,1-4.578,6.318,22.886,22.886,0,0,1-7.371,4.3A27.154,27.154,0,0,1,221.689,77.395Zm37.543,19.138a23.912,23.912,0,0,1-3.937-.321,13.253,13.253,0,0,1-3.48-1.053V85.086q1.19.275,2.884.549a19.807,19.807,0,0,0,3.159.275q4.121,0,6-1.923a18.293,18.293,0,0,0,3.342-5.036l3.3-7.692-.183,10.073-21.7-54.85h12.911l15.2,40.474h-4.578l15.109-40.474h13l-21.7,54.85a31.284,31.284,0,0,1-4.67,8.241,18.984,18.984,0,0,1-6.364,5.174A18.483,18.483,0,0,1,259.232,96.532ZM307.947,76.3V63.476h12.087V76.3ZM389.83,0,371.373,63.311a31.873,31.873,0,0,0-1.5,6.76,1.473,1.473,0,0,0,.456,1.019,1.307,1.307,0,0,0,.939.483,3.023,3.023,0,0,0,1.663-.7,42.475,42.475,0,0,0,6.117-6.438l1.824,1.127a47.982,47.982,0,0,1-7.807,8.692q-3.944,3.327-7.377,3.327a3.9,3.9,0,0,1-3-1.288,5.206,5.206,0,0,1-1.18-3.648,29.289,29.289,0,0,1,1.61-8.209l2.092-6.653q-7.78,12.018-14.165,16.633a14.565,14.565,0,0,1-8.424,3.166,9.045,9.045,0,0,1-7.109-3.622q-3.031-3.622-3.031-9.845,0-7.994,5.1-17.062A43.074,43.074,0,0,1,351.038,32.3q6.6-4.561,12.126-4.561a10,10,0,0,1,4.99,1.18,13.93,13.93,0,0,1,4.131,3.917l5.258-18.672q.59-1.985.966-3.166a12.859,12.859,0,0,0,.644-3.541,2.462,2.462,0,0,0-.8-1.878,4.459,4.459,0,0,0-2.9-.912,35.584,35.584,0,0,0-4.078.376V3.058ZM369.924,38.094a7.7,7.7,0,0,0-1.985-5.526,6.651,6.651,0,0,0-5.043-2.093q-6.76,0-14.084,11.16T341.488,62.99a9.354,9.354,0,0,0,1.771,6.143,5.357,5.357,0,0,0,4.239,2.119q5.58,0,14-12.072T369.924,38.094Zm27.391,17.974a33.226,33.226,0,0,0-.376,4.453,11.025,11.025,0,0,0,3.38,8.129A11.222,11.222,0,0,0,408.529,72a18.133,18.133,0,0,0,7.431-1.583q3.568-1.583,10.6-7l1.127,1.556q-12.716,12.609-24.251,12.609-7.834,0-11.8-4.936a16.977,16.977,0,0,1-3.97-10.892q0-7.994,4.936-16.364A37.236,37.236,0,0,1,404.988,32.38a28.688,28.688,0,0,1,15.345-4.641q5.687,0,8.424,2.307a6.957,6.957,0,0,1,2.736,5.473,12.885,12.885,0,0,1-3.541,8.531q-4.668,5.312-13.735,8.585Q408.207,54.834,397.316,56.068Zm.376-2.629a45.355,45.355,0,0,0,12.931-3.112,26.068,26.068,0,0,0,9.9-7.055q3.3-4.1,3.3-7.807a4.884,4.884,0,0,0-1.422-3.648,5.543,5.543,0,0,0-4.051-1.395q-5.473,0-11.616,5.821T397.691,53.439Zm36.566-22.374,15.506-3.327a55.1,55.1,0,0,1,2.683,8.1,118.152,118.152,0,0,1,2.361,14.379q.429,4.185,1.18,17.706,6.707-7.4,7.994-9.175,7.082-9.6,8.155-11.267a23.6,23.6,0,0,0,2.468-4.99,8.887,8.887,0,0,0,.59-3.058q0-1.4-2.495-3.219t-2.495-4.078a4.174,4.174,0,0,1,1.368-3.058,4.48,4.48,0,0,1,3.246-1.341,5.271,5.271,0,0,1,3.97,1.851,6.49,6.49,0,0,1,1.717,4.587,16.2,16.2,0,0,1-.858,5.258,47.731,47.731,0,0,1-5.2,9.953,159.757,159.757,0,0,1-12.287,15.747q-1.073,1.234-11.911,12.448h-1.985Q446.973,43.621,442.9,35.2a4.6,4.6,0,0,0-4.453-2.736,21.38,21.38,0,0,0-3.809.483Zm73.882-1.449a22.191,22.191,0,0,0-1.252-6.125,22.682,22.682,0,0,1-1.52-6.036,5.09,5.09,0,0,1,1.1-3.532,3.508,3.508,0,0,1,2.705-1.207,3.089,3.089,0,0,1,2.414,1.207,5.16,5.16,0,0,1,1.028,3.443,19.4,19.4,0,0,1-1.185,5.611,29.78,29.78,0,0,0-1.453,6.64,20.629,20.629,0,0,0,4.426-3.8,22.47,22.47,0,0,1,4.516-4.382,5.943,5.943,0,0,1,3-.85,3.372,3.372,0,0,1,2.481,1.006,3.267,3.267,0,0,1,1.006,2.392,3.854,3.854,0,0,1-1.475,2.951q-1.476,1.3-7.377,2.593a32.2,32.2,0,0,0-5.723,1.744A20.5,20.5,0,0,0,516.5,33.1q5.41.984,7.087,2.459a4.27,4.27,0,0,1,1.677,3.219,3.144,3.144,0,0,1-1.006,2.325,3.253,3.253,0,0,1-2.347.984,6.071,6.071,0,0,1-2.973-.939,20,20,0,0,1-4.4-4.2,23.7,23.7,0,0,0-4.561-4.113A21.131,21.131,0,0,0,511,38.38a30.584,30.584,0,0,1,1.61,7.2,4.428,4.428,0,0,1-1.073,3.018,3.05,3.05,0,0,1-2.28,1.23,4.213,4.213,0,0,1-3-1.3,4.1,4.1,0,0,1-.939-3,16.477,16.477,0,0,1,1.028-5.164q1.028-3.018,1.3-4.158a28.1,28.1,0,0,0,.492-3.376,24.629,24.629,0,0,0-4.605,3.89,25.927,25.927,0,0,1-4.918,4.65,4.545,4.545,0,0,1-2.414.715,3.612,3.612,0,0,1-2.593-1.028,3.1,3.1,0,0,1-1.073-2.28,3.978,3.978,0,0,1,.917-2.347A6.677,6.677,0,0,1,496.2,34.4a34.814,34.814,0,0,1,5.5-1.431,29.193,29.193,0,0,0,5.41-1.7,22.989,22.989,0,0,0-5.768-1.878q-5.5-1.163-6.8-2.1a4.334,4.334,0,0,1-2.012-3.577,3.077,3.077,0,0,1,1.006-2.213,3.217,3.217,0,0,1,2.347-1.006,6.374,6.374,0,0,1,3.13.939,17.836,17.836,0,0,1,4.113,3.778A21.941,21.941,0,0,0,508.14,29.617Z" transform="translate(202.533 223.2)" fill="#fff"/>
    </g>
  </g>
</svg>
