<svg width="205" height="50" viewBox="0 0 205 50" fill="none" xmlns="http://www.w3.org/2000/svg">
<mask id="mask0_29_48" style="mask-type:alpha" maskUnits="userSpaceOnUse" x="0" y="0" width="205" height="50">
<rect width="205" height="50" fill="#D9D9D9" style="fill:#D9D9D9;fill:color(display-p3 0.8510 0.8510 0.8510);fill-opacity:1;"/>
</mask>
<g mask="url(#mask0_29_48)">
<path d="M23.1362 0.611962C23.6017 0.30059 24.149 0.134399 24.7088 0.134399C25.2686 0.134399 25.8158 0.30059 26.2813 0.611962C28.7056 2.13898 31.0315 3.81733 33.2452 5.63704C33.2452 5.63704 33.8481 6.05559 33.8646 5.3466C33.8046 4.43111 33.8587 3.5117 34.0254 2.60957C34.1147 2.374 34.273 2.17099 34.4797 2.02724C34.6863 1.88349 34.9315 1.80573 35.1831 1.80418C35.1831 1.80418 37.9178 1.94116 39.6543 2.17453C40.0316 2.22474 40.3811 2.40048 40.6467 2.67351C40.9122 2.94655 41.0784 3.30103 41.1186 3.68003C41.1186 3.68003 42.2357 11.1377 42.4865 13.8266C42.4865 13.8266 42.7019 15.1964 44.6816 17.5149C44.6816 17.5149 48.7019 23.1525 49.1693 24.2306C49.1693 24.2306 50.1015 26.18 48.0914 26.4451C48.0914 26.4451 44.4232 26.8154 44.0698 26.8966C43.8322 26.925 43.6151 27.0453 43.4648 27.2318C43.3145 27.4183 43.243 27.6562 43.2655 27.8948C43.2655 27.8948 43.073 40.8684 42.1243 47.1009C42.1243 47.1009 41.8747 49.5742 40.5156 49.5171C40.5156 49.5171 36.7436 49.3966 35.8671 49.4207C35.8671 49.4207 35.4897 49.4207 35.5454 48.9134C35.5454 48.9134 37.4669 28.6837 36.1648 18.4572C36.1648 18.4572 36.1078 17.1369 35.1033 16.8465C35.1033 16.8465 34.1863 16.4761 33.3098 17.6518C29.5059 22.9844 27.4235 29.3553 27.3427 35.908C27.3427 35.908 27.2376 39.1296 27.729 39.9337C27.729 39.9337 28.033 40.4981 29.5948 40.6262L31.572 40.8925C31.572 40.8925 31.9342 40.8925 31.9013 41.3745C31.9013 41.3745 31.4517 47.3102 31.3237 48.3655C31.3149 48.6064 31.2667 48.8424 31.1781 49.0656C31.1781 49.0656 31.1059 49.2672 30.4865 49.2431C30.4865 49.2431 21.7695 49.1797 20.7879 49.2431C20.7879 49.2431 20.3775 49.2431 20.2901 49.0263C20.2015 48.8081 19.6859 41.3669 19.7024 40.3129C19.6946 40.2059 19.7196 40.0991 19.7742 40.0068C19.8287 39.9146 19.9102 39.8412 20.0077 39.7967C20.673 39.3764 21.2353 38.8117 21.653 38.1442C22.0707 37.4768 22.333 36.7238 22.4206 35.941C22.527 34.8122 22.5422 33.6796 22.4687 32.5495C22.4687 32.5495 22.7905 21.1714 22.8715 19.3425C22.8715 19.3425 22.9348 18.7223 22.1305 18.6107C21.9376 18.5653 21.7345 18.5983 21.5658 18.7024C21.397 18.8065 21.2763 18.9732 21.23 19.1662V19.2296C21.23 19.2943 20.6676 26.7355 20.7714 29.6983C20.7714 29.6983 20.9652 31.6389 19.6226 31.6794C19.6226 31.6794 18.3193 31.8735 18.2547 30.2551C18.2547 30.2551 18.3509 22.9585 18.6726 19.3514C18.6739 19.1523 18.6014 18.9598 18.4692 18.8111C18.3371 18.6624 18.1546 18.5679 17.957 18.546C17.7521 18.5175 17.544 18.5694 17.3764 18.6909C17.2088 18.8124 17.0946 18.9941 17.0577 19.1979C17.0526 19.2188 17.0526 19.2405 17.0577 19.2613C17.0577 19.2613 16.494 26.2447 16.5979 29.933C16.5979 29.933 16.7588 31.7213 15.3351 31.6553C15.3351 31.6553 14.1444 31.7923 14.0811 30.2057C14.0811 30.2057 14.4028 20.2126 14.4915 19.4402C14.4812 19.2495 14.4036 19.0687 14.2725 18.93C14.1415 18.7913 13.9654 18.7038 13.7759 18.683H13.6948C13.4937 18.6661 13.2936 18.7255 13.1342 18.8492C12.9747 18.973 12.8674 19.1522 12.8335 19.3514C12.8309 19.3754 12.8309 19.3996 12.8335 19.4237C12.8335 19.4237 12.304 31.3738 12.3762 34.8845C12.3762 34.8845 12.3281 38.4929 14.9893 39.9578C14.9893 39.9578 15.3832 40.1835 15.3921 40.5298C15.3921 40.5298 15.6897 46.8676 15.9621 48.9134C15.9621 48.9134 16.0596 49.4042 15.6251 49.4042L8.92594 49.5894C8.57478 49.5873 8.23766 49.4511 7.98343 49.2085C7.72919 48.966 7.57701 48.6354 7.55798 48.2843C6.68997 41.5691 6.27652 34.8028 6.32048 28.0318C6.34395 27.7812 6.27513 27.5308 6.12699 27.3275C5.97885 27.1243 5.7616 26.9823 5.51617 26.9283C5.51617 26.9283 2.08994 26.615 1.26157 26.4058C1.04835 26.3503 0.850907 26.246 0.68476 26.1012C0.518614 25.9563 0.388303 25.7749 0.30408 25.571C0.219858 25.3672 0.184022 25.1466 0.199393 24.9265C0.214764 24.7065 0.280922 24.493 0.392661 24.3029C5.95894 14.6875 13.7604 6.56019 23.1362 0.611962ZM70.3118 19.3831H63.7C61.5619 19.3831 61.562 19.3831 61.111 21.888C60.6614 24.3917 60.6677 24.4805 62.631 24.4805H66.5639L64.3283 37.2765C63.7887 40.1353 62.5423 42.1088 58.6981 43.2681C57.7177 43.5344 57.4517 43.8883 57.4517 44.3385C57.5201 45.0589 57.7342 45.7578 58.0787 46.3932C58.6994 47.9152 59.0604 48.1879 59.5911 48.1879C60.2285 48.1267 60.8587 48.0053 61.4733 47.8252C66.9173 46.0381 69.1529 41.8349 70.0458 36.825L72.5474 22.4271C72.9895 19.3831 72.9895 19.3831 70.3118 19.3831ZM92.7324 19.3831C90.0547 19.3831 90.0548 19.3831 89.6925 21.6217L87.7622 33.2496C87.2238 36.6487 86.3309 38.6133 83.025 38.6133C79.7203 38.6133 78.6513 36.6475 79.1896 33.6035L81.0642 22.5158C81.6025 19.3831 81.5063 19.3831 78.74 19.3831C75.9724 19.3831 75.9724 19.3831 75.6114 21.5329L73.6481 33.1621C72.4904 39.7815 76.5993 43.8883 82.4068 43.8883C88.9211 43.8883 92.2257 40.9407 93.296 33.9675L95.2657 22.4271C95.709 19.3831 95.5316 19.3831 92.7653 19.3831M104.964 38.4358C107.112 38.347 108.27 37.3653 108.27 36.3824C108.27 35.1267 106.75 34.6828 104.698 34.055C100.678 32.7994 97.0187 31.3738 97.0187 27.0818C97.0187 21.9831 101.218 19.2055 106.484 19.2055C108.603 19.1902 110.721 19.2817 112.83 19.4795C114.254 19.657 114.616 20.101 114.165 22.3383C113.714 24.5769 113.183 24.7544 111.937 24.6656C110.417 24.5769 108.447 24.3917 106.131 24.3917C103.453 24.3917 102.648 25.3822 102.648 26.2764C102.648 27.4357 103.718 28.0647 106.219 28.7813C110.859 30.1181 113.899 32.0029 113.899 36.0285C113.899 40.772 110.417 43.542 104.788 43.7183C102.099 43.8133 99.4073 43.6652 96.7451 43.2757C94.9528 43.0017 94.8641 43.0017 95.3138 40.4093C95.7571 38.0895 95.7571 37.9044 97.4544 38.0895C99.9408 38.4041 102.45 38.522 104.957 38.4447M134.174 19.3831H119.078C116.939 19.3831 116.939 19.3831 116.489 21.9831C116.038 24.5857 116.135 24.5769 118.009 24.5769H122.924L120.149 40.6186C119.617 43.7424 119.705 43.7424 122.473 43.7424C125.062 43.7424 125.15 43.7424 125.513 41.5127L128.366 24.601H133.104C135.244 24.601 135.244 24.601 135.694 22.0085C136.144 19.4148 136.136 19.4085 134.174 19.4085M160.792 24.5134C162.933 24.5134 162.933 24.5134 163.382 21.9197C163.832 19.3273 163.826 19.3273 161.862 19.3273H151.054C147.21 19.3273 147.305 19.3273 146.679 23.1766L143.913 39.3617C143.196 43.5661 143.285 43.5661 147.13 43.5661H157.672C159.908 43.5661 159.812 43.5661 160.261 41.0612C160.712 38.5575 160.705 38.4688 158.741 38.4688H149.622L150.339 33.814H157.93C159.989 33.814 159.989 33.814 160.342 31.3979C160.697 28.9817 160.697 28.8942 157.93 28.8942H151.23L151.946 24.5058L160.792 24.5134ZM172.204 33.0733L175.688 25.3822C175.96 24.7544 175.96 24.7544 176.402 24.7544C176.845 24.7544 176.853 24.7544 176.942 25.471L178.011 33.0733H172.204ZM181.67 22.3383C181.139 19.2943 181.139 19.2943 176.844 19.2943C172.824 19.2943 172.913 19.2943 171.666 21.7992L162.643 40.6744C161.3 43.3569 161.572 43.6219 164.871 43.6219C167.467 43.6219 167.467 43.6219 168.538 41.2058L169.961 37.9843H178.719L179.162 41.2058C179.523 43.6219 179.612 43.6219 182.202 43.6219C185.153 43.6219 185.418 43.4444 184.878 40.4892L181.67 22.3383ZM203.038 19.3831H187.855C185.707 19.3831 185.707 19.3831 185.265 21.9831C184.821 24.5857 184.902 24.5769 186.777 24.5769H191.692L188.924 40.6186C188.386 43.7424 188.473 43.7424 191.248 43.7424C193.837 43.7424 193.926 43.7424 194.281 41.5127L197.143 24.601H201.871C204.018 24.601 204.018 24.601 204.462 22.0085C204.904 19.4148 205 19.4085 203.038 19.4085" fill="#9A9A9A" style="fill:#9A9A9A;fill:color(display-p3 0.6039 0.6039 0.6039);fill-opacity:1;"/>
</g>
</svg>
