<svg width="669" height="134" viewBox="0 0 669 134" fill="none" xmlns="http://www.w3.org/2000/svg">
<path d="M384.776 82.7213C384.829 82.628 384.876 82.5347 384.923 82.4414C384.969 82.3481 385.009 82.2548 385.043 82.1548C385.076 82.0615 385.103 81.9615 385.129 81.8616C385.156 81.7549 385.176 81.655 385.196 81.5483C385.209 81.4484 385.216 81.3551 385.223 81.2551C385.229 81.1418 385.236 81.0352 385.229 80.9219C385.229 80.8286 385.216 80.7419 385.203 80.6486C385.189 80.5287 385.169 80.4087 385.143 80.2887C385.123 80.2088 385.096 80.1288 385.069 80.0488C385.029 79.9222 384.989 79.8022 384.936 79.6823C384.929 79.6623 384.923 79.6423 384.916 79.6223C384.883 79.5623 384.843 79.509 384.809 79.449C384.763 79.3624 384.729 79.2757 384.67 79.1958C384.65 79.1691 384.63 79.1558 384.616 79.1291C384.556 79.0492 384.49 78.9758 384.423 78.8959C384.35 78.8092 384.276 78.7159 384.19 78.636C384.13 78.5826 384.063 78.536 384.003 78.4827C383.903 78.4027 383.803 78.3094 383.69 78.2428C383.67 78.2294 383.643 78.2161 383.617 78.2028C383.297 78.0095 382.943 77.8696 382.584 77.7962C382.584 77.7962 382.57 77.7962 382.564 77.7962C382.45 77.7762 382.33 77.7696 382.217 77.7562C382.124 77.7496 382.03 77.7296 381.937 77.7296C381.83 77.7296 381.724 77.7429 381.617 77.7562C381.517 77.7629 381.411 77.7696 381.311 77.7829C381.204 77.8029 381.104 77.8362 380.997 77.8695C380.904 77.8962 380.817 77.9095 380.724 77.9429C380.591 77.9962 367.122 82.9812 354.22 78.5427C352.38 77.9095 350.374 78.9758 349.901 80.9019C349.475 82.608 350.554 84.3407 352.22 84.9005C354.026 85.5137 355.826 85.9735 357.598 86.3067C359.904 86.7399 360.431 89.8122 358.405 90.9985C352.907 94.2374 346.742 97.8762 340.364 101.655C328.102 108.919 317.185 115.324 307.782 120.089C306.162 120.909 304.683 121.635 303.33 122.268C298.192 124.681 293.306 118.536 296.799 114.064C298.691 111.638 301.064 108.833 304.01 105.607C313.86 94.8372 327.275 82.508 340.817 71.7849C378.978 41.5749 391.107 30.5852 388.568 16.1101C386.915 6.65319 379.518 0.488574 369.261 0.0287268C357.878 -0.477772 344.796 5.7335 333.327 17.0764C319.771 30.4919 309.188 50.2521 302.73 74.2174C302.224 76.0968 303.436 78.0428 305.402 78.376C307.122 78.6693 308.748 77.483 309.201 75.8036C316.972 47.0598 329.155 30.5852 338.012 21.8215C348.008 11.9248 359.584 6.27332 368.961 6.69318C376.132 7.01307 380.884 10.8718 382.004 17.2697C383.603 26.4 377.852 33.9708 336.679 66.5666C316.092 82.8679 283.31 113.558 283.01 126.507C282.943 129.292 284.176 130.959 285.223 131.865C286.429 132.918 287.988 133.458 290.041 133.458C294.14 133.458 300.211 131.298 309.374 126.74C319.211 121.848 330.767 115.077 343.756 107.38C350.547 103.354 357.099 99.489 362.857 96.0968C364.769 94.9705 367.135 96.67 366.642 98.8359C365.636 103.208 365.343 108.279 366.316 114.064C366.589 115.69 368.002 116.843 369.595 116.843C369.828 116.843 370.074 116.817 370.314 116.763C372.06 116.383 373.16 114.617 372.867 112.851C369.714 93.7443 383.157 84.2208 383.776 83.8009C383.83 83.7676 383.87 83.7209 383.923 83.6809C384.023 83.6076 384.116 83.5343 384.203 83.4477C384.276 83.3811 384.343 83.3077 384.403 83.2344C384.476 83.1478 384.55 83.0612 384.61 82.9745C384.67 82.8945 384.723 82.8079 384.776 82.7213Z" fill="#9A9A9A"/>
<path d="M391.963 65.1851C391.963 38.6689 406.748 22.1233 430.33 22.1233C450.393 22.1233 463.77 33.8569 465.178 52.7475H452.272C450.629 40.663 442.182 33.153 430.33 33.153C414.726 33.153 404.869 45.4729 404.869 65.1851C404.869 84.8973 414.724 97.2171 430.33 97.2171C442.182 97.2171 450.629 89.7071 452.272 77.6226H465.178C463.77 96.5132 450.393 108.247 430.33 108.247C406.748 108.247 391.963 91.7034 391.963 65.1851Z" fill="#9A9A9A"/>
<path d="M471.275 20.2469L483.713 19.1921V106.604H471.275V20.2469Z" fill="#9A9A9A"/>
<path d="M546.016 106.602H533.579V96.9797H532.993C529.708 103.433 521.73 107.774 513.398 107.774C499.906 107.774 491.105 98.9738 491.105 85.246V43.8275H503.425V83.6028C503.425 91.4637 508.47 96.5089 516.098 96.5089C526.189 96.5089 533.581 88.648 533.581 77.736V43.8275H546.019V106.599L546.016 106.602Z" fill="#9A9A9A"/>
<path d="M553.994 20.2469L566.431 19.1921V53.4537H566.9C570.888 46.2967 577.459 42.7771 586.612 42.7771C603.508 42.7771 614.771 55.9186 614.771 75.16C614.771 94.4015 603.508 107.661 586.612 107.661C577.461 107.661 570.89 104.141 566.9 96.984H566.431V106.606H553.994V20.2469ZM566.431 72.3421V77.9735C567.371 89.7071 574.41 97.215 584.265 97.215C595.059 97.215 602.216 88.4147 602.216 75.1556C602.216 61.8964 595.059 53.2139 584.265 53.2139C574.41 53.2139 567.368 60.7239 566.431 72.3399V72.3421Z" fill="#9A9A9A"/>
<path d="M616.898 87.6407H629.925C630.162 93.8207 634.898 97.5529 642.597 97.5529C650.769 97.5529 655.862 94.2886 655.862 89.04C655.862 84.959 653.257 82.3921 648.282 81.5754L635.017 79.3595C624.478 77.6114 618.675 71.4292 618.675 61.9827C618.675 50.4371 628.15 42.8578 642.716 42.8578C657.283 42.8578 666.284 50.3223 666.995 62.4506H654.441C654.203 56.6193 649.467 52.887 642.362 52.887C635.257 52.887 631.229 56.1514 631.229 61.1682C631.229 65.0175 633.834 67.5822 638.81 68.3988L652.074 70.6148C662.496 72.365 668.418 78.545 668.418 87.8746C668.418 100.003 658.352 107.701 642.364 107.701C626.377 107.701 617.371 100.235 616.898 87.6407Z" fill="#9A9A9A"/>
<path d="M0 23.7664H33.4399C50.9227 23.7664 62.1855 34.0921 62.1855 50.167C62.1855 66.2419 50.9227 76.9185 33.4399 76.9185H12.9061V106.603H0V23.7664ZM49.2794 50.4002C49.2794 41.2491 43.0618 35.3823 33.4399 35.3823H12.9061V65.5357H33.4399C43.0618 65.5357 49.2794 59.6689 49.2794 50.4002Z" fill="#9A9A9A"/>
<path d="M67.229 20.2469L79.6666 19.1921V106.604H67.229V20.2469Z" fill="#9A9A9A"/>
<path d="M85.416 87.9463C85.416 78.3244 92.1044 71.7537 103.603 70.3459L121.321 68.2341C124.958 67.7655 126.601 65.8869 126.601 62.3673C126.601 56.5004 121.907 52.7454 114.632 52.7454C107.358 52.7454 102.195 56.5004 101.256 62.3673H88.2317C89.4042 50.2828 99.6123 42.655 114.515 42.655C129.417 42.655 138.919 50.5159 138.919 64.0105V106.602H126.599V97.3327H126.013C123.08 103.082 114.515 107.423 106.183 107.423C93.5123 107.423 85.416 99.7976 85.416 87.9463ZM126.599 79.0284V75.9773C125.66 76.5635 124.37 77.0343 122.844 77.2674L107.122 79.0284C101.724 79.6146 98.5575 82.9011 98.5575 87.9463C98.5575 93.5777 102.548 97.2151 108.766 97.2151C118.621 97.2151 126.599 89.2365 126.599 79.0284Z" fill="#9A9A9A"/>
<path d="M144.432 116.927H153.583C157.574 116.927 159.568 115.87 160.74 112.939L164.024 104.725L139.62 43.8297H152.762L170.595 92.1698L188.313 43.8297H200.986L171.77 116.81C168.836 124.202 164.027 127.253 154.991 127.253H145.487L144.43 116.927H144.432Z" fill="#9A9A9A"/>
<path d="M197.7 75.2754C197.7 55.7986 209.552 42.6571 227.15 42.6571C246.744 42.6571 257.774 56.2671 256.484 78.7951H210.138C211.195 90.411 217.53 97.568 227.385 97.568C235.364 97.568 240.995 94.166 243.46 87.713H256.366C252.493 100.737 242.285 107.894 227.15 107.894C209.549 107.894 197.7 94.6346 197.7 75.2754ZM244.517 69.6418C242.991 58.7298 237.007 52.863 227.387 52.863C217.768 52.863 212.016 59.1983 210.373 69.6418H244.517Z" fill="#9A9A9A"/>
<path d="M261.882 43.8297H274.202V52.2769H274.788C276.9 46.1747 282.414 42.655 289.689 42.655H298.371L299.428 55.328H288.048C279.6 55.328 274.202 59.9046 274.202 67.2947V106.601H261.882V43.8297Z" fill="#9A9A9A"/>
</svg>
