<svg width="170" height="32" viewBox="0 0 170 32" fill="none" xmlns="http://www.w3.org/2000/svg">
<g clip-path="url(#clip0_2025_58)">
<path d="M31.9561 22.0159C32.1501 23.259 32.7984 24.3852 33.7749 25.1756C34.7514 25.966 35.9862 26.3641 37.2392 26.2923C37.9834 26.3218 38.7238 26.1717 39.398 25.8545C40.0722 25.5374 40.6606 25.0625 41.1135 24.4699C41.1873 24.3797 41.2796 24.3065 41.3841 24.2552C41.4885 24.2039 41.6028 24.1757 41.719 24.1725H47.0022C47.1363 24.1727 47.2682 24.2073 47.3853 24.2731C47.5024 24.3388 47.6007 24.4334 47.671 24.548C47.7414 24.6626 47.7813 24.7933 47.787 24.9277C47.7928 25.0621 47.7641 25.1957 47.7039 25.3159C46.7519 27.2937 45.2693 28.9667 43.4222 30.1473C41.575 31.3279 39.4364 31.9695 37.246 32C34.8436 32.0509 32.481 31.3796 30.4625 30.0727C28.4439 28.7657 26.8619 26.8829 25.9201 24.6667C24.9782 22.4506 24.7198 20.0025 25.1779 17.6378C25.6361 15.2731 26.79 13.1 28.4909 11.3984C30.1918 9.69686 32.3619 8.54467 34.7217 8.09026C37.0815 7.63585 39.523 7.90001 41.7317 8.84875C43.9404 9.79749 45.8152 11.3874 47.1148 13.4136C48.4143 15.4399 49.079 17.8097 49.0233 20.2179C49.0284 20.5882 49.0085 20.9585 48.9637 21.3261C48.9404 21.5145 48.8489 21.6878 48.7066 21.8129C48.5642 21.9381 48.3809 22.0065 48.1915 22.0051H31.9561V22.0159ZM42.2839 17.4531C41.9653 16.3378 41.2931 15.3568 40.3691 14.6585C39.445 13.9602 38.3192 13.5825 37.162 13.5825C36.0048 13.5825 34.879 13.9602 33.955 14.6585C33.0309 15.3568 32.3587 16.3378 32.0401 17.4531H42.2839Z" fill="#9A9A9A" style="fill:#9A9A9A;fill:color(display-p3 0.6039 0.6039 0.6039);fill-opacity:1;"/>
<path d="M69.6044 31.2558C69.397 31.254 69.1985 31.1706 69.0518 31.0236C68.9051 30.8765 68.8219 30.6775 68.8201 30.4696V28.8141H68.7374C67.4898 30.8633 65.2561 31.9593 62.0997 31.9946C59.4948 32.013 56.9641 31.1255 54.9386 29.4833C52.9132 27.8411 51.5183 25.5458 50.9916 22.9883C49.366 14.8036 54.2956 7.86961 61.8532 7.86961C63.0862 7.82553 64.3147 8.04258 65.4585 8.50659C66.6022 8.9706 67.6355 9.67116 68.4909 10.5625V1.88897C68.4927 1.68099 68.5759 1.48204 68.7226 1.33496C68.8693 1.18789 69.0678 1.10449 69.2753 1.10272H74.4567C74.6642 1.10449 74.8628 1.18789 75.0095 1.33496C75.1562 1.48204 75.2394 1.68099 75.2411 1.88897V30.4696C75.2394 30.6775 75.1562 30.8765 75.0095 31.0236C74.8628 31.1706 74.6642 31.254 74.4567 31.2558H69.6044ZM68.8554 19.8486C68.8356 18.7235 68.4855 17.6292 67.8489 16.7024C67.2123 15.7756 66.3174 15.0574 65.276 14.6376C64.2346 14.2177 63.0928 14.1148 61.9934 14.3417C60.894 14.5686 59.8856 15.1153 59.0944 15.9134C58.3031 16.7115 57.7639 17.7256 57.5443 18.8291C57.3246 19.9326 57.4342 21.0765 57.8593 22.118C58.2845 23.1594 59.0063 24.0521 59.9346 24.6846C60.863 25.3172 61.9567 25.6614 63.0791 25.6744C63.8444 25.691 64.6051 25.5518 65.3151 25.2651C66.0252 24.9785 66.6698 24.5505 67.21 24.0068C67.7502 23.4632 68.1749 22.8154 68.4582 22.1025C68.7414 21.3896 68.8774 20.6265 68.858 19.8594L68.8554 19.8486Z" fill="#9A9A9A" style="fill:#9A9A9A;fill:color(display-p3 0.6039 0.6039 0.6039);fill-opacity:1;"/>
<path d="M96.5212 31.2558C96.3138 31.254 96.1153 31.1706 95.9686 31.0236C95.8219 30.8765 95.7387 30.6775 95.7369 30.4696V28.8141H95.6543C94.4066 30.8633 92.1729 31.9593 89.0165 31.9946C86.4117 32.0127 83.8811 31.1252 81.8557 29.483C79.8303 27.8409 78.4354 25.5457 77.9084 22.9883C76.2828 14.8036 81.2124 7.86961 88.77 7.86961C90.0031 7.82553 91.2315 8.04258 92.3753 8.50659C93.519 8.9706 94.5523 9.67116 95.4077 10.5625V1.88897C95.4095 1.68099 95.4927 1.48204 95.6394 1.33496C95.7861 1.18789 95.9846 1.10449 96.1921 1.10272H101.374C101.581 1.10449 101.78 1.18789 101.926 1.33496C102.073 1.48204 102.156 1.68099 102.158 1.88897V30.4696C102.156 30.6775 102.073 30.8765 101.926 31.0236C101.78 31.1706 101.581 31.254 101.374 31.2558H96.5212ZM95.7722 19.8486C95.7524 18.7235 95.4023 17.6292 94.7657 16.7024C94.1291 15.7756 93.2342 15.0574 92.1928 14.6376C91.1514 14.2177 90.0096 14.1148 88.9102 14.3417C87.8108 14.5686 86.8025 15.1153 86.0112 15.9134C85.2199 16.7115 84.6807 17.7256 84.4611 18.8291C84.2414 19.9326 84.351 21.0765 84.7762 22.118C85.2013 23.1594 85.9231 24.0521 86.8515 24.6846C87.7798 25.3172 88.8735 25.6614 89.9959 25.6744C90.7612 25.691 91.5219 25.5518 92.2319 25.2651C92.942 24.9785 93.5866 24.5505 94.1268 24.0068C94.667 23.4632 95.0917 22.8154 95.375 22.1025C95.6582 21.3896 95.7942 20.6265 95.7748 19.8594L95.7722 19.8486Z" fill="#9A9A9A" style="fill:#9A9A9A;fill:color(display-p3 0.6039 0.6039 0.6039);fill-opacity:1;"/>
<path d="M105.637 30.4749V9.43542C105.638 9.22744 105.722 9.02844 105.868 8.88137C106.015 8.7343 106.214 8.6509 106.421 8.64912H111.597C111.805 8.6509 112.003 8.7343 112.15 8.88137C112.297 9.02844 112.38 9.22744 112.381 9.43542V30.4749C112.38 30.6829 112.297 30.8819 112.15 31.029C112.003 31.1761 111.805 31.2595 111.597 31.2612H106.416C106.313 31.2616 106.211 31.2415 106.116 31.202C106.021 31.1626 105.935 31.1046 105.862 31.0314C105.79 30.9583 105.732 30.8714 105.694 30.7759C105.655 30.6803 105.636 30.578 105.637 30.4749Z" fill="#9A9A9A" style="fill:#9A9A9A;fill:color(display-p3 0.6039 0.6039 0.6039);fill-opacity:1;"/>
<path d="M132.708 17.3689C132.563 17.3679 132.421 17.3275 132.298 17.2519C132.174 17.1763 132.073 17.0684 132.006 16.9398C131.546 16.0685 130.848 15.3467 129.993 14.8591C129.139 14.3716 128.163 14.1384 127.181 14.1871C125.744 14.3244 124.412 14.9986 123.448 16.0757C122.484 17.1528 121.96 18.554 121.979 20.0007C121.999 21.4475 122.561 22.8339 123.553 23.8846C124.545 24.9353 125.895 25.5732 127.335 25.6717C128.276 25.7099 129.21 25.4864 130.032 25.026C130.854 24.5656 131.533 23.8862 131.994 23.063C132.064 22.9412 132.165 22.8397 132.285 22.7683C132.406 22.6969 132.543 22.6581 132.684 22.6556H138.055C138.179 22.6556 138.302 22.6852 138.413 22.742C138.524 22.7987 138.62 22.881 138.693 22.9821C138.766 23.0832 138.814 23.2002 138.834 23.3236C138.853 23.4469 138.843 23.5731 138.804 23.6917C137.938 26.4716 136.108 28.849 133.645 30.3939C131.182 31.9388 128.249 32.5492 125.376 32.1147C122.504 31.6803 119.881 30.2296 117.982 28.0251C116.084 25.8207 115.035 23.0079 115.025 20.0955C115.016 17.1831 116.046 14.3634 117.93 12.1463C119.814 9.92925 122.427 8.46115 125.297 8.00755C128.166 7.55395 131.103 8.14479 133.576 9.67323C136.049 11.2017 137.895 13.5668 138.779 16.3409C138.815 16.459 138.822 16.5838 138.8 16.7052C138.778 16.8266 138.729 16.9412 138.655 17.0397C138.581 17.1383 138.485 17.2181 138.374 17.2726C138.264 17.3272 138.142 17.3551 138.019 17.3539H132.708V17.3689Z" fill="#9A9A9A" style="fill:#9A9A9A;fill:color(display-p3 0.6039 0.6039 0.6039);fill-opacity:1;"/>
<path d="M152.792 31.9593C150.431 31.9268 148.131 31.1963 146.183 29.8593C144.234 28.5223 142.722 26.6384 141.837 24.4436C140.952 22.2489 140.733 19.841 141.208 17.5221C141.683 15.2031 142.829 13.0761 144.505 11.4079C146.18 9.73968 148.31 8.60447 150.626 8.14458C152.943 7.6847 155.343 7.92062 157.526 8.82276C159.709 9.72489 161.578 11.2531 162.899 13.2158C164.219 15.1784 164.932 17.4882 164.948 19.8554C164.985 21.4621 164.696 23.0596 164.097 24.5504C163.498 26.0412 162.603 27.3941 161.465 28.5267C160.328 29.6592 158.972 30.5477 157.481 31.1378C155.99 31.728 154.394 32.0075 152.792 31.9593ZM158.2 19.9382C158.145 18.8788 157.781 17.8589 157.154 17.0046C156.527 16.1504 155.663 15.4993 154.67 15.1321C153.678 14.7649 152.599 14.6976 151.569 14.9386C150.538 15.1796 149.601 15.7183 148.873 16.488C148.145 17.2577 147.658 18.2246 147.472 19.2689C147.287 20.3133 147.411 21.3892 147.83 22.3635C148.248 23.3379 148.942 24.1677 149.826 24.7504C150.711 25.3331 151.746 25.643 152.804 25.6418C154.272 25.5999 155.664 24.9768 156.674 23.909C157.685 22.8411 158.233 21.4154 158.198 19.9437L158.2 19.9382Z" fill="#9A9A9A" style="fill:#9A9A9A;fill:color(display-p3 0.6039 0.6039 0.6039);fill-opacity:1;"/>
<path d="M17.1837 20.992C19.3697 20.594 21.3355 19.4096 22.7119 17.6612C24.0883 15.9128 24.7805 13.7208 24.6586 11.4969C24.7252 9.57951 24.2394 7.68351 23.2595 6.03556C22.2797 4.3876 20.847 3.0574 19.133 2.20403C16.854 1.37732 14.4358 1.00508 12.0143 1.10815H0.796508C0.585255 1.10815 0.382663 1.19227 0.233285 1.34202C0.0839059 1.49176 0 1.69486 0 1.90663V30.475C0 30.6868 0.0839059 30.8899 0.233285 31.0396C0.382663 31.1894 0.585255 31.2735 0.796508 31.2735H6.57273C6.78398 31.2735 6.98658 31.1894 7.13595 31.0396C7.28533 30.8899 7.36928 30.6868 7.36928 30.475V7.87509H12.4627C15.3508 7.87509 17.2988 9.34037 17.2988 11.9491C17.2988 14.8444 15.4335 16.273 12.3788 16.273H10.4064C10.1951 16.273 9.99252 16.3571 9.84314 16.5068C9.69376 16.6566 9.60985 16.8597 9.60985 17.0715V21.2813C9.60948 21.4469 9.65903 21.6088 9.75207 21.7457L16.3235 30.9435C16.3971 31.0456 16.4935 31.1289 16.605 31.1869C16.7165 31.2449 16.84 31.276 16.9656 31.2775H23.6914C23.8404 31.2782 23.9866 31.2366 24.113 31.1574C24.2393 31.0782 24.3407 30.9647 24.4054 30.8301C24.47 30.6955 24.4953 30.5452 24.4783 30.3968C24.4612 30.2484 24.4026 30.1079 24.3091 29.9915L17.1837 20.992Z" fill="#9A9A9A" style="fill:#9A9A9A;fill:color(display-p3 0.6039 0.6039 0.6039);fill-opacity:1;"/>
<path d="M109.011 6.76557C110.875 6.76557 112.386 5.25105 112.386 3.38279C112.386 1.51453 110.875 0 109.011 0C107.147 0 105.637 1.51453 105.637 3.38279C105.637 5.25105 107.147 6.76557 109.011 6.76557Z" fill="#9A9A9A" style="fill:#9A9A9A;fill:color(display-p3 0.6039 0.6039 0.6039);fill-opacity:1;"/>
</g>
<defs>
<clipPath id="clip0_2025_58">
<rect width="170" height="32" fill="white" style="fill:white;fill-opacity:1;"/>
</clipPath>
</defs>
</svg>
