<svg xmlns="http://www.w3.org/2000/svg" width="106.042" height="24.36" viewBox="0 0 106.042 24.36">
  <g id="Group_1539" data-name="Group 1539" transform="translate(-0.63 -0.77)">
    <path id="Path_4092" data-name="Path 4092" d="M50.559,24.426V1.04h4.872V13.87h.715a2.675,2.675,0,0,0,2.468-1.1,19,19,0,0,0,1.527-3.053C61.18,7.8,62.479,7.536,64.785,7.536h1.007l-.487,4.32h-.52c-1.137,0-1.4.357-1.916,1.462a3.4,3.4,0,0,1-2.339,2.209v.13c1.137.26,2.176,1.494,3.183,3.15l2.793,5.619H61.147l-2.241-4.84a2.807,2.807,0,0,0-2.761-1.656h-.715v6.5Z" transform="translate(40.165 0.217)" fill="#929292"/>
    <path id="Path_4093" data-name="Path 4093" d="M48.583,21.747H43.711V4.857h4.58V7.781c1.072-2.274,2.176-3.41,4.612-3.41a4.483,4.483,0,0,1,2.988.844l-.715,4.352a5.126,5.126,0,0,0-2.4-.65c-2.793,0-4.19,2.046-4.19,5.327Z" transform="translate(34.657 2.896)" fill="#929292"/>
    <path id="Path_4094" data-name="Path 4094" d="M44.8,19.993a5.625,5.625,0,0,1-4.84,2.241c-3.053,0-5.619-1.656-5.619-4.775,0-3.638,2.533-5,6.626-5.489a11.827,11.827,0,0,0,3.638-.78V10.8A2.379,2.379,0,0,0,41.94,8.333a2.918,2.918,0,0,0-2.956,2.5L34.859,9.469c.844-3.9,4.157-5.1,7.308-5.1,4.32,0,7.308,1.949,7.308,7.178V18.3a4.94,4.94,0,0,0,.974,3.443h-4.9A2.839,2.839,0,0,1,44.8,19.993ZM44.6,16.388V14.114a16.01,16.01,0,0,1-2.988.844c-1.494.292-2.468.844-2.4,2.176.032.747.487,1.462,1.884,1.462A4.139,4.139,0,0,0,44.6,16.388Z" transform="translate(27.117 2.896)" fill="#929292"/>
    <path id="Path_4095" data-name="Path 4095" d="M36.065,24.643H31.193V2.069L36.065.77Z" transform="translate(24.587)" fill="#929292"/>
    <path id="Path_4096" data-name="Path 4096" d="M24.021,12.95c0,4.775,2.371,7.633,5.944,7.633,2.533,0,4.255-1.3,5.067-4.06l5.1,1.429C38.7,22.434,35.584,25.13,29.965,25.13c-7.146,0-11.3-5.132-11.3-12.18S22.657.77,29.8.77C35.1.77,38.962,3.3,40.131,7.981l-5.1,1.429A4.91,4.91,0,0,0,29.8,5.317C26.229,5.317,24.021,8.175,24.021,12.95Z" transform="translate(14.505 0)" fill="#929292"/>
    <path id="Path_4097" data-name="Path 4097" d="M16.379,16.172h-4.9V11.3h4.9Z" transform="translate(8.724 8.471)" fill="#929292"/>
    <path id="Path_4098" data-name="Path 4098" d="M.63,17.172l5-.26c.26,2.761,1.754,3.67,4.45,3.67,2.079,0,3.8-.715,3.8-2.566,0-1.332-.65-1.949-2.5-2.566-1.234-.422-3.833-1.1-5.229-1.527C2.059,12.69,1.28,10.092,1.28,7.883c0-4.84,4-7.113,8.25-7.113,5.522,0,8.575,2.306,8.9,7.178l-5.067.227c-.292-1.689-1.2-2.858-3.7-2.858-2.111,0-3.378.877-3.378,2.111,0,.877.357,1.4,1.462,1.819,1.072.422,3.41,1.072,5.652,1.689,3.41.974,5.814,3.021,5.814,6.918,0,4.937-4.547,7.276-9,7.276C4.008,25.13.987,22.142.63,17.172Z" fill="#929292"/>
  </g>
</svg>
