<svg xmlns="http://www.w3.org/2000/svg" width="86.584" height="41.661" viewBox="0 0 86.584 41.661">
  <g id="logo" transform="translate(-2.049)">
    <path id="Path_3796" data-name="Path 3796" d="M306.457,8.394l3.279,2.743c.109.088.22.176.357.293l4.943-4.362q1.372,1.137,2.752,2.286,6.507,5.4,13.028,10.792a.883.883,0,0,1,.382.831c-.023.381-.005.764-.005,1.164-.106.006-.191.017-.276.017q-5.123,0-10.246,0a.633.633,0,0,1-.381-.12q-3.494-2.9-6.977-5.814c-1.432-1.193-2.877-2.374-4.309-3.563q-6.254-5.188-12.5-10.386c-.042-.035-.088-.068-.157-.122L273.657,22.158l-1.077-1.216L296.309,0l4.586,3.8q2.534,2.1,5.069,4.2a1.378,1.378,0,0,0,.232.128V8.125l.073.119Zm5.052,4.18a.647.647,0,0,0,.081.1q4.559,3.781,9.124,7.562a.7.7,0,0,0,.413.134c2.273.008,4.547.005,6.82,0,.08,0,.159-.013.3-.025L315.076,9.423Z" transform="translate(-246.743)" fill="#9a9a9a"/>
    <path id="Path_3797" data-name="Path 3797" d="M660.911,411.793H641.65V405.94h18.377Z" transform="translate(-583.361 -370.246)" fill="#9a9a9a"/>
    <path id="Path_3798" data-name="Path 3798" d="M659.989,259.74l.885,5.849H641.61V259.74Z" transform="translate(-583.324 -236.901)" fill="#9a9a9a"/>
    <path id="Path_3799" data-name="Path 3799" d="M659.946,333c.294,1.944.587,3.881.879,5.841H641.56V333Z" transform="translate(-583.279 -303.719)" fill="#9a9a9a"/>
    <path id="Path_3800" data-name="Path 3800" d="M870.582,274.216l-1.812.1v-13.1a3.557,3.557,0,0,1,2.967-3.429,8.933,8.933,0,0,1,1.609-.051,1.851,1.851,0,0,0,1.861-1.646c.039-.325.041-.654.062-1h1.721a3.858,3.858,0,0,1-2.011,4.055,4.319,4.319,0,0,1-1.351.352,8.348,8.348,0,0,1-1.319.015,1.836,1.836,0,0,0-1.747,1.759c.045,4.17.02,8.341.02,12.512Z" transform="translate(-790.51 -232.651)" fill="#9a9a9a"/>
    <path id="Path_3801" data-name="Path 3801" d="M501.61,79.74h3.243v4.133H501.61Z" transform="translate(-455.634 -72.728)" fill="#9a9a9a"/>
    <path id="Path_3802" data-name="Path 3802" d="M504.9,140.149h-3.24V136h3.24Z" transform="translate(-455.68 -124.042)" fill="#9a9a9a"/>
    <path id="Path_3803" data-name="Path 3803" d="M548.753,79.85v4.118H545.5V79.85Z" transform="translate(-495.665 -72.829)" fill="#9a9a9a"/>
    <path id="Path_3804" data-name="Path 3804" d="M545.5,140.187V136.06h3.24v4.127Z" transform="translate(-495.665 -124.096)" fill="#9a9a9a"/>
    <path id="Path_3805" data-name="Path 3805" d="M946.063,223.607a3.528,3.528,0,0,1-3.923,2.451v-1.752h.528a1.778,1.778,0,0,0,1.3-.528.642.642,0,0,1,.39-.164C944.916,223.6,945.475,223.607,946.063,223.607Z" transform="translate(-857.429 -203.943)" fill="#9a9a9a"/>
    <path id="Path_3806" data-name="Path 3806" d="M654.87,92.4l.073.119Z" transform="translate(-595.418 -84.275)" fill="#9a9a9a"/>
    <path id="Path_3807" data-name="Path 3807" d="M164.708,295.881a1.8,1.8,0,0,1-.754.673,2.648,2.648,0,0,1-1.2.251,2.845,2.845,0,0,1-1.759-.521,1.88,1.88,0,0,1-.754-1.453h1.633a.861.861,0,0,0,.255.565.791.791,0,0,0,.561.206.651.651,0,0,0,.466-.161.567.567,0,0,0,.171-.431.555.555,0,0,0-.157-.4,1.239,1.239,0,0,0-.39-.264c-.156-.069-.371-.151-.646-.246a8.08,8.08,0,0,1-.982-.4,1.8,1.8,0,0,1-.654-.574,1.878,1.878,0,0,1,.01-1.968,1.829,1.829,0,0,1,.791-.632,2.887,2.887,0,0,1,1.162-.22,2.611,2.611,0,0,1,1.681.5,1.9,1.9,0,0,1,.7,1.381h-1.651a.852.852,0,0,0-.229-.5.674.674,0,0,0-.5-.184.641.641,0,0,0-.435.143.528.528,0,0,0-.166.421.534.534,0,0,0,.149.382,1.128,1.128,0,0,0,.372.256c.149.065.365.149.645.251a7.176,7.176,0,0,1,1,.408,1.911,1.911,0,0,1,.66.586,1.68,1.68,0,0,1,.279,1.005A1.744,1.744,0,0,1,164.708,295.881Z" transform="translate(-144.265 -264.778)" fill="#9a9a9a"/>
    <path id="Path_3808" data-name="Path 3808" d="M232.6,291.338a2.929,2.929,0,0,1,1.027,1.722H232a1.489,1.489,0,0,0-.551-.69,1.546,1.546,0,0,0-.879-.251,1.347,1.347,0,0,0-1.085.493,1.994,1.994,0,0,0-.413,1.319,1.96,1.96,0,0,0,.413,1.314,1.349,1.349,0,0,0,1.085.489,1.54,1.54,0,0,0,.879-.251A1.5,1.5,0,0,0,232,294.8h1.623a2.933,2.933,0,0,1-1.027,1.718,3.082,3.082,0,0,1-2,.641,3.165,3.165,0,0,1-1.623-.408,2.774,2.774,0,0,1-1.081-1.143,3.885,3.885,0,0,1,0-3.355,2.772,2.772,0,0,1,1.081-1.143,3.165,3.165,0,0,1,1.623-.408A3.1,3.1,0,0,1,232.6,291.338Z" transform="translate(-205.636 -265.141)" fill="#9a9a9a"/>
    <path id="Path_3809" data-name="Path 3809" d="M315.36,290.677a3.048,3.048,0,0,1,1.153,1.157,3.525,3.525,0,0,1,0,3.35,3.07,3.07,0,0,1-1.157,1.162,3.352,3.352,0,0,1-3.238,0,3.064,3.064,0,0,1-1.157-1.162,3.5,3.5,0,0,1,0-3.35,3.071,3.071,0,0,1,1.157-1.157A3.37,3.37,0,0,1,315.36,290.677Zm-2.825,1.495a2.212,2.212,0,0,0,0,2.659,1.533,1.533,0,0,0,1.2.493,1.517,1.517,0,0,0,1.192-.493,1.9,1.9,0,0,0,.448-1.328,1.919,1.919,0,0,0-.44-1.327,1.7,1.7,0,0,0-2.4,0Z" transform="translate(-281.356 -264.738)" fill="#9a9a9a"/>
    <path id="Path_3810" data-name="Path 3810" d="M399.239,291.41v1.22h-1.722v5.122h-1.543V292.63h-1.7v-1.22Z" transform="translate(-357.733 -265.786)" fill="#9a9a9a"/>
    <path id="Path_3811" data-name="Path 3811" d="M464.218,291.41v1.22H462.5v5.122h-1.542V292.63h-1.7v-1.22Z" transform="translate(-416.999 -265.786)" fill="#9a9a9a"/>
    <path id="Path_3812" data-name="Path 3812" d="M528.935,278.7a1.478,1.478,0,0,1-.319.991,1.141,1.141,0,0,1-.928.372v-.574q.465,0,.466-.6v-.143h-.565v-1.1h1.179A3.331,3.331,0,0,1,528.935,278.7Z" transform="translate(-479.33 -253.227)" fill="#9a9a9a"/>
    <path id="Path_3813" data-name="Path 3813" d="M561.644,295.881a1.8,1.8,0,0,1-.754.673,2.65,2.65,0,0,1-1.206.251,2.845,2.845,0,0,1-1.759-.521,1.88,1.88,0,0,1-.754-1.453H558.8a.861.861,0,0,0,.256.565.791.791,0,0,0,.56.206.652.652,0,0,0,.467-.161.567.567,0,0,0,.171-.431.555.555,0,0,0-.157-.4,1.239,1.239,0,0,0-.39-.264c-.156-.069-.371-.151-.646-.246a8.082,8.082,0,0,1-.982-.4,1.8,1.8,0,0,1-.654-.574,1.866,1.866,0,0,1,.014-1.968,1.819,1.819,0,0,1,.791-.632,2.887,2.887,0,0,1,1.162-.22,2.611,2.611,0,0,1,1.681.5,1.9,1.9,0,0,1,.7,1.381h-1.656a.852.852,0,0,0-.229-.5.674.674,0,0,0-.5-.184.641.641,0,0,0-.435.143.528.528,0,0,0-.166.421.538.538,0,0,0,.148.382,1.143,1.143,0,0,0,.373.256c.149.065.364.149.645.251a7.164,7.164,0,0,1,1,.408,1.905,1.905,0,0,1,.667.586,1.683,1.683,0,0,1,.278,1.005A1.751,1.751,0,0,1,561.644,295.881Z" transform="translate(-506.295 -264.778)" fill="#9a9a9a"/>
    <path id="Path_3814" data-name="Path 3814" d="M7.174,400.274a2.483,2.483,0,0,1,.96,1.578H6.511a1.26,1.26,0,0,0-.493-.543,1.511,1.511,0,0,0-.8-.2,1.492,1.492,0,0,0-1.166.489,1.906,1.906,0,0,0-.44,1.323,1.936,1.936,0,0,0,.462,1.39,1.74,1.74,0,0,0,1.319.484,1.554,1.554,0,0,0,1.542-1.157H5v-1.106H8.215v1.516a3.105,3.105,0,0,1-.574,1.034,2.951,2.951,0,0,1-1.009.771,3.188,3.188,0,0,1-1.407.3,3.336,3.336,0,0,1-1.677-.408A2.793,2.793,0,0,1,2.44,404.6a3.8,3.8,0,0,1,0-3.354,2.807,2.807,0,0,1,1.1-1.143,3.3,3.3,0,0,1,1.668-.409A3.165,3.165,0,0,1,7.174,400.274Z" transform="translate(0 -364.546)" fill="#9a9a9a"/>
    <path id="Path_3815" data-name="Path 3815" d="M88.866,400.41v3.657a1.438,1.438,0,0,0,.283.959,1.179,1.179,0,0,0,1.641,0,1.443,1.443,0,0,0,.282-.959V400.41h1.534v3.657a3,3,0,0,1-.352,1.511,2.278,2.278,0,0,1-.955.923,2.96,2.96,0,0,1-1.368.31,2.863,2.863,0,0,1-1.345-.305,2.16,2.16,0,0,1-.914-.923,3.157,3.157,0,0,1-.332-1.516V400.41Z" transform="translate(-77.791 -365.202)" fill="#9a9a9a"/>
    <path id="Path_3816" data-name="Path 3816" d="M164.967,400.41v1.22h-1.722v5.122H161.7V401.63H160v-1.22Z" transform="translate(-144.062 -365.202)" fill="#9a9a9a"/>
    <path id="Path_3817" data-name="Path 3817" d="M229.965,400.41v1.22h-1.723v5.122H226.7V401.63H225v-1.22Z" transform="translate(-203.347 -365.202)" fill="#9a9a9a"/>
    <path id="Path_3818" data-name="Path 3818" d="M296.154,401.63v1.328H298.3v1.157h-2.143v1.407h2.412v1.231H294.62V400.41h3.946v1.22Z" transform="translate(-266.845 -365.202)" fill="#9a9a9a"/>
    <path id="Path_3819" data-name="Path 3819" d="M358.466,406.74l-1.373-2.4h-.352v2.4H355.21V400.4h2.619a2.832,2.832,0,0,1,1.274.264,1.8,1.8,0,0,1,.78.713,2.043,2.043,0,0,1,.264,1.036,1.847,1.847,0,0,1-.383,1.171,1.96,1.96,0,0,1-1.108.664l1.506,2.494Zm-1.723-3.444h.951a.955.955,0,0,0,.673-.2.776.776,0,0,0,.215-.6.792.792,0,0,0-.22-.592.921.921,0,0,0-.668-.215h-.951Z" transform="translate(-322.107 -365.191)" fill="#9a9a9a"/>
    <path id="Path_3820" data-name="Path 3820" d="M427.424,400.41v6.341H425.89V400.41Z" transform="translate(-386.572 -365.202)" fill="#9a9a9a"/>
    <path id="Path_3821" data-name="Path 3821" d="M466.822,406.751h-1.534l-2.565-3.893v3.893H461.19V400.41h1.534l2.565,3.929V400.41h1.534Z" transform="translate(-418.768 -365.202)" fill="#9a9a9a"/>
    <path id="Path_3822" data-name="Path 3822" d="M546.089,400.283a2.479,2.479,0,0,1,.959,1.578h-1.623a1.25,1.25,0,0,0-.493-.543,1.651,1.651,0,0,0-1.964.287,1.9,1.9,0,0,0-.44,1.323,1.936,1.936,0,0,0,.462,1.39,1.733,1.733,0,0,0,1.314.485,1.587,1.587,0,0,0,.96-.3,1.608,1.608,0,0,0,.583-.856h-1.934v-1.106h3.216v1.516a3.077,3.077,0,0,1-.572,1.034,2.939,2.939,0,0,1-1.01.771,3.189,3.189,0,0,1-1.407.3,3.341,3.341,0,0,1-1.671-.408,2.792,2.792,0,0,1-1.107-1.143,3.8,3.8,0,0,1,0-3.354,2.8,2.8,0,0,1,1.1-1.143,3.294,3.294,0,0,1,1.664-.408A3.16,3.16,0,0,1,546.089,400.283Z" transform="translate(-491.533 -364.555)" fill="#9a9a9a"/>
  </g>
</svg>
