<svg xmlns="http://www.w3.org/2000/svg" width="108" height="27" fill="none">
	<path d="M103.362 11.808c-.885 0-1.626-.123-2.224-.368-.597-.256-1.056-.597-1.376-1.024a2.934 2.934 0 0 1-.528-1.504l2.432-.08c.075.405.246.72.512.944.267.224.662.336 1.184.336.427 0 .758-.07.992-.208a.685.685 0 0 0 .368-.64.738.738 0 0 0-.128-.448c-.085-.128-.256-.235-.512-.32-.245-.096-.613-.181-1.104-.256-.906-.16-1.616-.347-2.128-.56-.512-.213-.874-.49-1.088-.832-.213-.341-.32-.757-.32-1.248 0-.821.315-1.483.944-1.984.64-.512 1.595-.768 2.864-.768.811 0 1.488.128 2.032.384.555.256.982.608 1.28 1.056.31.437.502.939.576 1.504l-2.416.096a1.464 1.464 0 0 0-.256-.704 1.29 1.29 0 0 0-.496-.464 1.444 1.444 0 0 0-.736-.176c-.426 0-.757.09-.992.272a.82.82 0 0 0-.336.688c0 .213.048.39.144.528.107.128.278.235.512.32.235.085.55.155.944.208.918.128 1.643.31 2.176.544.544.224.934.507 1.168.848.235.341.352.763.352 1.264 0 .555-.16 1.024-.48 1.408-.32.384-.768.677-1.344.88-.565.203-1.237.304-2.016.304ZM94.503 11.808c-.875 0-1.637-.181-2.288-.544a3.943 3.943 0 0 1-1.504-1.568c-.352-.672-.528-1.461-.528-2.368 0-.907.176-1.69.528-2.352a3.943 3.943 0 0 1 1.504-1.568c.64-.373 1.397-.56 2.272-.56.853 0 1.595.187 2.224.56.63.373 1.115.907 1.456 1.6.352.693.528 1.52.528 2.48v.48h-6.032c.032.683.213 1.19.544 1.52.341.33.79.496 1.344.496.405 0 .741-.085 1.008-.256.277-.17.475-.432.592-.784l2.416.144a3.332 3.332 0 0 1-1.424 2c-.725.48-1.605.72-2.64.72Zm-1.84-5.312h3.568c-.032-.63-.208-1.099-.528-1.408-.31-.31-.715-.464-1.216-.464s-.917.165-1.248.496c-.32.32-.512.779-.576 1.376ZM84.97 11.616V3.04h2.273l.08 2.496-.176-.048c.138-.864.384-1.488.736-1.872.352-.384.837-.576 1.456-.576h.784v1.984h-.784c-.448 0-.816.059-1.104.176a1.305 1.305 0 0 0-.656.56c-.139.256-.208.603-.208 1.04v4.816h-2.4ZM78.495 11.808c-.886 0-1.61-.203-2.176-.608-.555-.416-.832-.992-.832-1.728 0-.757.235-1.339.704-1.744.48-.416 1.184-.72 2.112-.912l2.768-.544c0-.555-.128-.97-.384-1.248-.245-.288-.603-.432-1.072-.432-.459 0-.816.107-1.072.32-.256.203-.422.507-.496.912l-2.416-.112c.16-.939.581-1.648 1.264-2.128.693-.49 1.6-.736 2.72-.736 1.28 0 2.24.304 2.88.912.65.608.976 1.499.976 2.672V9.36c0 .245.037.41.112.496.085.075.208.112.368.112h.24v1.648a2.729 2.729 0 0 1-.368.064c-.16.021-.32.032-.48.032-.342 0-.662-.059-.96-.176a1.511 1.511 0 0 1-.704-.592c-.181-.288-.272-.693-.272-1.216l.208.16c-.107.384-.299.72-.576 1.008-.267.288-.619.512-1.056.672-.427.16-.923.24-1.488.24Zm.576-1.648c.395 0 .741-.075 1.04-.224.298-.16.533-.39.704-.688.17-.299.256-.65.256-1.056v-.416l-1.952.416c-.384.075-.677.203-.88.384a.856.856 0 0 0-.288.672c0 .288.096.512.288.672.192.16.47.24.832.24ZM66.368 14.016V3.04h2.304l.048 1.808-.192-.08c.213-.619.56-1.093 1.04-1.424.48-.33 1.04-.496 1.68-.496.8 0 1.467.197 2 .592.533.395.933.933 1.2 1.616.278.672.416 1.43.416 2.272 0 .832-.139 1.59-.416 2.272-.266.683-.672 1.221-1.216 1.616-.533.395-1.2.592-2 .592-.416 0-.805-.075-1.168-.224a2.942 2.942 0 0 1-.944-.656 2.529 2.529 0 0 1-.56-.992l.208-.128v4.208h-2.4Zm4.208-4.048c.566 0 1.008-.235 1.328-.704.33-.47.496-1.115.496-1.936s-.165-1.467-.496-1.936c-.32-.47-.763-.704-1.328-.704a1.61 1.61 0 0 0-.976.304c-.266.192-.474.485-.624.88-.138.395-.208.88-.208 1.456s.07 1.061.208 1.456c.15.395.358.693.624.896.278.192.603.288.976.288ZM60.582 11.872c-.981 0-1.824-.165-2.528-.496-.704-.33-1.253-.795-1.648-1.392-.395-.597-.619-1.301-.672-2.112l2.448-.112c.064.448.192.832.384 1.152.203.31.47.544.8.704.341.16.757.24 1.248.24.405 0 .747-.048 1.024-.144.288-.096.507-.24.656-.432.15-.203.224-.448.224-.736 0-.267-.064-.496-.192-.688-.128-.203-.373-.384-.736-.544-.363-.17-.896-.336-1.6-.496-.97-.224-1.755-.475-2.352-.752-.587-.277-1.013-.624-1.28-1.04-.267-.427-.4-.96-.4-1.6 0-.683.165-1.28.496-1.792.341-.512.832-.912 1.472-1.2C58.566.144 59.329 0 60.214 0c.939 0 1.733.165 2.384.496.65.33 1.157.784 1.52 1.36.373.576.597 1.237.672 1.984l-2.432.128a2.23 2.23 0 0 0-.32-1.024 1.828 1.828 0 0 0-.736-.688c-.31-.16-.683-.24-1.12-.24-.555 0-.992.123-1.312.368-.31.245-.464.565-.464.96 0 .277.07.512.208.704.15.181.39.341.72.48.341.139.821.272 1.44.4 1.056.213 1.888.485 2.496.816.618.32 1.056.704 1.312 1.152.256.448.384.96.384 1.536 0 .704-.181 1.317-.544 1.84-.352.512-.859.907-1.52 1.184-.65.277-1.424.416-2.32.416ZM43.496 11.616V.256h2.4V5.04h-.32c.085-.501.25-.912.496-1.232.256-.32.57-.56.944-.72.384-.16.8-.24 1.248-.24.64 0 1.173.139 1.6.416.426.277.746.661.96 1.152.224.49.336 1.05.336 1.68v5.52h-2.4V6.672c0-.64-.102-1.12-.304-1.44-.192-.32-.523-.48-.992-.48-.491 0-.875.165-1.152.496-.278.33-.416.827-.416 1.488v4.88h-2.4ZM38.458 11.808c-.875 0-1.638-.181-2.288-.544a3.91 3.91 0 0 1-1.52-1.568c-.363-.672-.544-1.461-.544-2.368 0-.907.18-1.69.544-2.352a3.91 3.91 0 0 1 1.52-1.568c.65-.373 1.413-.56 2.288-.56.757 0 1.434.133 2.032.4.607.267 1.098.65 1.471 1.152.374.501.603 1.104.689 1.808l-2.48.112c-.075-.533-.267-.933-.577-1.2-.298-.277-.677-.416-1.136-.416-.597 0-1.06.23-1.392.688-.33.459-.495 1.104-.495 1.936 0 .832.165 1.483.495 1.952.331.459.795.688 1.393.688.458 0 .842-.139 1.151-.416.31-.288.496-.72.56-1.296l2.48.096c-.074.704-.298 1.317-.672 1.84a3.669 3.669 0 0 1-1.455 1.2c-.598.277-1.286.416-2.064.416ZM28.894 11.616V3.04h2.272l.08 2.496-.176-.048c.138-.864.384-1.488.736-1.872.352-.384.837-.576 1.456-.576h.784v1.984h-.784c-.448 0-.816.059-1.104.176a1.305 1.305 0 0 0-.656.56c-.14.256-.208.603-.208 1.04v4.816h-2.4ZM22.417 11.808c-.885 0-1.61-.203-2.176-.608-.555-.416-.832-.992-.832-1.728 0-.757.235-1.339.704-1.744.48-.416 1.184-.72 2.112-.912l2.768-.544c0-.555-.128-.97-.384-1.248-.245-.288-.603-.432-1.072-.432-.459 0-.816.107-1.072.32-.256.203-.421.507-.496.912l-2.416-.112c.16-.939.581-1.648 1.264-2.128.694-.49 1.6-.736 2.72-.736 1.28 0 2.24.304 2.88.912.65.608.976 1.499.976 2.672V9.36c0 .245.037.41.112.496.085.075.208.112.368.112h.24v1.648a2.732 2.732 0 0 1-.368.064c-.16.021-.32.032-.48.032-.341 0-.661-.059-.96-.176a1.511 1.511 0 0 1-.704-.592c-.181-.288-.272-.693-.272-1.216l.208.16c-.107.384-.299.72-.576 1.008-.266.288-.618.512-1.056.672-.427.16-.922.24-1.488.24Zm.576-1.648c.395 0 .742-.075 1.04-.224.299-.16.534-.39.704-.688.17-.299.256-.65.256-1.056v-.416l-1.952.416c-.384.075-.677.203-.88.384a.856.856 0 0 0-.288.672c0 .288.096.512.288.672.192.16.47.24.832.24ZM14.6 11.808c-.875 0-1.637-.181-2.288-.544a3.943 3.943 0 0 1-1.504-1.568c-.352-.672-.528-1.461-.528-2.368 0-.907.176-1.69.528-2.352a3.943 3.943 0 0 1 1.504-1.568c.64-.373 1.397-.56 2.272-.56.853 0 1.595.187 2.224.56.63.373 1.114.907 1.456 1.6.352.693.528 1.52.528 2.48v.48H12.76c.032.683.213 1.19.544 1.52.341.33.79.496 1.344.496.405 0 .741-.085 1.008-.256.277-.17.475-.432.592-.784l2.416.144a3.332 3.332 0 0 1-1.424 2c-.725.48-1.605.72-2.64.72Zm-1.84-5.312h3.568c-.032-.63-.208-1.099-.528-1.408-.31-.31-.715-.464-1.216-.464-.502 0-.918.165-1.248.496-.32.32-.512.779-.576 1.376ZM4.848 11.872c-.981 0-1.824-.165-2.528-.496-.704-.33-1.253-.795-1.648-1.392C.277 9.387.053 8.683 0 7.872l2.448-.112c.064.448.192.832.384 1.152.203.31.47.544.8.704.341.16.757.24 1.248.24.405 0 .747-.048 1.024-.144.288-.096.507-.24.656-.432.15-.203.224-.448.224-.736 0-.267-.064-.496-.192-.688-.128-.203-.373-.384-.736-.544-.363-.17-.896-.336-1.6-.496-.97-.224-1.755-.475-2.352-.752-.587-.277-1.013-.624-1.28-1.04-.267-.427-.4-.96-.4-1.6 0-.683.165-1.28.496-1.792.341-.512.832-.912 1.472-1.2C2.832.144 3.595 0 4.48 0c.939 0 1.733.165 2.384.496.65.33 1.157.784 1.52 1.36.373.576.597 1.237.672 1.984l-2.432.128a2.23 2.23 0 0 0-.32-1.024 1.828 1.828 0 0 0-.736-.688c-.31-.16-.683-.24-1.12-.24-.555 0-.992.123-1.312.368-.31.245-.464.565-.464.96 0 .277.07.512.208.704.15.181.39.341.72.48.341.139.821.272 1.44.4 1.056.213 1.888.485 2.496.816.619.32 1.056.704 1.312 1.152.256.448.384.96.384 1.536 0 .704-.181 1.317-.544 1.84-.352.512-.859.907-1.52 1.184-.65.277-1.424.416-2.32.416Z"
		  fill="#9A9A9A"/>
	<path d="M49.061 20.102c.35.11.633.171.85.18.708.033 1.402.095 2.084.186.724.097 2.56.33 5.508.699 1.159.143 2.252.248 3.282.31 1.126.068 2.219.174 3.28.315 1.117.149 2.498.115 3.598.266.286.04.362.174.33.468-.089.8-.334 1.601-.648 2.665-.305 1.034-.86.83-1.762.765-.288-.02-.564-.048-.827-.084a52.417 52.417 0 0 0-3.139-.33c-1-.073-1.727-.13-2.186-.17-3.845-.337-6.01-.526-6.494-.566-1.495-.126-2.896-.358-4.509-.436a93.03 93.03 0 0 1-3.222-.206 34.549 34.549 0 0 0-2.293-.116c-.952-.018-2.086-.154-3.058-.199-1.483-.07-3.534-.186-6.151-.352-1.724-.11-4.062-.23-7.015-.363-.479-.022-.988-.02-1.527.005-.828.039-1.61-.137-2.5-.13-1.886.014-3.039.008-3.458-.016a49.368 49.368 0 0 0-4.638-.048c-2.167.08-2.886.056-4.879.138-.618.026-1.37.044-2.256.056a74.935 74.935 0 0 0-6.105.342 5.66 5.66 0 0 1-.763-.02c-.41-.027-.596-.252-.558-.673a22.94 22.94 0 0 1 .563-3.396.278.278 0 0 1 .16-.192c.456-.188.908-.32 1.354-.402 1.438-.256 3.264-.76 4.895-.95.062-.006.503-.063 1.325-.168 1.612-.206 3.176-.307 5.027-.448a116.9 116.9 0 0 0 3.197-.281c1.83-.19 2.718-.306 4.26-.394 2.728-.155 4.272-.28 6.477-.277 3.894.003 5.973.018 9.187-.08 1.752-.055 3.89-.085 6.004-.134a54.025 54.025 0 0 1 3.403.018c.863.036 1.464.041 1.802.017a37.883 37.883 0 0 1 2.405-.081c3.312-.01 5.319-.002 6.022.026.097.004.297.007.602.008.216.002.416.011.6.029 1.382.13 2.503.203 3.358.218.411.007.697.168.547.652-.372 1.189-.775 2.21-1.21 3.06-.501.98-1.252.313-1.967.3-1.986-.039-3.454-.158-5.36-.143-.878.007-1.949-.01-3.21-.05a.507.507 0 0 1-.09-.01 1.422 1.422 0 0 0-.291-.053c-.023.004-.026.038-.004.045Z"
		  fill="#9A9A9A"/>
</svg>
