<?xml version="1.0" standalone="no"?>
<!DOCTYPE svg PUBLIC "-//W3C//DTD SVG 20010904//EN"
 "http://www.w3.org/TR/2001/REC-SVG-20010904/DTD/svg10.dtd">
<svg version="1.0" xmlns="http://www.w3.org/2000/svg"
 width="1678.000000pt" height="1678.000000pt" viewBox="0 0 1678.000000 1678.000000"
 preserveAspectRatio="xMidYMid meet">
<metadata>
Created by potrace 1.14, written by Peter Selinger 2001-2017
</metadata>
<g transform="translate(0.000000,1678.000000) scale(0.100000,-0.100000)"
fill="#000000" stroke="none">
<path d="M6900 13938 c-36 -85 -80 -181 -96 -210 -8 -16 -13 -28 -9 -28 3 0
-1 -10 -9 -22 -8 -13 -53 -111 -101 -218 -48 -107 -95 -213 -105 -235 -10 -22
-30 -65 -43 -95 -59 -134 -239 -533 -265 -591 -17 -35 -58 -127 -92 -204 -70
-159 -94 -211 -123 -275 -47 -104 -124 -277 -202 -450 -46 -102 -94 -210 -108
-240 -22 -47 -60 -133 -137 -305 -10 -22 -50 -112 -90 -200 -40 -88 -118 -263
-175 -390 -156 -350 -284 -635 -305 -680 -10 -22 -89 -197 -175 -390 -86 -192
-165 -368 -175 -390 -10 -22 -29 -65 -43 -95 -63 -142 -247 -551 -309 -690
-39 -85 -97 -214 -128 -286 -32 -72 -77 -170 -99 -219 -23 -48 -41 -88 -41
-90 0 -2 -13 -32 -29 -67 -36 -78 -290 -641 -341 -758 -95 -214 -120 -270
-150 -335 -18 -38 -68 -151 -112 -250 -44 -99 -90 -202 -103 -230 -70 -156
-169 -376 -256 -568 -55 -120 -99 -220 -99 -222 0 -2 -17 -41 -39 -87 -21 -46
-55 -121 -76 -168 -20 -47 -41 -89 -46 -94 -5 -6 -9 -15 -9 -22 0 -6 -19 -51
-42 -100 -23 -49 -43 -91 -43 -94 -3 -9 -22 -54 -55 -125 -18 -38 -49 -108
-70 -155 -21 -47 -51 -114 -67 -150 -17 -36 -56 -123 -88 -195 -32 -71 -75
-167 -96 -213 -22 -45 -39 -84 -39 -86 0 -3 -16 -40 -36 -83 -19 -43 -44 -96
-54 -118 -10 -22 -36 -80 -58 -130 -22 -49 -51 -115 -65 -145 -14 -30 -34 -75
-45 -100 -11 -25 -73 -162 -137 -305 -153 -342 -148 -329 -150 -335 -2 -6 -30
-68 -68 -150 -14 -30 -44 -98 -67 -150 -23 -52 -52 -117 -65 -145 -39 -86 -72
-158 -93 -205 -11 -25 -70 -157 -132 -295 -62 -137 -116 -259 -120 -270 -4
-11 -23 -54 -42 -95 -20 -41 -53 -115 -76 -165 -22 -49 -52 -117 -67 -150 -15
-33 -45 -100 -67 -150 -22 -49 -49 -110 -60 -135 -12 -25 -76 -168 -143 -318
l-123 -272 1651 2 c1455 3 1651 5 1658 18 9 18 28 63 64 150 14 36 37 89 51
118 13 29 24 55 24 58 0 3 8 24 19 47 10 23 56 130 100 237 45 107 88 209 96
225 7 17 110 262 230 545 119 283 227 539 241 568 13 29 24 55 24 58 0 3 8 24
19 47 10 23 49 114 86 202 37 88 80 189 96 225 31 71 309 731 369 875 20 50
44 106 53 125 15 35 113 265 209 495 27 66 58 138 68 160 9 22 41 96 70 165
68 163 108 258 125 295 7 17 75 176 150 355 169 402 211 501 241 568 13 29 24
55 24 58 0 3 8 24 19 47 10 23 36 83 56 132 21 50 46 108 55 130 10 22 60 139
111 260 50 121 100 238 110 260 10 22 47 110 82 195 78 187 184 437 197 465 5
11 41 97 80 190 39 94 77 184 85 200 7 17 23 53 34 81 11 28 29 73 41 100 26
59 24 53 100 234 34 80 65 154 70 165 5 11 66 155 135 320 70 165 132 314 140
330 7 17 50 118 95 225 45 107 90 213 100 235 10 22 41 97 70 165 55 133 123
294 146 347 8 18 38 90 68 160 138 331 278 659 285 666 4 4 92 -194 196 -440
104 -247 199 -470 211 -498 12 -27 83 -196 158 -375 170 -405 169 -401 205
-483 17 -38 31 -70 31 -72 0 -4 109 -264 134 -320 8 -16 30 -68 49 -115 20
-47 63 -148 95 -225 33 -77 83 -196 112 -265 28 -69 56 -134 61 -145 24 -54
261 -611 263 -620 1 -5 9 -26 18 -45 8 -19 70 -165 138 -325 118 -281 134
-318 164 -387 8 -18 51 -121 96 -228 45 -107 89 -211 97 -230 28 -65 41 -94
138 -325 53 -126 102 -243 110 -260 7 -16 36 -86 65 -155 29 -69 63 -149 76
-178 13 -29 24 -55 24 -57 0 -3 9 -24 19 -48 11 -23 81 -186 154 -362 74 -176
155 -367 180 -425 24 -58 86 -204 137 -325 51 -121 98 -234 106 -252 8 -18 84
-198 170 -400 85 -202 161 -381 169 -398 7 -16 44 -102 80 -190 37 -88 73
-173 80 -190 13 -30 121 -284 440 -1040 186 -440 267 -633 317 -750 16 -38 33
-79 38 -90 5 -11 34 -78 64 -150 l54 -130 1651 -3 1651 -2 -9 22 c-5 13 -22
52 -39 88 -16 36 -48 105 -70 155 -22 50 -52 117 -67 150 -15 33 -74 164 -131
291 -56 127 -114 256 -128 285 -13 30 -44 99 -69 154 -24 55 -57 127 -72 160
-15 33 -115 256 -222 495 -107 239 -206 460 -220 490 -14 30 -102 226 -195
435 -94 209 -188 418 -209 463 -22 46 -39 86 -39 88 0 3 -18 43 -40 90 -22 47
-40 87 -40 89 0 2 -15 36 -34 77 -51 111 -123 270 -166 367 -21 47 -50 113
-65 146 -15 33 -35 78 -45 100 -59 131 -74 164 -90 200 -10 22 -49 108 -85
190 -37 83 -75 168 -85 190 -10 22 -38 85 -63 140 -25 55 -56 125 -70 155 -14
30 -95 213 -182 405 -86 193 -164 368 -174 390 -10 22 -49 108 -86 190 -37 83
-79 175 -92 205 -34 75 -183 407 -305 679 -55 123 -103 231 -108 240 -5 9 -15
32 -23 51 -9 19 -27 60 -40 90 -37 82 -321 714 -469 1045 -72 160 -141 315
-155 345 -14 30 -42 93 -63 140 -55 124 -88 198 -115 255 -12 28 -41 91 -63
140 -39 89 -67 150 -118 263 -15 31 -34 75 -44 97 -19 45 -53 120 -80 180 -10
22 -48 108 -85 190 -37 83 -82 183 -101 223 -19 40 -34 74 -34 76 0 2 -17 42
-39 88 -21 45 -53 117 -71 158 -18 41 -50 113 -71 158 -22 46 -39 86 -39 88 0
2 -15 36 -34 76 -18 40 -52 113 -75 161 -22 49 -41 91 -41 93 0 4 -248 558
-297 663 -14 30 -34 75 -45 100 -17 41 -161 362 -208 466 -10 22 -51 112 -90
200 -40 88 -82 183 -95 210 -12 28 -32 73 -45 100 -12 28 -39 87 -61 133 -21
45 -39 85 -39 88 0 3 -14 36 -31 72 -17 37 -78 173 -136 302 -58 129 -114 253
-124 275 -10 22 -48 105 -83 185 l-65 145 -1469 3 -1470 2 -22 -52z"/>
</g>
</svg>
