<svg xmlns="http://www.w3.org/2000/svg" xmlns:xlink="http://www.w3.org/1999/xlink" width="113.95" height="54.828" viewBox="0 0 113.95 54.828">
  <defs>
    <linearGradient id="linear-gradient" x1="0.963" y1="2.121" x2="0.321" y2="0.481" gradientUnits="objectBoundingBox">
      <stop offset="0" stop-color="#ef5643"/>
      <stop offset="1" stop-color="#eb3748"/>
    </linearGradient>
    <linearGradient id="linear-gradient-2" x1="1.092" y1="2.453" x2="-0.862" y2="-3.756" xlink:href="#linear-gradient"/>
    <linearGradient id="linear-gradient-3" x1="1.425" y1="3.516" x2="-0.528" y2="-2.698" xlink:href="#linear-gradient"/>
    <linearGradient id="linear-gradient-4" x1="1.258" y1="2.988" x2="-0.695" y2="-3.234" xlink:href="#linear-gradient"/>
    <linearGradient id="linear-gradient-5" x1="1.397" y1="0.873" x2="-3.164" y2="-1.017" xlink:href="#linear-gradient"/>
    <linearGradient id="linear-gradient-6" x1="11.875" y1="9.12" x2="0.27" y2="0.326" xlink:href="#linear-gradient"/>
    <linearGradient id="linear-gradient-7" x1="11.12" y1="8.511" x2="-0.495" y2="-0.25" xlink:href="#linear-gradient"/>
    <linearGradient id="linear-gradient-8" x1="11.224" y1="8.682" x2="-0.344" y2="-0.144" xlink:href="#linear-gradient"/>
    <linearGradient id="linear-gradient-9" x1="10.505" y1="8.086" x2="-1.11" y2="-0.72" xlink:href="#linear-gradient"/>
    <linearGradient id="linear-gradient-10" x1="3.245" y1="4.668" x2="-6.349" y2="-9.925" xlink:href="#linear-gradient"/>
    <linearGradient id="linear-gradient-11" x1="427.75" y1="254.193" x2="-87.914" y2="-52" xlink:href="#linear-gradient"/>
  </defs>
  <g id="Scott_s_Guttering_Logo" data-name="Scott&apos;s Guttering Logo" transform="translate(-2.049)">
    <path id="Path_3823" data-name="Path 3823" d="M317.163,11.047l4.315,3.609c.143.116.289.231.47.385l6.5-5.741q1.805,1.5,3.622,3.009,8.563,7.109,17.145,14.2a1.163,1.163,0,0,1,.5,1.094c-.03.5-.007,1.006-.007,1.532-.14.008-.251.022-.363.022q-6.742,0-13.484-.006a.833.833,0,0,1-.5-.159q-4.6-3.819-9.182-7.651c-1.885-1.57-3.786-3.124-5.67-4.689q-8.231-6.827-16.457-13.669c-.056-.046-.116-.089-.206-.161L274,29.161l-1.418-1.6L303.808,0l6.035,5.006q3.335,2.766,6.671,5.524a1.813,1.813,0,0,0,.306.169v-.007l.1.156Zm6.649,5.5a.853.853,0,0,0,.106.134q6,4.976,12.008,9.952a.926.926,0,0,0,.544.176c2.991.01,5.984.007,8.975.006.105,0,.209-.017.392-.034L328.506,12.4Z" transform="translate(-239.225)" fill="url(#linear-gradient)"/>
    <path id="Path_3824" data-name="Path 3824" d="M667,413.643H641.65v-7.7h24.185Z" transform="translate(-565.586 -358.965)" fill="url(#linear-gradient-2)"/>
    <path id="Path_3825" data-name="Path 3825" d="M665.8,259.74l1.165,7.7H641.61v-7.7Z" transform="translate(-565.551 -229.683)" fill="url(#linear-gradient-3)"/>
    <path id="Path_3826" data-name="Path 3826" d="M665.757,333c.387,2.559.772,5.108,1.157,7.687H641.56V333Z" transform="translate(-565.506 -294.465)" fill="url(#linear-gradient-4)"/>
    <path id="Path_3827" data-name="Path 3827" d="M871.155,280.264l-2.385.126V263.147a4.681,4.681,0,0,1,3.9-4.513,11.762,11.762,0,0,1,2.118-.067,2.436,2.436,0,0,0,2.449-2.166c.051-.428.054-.861.081-1.32h2.265a5.077,5.077,0,0,1-2.647,5.337,5.684,5.684,0,0,1-1.777.463,10.991,10.991,0,0,1-1.736.02,2.416,2.416,0,0,0-2.3,2.314c.059,5.487.027,10.977.027,16.466Z" transform="translate(-766.424 -225.562)" fill="url(#linear-gradient-5)"/>
    <path id="Path_3828" data-name="Path 3828" d="M501.61,79.74h4.268v5.439H501.61Z" transform="translate(-441.751 -70.512)" fill="url(#linear-gradient-6)"/>
    <path id="Path_3829" data-name="Path 3829" d="M505.924,141.46H501.66V136h4.264Z" transform="translate(-441.796 -120.262)" fill="url(#linear-gradient-7)"/>
    <path id="Path_3830" data-name="Path 3830" d="M549.782,79.85v5.419H545.5V79.85Z" transform="translate(-480.562 -70.61)" fill="url(#linear-gradient-8)"/>
    <path id="Path_3831" data-name="Path 3831" d="M545.5,141.492V136.06h4.264v5.432Z" transform="translate(-480.562 -120.315)" fill="url(#linear-gradient-9)"/>
    <path id="Path_3832" data-name="Path 3832" d="M947.3,223.608a4.644,4.644,0,0,1-5.162,3.225v-2.306h.694a2.34,2.34,0,0,0,1.713-.694.845.845,0,0,1,.513-.215C945.793,223.595,946.529,223.608,947.3,223.608Z" transform="translate(-831.303 -197.729)" fill="url(#linear-gradient-10)"/>
    <path id="Path_3833" data-name="Path 3833" d="M654.87,92.4l.1.156Z" transform="translate(-577.276 -81.707)" fill="url(#linear-gradient-11)"/>
    <path id="Path_3834" data-name="Path 3834" d="M166.126,297.644a2.371,2.371,0,0,1-.992.885,3.484,3.484,0,0,1-1.582.331,3.744,3.744,0,0,1-2.314-.685,2.474,2.474,0,0,1-.992-1.912H162.4a1.133,1.133,0,0,0,.336.744,1.042,1.042,0,0,0,.738.271.857.857,0,0,0,.613-.212.746.746,0,0,0,.225-.567.73.73,0,0,0-.207-.531,1.63,1.63,0,0,0-.513-.347c-.2-.09-.488-.2-.851-.324a10.625,10.625,0,0,1-1.293-.525,2.374,2.374,0,0,1-.861-.756,2.472,2.472,0,0,1,.013-2.59,2.407,2.407,0,0,1,1.041-.832,3.8,3.8,0,0,1,1.529-.289,3.436,3.436,0,0,1,2.213.661,2.5,2.5,0,0,1,.926,1.818h-2.173a1.121,1.121,0,0,0-.3-.655.888.888,0,0,0-.655-.242.844.844,0,0,0-.573.189.694.694,0,0,0-.219.554.7.7,0,0,0,.2.5,1.485,1.485,0,0,0,.489.337c.2.086.48.2.849.33a9.442,9.442,0,0,1,1.311.537,2.514,2.514,0,0,1,.869.771,2.21,2.21,0,0,1,.367,1.323A2.3,2.3,0,0,1,166.126,297.644Z" transform="translate(-139.869 -256.71)" fill="#fff"/>
    <path id="Path_3835" data-name="Path 3835" d="M234.208,291.539a3.855,3.855,0,0,1,1.352,2.266h-2.136a1.959,1.959,0,0,0-.726-.908,2.035,2.035,0,0,0-1.157-.331,1.773,1.773,0,0,0-1.428.649,2.624,2.624,0,0,0-.544,1.736,2.58,2.58,0,0,0,.544,1.729,1.775,1.775,0,0,0,1.428.643,2.026,2.026,0,0,0,1.157-.331,1.967,1.967,0,0,0,.726-.9h2.136a3.86,3.86,0,0,1-1.352,2.261,4.057,4.057,0,0,1-2.638.844,4.166,4.166,0,0,1-2.136-.537,3.651,3.651,0,0,1-1.422-1.5,5.113,5.113,0,0,1,0-4.415,3.647,3.647,0,0,1,1.422-1.5,4.166,4.166,0,0,1,2.136-.537A4.079,4.079,0,0,1,234.208,291.539Z" transform="translate(-199.37 -257.062)" fill="#fff"/>
    <path id="Path_3836" data-name="Path 3836" d="M316.887,290.809a4.011,4.011,0,0,1,1.517,1.523,4.639,4.639,0,0,1-.006,4.409,4.041,4.041,0,0,1-1.523,1.529,4.411,4.411,0,0,1-4.261,0,4.033,4.033,0,0,1-1.523-1.529,4.61,4.61,0,0,1,0-4.409,4.042,4.042,0,0,1,1.523-1.523A4.434,4.434,0,0,1,316.887,290.809Zm-3.718,1.967a2.912,2.912,0,0,0,0,3.5,2.017,2.017,0,0,0,1.576.649,2,2,0,0,0,1.569-.649,2.5,2.5,0,0,0,.59-1.747,2.526,2.526,0,0,0-.579-1.746,2.241,2.241,0,0,0-3.157,0Z" transform="translate(-272.783 -256.672)" fill="#fff"/>
    <path id="Path_3837" data-name="Path 3837" d="M400.809,291.41v1.605h-2.266v6.741h-2.031v-6.741H394.27V291.41Z" transform="translate(-346.833 -257.688)" fill="#fff"/>
    <path id="Path_3838" data-name="Path 3838" d="M465.788,291.41v1.605h-2.266v6.741h-2.03v-6.741H459.25V291.41Z" transform="translate(-404.293 -257.688)" fill="#fff"/>
    <path id="Path_3839" data-name="Path 3839" d="M529.361,279.033a1.945,1.945,0,0,1-.42,1.3,1.5,1.5,0,0,1-1.221.489v-.756q.612,0,.613-.79v-.189h-.743V277.64h1.552A4.386,4.386,0,0,1,529.361,279.033Z" transform="translate(-464.725 -245.512)" fill="#fff"/>
    <path id="Path_3840" data-name="Path 3840" d="M563.064,297.644a2.371,2.371,0,0,1-.992.885,3.488,3.488,0,0,1-1.588.331,3.744,3.744,0,0,1-2.314-.685,2.474,2.474,0,0,1-.992-1.912h2.148a1.134,1.134,0,0,0,.337.744,1.041,1.041,0,0,0,.737.271.859.859,0,0,0,.615-.212.746.746,0,0,0,.224-.567.73.73,0,0,0-.207-.531,1.63,1.63,0,0,0-.513-.347c-.2-.09-.488-.2-.851-.324a10.63,10.63,0,0,1-1.293-.525,2.374,2.374,0,0,1-.861-.756,2.456,2.456,0,0,1,.019-2.59,2.394,2.394,0,0,1,1.041-.832,3.8,3.8,0,0,1,1.529-.289,3.436,3.436,0,0,1,2.213.661,2.5,2.5,0,0,1,.926,1.818h-2.179a1.121,1.121,0,0,0-.3-.655.888.888,0,0,0-.655-.242.844.844,0,0,0-.573.189.694.694,0,0,0-.219.554.707.707,0,0,0,.194.5,1.5,1.5,0,0,0,.491.337c.2.086.479.2.849.33a9.422,9.422,0,0,1,1.31.537,2.507,2.507,0,0,1,.878.771,2.215,2.215,0,0,1,.366,1.323A2.3,2.3,0,0,1,563.064,297.644Z" transform="translate(-490.868 -256.71)" fill="#fff"/>
    <path id="Path_3841" data-name="Path 3841" d="M8.794,400.459a3.268,3.268,0,0,1,1.264,2.077H7.921a1.658,1.658,0,0,0-.649-.714,1.988,1.988,0,0,0-1.051-.266,1.963,1.963,0,0,0-1.534.643,2.508,2.508,0,0,0-.579,1.742,2.548,2.548,0,0,0,.608,1.83,2.29,2.29,0,0,0,1.736.638,2.045,2.045,0,0,0,2.03-1.523H5.935v-1.456h4.228v2a4.086,4.086,0,0,1-.756,1.361A3.884,3.884,0,0,1,8.08,407.8a4.2,4.2,0,0,1-1.852.39,4.39,4.39,0,0,1-2.207-.537,3.677,3.677,0,0,1-1.458-1.5,5,5,0,0,1,0-4.415,3.694,3.694,0,0,1,1.451-1.5,4.34,4.34,0,0,1,2.2-.538A4.165,4.165,0,0,1,8.794,400.459Z" transform="translate(0 -353.438)" fill="#fff"/>
    <path id="Path_3842" data-name="Path 3842" d="M89.349,400.41v4.813a1.893,1.893,0,0,0,.373,1.263,1.551,1.551,0,0,0,2.159,0,1.9,1.9,0,0,0,.371-1.263V400.41h2.019v4.813a3.95,3.95,0,0,1-.463,1.989,3,3,0,0,1-1.257,1.215,3.9,3.9,0,0,1-1.8.407,3.768,3.768,0,0,1-1.771-.4,2.843,2.843,0,0,1-1.2-1.215,4.155,4.155,0,0,1-.437-2V400.41Z" transform="translate(-75.421 -354.075)" fill="#fff"/>
    <path id="Path_3843" data-name="Path 3843" d="M166.537,400.41v1.605h-2.266v6.741h-2.03v-6.741H160V400.41Z" transform="translate(-139.673 -354.075)" fill="#fff"/>
    <path id="Path_3844" data-name="Path 3844" d="M231.535,400.41v1.605h-2.267v6.741h-2.03v-6.741H225V400.41Z" transform="translate(-197.151 -354.075)" fill="#fff"/>
    <path id="Path_3845" data-name="Path 3845" d="M296.639,402.015v1.747h2.82v1.523h-2.82v1.852h3.174v1.62H294.62V400.41h5.194v1.605Z" transform="translate(-258.714 -354.075)" fill="#fff"/>
    <path id="Path_3846" data-name="Path 3846" d="M359.5,408.745l-1.806-3.152h-.463v3.152H355.21V400.4h3.447a3.726,3.726,0,0,1,1.677.347,2.366,2.366,0,0,1,1.026.939,2.69,2.69,0,0,1,.347,1.363,2.43,2.43,0,0,1-.5,1.541,2.58,2.58,0,0,1-1.458.874l1.982,3.282Zm-2.267-4.533h1.251a1.256,1.256,0,0,0,.885-.266,1.021,1.021,0,0,0,.284-.785,1.041,1.041,0,0,0-.289-.779,1.212,1.212,0,0,0-.879-.284h-1.251Z" transform="translate(-312.293 -354.064)" fill="#fff"/>
    <path id="Path_3847" data-name="Path 3847" d="M427.909,400.41v8.346H425.89V400.41Z" transform="translate(-374.794 -354.075)" fill="#fff"/>
    <path id="Path_3848" data-name="Path 3848" d="M468.6,408.756h-2.018l-3.376-5.123v5.123H461.19V400.41h2.018l3.376,5.17v-5.17H468.6Z" transform="translate(-406.009 -354.075)" fill="#fff"/>
    <path id="Path_3849" data-name="Path 3849" d="M547.707,400.468a3.262,3.262,0,0,1,1.263,2.077h-2.136a1.645,1.645,0,0,0-.649-.714,2.173,2.173,0,0,0-2.585.377,2.5,2.5,0,0,0-.579,1.742,2.547,2.547,0,0,0,.608,1.83,2.28,2.28,0,0,0,1.729.638,2.089,2.089,0,0,0,1.264-.4,2.116,2.116,0,0,0,.767-1.127h-2.546v-1.456h4.232v2a4.051,4.051,0,0,1-.753,1.361,3.867,3.867,0,0,1-1.33,1.015,4.2,4.2,0,0,1-1.852.39,4.4,4.4,0,0,1-2.2-.537,3.674,3.674,0,0,1-1.457-1.5,5,5,0,0,1,0-4.415,3.686,3.686,0,0,1,1.451-1.5,4.336,4.336,0,0,1,2.189-.537A4.158,4.158,0,0,1,547.707,400.468Z" transform="translate(-476.556 -353.447)" fill="#fff"/>
  </g>
</svg>
