<svg xmlns="http://www.w3.org/2000/svg" xmlns:xlink="http://www.w3.org/1999/xlink" width="1200" height="630" viewBox="0 0 1200 630">
  <defs>
    <linearGradient id="linear-gradient" x1="0.954" y1="0.14" x2="0.398" y2="0.601" gradientUnits="objectBoundingBox">
      <stop offset="0"/>
      <stop offset="0.09" stop-opacity="0.91"/>
      <stop offset="1" stop-opacity="0"/>
    </linearGradient>
    <clipPath id="clip-Insights_Opengraph">
      <rect width="1200" height="630"/>
    </clipPath>
  </defs>
  <g id="Insights_Opengraph" data-name="Insights Opengraph" clip-path="url(#clip-Insights_Opengraph)">
    <rect width="1200" height="630" fill="#fff"/>
    <g id="Logo" transform="translate(691.861 100)" opacity="0.146" style="mix-blend-mode: luminosity;isolation: isolate">
      <g id="ORANGE_STROKE" transform="translate(0 0)">
        <g id="Group_1" data-name="Group 1">
          <path id="Path_1" data-name="Path 1" d="M353.939,4H242.8L4.8,534h125Z" transform="translate(-4.8 -4)" fill="#f15a29"/>
          <path id="Path_2" data-name="Path 2" d="M353.939,4H242.8L4.8,534h125Z" transform="translate(-4.8 -4)" opacity="0.57" fill="url(#linear-gradient)"/>
        </g>
      </g>
      <g id="BLUESTROKE" transform="translate(237.999)">
        <path id="Path_3" data-name="Path 3" d="M543.8,4H654.94l238,530H767.934Z" transform="translate(-543.8 -4)" fill="#70cbce"/>
      </g>
    </g>
    <g id="Side" transform="translate(41.5 -171.398)">
      <path id="Insights" d="M6.314,85V23.91H15.99V85Zm19.6,0V40.638h8.856V49.33L33.7,48.182a12.49,12.49,0,0,1,5.248-6.355,15.894,15.894,0,0,1,8.364-2.173,17.359,17.359,0,0,1,8.692,2.132,15.319,15.319,0,0,1,5.9,5.9,17.359,17.359,0,0,1,2.132,8.692V85H54.858V58.842a12.111,12.111,0,0,0-1.23-5.7,8.7,8.7,0,0,0-3.485-3.608,10.968,10.968,0,0,0-10.25,0,8.642,8.642,0,0,0-3.485,3.649,12.17,12.17,0,0,0-1.23,5.658V85Zm62.648.984a21.255,21.255,0,0,1-11.931-3.362,17.8,17.8,0,0,1-7.175-9.02l7.134-3.362a15.092,15.092,0,0,0,4.961,5.986A11.934,11.934,0,0,0,88.56,78.44a8.912,8.912,0,0,0,5.33-1.476,4.692,4.692,0,0,0,2.05-4.018,3.886,3.886,0,0,0-.9-2.665A7.062,7.062,0,0,0,92.783,68.6a13.234,13.234,0,0,0-2.747-.984l-6.97-1.968q-5.74-1.64-8.569-4.961a11.583,11.583,0,0,1-2.829-7.749,12.1,12.1,0,0,1,2.05-7.011,13.394,13.394,0,0,1,5.658-4.633,19.4,19.4,0,0,1,8.118-1.64,19.892,19.892,0,0,1,10.824,2.993,16.192,16.192,0,0,1,6.724,8.323l-7.134,3.362a10.974,10.974,0,0,0-4.141-5.084,11.2,11.2,0,0,0-6.355-1.886A7.554,7.554,0,0,0,82.574,48.8a4.546,4.546,0,0,0-1.8,3.731,4,4,0,0,0,.82,2.583,5.863,5.863,0,0,0,2.132,1.64,18.993,18.993,0,0,0,2.706,1.025l7.216,2.132a17.276,17.276,0,0,1,8.446,4.879,11.511,11.511,0,0,1,2.952,7.913,11.8,11.8,0,0,1-2.091,6.929A13.885,13.885,0,0,1,97.17,84.3,20.592,20.592,0,0,1,88.56,85.984ZM112.34,85V40.638h9.266V85Zm0-50.43V23.91h9.266V34.57Zm39.688,68.47a24.962,24.962,0,0,1-8.938-1.558,21.352,21.352,0,0,1-7.052-4.305,17.654,17.654,0,0,1-4.428-6.437l8.528-3.526a10.537,10.537,0,0,0,4.223,5.166,13.374,13.374,0,0,0,7.585,2.05,14.279,14.279,0,0,0,6.314-1.353,10.644,10.644,0,0,0,4.428-3.936,11.309,11.309,0,0,0,1.64-6.191v-10l1.64,1.886a15.618,15.618,0,0,1-6.355,6.478,18.778,18.778,0,0,1-9.143,2.214,21.561,21.561,0,0,1-11.07-2.87,20.806,20.806,0,0,1-7.749-7.872,22.417,22.417,0,0,1-2.829-11.234,22.128,22.128,0,0,1,2.829-11.234,20.976,20.976,0,0,1,18.737-10.66,18.588,18.588,0,0,1,9.061,2.173,17.463,17.463,0,0,1,6.519,6.273l-1.23,2.3V40.638h8.774V82.95a19.339,19.339,0,0,1-10.332,17.466A23.022,23.022,0,0,1,152.028,103.04Zm-.492-28.126a12.277,12.277,0,0,0,6.56-1.763,12.887,12.887,0,0,0,4.551-4.756,14.381,14.381,0,0,0-.041-13.571,13.12,13.12,0,0,0-4.592-4.8,12.126,12.126,0,0,0-6.478-1.763,12.859,12.859,0,0,0-6.724,1.763,12.683,12.683,0,0,0-4.633,4.756,14.535,14.535,0,0,0,0,13.571,12.6,12.6,0,0,0,4.633,4.8A12.859,12.859,0,0,0,151.536,74.914Zm31,10.086V22.926H191.8v26.4l-1.476-1.148a12.49,12.49,0,0,1,5.248-6.355,15.894,15.894,0,0,1,8.364-2.173,17.359,17.359,0,0,1,8.692,2.132,15.319,15.319,0,0,1,5.9,5.9,17.191,17.191,0,0,1,2.132,8.61V85h-9.184V58.842a11.787,11.787,0,0,0-1.271-5.7,9.044,9.044,0,0,0-3.485-3.608,10.722,10.722,0,0,0-10.127,0,8.9,8.9,0,0,0-3.526,3.649,11.844,11.844,0,0,0-1.271,5.658V85Zm65.436.492q-6.97,0-10.824-3.936t-3.854-11.07V49H225.5V40.638h1.23a6.37,6.37,0,0,0,4.838-1.8,6.831,6.831,0,0,0,1.722-4.92V30.47h9.266V40.638h10.086V49H242.556V70.076a9.256,9.256,0,0,0,.738,3.895,5.184,5.184,0,0,0,2.378,2.46,9.165,9.165,0,0,0,4.264.861q.656,0,1.476-.082t1.558-.164V85q-1.148.164-2.542.328A21.348,21.348,0,0,1,247.968,85.492Zm28.618.492a21.255,21.255,0,0,1-11.931-3.362,17.8,17.8,0,0,1-7.175-9.02l7.134-3.362a15.092,15.092,0,0,0,4.961,5.986,11.934,11.934,0,0,0,7.011,2.214,8.912,8.912,0,0,0,5.33-1.476,4.692,4.692,0,0,0,2.05-4.018,3.886,3.886,0,0,0-.9-2.665,7.062,7.062,0,0,0-2.255-1.681,13.234,13.234,0,0,0-2.747-.984l-6.97-1.968q-5.74-1.64-8.569-4.961a11.583,11.583,0,0,1-2.829-7.749,12.1,12.1,0,0,1,2.05-7.011,13.394,13.394,0,0,1,5.658-4.633,19.4,19.4,0,0,1,8.118-1.64,19.892,19.892,0,0,1,10.824,2.993,16.192,16.192,0,0,1,6.724,8.323l-7.134,3.362a10.973,10.973,0,0,0-4.141-5.084,11.2,11.2,0,0,0-6.355-1.886A7.554,7.554,0,0,0,270.6,48.8a4.546,4.546,0,0,0-1.8,3.731,4,4,0,0,0,.82,2.583,5.863,5.863,0,0,0,2.132,1.64,18.991,18.991,0,0,0,2.706,1.025l7.216,2.132a17.276,17.276,0,0,1,8.446,4.879,11.511,11.511,0,0,1,2.952,7.913,11.8,11.8,0,0,1-2.091,6.929A13.885,13.885,0,0,1,285.2,84.3,20.592,20.592,0,0,1,276.586,85.984Z" transform="translate(55 706.252) rotate(-90)" fill="#0a0a0a"/>
      <path id="Number" d="M17.285,11.211a6.551,6.551,0,0,1,5.261,2.612q2.136,2.612,2.136,8.252A32.669,32.669,0,0,1,23.1,31.938a27.385,27.385,0,0,1-4.468,8.716,15.1,15.1,0,0,1-4.81,4.2,7.494,7.494,0,0,1-3.394.732,6.6,6.6,0,0,1-5.31-2.612Q2.979,40.361,2.979,34.7a31.364,31.364,0,0,1,2.148-11.23,24.716,24.716,0,0,1,6.421-10.01A8.489,8.489,0,0,1,17.285,11.211Zm.024,1.27a4.733,4.733,0,0,0-2.869,1.111,12.121,12.121,0,0,0-3,4.626,59.411,59.411,0,0,0-2.966,9.058A51.829,51.829,0,0,0,6.641,39.629a5.638,5.638,0,0,0,1.1,3.8A3.41,3.41,0,0,0,10.4,44.683a3.594,3.594,0,0,0,2.539-.977q2.808-2.637,4.81-9.009Q21,24.272,21,17.754a6.042,6.042,0,0,0-1.1-3.992A3.316,3.316,0,0,0,17.31,12.48Zm27.064-1.27L36.513,38.579a14.748,14.748,0,0,0-.684,3.491,1.631,1.631,0,0,0,.623,1.379,6.4,6.4,0,0,0,2.917.647l-.244.9H26.552l.342-.9a8.716,8.716,0,0,0,2.637-.317,3.494,3.494,0,0,0,1.538-1.172A14.143,14.143,0,0,0,32.7,38.579l5.664-19.653q.513-1.782.562-2.051A6.416,6.416,0,0,0,39,15.923a1.87,1.87,0,0,0-.464-1.343,1.667,1.667,0,0,0-1.27-.488,10.394,10.394,0,0,0-1.978.293l-.317-.879L43.2,11.211Zm18.227,8.3a12.117,12.117,0,0,0-.684-3.345,12.384,12.384,0,0,1-.83-3.3,2.779,2.779,0,0,1,.6-1.929,1.916,1.916,0,0,1,1.477-.659,1.687,1.687,0,0,1,1.318.659,2.818,2.818,0,0,1,.562,1.88,10.6,10.6,0,0,1-.647,3.064,16.26,16.26,0,0,0-.793,3.625,11.263,11.263,0,0,0,2.417-2.075,12.27,12.27,0,0,1,2.466-2.393,3.245,3.245,0,0,1,1.636-.464,1.841,1.841,0,0,1,1.355.549,1.784,1.784,0,0,1,.549,1.306,2.1,2.1,0,0,1-.806,1.611,10.678,10.678,0,0,1-4.028,1.416,17.585,17.585,0,0,0-3.125.952,11.2,11.2,0,0,0,3.1,1,8.767,8.767,0,0,1,3.87,1.343,2.332,2.332,0,0,1,.916,1.758,1.717,1.717,0,0,1-.549,1.27,1.776,1.776,0,0,1-1.282.537,3.315,3.315,0,0,1-1.624-.513,10.923,10.923,0,0,1-2.4-2.295A12.937,12.937,0,0,0,63.6,21.27a11.537,11.537,0,0,0,.562,3.027,16.7,16.7,0,0,1,.879,3.931,2.418,2.418,0,0,1-.586,1.648,1.666,1.666,0,0,1-1.245.671,2.3,2.3,0,0,1-1.636-.708,2.239,2.239,0,0,1-.513-1.636,9,9,0,0,1,.562-2.82q.562-1.648.708-2.271A15.337,15.337,0,0,0,62.6,21.27a13.449,13.449,0,0,0-2.515,2.124A14.156,14.156,0,0,1,57.4,25.933a2.481,2.481,0,0,1-1.318.391,1.972,1.972,0,0,1-1.416-.562,1.7,1.7,0,0,1-.586-1.245,2.172,2.172,0,0,1,.5-1.282,3.646,3.646,0,0,1,1.5-1.111,19.009,19.009,0,0,1,3-.781,15.939,15.939,0,0,0,2.954-.928A12.553,12.553,0,0,0,58.89,19.39a12.416,12.416,0,0,1-3.711-1.147,2.367,2.367,0,0,1-1.1-1.953,1.68,1.68,0,0,1,.549-1.208,1.757,1.757,0,0,1,1.282-.549,3.481,3.481,0,0,1,1.709.513,9.74,9.74,0,0,1,2.246,2.063A11.981,11.981,0,0,0,62.6,19.512Z" transform="translate(9 699.898) rotate(-90)" fill="#0a0a0a"/>
      <line id="Line" x2="0.25" y2="78" transform="translate(113.75 723.398)" fill="none" stroke="#0a0a0a" stroke-width="5"/>
    </g>
    <text id="By_Ainsley_Clark" data-name="By Ainsley Clark" transform="translate(310 481)" fill="#595959" font-size="40" font-family="PlusJakartaSans-Regular, Plus Jakarta Sans" letter-spacing="0.01em"><tspan x="0" y="42">By Ainsley Clark</tspan></text>
    <path id="Logo_Text" data-name="Logo Text" d="M7.933,35.856a10.116,10.116,0,0,1-4.2-.806A6.27,6.27,0,0,1,.976,32.738,6.293,6.293,0,0,1,0,29.238a6.836,6.836,0,0,1,.848-3.415A6.768,6.768,0,0,1,3.479,23.3a13.144,13.144,0,0,1,4.5-1.442l7.551-1.23v4.242l-6.491,1.1a4.736,4.736,0,0,0-2.461,1.061,2.621,2.621,0,0,0-.806,1.994,2.256,2.256,0,0,0,.912,1.888,3.618,3.618,0,0,0,2.27.7,6.227,6.227,0,0,0,3.076-.742,5.289,5.289,0,0,0,2.079-2.058,5.767,5.767,0,0,0,.742-2.885V19.99a3.134,3.134,0,0,0-1.167-2.482,4.571,4.571,0,0,0-3.076-1,5.417,5.417,0,0,0-3.16.955A5.531,5.531,0,0,0,5.43,19.99L.891,17.784a8.009,8.009,0,0,1,2.142-3.16,10.79,10.79,0,0,1,3.457-2.1,12,12,0,0,1,4.327-.764A11.432,11.432,0,0,1,15.824,12.8,8.137,8.137,0,0,1,19.2,15.684a7.678,7.678,0,0,1,1.209,4.306V35.347h-5.26V31.4l1.188-.085A9.336,9.336,0,0,1,14.212,33.8a8.959,8.959,0,0,1-2.8,1.527A10.818,10.818,0,0,1,7.933,35.856Zm17.181-.509V12.269h5.557V35.347Zm0-25.666V3.742h5.557V9.681ZM35.381,35.347V12.269H40.6v4.539L40.174,16a6.1,6.1,0,0,1,2.651-3.161,8.358,8.358,0,0,1,4.306-1.082,9.1,9.1,0,0,1,4.518,1.1,7.845,7.845,0,0,1,3.076,3.076,9.187,9.187,0,0,1,1.1,4.56V35.347H50.271V21.814a5.473,5.473,0,0,0-.594-2.63,4.346,4.346,0,0,0-1.633-1.718,5.1,5.1,0,0,0-4.857,0,4.3,4.3,0,0,0-1.654,1.718,5.473,5.473,0,0,0-.594,2.63V35.347Zm33.514.509A11.616,11.616,0,0,1,62.468,34.1a8.945,8.945,0,0,1-3.754-4.773l4.157-1.994a7.312,7.312,0,0,0,2.482,3.054,6.076,6.076,0,0,0,3.542,1.1,3.9,3.9,0,0,0,2.418-.679,2.134,2.134,0,0,0,.891-1.782,1.729,1.729,0,0,0-.361-1.124,3.01,3.01,0,0,0-.976-.764,7.519,7.519,0,0,0-1.336-.53l-3.776-1.061a9,9,0,0,1-4.433-2.588,6.083,6.083,0,0,1-1.506-4.115A6.441,6.441,0,0,1,60.9,15.132a7.183,7.183,0,0,1,3.012-2.482,10.471,10.471,0,0,1,4.433-.891,10.63,10.63,0,0,1,5.77,1.57,8.608,8.608,0,0,1,3.564,4.412l-4.242,1.994a5.114,5.114,0,0,0-1.994-2.5A5.534,5.534,0,0,0,68.3,16.3a3.47,3.47,0,0,0-2.206.636,2.01,2.01,0,0,0-.806,1.654,1.825,1.825,0,0,0,.339,1.1,2.485,2.485,0,0,0,.955.764A10.679,10.679,0,0,0,68,21.008l3.691,1.1a9.443,9.443,0,0,1,4.391,2.545,5.942,5.942,0,0,1,1.548,4.157,6.282,6.282,0,0,1-1.1,3.67,7.311,7.311,0,0,1-3.054,2.482A10.944,10.944,0,0,1,68.895,35.856Zm12.6-.509V3.233h5.557V35.347Zm21.211.509a11.838,11.838,0,0,1-6.236-1.612,11.229,11.229,0,0,1-4.157-4.37,12.677,12.677,0,0,1-1.485-6.109,12.433,12.433,0,0,1,1.506-6.173,11.348,11.348,0,0,1,4.115-4.263,11.1,11.1,0,0,1,5.833-1.57,11.924,11.924,0,0,1,4.773.891,10.18,10.18,0,0,1,3.5,2.461A11.017,11.017,0,0,1,112.76,18.7a12.17,12.17,0,0,1,.764,4.348q0,.594-.064,1.23a4.574,4.574,0,0,1-.233,1.1H95.409V21.135h14.678l-2.63,1.994a6.321,6.321,0,0,0-.191-3.479,4.981,4.981,0,0,0-1.867-2.418,5.363,5.363,0,0,0-3.118-.891,5.616,5.616,0,0,0-3.1.87,5.383,5.383,0,0,0-2.058,2.545,8.834,8.834,0,0,0-.53,4.051,7.5,7.5,0,0,0,.573,3.754,5.575,5.575,0,0,0,2.206,2.524,6.356,6.356,0,0,0,3.373.891,6.173,6.173,0,0,0,3.245-.806,5.816,5.816,0,0,0,2.1-2.164l4.5,2.206a7.859,7.859,0,0,1-2.121,2.927,10.6,10.6,0,0,1-3.415,1.994A12.58,12.58,0,0,1,102.706,35.856ZM120.1,44.722a11.079,11.079,0,0,1-1.824-.148,6.141,6.141,0,0,1-1.612-.488V39.419q.551.127,1.336.255a9.176,9.176,0,0,0,1.464.127,3.747,3.747,0,0,0,2.779-.891,8.475,8.475,0,0,0,1.548-2.333l1.527-3.564-.085,4.667L115.178,12.269h5.982L128.2,31.02h-2.121l7-18.751H139.1L129.05,37.68a14.493,14.493,0,0,1-2.164,3.818,8.8,8.8,0,0,1-2.948,2.4A8.563,8.563,0,0,1,120.1,44.722Zm22.569-9.375V29.408h5.6v5.939ZM180.6,0l-8.551,29.331a14.769,14.769,0,0,0-.7,3.132.682.682,0,0,0,.211.472.606.606,0,0,0,.435.224,1.4,1.4,0,0,0,.771-.323,19.674,19.674,0,0,0,2.834-2.983l.845.522a22.227,22.227,0,0,1-3.617,4.027,5.473,5.473,0,0,1-3.418,1.541,1.805,1.805,0,0,1-1.392-.6,2.412,2.412,0,0,1-.547-1.69,13.569,13.569,0,0,1,.746-3.8l.969-3.082q-3.6,5.568-6.562,7.706a6.748,6.748,0,0,1-3.9,1.467,4.19,4.19,0,0,1-3.294-1.678,6.885,6.885,0,0,1-1.4-4.561,16.238,16.238,0,0,1,2.361-7.9,19.956,19.956,0,0,1,6.239-6.836,10.12,10.12,0,0,1,5.618-2.113,4.632,4.632,0,0,1,2.312.547,6.454,6.454,0,0,1,1.914,1.815l2.436-8.65q.273-.92.447-1.467a5.958,5.958,0,0,0,.3-1.641,1.141,1.141,0,0,0-.373-.87,2.066,2.066,0,0,0-1.342-.423,16.49,16.49,0,0,0-1.889.174v-.92Zm-9.222,17.649a3.567,3.567,0,0,0-.92-2.56,3.081,3.081,0,0,0-2.337-.969q-3.132,0-6.525,5.17a18.141,18.141,0,0,0-3.393,9.893,4.334,4.334,0,0,0,.82,2.846,2.482,2.482,0,0,0,1.964.982q2.585,0,6.488-5.593T171.381,17.649Zm12.69,8.327a15.392,15.392,0,0,0-.174,2.063,5.108,5.108,0,0,0,1.566,3.766,5.2,5.2,0,0,0,3.8,1.554,8.4,8.4,0,0,0,3.443-.733,27.864,27.864,0,0,0,4.909-3.244l.522.721q-5.891,5.841-11.235,5.841a6.6,6.6,0,0,1-5.469-2.287,7.865,7.865,0,0,1-1.839-5.046,14.886,14.886,0,0,1,2.287-7.581A17.251,17.251,0,0,1,187.626,15a13.291,13.291,0,0,1,7.109-2.15,5.964,5.964,0,0,1,3.9,1.069,3.223,3.223,0,0,1,1.268,2.535,5.969,5.969,0,0,1-1.641,3.952,15.1,15.1,0,0,1-6.363,3.977A35.39,35.39,0,0,1,184.071,25.976Zm.174-1.218a21.012,21.012,0,0,0,5.991-1.442,12.077,12.077,0,0,0,4.586-3.269,5.887,5.887,0,0,0,1.529-3.617,2.262,2.262,0,0,0-.659-1.69,2.568,2.568,0,0,0-1.877-.646q-2.535,0-5.382,2.7A16.219,16.219,0,0,0,184.245,24.758Zm16.941-10.365,7.184-1.541a25.531,25.531,0,0,1,1.243,3.753,54.743,54.743,0,0,1,1.094,6.662q.2,1.939.547,8.2,3.107-3.43,3.7-4.251,3.281-4.449,3.778-5.22a10.933,10.933,0,0,0,1.143-2.312,4.119,4.119,0,0,0,.273-1.417q0-.646-1.156-1.491a2.368,2.368,0,0,1-1.156-1.889,1.934,1.934,0,0,1,.634-1.417,2.075,2.075,0,0,1,1.5-.621,2.442,2.442,0,0,1,1.839.858,3.007,3.007,0,0,1,.8,2.125,7.507,7.507,0,0,1-.4,2.436,22.115,22.115,0,0,1-2.411,4.611,74.022,74.022,0,0,1-5.692,7.3q-.5.572-5.518,5.767h-.92q-.6-15.735-2.486-19.637a2.131,2.131,0,0,0-2.063-1.268,9.906,9.906,0,0,0-1.765.224Zm34.229-.671a10.278,10.278,0,0,0-.58-2.838,10.508,10.508,0,0,1-.7-2.8,2.358,2.358,0,0,1,.507-1.636,1.625,1.625,0,0,1,1.253-.559,1.431,1.431,0,0,1,1.119.559,2.391,2.391,0,0,1,.476,1.595,8.99,8.99,0,0,1-.549,2.6,13.794,13.794,0,0,0-.673,3.076,9.557,9.557,0,0,0,2.051-1.761,10.409,10.409,0,0,1,2.092-2.03,2.753,2.753,0,0,1,1.388-.394,1.562,1.562,0,0,1,1.15.466,1.514,1.514,0,0,1,.466,1.108,1.786,1.786,0,0,1-.684,1.367,9.06,9.06,0,0,1-3.418,1.2,14.919,14.919,0,0,0-2.651.808,9.5,9.5,0,0,0,2.631.849,7.439,7.439,0,0,1,3.283,1.139,1.978,1.978,0,0,1,.777,1.491,1.457,1.457,0,0,1-.466,1.077,1.507,1.507,0,0,1-1.088.456,2.813,2.813,0,0,1-1.377-.435,9.268,9.268,0,0,1-2.04-1.947,10.978,10.978,0,0,0-2.113-1.906,9.788,9.788,0,0,0,.476,2.569,14.17,14.17,0,0,1,.746,3.335,2.052,2.052,0,0,1-.5,1.4,1.413,1.413,0,0,1-1.056.57,1.952,1.952,0,0,1-1.388-.6,1.9,1.9,0,0,1-.435-1.388,7.634,7.634,0,0,1,.476-2.392q.476-1.4.6-1.926a13.01,13.01,0,0,0,.228-1.564,11.411,11.411,0,0,0-2.134,1.8A12.01,12.01,0,0,1,231,19.169a2.105,2.105,0,0,1-1.119.331,1.674,1.674,0,0,1-1.2-.476,1.439,1.439,0,0,1-.5-1.056,1.843,1.843,0,0,1,.425-1.088,3.093,3.093,0,0,1,1.274-.942,16.132,16.132,0,0,1,2.548-.663,13.525,13.525,0,0,0,2.506-.787,10.652,10.652,0,0,0-2.672-.87,10.535,10.535,0,0,1-3.149-.974,2.008,2.008,0,0,1-.932-1.657,1.425,1.425,0,0,1,.466-1.025,1.491,1.491,0,0,1,1.088-.466,2.953,2.953,0,0,1,1.45.435,8.266,8.266,0,0,1,1.906,1.75A10.165,10.165,0,0,0,235.414,13.721Z" transform="translate(310 99.999)" fill="#0a0a0a"/>
    <text id="Responsibilities_as_a_developer_for_optimised_SEO." data-name="Responsibilities as a developer for optimised SEO." transform="translate(310 327)" fill="#0a0a0a" font-size="50" font-family="PlusJakartaSans-Bold, Plus Jakarta Sans" font-weight="700" letter-spacing="-0.02em"><tspan x="0" y="52">Responsibilities as a developer for </tspan><tspan x="0" y="115">optimised SEO.</tspan></text>
  </g>
</svg>
