<svg xmlns="http://www.w3.org/2000/svg" width="227.22" height="34.836" viewBox="0 0 227.22 34.836">
  <g id="edr" transform="translate(549 -89.761)">
    <g id="Group_1254" data-name="Group 1254" transform="translate(-549 89.761)">
      <path id="Path_3726" data-name="Path 3726" d="M0,33.672q.148-1.06.3-2.117a14.628,14.628,0,0,1,2.508-6.376A8.748,8.748,0,0,1,8.267,21.87a14.414,14.414,0,0,1,5.31-.153c2.645.333,5.278.8,7.923,1.183a26.32,26.32,0,0,0,8.7.14,24.361,24.361,0,0,0,3.638-1.323.752.752,0,0,1,.461-.089,6.618,6.618,0,0,1-.593.461,11.985,11.985,0,0,1-5.872,1.654,77.452,77.452,0,0,1-11.935-.42,22.931,22.931,0,0,0-7.086.178,8.6,8.6,0,0,0-6.566,8.074,22.971,22.971,0,0,0,1.437,9.052,36.448,36.448,0,0,0,4.166,8.384c.123.188.239.381.432.687a15.661,15.661,0,0,0-2.115.02c-.914.131-1.4-.28-1.86-1.137a32.481,32.481,0,0,1-3.64-9.009C.424,38.323.289,37.054.1,35.8a1.488,1.488,0,0,0-.1-.268Z" transform="translate(0 -17.283)" fill="#9a9a9a"/>
      <path id="Path_3727" data-name="Path 3727" d="M148.752,18.012q-.143,1.078-.287,2.157A35.013,35.013,0,0,1,144.69,31.6a1.348,1.348,0,0,1-1.468.878c-.635-.073-1.282-.028-1.925-.041-.044,0-.089-.041-.2-.095.109-.216.21-.432.317-.634,1.16-2.23,2.467-4.389,3.432-6.715a25.331,25.331,0,0,0,1.644-12.941c-.145-1.171-.326-2.34-.574-3.487a9.258,9.258,0,0,0-5.549-6.624,11.11,11.11,0,0,0-5.563-.88A37.6,37.6,0,0,0,123.617,3.5c-.624.231-1.249.432-1.881.647a1.378,1.378,0,0,1-.3-.03c.554-.3.981-.541,1.413-.755A30.415,30.415,0,0,1,134.647.112c.09-.023,3.6-.112,3.6-.112a10.614,10.614,0,0,1,8.83,6.563,23.275,23.275,0,0,1,1.49,6.816c.065.61.133,1.218.2,1.829Z" transform="translate(-93.214)" fill="#9a9a9a"/>
      <path id="Path_3728" data-name="Path 3728" d="M53.508,51.94v.932h-7.78v5.287h5.108c.055.089.089.112.089.14.055.892.055.892-.825.892H45.73V65.8H53.5v.989H43.17V51.94Z" transform="translate(-33.755 -39.926)" fill="#9a9a9a"/>
      <path id="Path_3729" data-name="Path 3729" d="M176.939,72.583a5.646,5.646,0,0,0,1.915,4.6c1.852,1.47,5.017.606,6.107-1.624l.188-.384c.7.162.728.2.492.791a6.015,6.015,0,0,1-5.614,3.721,5.5,5.5,0,0,1-5.181-4.453,6.365,6.365,0,0,1,2.125-6.376c2.544-2.141,7.425-1.427,8.433,2.667.253,1.028.231,1.046-.809,1.046H176.94Zm5.656-.989a2.934,2.934,0,0,0-2.886-2.992A3,3,0,0,0,177,71.594Z" transform="translate(-135.941 -52.373)" fill="#9a9a9a"/>
      <path id="Path_3730" data-name="Path 3730" d="M138.32,54.1v-.554c.036-.024.062-.055.089-.055a3.186,3.186,0,0,0,3.108-2.676c.161-.548.281-1.108.419-1.662h.639c.012.178.034.348.034.52,0,1.005.012,2.01,0,3.015,0,.3.089.4.4.4.7-.018,1.408,0,2.146,0v.989h-2.54v.562c0,2.39.01,4.777,0,7.165,0,.617.089,1.165.708,1.446a1.415,1.415,0,0,0,1.648-.421,1.1,1.1,0,0,1,.148-.095l.556.37a3.242,3.242,0,0,1-2.753,1.746,2.119,2.119,0,0,1-2.571-2.271c-.071-2.615-.039-5.235-.052-7.854V54.1Z" transform="translate(-108.343 -37.688)" fill="#9a9a9a"/>
      <path id="Path_3731" data-name="Path 3731" d="M104.761,55.919h-2.217c-.012-.128-.034-.252-.034-.376V39.583c0-.283.06-.451.352-.544.614-.2,1.215-.424,1.907-.669Z" transform="translate(-80.495 -29.231)" fill="#9a9a9a"/>
      <path id="Path_3732" data-name="Path 3732" d="M126,79.468h-2.277V68.884a.586.586,0,0,1,.466-.673c.593-.178,1.111-.593,1.82-.427Z" transform="translate(-97.147 -52.448)" fill="#9a9a9a"/>
      <path id="Path_3733" data-name="Path 3733" d="M124.048,41.51a1.3,1.3,0,0,1-1.308-1.154,1.328,1.328,0,0,1,2.64,0A1.249,1.249,0,0,1,124.048,41.51Z" transform="translate(-96.364 -30.687)" fill="#9a9a9a"/>
      <line id="Line_36" data-name="Line 36" x2="44.597" transform="translate(5.798 33.661)" fill="none" stroke="#9a9a9a" stroke-linecap="round" stroke-width="1"/>
    </g>
    <g id="Group_1255" data-name="Group 1255" transform="translate(-484.78 92.65)">
      <text id="Dental_Restorations" data-name="Dental Restorations" transform="translate(0 13)" fill="#9a9a9a" font-size="12" font-family="Poppins-Medium, Poppins" font-weight="500"><tspan x="0" y="0">Dental Restorations</tspan></text>
      <text id="Specialists_in_Dental_Restorations" data-name="Specialists in Dental Restorations" transform="translate(0 27.947)" fill="#9a9a9a" font-size="10" font-family="Poppins-Light, Poppins" font-weight="300"><tspan x="0" y="0">Specialists in Dental Restorations</tspan></text>
    </g>
  </g>
</svg>
