<svg xmlns="http://www.w3.org/2000/svg" width="76.311" height="50.353" viewBox="0 0 76.311 50.353">
  <g id="katherine" transform="translate(-129.243 -95.289)">
    <path id="Path_227" data-name="Path 227" d="M57.821,65.6a16.794,16.794,0,0,1,2.372-3.426c.3-.332.527-.461.659-.461.165,0,.266.266.332.724a6.39,6.39,0,0,0,.133,1.251q.247,1.334,1.186,1.384a3.7,3.7,0,0,0,1.713-.494,7.235,7.235,0,0,0,1.515-1.12c0-.033.033-.066.033-.1a.087.087,0,0,0-.1-.1l-.033.033a5.436,5.436,0,0,1-1.285.955,3.85,3.85,0,0,1-1.647.527.825.825,0,0,1-.593-.266,2.145,2.145,0,0,1-.362-1.186,5.016,5.016,0,0,0-.2-1.384q-.2-.593-.593-.593c-.362,0-.791.3-1.318.922a11.554,11.554,0,0,1-.988,1.186l.2-.56a5.8,5.8,0,0,0,.4-1.384.35.35,0,0,0-.4-.4.487.487,0,0,0-.428.3,19.168,19.168,0,0,0-.823,1.779,14.3,14.3,0,0,0-.791,2.6c0,.332.133.494.428.494.165.1.4-.165.593-.692M54,61.112a4.114,4.114,0,0,1,.3-.4c.1-.1.165-.2.266-.3a.592.592,0,0,0,.133-.3c-.033-.2-.1-.266-.231-.266a.465.465,0,0,0-.2.066,1.273,1.273,0,0,0-.659.922c0,.231.1.362.266.362a.176.176,0,0,0,.133-.1m1.647,2.24a.284.284,0,0,0,.1-.2.071.071,0,0,0-.066-.066c-.1,0-.3.266-.626.758a7.259,7.259,0,0,1-1.984,2.118.356.356,0,0,1-.231.1c-.2,0-.266-.2-.266-.626a4.578,4.578,0,0,1,.461-1.976.465.465,0,0,1,.066-.2,1.6,1.6,0,0,0,.2-.56.316.316,0,0,0-.2-.3.3.3,0,0,0-.165-.033.514.514,0,0,0-.428.362,4.418,4.418,0,0,0-.791,2.372,2.214,2.214,0,0,0,.133.791q.247.593.692.593c.758.033,1.779-1.021,3.1-3.129m-9.288,2.538a10.334,10.334,0,0,1,2.339-4.15,1.493,1.493,0,0,1,.3-.165.441.441,0,0,1,.266.231.087.087,0,0,0,.1.1.121.121,0,0,0,.133-.133c-.1-.266-.231-.4-.428-.4q-.544,0-1.087.791a12.743,12.743,0,0,0-1.219,1.845,1.2,1.2,0,0,1-.1.231c-.033.066-.1.133-.133.2a1.263,1.263,0,0,1,.165-.626c.3-1.021.461-1.548.494-1.614a.489.489,0,0,0,.033-.231c0-.362-.133-.527-.4-.527-.165,0-.362.2-.593.56a15.66,15.66,0,0,0-1.186,3.987c0,.461.133.724.461.823l.1.033c.266,0,.494-.332.758-.955m-3.623-1.021c.955-1.021,1.416-1.647,1.416-1.877,0-.066-.033-.1-.066-.1a.2.2,0,0,0-.2.1,7.813,7.813,0,0,1-2.965,2.9,1.637,1.637,0,0,1-.527.1c-.626,0-.889-.527-.889-1.581a5.422,5.422,0,0,1,.066-.692.611.611,0,0,0,.428.3.522.522,0,0,0,.4-.165,4.047,4.047,0,0,0,1.68-1.883,1.732,1.732,0,0,0,.133-.56,2.925,2.925,0,0,0-.066-.494c-.133-.332-.332-.494-.56-.494-.461,0-.988.461-1.548,1.35a4.819,4.819,0,0,0-.889,2.537,4.087,4.087,0,0,0,.266,1.35,1.051,1.051,0,0,0,.955.724c.626,0,1.416-.494,2.372-1.515M40.7,61.379c.3-.362.527-.56.758-.56.1,0,.165.1.165.3a.853.853,0,0,1-.133.461,6.2,6.2,0,0,1-1.812,1.911,4.366,4.366,0,0,1,1.021-2.108M29.759,66.847l.857-1.12a13.047,13.047,0,0,1,1.812-2.24,1.313,1.313,0,0,1,.823-.461c.133,0,.231.1.332.3a4.32,4.32,0,0,1,.266,1.285c.133,1.186.428,1.779.889,1.812.527,0,1.153-.56,1.911-1.68a7.33,7.33,0,0,0,1.021-1.812.087.087,0,0,0-.1-.1c-.066,0-.133.066-.2.165A13.425,13.425,0,0,1,35.3,65.924a.956.956,0,0,1-.527.2c-.362,0-.593-.428-.626-1.318l-.1-.823c-.033-.823-.3-1.252-.791-1.252a1.99,1.99,0,0,0-1.021.494A28.205,28.205,0,0,0,29.4,66.519c-.332.428-.56.659-.659.659-.2,0-.266-.461-.266-1.416A13.767,13.767,0,0,1,29,62.434a41.543,41.543,0,0,1,1.943-5.7,34.453,34.453,0,0,1,3.2-6.127.878.878,0,0,0,.165-.428.35.35,0,0,0-.4-.4c-.231,0-.56.266-1.021.791a24.922,24.922,0,0,0-2.9,6.357,31.771,31.771,0,0,0-1.943,8.8c-.033,1.285.2,1.943.626,1.943.362-.033.692-.3,1.087-.823M26.63,62.794v-.066a.087.087,0,0,0-.1-.1c-.066,0-.266.332-.56.988a11.745,11.745,0,0,1-2.7,3.821,1.045,1.045,0,0,1-.593.231c-.332,0-.527-.3-.659-.857a7.268,7.268,0,0,1-.165-1.68,20.715,20.715,0,0,1,.56-4.019,32.022,32.022,0,0,1,3.064-7.938q1.529-.1,2.767-.1a11.928,11.928,0,0,1,2.4.266c.033,0,.033,0,.033.033.133,0,.2-.033.231-.1a.156.156,0,0,0-.165-.165.033.033,0,0,1-.033-.033,14.135,14.135,0,0,0-3.953-.428H25.74q.547-.989,1.153-1.943a.878.878,0,0,0,.165-.428.321.321,0,0,0-.133-.3.4.4,0,0,0-.3-.133q-.3,0-.988.889a9.608,9.608,0,0,0-1.12,1.976l-3.393.133c-.4,0-.56.066-.56.266s.165.3.527.3c.2,0,.494-.033.889-.066l2.306-.133a33.175,33.175,0,0,0-2.833,9.519,12.122,12.122,0,0,0-.165,1.911c-.033,2.339.362,3.492,1.251,3.522,1.054,0,2.438-1.779,4.084-5.369m-13.9,2.372c1.384-1.877,2.24-2.833,2.6-2.8.1,0,.266.2.461.626.4.857.889,1.285,1.449,1.285a1.7,1.7,0,0,0,.922-.3,4.643,4.643,0,0,0,1.449-1.449c0-.033-.033-.066-.1-.066-.1,0-.133.033-.133.066a3.19,3.19,0,0,1-2.108,1.35c-.461,0-.823-.362-1.12-1.087A2.025,2.025,0,0,0,15.625,62a.912.912,0,0,0-.428-.1l-.266.033A2.268,2.268,0,0,0,15,61.51a.873.873,0,0,0-.362-.724,1.614,1.614,0,0,0-.626-.231,1.9,1.9,0,0,0-1.35.626,7.058,7.058,0,0,0-1.845,3.36,1.449,1.449,0,0,0-.066.332c0,.692.266,1.021.791,1.054.461.033.823-.231,1.186-.758m.626-2.6a2.3,2.3,0,0,1,.988-.791c.1,0,.165.1.165.266a.394.394,0,0,1-.133.266,11.877,11.877,0,0,0-1.087,1.153l-.988.988a3.644,3.644,0,0,1,1.054-1.877M1.067,72.546a2.8,2.8,0,0,0,.165-.857,3.631,3.631,0,0,0-.066-.593A1.824,1.824,0,0,1,1.1,70.5c0-.1.1-.692.266-1.845a24.046,24.046,0,0,1,3.129-7.776c.1-.231.2-.332.3-.332.033,0,.066.165.066.527l-.033.266a26.089,26.089,0,0,0,2.042,9.091c.593,1.548,1.219,2.339,1.911,2.372.362,0,.659-.266.988-.791a.3.3,0,0,0,.1-.231.163.163,0,0,0,.033-.1c0-.1-.033-.133-.133-.133-.066,0-.1.066-.133.165-.231.527-.494.758-.823.758-.362,0-.758-.494-1.153-1.449a28.011,28.011,0,0,1-2.273-9.816v-.165a5.113,5.113,0,0,1,.791-2.569A29.034,29.034,0,0,1,10.619,53.3a8.507,8.507,0,0,1,1.877-1.35,1.011,1.011,0,0,1,.428-.165.524.524,0,0,1,.332.165l.033.033a.151.151,0,0,0,.133-.165c0-.165-.133-.266-.428-.332a3.233,3.233,0,0,0-1.713.889A29.063,29.063,0,0,0,2.915,62.921a1.488,1.488,0,0,1-.362.56,4.34,4.34,0,0,1,.165-.857A99.649,99.649,0,0,1,6.772,50.733a12.9,12.9,0,0,0,1.153-3.426c0-.3-.133-.428-.4-.428-.2,0-.362.165-.527.527A92.908,92.908,0,0,0,.876,67.434a26.513,26.513,0,0,0-.593,4.546,2.469,2.469,0,0,0,.066.724c.1.165.2.266.332.266.133.033.3-.133.4-.428" transform="translate(129.238 72.062)" fill="#9a9a9a"/>
    <path id="Path_228" data-name="Path 228" d="M57.821,65.6a16.794,16.794,0,0,1,2.372-3.426c.3-.332.527-.461.659-.461.165,0,.266.266.332.724a6.39,6.39,0,0,0,.133,1.251q.247,1.334,1.186,1.384a3.7,3.7,0,0,0,1.713-.494,7.235,7.235,0,0,0,1.515-1.12c0-.033.033-.066.033-.1a.087.087,0,0,0-.1-.1l-.033.033a5.436,5.436,0,0,1-1.285.955,3.85,3.85,0,0,1-1.647.527.825.825,0,0,1-.593-.266,2.145,2.145,0,0,1-.362-1.186,5.016,5.016,0,0,0-.2-1.384q-.2-.593-.593-.593c-.362,0-.791.3-1.318.922a11.554,11.554,0,0,1-.988,1.186l.2-.56a5.8,5.8,0,0,0,.4-1.384.35.35,0,0,0-.4-.4.487.487,0,0,0-.428.3,19.168,19.168,0,0,0-.823,1.779,14.3,14.3,0,0,0-.791,2.6c0,.332.133.494.428.494.161.1.392-.161.589-.688ZM54,61.116a4.113,4.113,0,0,1,.3-.4c.1-.1.165-.2.266-.3a.592.592,0,0,0,.133-.3c-.033-.2-.1-.266-.231-.266a.465.465,0,0,0-.2.066,1.273,1.273,0,0,0-.659.922c0,.231.1.362.266.362a.176.176,0,0,0,.128-.1Zm1.647,2.24a.284.284,0,0,0,.1-.2.071.071,0,0,0-.066-.066c-.1,0-.3.266-.626.758a7.259,7.259,0,0,1-1.975,2.112.356.356,0,0,1-.231.1c-.2,0-.266-.2-.266-.626a4.578,4.578,0,0,1,.461-1.976.465.465,0,0,1,.066-.2,1.6,1.6,0,0,0,.2-.56.316.316,0,0,0-.2-.3.3.3,0,0,0-.165-.033.514.514,0,0,0-.428.362,4.418,4.418,0,0,0-.791,2.372,2.214,2.214,0,0,0,.133.791q.247.593.692.593c.758.034,1.779-1.02,3.1-3.128Zm-9.288,2.537a10.334,10.334,0,0,1,2.339-4.15,1.493,1.493,0,0,1,.3-.165.441.441,0,0,1,.266.231.087.087,0,0,0,.1.1.121.121,0,0,0,.133-.133c-.1-.266-.231-.4-.428-.4q-.544,0-1.087.791a12.744,12.744,0,0,0-1.219,1.845,1.2,1.2,0,0,1-.1.231c-.033.066-.1.133-.133.2a1.263,1.263,0,0,1,.165-.626c.3-1.021.461-1.548.494-1.614a.488.488,0,0,0,.033-.231c0-.362-.133-.527-.4-.527-.165,0-.362.2-.593.56a15.66,15.66,0,0,0-1.186,3.987c0,.461.133.724.461.823l.1.033c.262,0,.491-.333.755-.958Zm-3.623-1.021c.955-1.021,1.416-1.647,1.416-1.877,0-.066-.033-.1-.066-.1a.2.2,0,0,0-.2.1,7.813,7.813,0,0,1-2.965,2.9,1.637,1.637,0,0,1-.527.1c-.626,0-.889-.527-.889-1.581a5.424,5.424,0,0,1,.066-.692.611.611,0,0,0,.428.3.522.522,0,0,0,.4-.165,4.047,4.047,0,0,0,1.683-1.879,1.732,1.732,0,0,0,.133-.56,2.924,2.924,0,0,0-.066-.494c-.133-.332-.332-.494-.56-.494-.461,0-.988.461-1.548,1.35a4.819,4.819,0,0,0-.889,2.537,4.087,4.087,0,0,0,.266,1.35,1.051,1.051,0,0,0,.955.724c.623,0,1.413-.493,2.369-1.515ZM40.693,61.38c.3-.362.527-.56.758-.56.1,0,.165.1.165.3a.853.853,0,0,1-.133.461,6.2,6.2,0,0,1-1.812,1.911,4.366,4.366,0,0,1,1.021-2.109ZM29.757,66.848l.857-1.12a13.047,13.047,0,0,1,1.812-2.24,1.313,1.313,0,0,1,.823-.461c.133,0,.231.1.332.3a4.32,4.32,0,0,1,.266,1.285c.133,1.186.428,1.779.889,1.812.527,0,1.153-.56,1.911-1.68a7.33,7.33,0,0,0,1.021-1.812.087.087,0,0,0-.1-.1c-.066,0-.133.066-.2.165a13.425,13.425,0,0,1-2.075,2.931.956.956,0,0,1-.527.2c-.362,0-.593-.428-.626-1.318l-.1-.823c-.033-.823-.3-1.252-.791-1.252a1.99,1.99,0,0,0-1.021.494A28.206,28.206,0,0,0,29.4,66.52c-.332.428-.56.659-.659.659-.2,0-.266-.461-.266-1.416A13.767,13.767,0,0,1,29,62.435a41.544,41.544,0,0,1,1.943-5.7,34.453,34.453,0,0,1,3.2-6.127.878.878,0,0,0,.165-.428.35.35,0,0,0-.4-.4c-.231,0-.56.266-1.021.791a24.922,24.922,0,0,0-2.9,6.357,31.771,31.771,0,0,0-1.943,8.8c-.033,1.285.2,1.943.626,1.943.362-.035.691-.3,1.087-.825Zm-3.129-4.054v-.066a.087.087,0,0,0-.1-.1c-.066,0-.266.332-.56.988a11.744,11.744,0,0,1-2.7,3.821,1.045,1.045,0,0,1-.593.231c-.332,0-.527-.3-.659-.857a7.268,7.268,0,0,1-.165-1.68,20.715,20.715,0,0,1,.56-4.019,32.021,32.021,0,0,1,3.064-7.938q1.529-.1,2.767-.1a11.928,11.928,0,0,1,2.4.266c.033,0,.033,0,.033.033.133,0,.2-.033.231-.1a.156.156,0,0,0-.165-.165.033.033,0,0,1-.033-.033,14.135,14.135,0,0,0-3.953-.428H25.737q.547-.989,1.153-1.943a.878.878,0,0,0,.165-.428.321.321,0,0,0-.133-.3.4.4,0,0,0-.3-.133q-.3,0-.988.889a9.608,9.608,0,0,0-1.12,1.976l-3.393.133c-.4,0-.56.066-.56.266s.165.3.527.3c.2,0,.494-.033.889-.066l2.306-.133a33.175,33.175,0,0,0-2.833,9.519,12.122,12.122,0,0,0-.165,1.911c-.033,2.339.362,3.492,1.251,3.522,1.056,0,2.44-1.777,4.086-5.368Zm-13.9,2.372c1.384-1.877,2.24-2.833,2.6-2.8.1,0,.266.2.461.626.4.857.889,1.285,1.449,1.285a1.7,1.7,0,0,0,.922-.3,4.643,4.643,0,0,0,1.449-1.449c0-.033-.033-.066-.1-.066-.1,0-.133.033-.133.066a3.19,3.19,0,0,1-2.108,1.35c-.461,0-.823-.362-1.12-1.087A2.025,2.025,0,0,0,15.625,62a.912.912,0,0,0-.428-.1l-.266.033A2.268,2.268,0,0,0,15,61.51a.873.873,0,0,0-.362-.724,1.613,1.613,0,0,0-.626-.231,1.9,1.9,0,0,0-1.35.626,7.058,7.058,0,0,0-1.845,3.36,1.45,1.45,0,0,0-.066.332c0,.692.266,1.021.791,1.054.464.032.826-.234,1.189-.76Zm.626-2.6a2.3,2.3,0,0,1,.988-.791c.1,0,.165.1.165.266a.394.394,0,0,1-.133.266,11.875,11.875,0,0,0-1.087,1.153l-.988.988a3.658,3.658,0,0,1,1.055-1.881ZM1.067,72.546a2.8,2.8,0,0,0,.165-.857,3.631,3.631,0,0,0-.066-.593A1.824,1.824,0,0,1,1.1,70.5c0-.1.1-.692.266-1.845a24.046,24.046,0,0,1,3.129-7.776c.1-.231.2-.332.3-.332.033,0,.066.165.066.527l-.033.266a26.089,26.089,0,0,0,2.042,9.091c.593,1.548,1.219,2.339,1.911,2.372.362,0,.659-.266.988-.791a.3.3,0,0,0,.1-.231.163.163,0,0,0,.033-.1c0-.1-.033-.133-.133-.133-.066,0-.1.066-.133.165-.231.527-.494.758-.823.758-.362,0-.758-.494-1.153-1.449a28.011,28.011,0,0,1-2.273-9.816v-.165a5.113,5.113,0,0,1,.791-2.569A29.034,29.034,0,0,1,10.619,53.3a8.507,8.507,0,0,1,1.877-1.35,1.011,1.011,0,0,1,.428-.165.524.524,0,0,1,.332.165l.033.033a.151.151,0,0,0,.133-.165c0-.165-.133-.266-.428-.332a3.233,3.233,0,0,0-1.713.889A29.063,29.063,0,0,0,2.915,62.921a1.488,1.488,0,0,1-.362.56,4.34,4.34,0,0,1,.165-.857A99.649,99.649,0,0,1,6.772,50.733a12.9,12.9,0,0,0,1.153-3.426c0-.3-.133-.428-.4-.428-.2,0-.362.165-.527.527A92.908,92.908,0,0,0,.876,67.434a26.513,26.513,0,0,0-.593,4.546,2.469,2.469,0,0,0,.066.724c.1.165.2.266.332.266.121.037.286-.128.385-.424Z" transform="translate(129.238 72.062)" fill="none" stroke="#9a9a9a" stroke-miterlimit="23.123" stroke-width="0.548"/>
    <path id="Path_229" data-name="Path 229" d="M103.294,76.326a1.236,1.236,0,0,0,.332.033h.1a3.409,3.409,0,0,0,1.35-.428c1.35-.724,2.108-1.12,2.174-1.186a.417.417,0,0,0,.133-.3v-.133c-.033-.165-.1-.266-.2-.266h-.033a.121.121,0,0,0-.1.033.358.358,0,0,1-.165.033c-.3.1-.56.165-.857.266a8.244,8.244,0,0,1-2.207.494.56.56,0,0,1-.231-.033l-.1-.033c-.626-.165-.988-1.021-1.12-2.635-.066-.758-.133-1.548-.133-2.339,0-.626.033-1.285.066-1.943.033-.266.033-.527.066-.791v-.033c.033-.2.1-.3.231-.332a7.2,7.2,0,0,1,1.318-.362c.3-.066.758-.1,1.384-.165a.387.387,0,0,0,.332-.362v-.033c0-.165-.1-.266-.3-.332l-.332-.066a6.4,6.4,0,0,0-.791-.066,4.563,4.563,0,0,0-1.318.2.58.58,0,0,1-.2.033h-.033l-.066-.033v-.2a2.15,2.15,0,0,1,.066-.362q.253-1.628.659-3.228l.2-.791c.231-.889.461-1.779.626-2.7.033-.2.133-.3.266-.3a16.146,16.146,0,0,1,2.5-.266h.527a9.626,9.626,0,0,1,1.186.066,3.583,3.583,0,0,1,.79.231l.066.033h.033c.066,0,.133-.066.165-.165,0-.033.033-.066.033-.1v-.033a.3.3,0,0,0-.133-.266,2.982,2.982,0,0,0-1.614-.626,8.087,8.087,0,0,0-1.581-.133,11.986,11.986,0,0,0-1.845.165h-.1q-.1,0-.1-.2c-.066-.4-.2-.626-.461-.692h-.1c-.231,0-.4.133-.527.428-.033.1-.1.2-.133.3-.033.066-.066.165-.1.231v.033a.352.352,0,0,1-.1.165,3.6,3.6,0,0,0-.494.266,2.918,2.918,0,0,1-.56.266.385.385,0,0,0-.332.4v.066a.386.386,0,0,0,.165.362.121.121,0,0,0,.1.033h.033a5.02,5.02,0,0,0,.626-.1h.1c.033,0,.066.033.066.1v.033a.359.359,0,0,1-.033.165.579.579,0,0,0-.033.2c-.461,2.273-.823,4.579-1.12,6.884a.364.364,0,0,1-.165.332l-.133.066-.3.2a.443.443,0,0,0-.165.3v.066a.391.391,0,0,0,.3.362l.133.033a.341.341,0,0,1,.133.033v.1a5.821,5.821,0,0,1-.033.626c-.033.56-.066,1.12-.066,1.647a22.707,22.707,0,0,0,.3,3.623,11.093,11.093,0,0,0,.4,1.581,2.093,2.093,0,0,0,1.449,1.548" transform="translate(95.558 69.008)" fill="#9a9a9a"/>
    <path id="Path_230" data-name="Path 230" d="M103.294,76.326a1.236,1.236,0,0,0,.332.033h.1a3.409,3.409,0,0,0,1.35-.428c1.35-.724,2.108-1.12,2.174-1.186a.417.417,0,0,0,.133-.3v-.133c-.033-.165-.1-.266-.2-.266h-.033a.121.121,0,0,0-.1.033.358.358,0,0,1-.165.033c-.3.1-.56.165-.857.266a8.244,8.244,0,0,1-2.207.494.56.56,0,0,1-.231-.033l-.1-.033c-.626-.165-.988-1.021-1.12-2.635-.066-.758-.133-1.548-.133-2.339,0-.626.033-1.285.066-1.943.033-.266.033-.527.066-.791v-.033c.033-.2.1-.3.231-.332a7.2,7.2,0,0,1,1.318-.362c.3-.066.758-.1,1.384-.165a.387.387,0,0,0,.332-.362v-.033c0-.165-.1-.266-.3-.332l-.332-.066a6.4,6.4,0,0,0-.791-.066,4.563,4.563,0,0,0-1.318.2.58.58,0,0,1-.2.033h-.033l-.066-.033v-.2a2.15,2.15,0,0,1,.066-.362q.253-1.628.659-3.228l.2-.791c.231-.889.461-1.779.626-2.7.033-.2.133-.3.266-.3a16.146,16.146,0,0,1,2.5-.266h.527a9.626,9.626,0,0,1,1.186.066,3.583,3.583,0,0,1,.79.231l.066.033h.033c.066,0,.133-.066.165-.165,0-.033.033-.066.033-.1v-.033a.3.3,0,0,0-.133-.266,2.982,2.982,0,0,0-1.614-.626,8.087,8.087,0,0,0-1.581-.133,11.986,11.986,0,0,0-1.845.165h-.1q-.1,0-.1-.2c-.066-.4-.2-.626-.461-.692h-.1c-.231,0-.4.133-.527.428-.033.1-.1.2-.133.3-.033.066-.066.165-.1.231v.033a.352.352,0,0,1-.1.165,3.6,3.6,0,0,0-.494.266,2.918,2.918,0,0,1-.56.266.385.385,0,0,0-.332.4v.066a.386.386,0,0,0,.165.362.121.121,0,0,0,.1.033h.033a5.02,5.02,0,0,0,.626-.1h.1c.033,0,.066.033.066.1v.033a.359.359,0,0,1-.033.165.579.579,0,0,0-.033.2c-.461,2.273-.823,4.579-1.12,6.884a.364.364,0,0,1-.165.332l-.133.066-.3.2a.443.443,0,0,0-.165.3v.066a.391.391,0,0,0,.3.362l.133.033a.341.341,0,0,1,.133.033v.1a5.821,5.821,0,0,1-.033.626c-.033.56-.066,1.12-.066,1.647a22.707,22.707,0,0,0,.3,3.623,11.093,11.093,0,0,0,.4,1.581,2.093,2.093,0,0,0,1.451,1.549Z" transform="translate(95.558 69.008)" fill="none" stroke="#000" stroke-miterlimit="29.994" stroke-width="0.548"/>
    <g id="Group_85" data-name="Group 85" transform="translate(151.399 95.289)">
      <path id="Path_233" data-name="Path 233" d="M47.923,15.911c-.066-.1-.066-.1-.165-.1.133.033.165.2.2.266h.1c-.033-.066-.1-.1-.134-.167Z" transform="translate(-38.088 -12.806)" fill="none"/>
      <path id="Path_234" data-name="Path 234" d="M47.178,14.787a.731.731,0,0,1-.362-.165c.066.033,0,.033,0,0,0,.133.2.133.332.165Z" transform="translate(-37.772 -12.407)" fill="none"/>
      <path id="Path_235" data-name="Path 235" d="M47.706,14.554a.278.278,0,0,0,.231.066,1.071,1.071,0,0,1-.332-.428c-.133-.231-.332-.165-.56-.133h-.03a5.588,5.588,0,0,1,.461.332.591.591,0,0,1,.231.162Z" transform="translate(-37.838 -12.207)" fill="none"/>
      <path id="Path_236" data-name="Path 236" d="M47.113,15.762Z" transform="translate(-37.871 -12.789)" fill="none"/>
      <path id="Path_237" data-name="Path 237" d="M47.312,15.8c.066.033.1,0,.165-.033A.358.358,0,0,1,47.312,15.8Z" transform="translate(-37.938 -12.789)" fill="none"/>
      <path id="Path_238" data-name="Path 238" d="M47.46,15.907c.033,0,.1.033,0,0a1,1,0,0,1,.231.165C47.659,15.94,47.625,15.874,47.46,15.907Z" transform="translate(-37.988 -12.835)" fill="none"/>
      <path id="Path_239" data-name="Path 239" d="M48.451,16.01a.1.1,0,0,1,.066.033C48.484,16.01,48.484,16.01,48.451,16.01Z" transform="translate(-38.32 -12.873)" fill="none"/>
      <path id="Path_240" data-name="Path 240" d="M50.434,19.529Z" transform="translate(-38.985 -14.053)" fill="none"/>
      <path id="Path_241" data-name="Path 241" d="M46.981,15.6c-.033-.033-.066-.033-.066,0v.033a.2.2,0,0,0,.133.033h.1a.748.748,0,0,1,.133-.033A.731.731,0,0,1,46.981,15.6Z" transform="translate(-37.805 -12.727)" fill="none"/>
      <path id="Path_242" data-name="Path 242" d="M49.839,16.357Z" transform="translate(-38.786 -12.989)" fill="none"/>
      <path id="Path_243" data-name="Path 243" d="M49.325,16.25c-.066-.1-.165-.266-.266-.3-.066,0-.1-.033-.165,0,.033.033.033.066.066.066.1.164.136.23.364.23Z" transform="translate(-38.469 -12.849)" fill="none"/>
      <path id="Path_244" data-name="Path 244" d="M49.676,16.359c.133.066.165.2.231.3.033.1.066.066.165.066h.165c-.133-.231-.362-.266-.527-.428-.066-.033-.1-.1-.165-.133,0,.033.033.165.066.165a.1.1,0,0,0,.065.033Z" transform="translate(-38.687 -12.923)" fill="none"/>
      <path id="Path_245" data-name="Path 245" d="M50.35,19.58c-.033-.033-.033-.066-.066-.1H50.25c-.1-.033-.231-.066-.362-.1C49.922,19.48,50.251,19.545,50.35,19.58Z" transform="translate(-38.802 -14.004)" fill="none"/>
      <path id="Path_246" data-name="Path 246" d="M48.551,15.168Z" transform="translate(-38.354 -12.59)" fill="none"/>
      <path id="Path_247" data-name="Path 247" d="M47.609,14.919a3.605,3.605,0,0,1,.758.3c-.033-.033-.066-.1-.133-.133a1.171,1.171,0,0,0-.3-.133A1.122,1.122,0,0,0,47.609,14.919Z" transform="translate(-38.038 -12.506)" fill="none"/>
      <path id="Path_248" data-name="Path 248" d="M48.451,15.514a.252.252,0,0,0,.165.066A.252.252,0,0,1,48.451,15.514Z" transform="translate(-38.32 -12.706)" fill="none"/>
      <path id="Path_249" data-name="Path 249" d="M50.415,19.517C50.349,19.484,50.382,19.484,50.415,19.517Z" transform="translate(-38.966 -14.041)" fill="none"/>
      <path id="Path_250" data-name="Path 250" d="M48.551,15.167Z" transform="translate(-38.354 -12.59)" fill="none"/>
      <path id="Path_251" data-name="Path 251" d="M68.228,26.666l.2.791v-.165a.6.6,0,0,0-.2-.626Z" transform="translate(-44.954 -16.447)" fill="none"/>
      <path id="Path_252" data-name="Path 252" d="M70.045,31.39c0-.033,0-.033.033-.066-.033-.033-.033-.066-.066-.1A.3.3,0,0,0,70.045,31.39Z" transform="translate(-45.552 -17.976)" fill="none"/>
      <path id="Path_253" data-name="Path 253" d="M68.525,27.608Z" transform="translate(-45.053 -16.763)" fill="none"/>
      <path id="Path_254" data-name="Path 254" d="M50.894,22.918c-.066.033-.165-.1-.231-.133a.987.987,0,0,0-.332-.133,3.749,3.749,0,0,0,1.021.527.254.254,0,0,0,.1.033c.068-.132-.459-.33-.557-.294Z" transform="translate(-38.951 -15.1)" fill="none"/>
      <path id="Path_255" data-name="Path 255" d="M70.409,32.416Z" transform="translate(-45.685 -18.376)" fill="none"/>
      <path id="Path_256" data-name="Path 256" d="M72.937,35.241Z" transform="translate(-46.533 -19.323)" fill="none"/>
      <path id="Path_257" data-name="Path 257" d="M70.359,32.183a.758.758,0,0,0-.066-.461A.474.474,0,0,0,70.359,32.183Z" transform="translate(-45.636 -18.143)" fill="none"/>
      <path id="Path_258" data-name="Path 258" d="M48.3,16.506Z" transform="translate(-38.27 -13.039)" fill="none"/>
      <path id="Path_259" data-name="Path 259" d="M75.559,27.244c0-.133-.066-.165-.2-.231-.033,0,.066.1.1.1C75.493,27.146,75.526,27.212,75.559,27.244Z" transform="translate(-47.344 -16.563)" fill="none"/>
      <path id="Path_260" data-name="Path 260" d="M48.831,16.8c-.1,0-.165.033-.231.033.033,0,.033.033,0,0a.5.5,0,0,0,.332.2A.3.3,0,0,1,48.831,16.8Z" transform="translate(-38.37 -13.139)" fill="none"/>
      <path id="Path_261" data-name="Path 261" d="M49.1,21.165a1.117,1.117,0,0,0,.2.2C49.229,21.33,49.2,21.231,49.1,21.165Z" transform="translate(-38.536 -14.602)" fill="none"/>
      <path id="Path_262" data-name="Path 262" d="M48.5,16.522a.96.96,0,0,0-.3-.066l.066.066H48.5Z" transform="translate(-38.237 -13.022)" fill="none"/>
      <path id="Path_263" data-name="Path 263" d="M50.313,22.219c.066.066.066.1.133.133a.814.814,0,0,0-.133-.3c-.066-.1-.2-.133-.266-.2-.1-.1-.1-.133-.231-.165s-.266-.033-.332-.133a.332.332,0,0,0,.133.165c.066.033.133.033.165.066.133.066.2.231.332.3C50.148,22.153,50.247,22.186,50.313,22.219Z" transform="translate(-38.666 -14.734)" fill="none"/>
      <path id="Path_264" data-name="Path 264" d="M49.195,20.719Z" transform="translate(-38.57 -14.452)" fill="none"/>
      <path id="Path_265" data-name="Path 265" d="M51.976,23.466c-.033,0-.066-.033-.1-.033C51.778,23.4,51.712,23.4,51.976,23.466Z" transform="translate(-39.44 -15.355)" fill="none"/>
      <path id="Path_266" data-name="Path 266" d="M49.16,20.421a.506.506,0,0,0-.461-.2c0,.033.133.066.165.1a1.436,1.436,0,0,1,.2.231.778.778,0,0,0,.266.3C49.193,20.715,49.226,20.554,49.16,20.421Z" transform="translate(-38.403 -14.284)" fill="none"/>
      <path id="Path_267" data-name="Path 267" d="M38.588,11.981c.1-.033.133.1.2.033l.1-.1c.033-.033.033-.066.066-.1.033-.066.1-.1.133-.165a1.62,1.62,0,0,0-.5.33Z" transform="translate(-35.012 -11.41)" fill="none"/>
      <path id="Path_268" data-name="Path 268" d="M49.908,20.814c.066.066.066.165.165.231a1.54,1.54,0,0,1-.165-.332c0-.066-.033-.1-.1-.133-.033-.033-.1-.033-.165-.066.033.033.066.165.1.2a.181.181,0,0,1,.165.1Z" transform="translate(-38.72 -14.383)" fill="none"/>
      <path id="Path_269" data-name="Path 269" d="M43,13.078C43.032,13.078,43,13.045,43,13.078Z" transform="translate(-36.491 -11.884)" fill="none"/>
      <path id="Path_270" data-name="Path 270" d="M44.5,12.881c-.033,0-.133-.033-.165,0,0,0,.165,0,.2.033a.033.033,0,0,1-.035-.033Z" transform="translate(-36.94 -11.818)" fill="none"/>
      <path id="Path_271" data-name="Path 271" d="M42.239,12.359a.418.418,0,0,1,.2-.033h.033c-.165,0-.3-.033-.461-.033C42.075,12.326,42.142,12.392,42.239,12.359Z" transform="translate(-36.159 -11.626)" fill="none"/>
      <path id="Path_272" data-name="Path 272" d="M44.8,13.647l-.066-.066C44.734,13.647,44.767,13.647,44.8,13.647Z" transform="translate(-37.073 -12.058)" fill="none"/>
      <path id="Path_273" data-name="Path 273" d="M46.271,14.473Z" transform="translate(-37.589 -12.357)" fill="none"/>
      <path id="Path_274" data-name="Path 274" d="M45.378,13.73c.133.033.165.133.231.266l.1.1a1.96,1.96,0,0,0-.133-.266A.376.376,0,0,0,45.378,13.73Z" transform="translate(-37.289 -12.108)" fill="none"/>
      <path id="Path_275" data-name="Path 275" d="M45.015,13.349a.278.278,0,0,0-.231-.066c.033,0,.033.066,0,0,.033.066.1.133.165.231h.266c-.068-.066-.134-.1-.2-.164Z" transform="translate(-37.09 -11.956)" fill="none"/>
      <path id="Path_276" data-name="Path 276" d="M40.107,12.171c-.033,0,0-.066,0,0a.689.689,0,0,1,.133-.2c-.033,0-.133-.066-.165-.033a.488.488,0,0,0,.032.233Z" transform="translate(-35.51 -11.504)" fill="none"/>
      <path id="Path_277" data-name="Path 277" d="M39.447,12.144c-.033,0,0-.033,0,0v-.1a.72.72,0,0,1-.165.1Z" transform="translate(-35.244 -11.543)" fill="none"/>
      <path id="Path_278" data-name="Path 278" d="M36.9,40.892Z" transform="translate(-34.446 -21.219)" fill="none"/>
      <path id="Path_279" data-name="Path 279" d="M39.465,11.847a.257.257,0,0,0-.133.133v.033C39.4,11.98,39.5,11.98,39.465,11.847Z" transform="translate(-35.261 -11.476)" fill="none"/>
      <path id="Path_280" data-name="Path 280" d="M41.182,12.193c-.033.033-.033.066-.066.1.066-.033.1-.033.165-.066A.121.121,0,0,0,41.182,12.193Z" transform="translate(-35.86 -11.592)" fill="none"/>
      <path id="Path_281" data-name="Path 281" d="M72.59,34.635c0,.165.1.231.231.332.165-.231-.033-.461-.2-.659C72.623,34.4,72.59,34.534,72.59,34.635Z" transform="translate(-46.417 -19.011)" fill="none"/>
      <path id="Path_282" data-name="Path 282" d="M40.57,11.742h.266a.3.3,0,0,1,.165.033c.033-.033.066-.033.1-.066-.1-.1-.133-.165-.266-.133a.56.56,0,0,1-.231-.033c-.2-.033-.266.1-.428.165.1,0,.231.033.4.033C40.636,11.71,40.6,11.71,40.57,11.742Z" transform="translate(-35.544 -11.372)" fill="none"/>
      <path id="Path_283" data-name="Path 283" d="M46.245,14.455C46.211,14.422,46.146,14.389,46.245,14.455Z" transform="translate(-37.562 -12.338)" fill="none"/>
      <path id="Path_284" data-name="Path 284" d="M41.41,11.963c.033,0,.066.033.1.033s.066.033.1.066c.033,0,.066-.033.1-.066-.066,0-.1-.033-.165-.066S41.377,11.864,41.41,11.963Z" transform="translate(-35.956 -11.493)" fill="none"/>
      <path id="Path_285" data-name="Path 285" d="M41.43,12.427c-.066.033-.1.066-.165.066a.457.457,0,0,1,.3,0h.133C41.6,12.427,41.561,12.361,41.43,12.427Z" transform="translate(-35.91 -11.662)" fill="none"/>
      <path id="Path_286" data-name="Path 286" d="M49.574,19.3h.1a.1.1,0,0,1-.033-.066.121.121,0,0,0-.1.033Z" transform="translate(-38.686 -13.953)" fill="none"/>
      <path id="Path_287" data-name="Path 287" d="M46.091,14.012a1.949,1.949,0,0,0-.266-.133,1.162,1.162,0,0,0,.266.428l.2.1A.332.332,0,0,0,46.091,14.012Z" transform="translate(-37.439 -12.158)" fill="none"/>
      <path id="Path_288" data-name="Path 288" d="M50.135,19.954c-.1-.066-.2-.033-.3-.033.1.066.266.066.3.2a1.333,1.333,0,0,0,.165.3c.066.066.133.066.231.1.033.033.1.066.133.1a1.256,1.256,0,0,0,.332.1c-.1,0-.066-.066-.033-.066a1.824,1.824,0,0,0-.266-.2c-.1-.1-.133-.3-.3-.332-.066-.033-.133,0-.2-.033a.47.47,0,0,0-.066-.128Z" transform="translate(-38.786 -14.182)" fill="none"/>
      <path id="Path_289" data-name="Path 289" d="M49.492,19.033v.033c.033,0,.033,0,.066-.033Z" transform="translate(-38.669 -13.887)" fill="none"/>
      <path id="Path_290" data-name="Path 290" d="M49.889,20.57Z" transform="translate(-38.802 -14.402)" fill="none"/>
      <path id="Path_291" data-name="Path 291" d="M49.725,16.918a.328.328,0,0,0-.133-.165C49.625,16.852,49.625,16.918,49.725,16.918Z" transform="translate(-38.703 -13.122)" fill="none"/>
      <path id="Path_292" data-name="Path 292" d="M51.574,21.016c0,.033.033.033.033.066Z" transform="translate(-39.367 -14.552)" fill="none"/>
      <path id="Path_293" data-name="Path 293" d="M49.889,20.57Z" transform="translate(-38.802 -14.402)" fill="none"/>
      <path id="Path_294" data-name="Path 294" d="M49.542,19.232Z" transform="translate(-38.686 -13.953)" fill="none"/>
      <path id="Path_295" data-name="Path 295" d="M51.706,21.33c-.033-.033-.033-.033-.033-.066A.115.115,0,0,0,51.706,21.33Z" transform="translate(-39.401 -14.635)" fill="none"/>
      <path id="Path_296" data-name="Path 296" d="M51.257,21.145c-.133-.133-.332-.165-.461-.266-.066-.033-.165-.066-.231-.1a.61.61,0,0,0-.231-.066l.1.2c.033.066.066.1.1.165.066,0,.133-.033.2,0,.165,0,.2.066.231.2.1.3.527.231.791.2-.1-.066-.165-.133-.266-.2-.066-.033-.066-.066-.133-.066-.033-.033-.066-.033-.1-.066ZM51.59,21.478Z" transform="translate(-38.952 -14.45)" fill="none"/>
      <path id="Path_297" data-name="Path 297" d="M51.128,42.462a.689.689,0,0,0,.2-.133C51.261,42.362,51.161,42.4,51.128,42.462Z" transform="translate(-39.218 -21.701)" fill="none"/>
      <path id="Path_298" data-name="Path 298" d="M50.93,18.29Z" transform="translate(-39.151 -13.637)" fill="none"/>
      <path id="Path_299" data-name="Path 299" d="M50.962,19.713c.165.033.3.066.461.1-.133-.1-.266-.165-.4-.266-.1-.066-.2-.1-.3-.165.066.132.066.265.231.332Z" transform="translate(-39.085 -14.003)" fill="none"/>
      <path id="Path_300" data-name="Path 300" d="M50.822,18.342c.066.066.1.133.165.2a.586.586,0,0,0,.362.266c-.1-.066-.165-.133-.165-.231a.864.864,0,0,0-.1-.266c-.033-.033-.033-.066-.066-.1s-.1-.033-.133-.066a.49.49,0,0,1,.133.3c0,.033-.066.033-.066-.033a.171.171,0,0,0-.066-.133v-.033c-.033,0-.165-.1-.165-.066-.064.033.1.132.1.166Z" transform="translate(-39.076 -13.589)" fill="none"/>
      <path id="Path_301" data-name="Path 301" d="M51.211,20.19c-.033-.033-.033-.033-.133-.066C51.111,20.157,51.177,20.157,51.211,20.19Z" transform="translate(-39.201 -14.253)" fill="none"/>
      <path id="Path_302" data-name="Path 302" d="M44.635,13.482c0,.033,0,.033.033.033C44.7,13.548,44.635,13.515,44.635,13.482Z" transform="translate(-37.04 -12.025)" fill="none"/>
      <path id="Path_303" data-name="Path 303" d="M76.9,34.448Z" transform="translate(-47.863 -19.057)" fill="none"/>
      <path id="Path_304" data-name="Path 304" d="M76.951,34.448Z" transform="translate(-47.88 -19.057)" fill="none"/>
      <path id="Path_305" data-name="Path 305" d="M79.692,30.728a1.359,1.359,0,0,0,.362.231.453.453,0,0,0,.362.033,1.506,1.506,0,0,1-.659-.461,1.361,1.361,0,0,0-.494-.231c-.066-.033-.165-.033-.231-.066.1.066.231.133.332.2a2.4,2.4,0,0,0,.326.3Z" transform="translate(-48.578 -17.644)" fill="none"/>
      <path id="Path_306" data-name="Path 306" d="M79.38,30.384Z" transform="translate(-48.694 -17.694)" fill="none"/>
      <path id="Path_307" data-name="Path 307" d="M81.131,32.466h-.066c.033.033.1.033.133.066C81.2,32.5,81.164,32.5,81.131,32.466Z" transform="translate(-49.26 -18.392)" fill="none"/>
      <path id="Path_308" data-name="Path 308" d="M76.738,34.233a1.122,1.122,0,0,0-.332-.033c.033.133.2.133.332.133h.133C76.834,34.332,76.8,34.266,76.738,34.233Z" transform="translate(-47.697 -18.974)" fill="none"/>
      <path id="Path_309" data-name="Path 309" d="M77.794,34.25Z" transform="translate(-48.162 -18.991)" fill="none"/>
      <path id="Path_310" data-name="Path 310" d="M76.836,33.853c-.066,0-.133.033-.231.033a.593.593,0,0,1,.332.066C76.967,33.952,76.871,33.886,76.836,33.853Z" transform="translate(-47.764 -18.858)" fill="none"/>
      <path id="Path_311" data-name="Path 311" d="M83.859,33.556c-.066,0-.165.033-.231.033h-.035A.818.818,0,0,0,83.859,33.556Z" transform="translate(-50.108 -18.758)" fill="none"/>
      <path id="Path_312" data-name="Path 312" d="M83.264,32.761a1.1,1.1,0,0,0,.461-.033.9.9,0,0,0-.428-.066H83A.438.438,0,0,0,83.264,32.761Z" transform="translate(-49.908 -18.457)" fill="none"/>
      <path id="Path_313" data-name="Path 313" d="M82.205,32.731a1.876,1.876,0,0,0,.428-.033,1.431,1.431,0,0,0-.165-.033c-.1.033-.2.033-.263.066Z" transform="translate(-49.642 -18.459)" fill="none"/>
      <path id="Path_314" data-name="Path 314" d="M77.595,34.185h.1a1.38,1.38,0,0,1-.494-.133.36.36,0,0,0,.395.133Z" transform="translate(-47.963 -18.924)" fill="none"/>
      <path id="Path_315" data-name="Path 315" d="M81.429,32.079a.418.418,0,0,1,.2.033,1.861,1.861,0,0,1,.4.133,1.878,1.878,0,0,0,.428-.033h.4c-.1-.066-.165-.165-.3-.2h-.56c.033.033.165.133.066.133-.033,0-.1-.1-.133-.133a.465.465,0,0,0-.3.033,1.12,1.12,0,0,0-.332.033h-.031C81.3,32.112,81.4,32.079,81.429,32.079Z" transform="translate(-49.326 -18.237)" fill="none"/>
      <path id="Path_316" data-name="Path 316" d="M81.81,32.449a.418.418,0,0,0-.2-.033A.418.418,0,0,0,81.81,32.449Z" transform="translate(-49.443 -18.375)" fill="none"/>
      <path id="Path_317" data-name="Path 317" d="M81.412,32.069Z" transform="translate(-49.376 -18.259)" fill="none"/>
      <path id="Path_318" data-name="Path 318" d="M81.561,31.573c-.033,0-.066.033-.1.033h.2A.121.121,0,0,1,81.561,31.573Z" transform="translate(-49.393 -18.093)" fill="none"/>
      <path id="Path_319" data-name="Path 319" d="M81.908,33.507Z" transform="translate(-49.542 -18.741)" fill="none"/>
      <path id="Path_320" data-name="Path 320" d="M79.876,33.3h.2a.207.207,0,0,0-.2,0Z" transform="translate(-48.861 -18.662)" fill="none"/>
      <path id="Path_321" data-name="Path 321" d="M80.633,32.758c-.033-.033-.165.033-.2.033-.133.033-.3.066-.461.1.133.033.266,0,.4.033a1.485,1.485,0,0,0,.362-.1C80.7,32.791,80.666,32.791,80.633,32.758Z" transform="translate(-48.893 -18.487)" fill="none"/>
      <path id="Path_322" data-name="Path 322" d="M82.2,33.35l-.3-.2c-.033-.033-.1-.066-.133-.1a1.1,1.1,0,0,0-.461.033c.165.033.266.165.428.266A2.153,2.153,0,0,0,82.2,33.35Z" transform="translate(-49.342 -18.585)" fill="none"/>
      <path id="Path_323" data-name="Path 323" d="M81,33.488c.066,0,.133.033.2.033-.133-.066-.2-.1-.332-.033Z" transform="translate(-49.193 -18.723)" fill="none"/>
      <path id="Path_324" data-name="Path 324" d="M77.779,33.919c-.066-.066-.231-.066-.332-.066A.976.976,0,0,0,77.779,33.919Z" transform="translate(-48.046 -18.858)" fill="none"/>
      <path id="Path_325" data-name="Path 325" d="M82.007,33.754a.328.328,0,0,0,.133.165,1.233,1.233,0,0,0,.362.033h.033c-.066-.033-.1-.033-.165-.066C82.273,33.853,82.14,33.787,82.007,33.754Z" transform="translate(-49.576 -18.824)" fill="none"/>
      <path id="Path_326" data-name="Path 326" d="M83.077,33.621a1.12,1.12,0,0,1-.332-.033c-.133,0-.266.033-.4.033a1.155,1.155,0,0,1,.266.165.309.309,0,0,0,.3.033,2.95,2.95,0,0,0,.758-.266c-.033,0-.033.033,0,0,.066-.033.165-.066.231-.1-.165.033-.3.066-.461.1A1.184,1.184,0,0,1,83.077,33.621Z" transform="translate(-49.69 -18.724)" fill="none"/>
      <path id="Path_327" data-name="Path 327" d="M75.378,33.374c-.1-.033-.165-.033-.266-.066h-.2l.494.1a1.094,1.094,0,0,1,.2.1c.033.033.033.066.066.033h.165a1.608,1.608,0,0,1-.231-.1c-.031-.065-.13-.065-.229-.065Z" transform="translate(-47.196 -18.675)" fill="none"/>
      <path id="Path_328" data-name="Path 328" d="M78.885,34.2Z" transform="translate(-48.528 -18.974)" fill="none"/>
      <path id="Path_329" data-name="Path 329" d="M78.883,32.778a6.965,6.965,0,0,0-.692-.362c.033.066.2.165.266.231A.725.725,0,0,0,78.883,32.778Z" transform="translate(-48.296 -18.376)" fill="none"/>
      <path id="Path_330" data-name="Path 330" d="M78.786,34.2h-.2C78.653,34.233,78.72,34.2,78.786,34.2Z" transform="translate(-48.428 -18.974)" fill="none"/>
      <path id="Path_331" data-name="Path 331" d="M79.014,33.655a.465.465,0,0,0-.2.066.655.655,0,0,1-.428.033.31.31,0,0,0,.3.033c.133-.033.266-.033.4-.066.066-.033.133-.033.2-.066Z" transform="translate(-48.361 -18.791)" fill="none"/>
      <path id="Path_332" data-name="Path 332" d="M79.544,32.466a1.486,1.486,0,0,0-.362.1.726.726,0,0,0,.266.033,2.175,2.175,0,0,0,.461-.033,1.167,1.167,0,0,0-.365-.1Z" transform="translate(-48.628 -18.392)" fill="none"/>
      <path id="Path_333" data-name="Path 333" d="M79.38,33.754Z" transform="translate(-48.694 -18.824)" fill="none"/>
      <path id="Path_334" data-name="Path 334" d="M79.38,33.754Z" transform="translate(-48.694 -18.824)" fill="none"/>
      <path id="Path_335" data-name="Path 335" d="M74.176,33.259a.121.121,0,0,0,.033.1c.033,0,.066.033.1.033-.066-.1-.066-.1-.132-.132Z" transform="translate(-46.948 -18.658)" fill="none"/>
      <path id="Path_336" data-name="Path 336" d="M74.275,33.606a.294.294,0,0,0,.266.165c-.033,0-.1-.1-.165-.133C74.341,33.639,74.308,33.606,74.275,33.606Z" transform="translate(-46.982 -18.775)" fill="none"/>
      <path id="Path_337" data-name="Path 337" d="M74.771,33.491c-.033,0-.066-.033-.1-.033a.242.242,0,0,0,.2.066A.121.121,0,0,1,74.771,33.491Z" transform="translate(-47.115 -18.725)" fill="none"/>
      <path id="Path_338" data-name="Path 338" d="M74.671,33.853Z" transform="translate(-47.115 -18.858)" fill="none"/>
      <path id="Path_339" data-name="Path 339" d="M73.228,36.034c-.033.133-.066.266-.1.362a.939.939,0,0,0,.066.527,1.351,1.351,0,0,1,.033-.362c0-.066.033-.1.033-.165a.2.2,0,0,1-.033-.133Z" transform="translate(-46.594 -19.589)" fill="none"/>
      <path id="Path_340" data-name="Path 340" d="M75.429,34.925l-.2-.2c-.165-.133-.362-.133-.56-.231a.974.974,0,0,1,.066.332c.033.1,0,.266.133.3.2.1.461-.1.659,0,.033,0-.066-.1-.066-.1,0-.034-.032-.066-.032-.1Z" transform="translate(-47.114 -19.073)" fill="none"/>
      <path id="Path_341" data-name="Path 341" d="M72.733,33.2a1.435,1.435,0,0,0-.332-.527,3.6,3.6,0,0,1-.56-.428,3.149,3.149,0,0,1-.4-.527.586.586,0,0,0,.266.362,3.1,3.1,0,0,0,.332.332.792.792,0,0,1,.2.266c.033.1.165.133.231.2.033.033.1.066.133.1.033.066.033.133.066.2a.628.628,0,0,1,.066.428,2.9,2.9,0,0,1-.165.494c-.033.066.066.133.066.2a.417.417,0,0,1,.033.2c.033-.2.133-.4.165-.626A.962.962,0,0,0,72.733,33.2Z" transform="translate(-46.033 -18.143)" fill="none"/>
      <path id="Path_342" data-name="Path 342" d="M73.764,35.241c-.033.165-.1.332-.133.494a2.9,2.9,0,0,0,.2-.332C73.862,35.34,73.8,35.307,73.764,35.241Z" transform="translate(-46.766 -19.323)" fill="none"/>
      <path id="Path_343" data-name="Path 343" d="M73.978,32.664c.066.066.033.066,0,0,.033.1.033.2.133.266C74.111,32.829,74.044,32.763,73.978,32.664Z" transform="translate(-46.882 -18.459)" fill="none"/>
      <path id="Path_344" data-name="Path 344" d="M75.911,34.25c.033.033.1.066.133.1l.033.033c-.033-.1-.067-.132-.166-.132Z" transform="translate(-47.531 -18.991)" fill="none"/>
      <path id="Path_345" data-name="Path 345" d="M81.065,33.507Z" transform="translate(-49.26 -18.741)" fill="#9a9a9a"/>
      <path id="Path_346" data-name="Path 346" d="M81.016,33.507Z" transform="translate(-49.243 -18.741)" fill="#9a9a9a"/>
      <path id="Path_347" data-name="Path 347" d="M46.816,14.672Z" transform="translate(-37.772 -12.424)" fill="#9a9a9a"/>
      <path id="Path_348" data-name="Path 348" d="M41.76,12.54Z" transform="translate(-36.076 -11.709)" fill="#9a9a9a"/>
      <path id="Path_349" data-name="Path 349" d="M48.055,16.208Z" transform="translate(-38.187 -12.939)" fill="#9a9a9a"/>
      <path id="Path_350" data-name="Path 350" d="M42.652,12.342Z" transform="translate(-36.375 -11.642)" fill="#9a9a9a"/>
      <path id="Path_351" data-name="Path 351" d="M41.711,12.54Z" transform="translate(-36.059 -11.709)" fill="#9a9a9a"/>
      <path id="Path_352" data-name="Path 352" d="M81.908,33.507Z" transform="translate(-49.542 -18.741)" fill="#9a9a9a"/>
      <path id="Path_353" data-name="Path 353" d="M44.579,12.887C44.579,12.92,44.545,12.887,44.579,12.887Z" transform="translate(-37.016 -11.825)" fill="#9a9a9a"/>
      <path id="Path_354" data-name="Path 354" d="M68.525,27.609Z" transform="translate(-45.053 -16.763)" fill="#9a9a9a"/>
      <path id="Path_355" data-name="Path 355" d="M81.065,33.507Z" transform="translate(-49.26 -18.741)" fill="#9a9a9a"/>
      <path id="Path_356" data-name="Path 356" d="M80.62,32.961Z" transform="translate(-49.11 -18.558)" fill="#9a9a9a"/>
      <path id="Path_357" data-name="Path 357" d="M46.271,14.473Z" transform="translate(-37.589 -12.357)" fill="#9a9a9a"/>
      <path id="Path_358" data-name="Path 358" d="M68.525,27.608Z" transform="translate(-45.053 -16.763)" fill="#9a9a9a"/>
      <path id="Path_359" data-name="Path 359" d="M44.784,13.284C44.817,13.35,44.817,13.284,44.784,13.284Z" transform="translate(-37.09 -11.958)" fill="#9a9a9a"/>
      <path id="Path_360" data-name="Path 360" d="M45.72,14.114C45.687,14.048,45.753,14.147,45.72,14.114Z" transform="translate(-37.401 -12.229)" fill="#9a9a9a"/>
      <path id="Path_361" data-name="Path 361" d="M73.978,32.664C74.011,32.73,74.044,32.73,73.978,32.664Z" transform="translate(-46.882 -18.459)" fill="#9a9a9a"/>
      <path id="Path_362" data-name="Path 362" d="M40.769,11.834C40.8,11.8,40.835,11.8,40.769,11.834Z" transform="translate(-35.743 -11.464)" fill="#9a9a9a"/>
      <path id="Path_363" data-name="Path 363" d="M72.937,35.291Z" transform="translate(-46.533 -19.34)" fill="#9a9a9a"/>
      <path id="Path_364" data-name="Path 364" d="M47.46,15.911C47.559,15.944,47.493,15.911,47.46,15.911Z" transform="translate(-37.988 -12.839)" fill="#9a9a9a"/>
      <path id="Path_365" data-name="Path 365" d="M68.5,26.12a1.1,1.1,0,0,0-.332-.2c-.332-.2-.889-.033-1.251,0-.133,0-.3.066-.461.066a1.3,1.3,0,0,1-.494-.2c.1,0,.231-.066.332-.033a2.106,2.106,0,0,0,.231.066,2.135,2.135,0,0,0,.659-.066c.033,0,.165-.033.2-.033a2.011,2.011,0,0,1,.428-.1,1.335,1.335,0,0,1,.362,0,.629.629,0,0,0,.266.1c.066.033.1.066.165.066-.1,0-.231-.133-.3-.165-.1-.066-.133-.1-.231-.1h-.2c-.066,0-.165.033-.231.033-.165,0-.332.066-.494.066-.066,0-.1-.066-.165-.1a1.4,1.4,0,0,0-.362-.066h.791c-.133,0,0-.033.033-.033h.133c.133,0,.428-.066.527.033-.033-.066-.165-.066-.231-.066a1.881,1.881,0,0,0-.428-.033c-.165,0-.332-.033-.494-.033-.1,0-.165-.133-.231-.2-.2-.2-.461-.165-.724-.2a.532.532,0,0,1-.3-.1l-.1-.1c.066-.033.165-.066.231-.1.1-.033.231.033.332.066.066.033.1.066.165.1.133.066.3.133.428.2.1.033.461.165.56.033-.1.066-.3-.033-.4-.066a.986.986,0,0,1-.266-.133c-.133-.066-.231-.165-.362-.231a1.944,1.944,0,0,0-.266-.133.474.474,0,0,0-.461.066c-.033.033-.1.033-.133.066a.281.281,0,0,1-.231,0c-.1-.033-.231-.1-.332-.133-.231-.066-.362-.332-.593-.461a1.257,1.257,0,0,0-.332-.1c-.066-.033-.165-.033-.231-.066a2.849,2.849,0,0,0-.332-.231,1.83,1.83,0,0,0-.56-.3,1.168,1.168,0,0,1-.3-.133l-.3-.2c-.133-.1-.2-.133-.231-.3-.033-.133-.1-.165-.2-.231a.48.48,0,0,1-.231-.428c0-.2-.1-.266-.231-.362a2.051,2.051,0,0,1-.692-.494,1.184,1.184,0,0,0-.231-.332.786.786,0,0,0-.362-.2,2.26,2.26,0,0,0-1.12-.461,5.361,5.361,0,0,0-2.7.133c-.2.066-.362.165-.527.066-.2-.1-.4-.133-.593-.231-.165-.1-.332-.2-.527-.3a2.293,2.293,0,0,0-.626-.2c-.428-.133-.889-.231-1.318-.332a6.982,6.982,0,0,0-1.416-.2,9.363,9.363,0,0,0-1.647.2c-.593.1-1.186.165-1.779.231a7.165,7.165,0,0,1-1.68.033.476.476,0,0,1-.231-.066c-.133-.066-.1-.133-.1-.231a.6.6,0,0,0-.428-.527c.165.033.4,0,.527.1a1.4,1.4,0,0,0,.626.2,1.606,1.606,0,0,0,.4.033c.165,0,.332-.033.494-.033a.57.57,0,0,0,.332-.033c-.1.033-.231-.033-.332-.033a1.352,1.352,0,0,1-.362-.033c-.1,0-.266-.033-.362-.033a1.4,1.4,0,0,0-.362-.066,1.063,1.063,0,0,0,.56-.1,1.794,1.794,0,0,1-.724-.033c-.066,0-.133-.033-.2-.033a.968.968,0,0,0-.332-.1,2.825,2.825,0,0,1,.758-.066,2.224,2.224,0,0,0,.461.066h.266a1.1,1.1,0,0,0,.332,0,.709.709,0,0,1-.362-.066c-.133-.033-.266-.033-.4-.066a2.629,2.629,0,0,0-.494-.1c-.2-.1-.494-.266-.527-.527-.033-.1-.133-.133-.231-.165-.1-.066-.1-.2-.2-.3.1,0,.133-.066.231-.033s.231.066.332.1a.591.591,0,0,1,.231.165c.1.066.231.066.332.133a.717.717,0,0,1,.266.165c.066.033.033.231.133.231s0-.165-.033-.231c-.033-.133-.165-.2-.266-.266a.724.724,0,0,0,.266-.033,1.927,1.927,0,0,1,.428.066c.133.033.494.1.626-.066-.133.1-.461,0-.593-.033a1.222,1.222,0,0,0-.461-.133h-.461c-.1,0-.165-.165-.231-.231a1.478,1.478,0,0,0-.4-.2,6.977,6.977,0,0,1-.659-.4,1.612,1.612,0,0,1,.955.266c.165.1.362.2.527.3a.145.145,0,0,0,.165.033c.033,0-.165-.165-.165-.165a3.085,3.085,0,0,1-.4-.3,1.085,1.085,0,0,0-.428-.231h-.2a.4.4,0,0,1-.165-.165c-.066-.133,0-.266-.1-.4a1.179,1.179,0,0,1,.362.133c.3.165.659.165.955.3a7.389,7.389,0,0,0-.889-.428,2.014,2.014,0,0,0-.4-.165c-.133-.066-.2-.133-.332-.2a.717.717,0,0,1-.133-.165c.165-.033.266.2.362.266.066.066.165.066.266.1.133.033.266.066.362.1a1.854,1.854,0,0,1,.4.133l.2.1c.066.033.165,0,.231.033a.782.782,0,0,0,.758-.2.665.665,0,0,1-.428.133,2.3,2.3,0,0,1-.461-.1l-.266-.133-.2-.1c-.033,0-.066-.033-.1-.033-.066-.033-.066-.033-.1-.1-.066-.1-.3-.066-.428-.1a.689.689,0,0,1-.2-.133c-.033-.033-.066-.1-.133-.133.066,0,.066.033.1.066s.1.1.133.1a1.2,1.2,0,0,0,.494.066,1.9,1.9,0,0,1-.461-.165c-.066-.033-.1-.133-.133-.2-.1-.1-.231-.033-.3-.1a2.244,2.244,0,0,0-.4-.4,3.009,3.009,0,0,1-.428-.266,3.133,3.133,0,0,1,.791.231c.133.066.165.165.266.266a1.728,1.728,0,0,0,.332.362,1.083,1.083,0,0,0,.428.231.731.731,0,0,1,.362.165c.066.1.133.3.266.3-.1,0-.133-.133-.165-.231a.261.261,0,0,0-.165-.2,2.778,2.778,0,0,0-.461-.2,1.366,1.366,0,0,1-.362-.4,1.816,1.816,0,0,0-.231-.3c-.066-.1-.2-.133-.332-.2-.231-.066-.494-.133-.758-.2a2.132,2.132,0,0,1-.428-.133c-.033,0-.066-.1-.1-.1-.033-.066-.1-.1-.165-.165.231.066.461.066.659.133a1.747,1.747,0,0,1,.56.266,1.083,1.083,0,0,0,.56.133c.266.033.527.033.823.066a8.878,8.878,0,0,0-.922-.133,1.4,1.4,0,0,1-.461-.2,2,2,0,0,0-.593-.3,3.83,3.83,0,0,1-.593-.133c-.231-.1-.266-.3-.362-.461-.266-.428-.659-.1-1.021-.231l-.3-.1c-.1-.033-.165-.133-.231-.165s-.133-.1-.2-.133a.121.121,0,0,0-.1-.033c-.033-.066-.066-.1-.1-.165a.778.778,0,0,0-.527-.231.9.9,0,0,1-.3,0c-.066,0-.165-.1-.2-.133a.86.86,0,0,0-.659-.332c-.1,0-.165-.033-.266-.033-.066,0-.231.033-.3-.033a.863.863,0,0,0-.332-.266h-.165c-.066,0-.133-.033-.2-.033a.665.665,0,0,0-.428.133c-.1.1-.1.033-.231.033-.033-.033-.1-.1-.165-.066-.033,0-.033.033-.033.066-.033.066-.033.033-.1.033-.231,0-.494.3-.659.494-.066.1-.2.066-.3.165a1.181,1.181,0,0,0-.133.362.84.84,0,0,0-.4-.266.75.75,0,0,1-.266-.3c-.066-.1-.2-.165-.231,0a.575.575,0,0,0,.133.4,2.851,2.851,0,0,1,.231.56.658.658,0,0,1,.066.494c-.133.332-.266.659-.428.988a.6.6,0,0,0-.1.527c.033.1.066.165.1.266a1.335,1.335,0,0,1,0,.362,8.984,8.984,0,0,1-.332,1.35c-.066.231-.133.428-.2.626s-.231.4-.3.593c-.066.165.066.362.066.527a.49.49,0,0,0,.066.3c.066.1.133.165.2.266a2.668,2.668,0,0,0,.3.332.93.93,0,0,0,.494.133c.266.033.758-.066.857-.362a1.047,1.047,0,0,0,.066-.461.878.878,0,0,1,.231-.461,4.183,4.183,0,0,0,.332-.4,2.359,2.359,0,0,1,.362-.494,2.872,2.872,0,0,1,.231,1.285,4.1,4.1,0,0,1-.2,1.416c-.165.428-.332.823-.494,1.219a3.077,3.077,0,0,0-.3,1.318,3.7,3.7,0,0,0,.332,1.318,1.958,1.958,0,0,0,.133.266c.033.066.133.165.133.231s-.066.1-.1.133c-.1.1-.165.2-.266.3a2.634,2.634,0,0,1-.428.428,2.92,2.92,0,0,1-.56.266c-.2.1-.4.165-.626.266a2.269,2.269,0,0,0-.266.1.911.911,0,0,1-.3.033.922.922,0,0,0-.56.494.987.987,0,0,1-.133.266l-.033.066c-.066,0-.066.066-.1.133H33.8a.5.5,0,0,0-.066.428,1.8,1.8,0,0,1,.033.593,1.58,1.58,0,0,1-.165.56,2.094,2.094,0,0,1-.2.593,1.381,1.381,0,0,0-.133.494c0,.2.033.4.033.626a4.548,4.548,0,0,1-.1.659c0,.066,0,.527.066.527a8.678,8.678,0,0,0-.066.922c0,.2.033.56.3.593a1.083,1.083,0,0,0,.56-.133,3.124,3.124,0,0,0,.56-.332,1.071,1.071,0,0,0,.4-.527,2.026,2.026,0,0,0,.033-.461c0-.066-.1-.3-.033-.332.165-.1.428.066.626.033s.066-.1-.033-.066a.382.382,0,0,1-.332-.133.962.962,0,0,0,.3-.066h.3a.724.724,0,0,1,.266-.033,1.1,1.1,0,0,0,.2-.1,3.2,3.2,0,0,1-.56.033c0-.033.133-.066.165-.1a1,1,0,0,0,.231-.165,1.14,1.14,0,0,0,.332-.362h-.066a.252.252,0,0,1-.165.066,1.478,1.478,0,0,1-.362-.033c-.033,0-.2-.033-.165-.066a.225.225,0,0,1,.165-.1.641.641,0,0,1,.266-.033c.066,0,.1.033.165.066,0,0,.133.066.1,0a.909.909,0,0,0-.231-.3c-.1-.1-.231-.1-.332-.165.033-.066.1-.066.165-.1l.165-.066h-.133a.56.56,0,0,1-.231-.033l-.2-.1s-.1-.033-.033-.066a.281.281,0,0,1,.231,0c.133.033.1-.033,0-.1a.636.636,0,0,0-.332-.1c-.133,0-.266.066-.4.066-.033,0-.231-.066-.2-.133,0-.033.231-.033.2-.066.066,0,.1.033.165.033,0,0,.066-.033.033-.033,0-.033-.2-.133-.231-.133a.628.628,0,0,1-.332-.165.465.465,0,0,1-.066-.461c.033-.133.033-.231.066-.362s.2-.165.266-.231a1.584,1.584,0,0,0,.3-.362.849.849,0,0,1,.428-.266,2.984,2.984,0,0,1,1.087-.1,7.161,7.161,0,0,0,1.186-.066,7.334,7.334,0,0,1,1.186-.165,1.213,1.213,0,0,0,.494-.033.475.475,0,0,0,.231-.362,3.039,3.039,0,0,1,.758.955,6,6,0,0,1,.362,1.318,9.772,9.772,0,0,1,.266,1.35c.033.2,0,.428.033.626a1.679,1.679,0,0,0,.231.56,1.233,1.233,0,0,0,.428.4,3.531,3.531,0,0,1,.527.461,5,5,0,0,1,.593,1.087,1.55,1.55,0,0,0,.3.4l.066.1a1.429,1.429,0,0,1,.231.133,2.9,2.9,0,0,0,.494.165,1.155,1.155,0,0,1,.266.165,1.826,1.826,0,0,1,.266.2.859.859,0,0,0,.56.231,2.7,2.7,0,0,1,.724-.066.962.962,0,0,1,.3.066,1.4,1.4,0,0,0,.362.066,1.1,1.1,0,0,0,.332,0c.1,0,.066-.231.033-.266a5,5,0,0,0-.2-.659,1.541,1.541,0,0,0-.165-.332c-.066-.1-.133-.165-.2-.266a.328.328,0,0,0-.133-.165c-.033,0-.133-.033-.133-.1s.1-.165.165-.2c.033-.033.2-.066.2-.1,0-.066-.4.1-.231-.066a.532.532,0,0,0,.165-.362v-.266c-.033-.1-.1-.1-.066,0a.607.607,0,0,1-.165.527.722.722,0,0,0,.066-.527.475.475,0,0,1,.1-.428l.1-.1c-.033-.066-.133.066-.133.1a1.136,1.136,0,0,0-.3.4.912.912,0,0,1,.1-.428c.033-.033.066-.1.1-.133s-.066-.033-.1,0a1.358,1.358,0,0,0-.231.362,3.614,3.614,0,0,0-.2.362,2.258,2.258,0,0,0,.1-.266.2.2,0,0,1,.033-.133c0,.033.033-.133.033-.1,0,0,.165-.133.1-.133-.033,0-.066.033-.1.033-.1.133-.231.231-.362.4a4.253,4.253,0,0,0-.3.527,1.254,1.254,0,0,0,.1-.332c.033-.133-.066-.033-.1.033-.033,0-.3.2-.231.033.033-.1.066-.2.1-.332s.2-.133.266-.231c.033-.033-.066-.033-.066-.033-.066,0-.1.066-.133.066-.066.033-.165.133-.231.165a1.17,1.17,0,0,1,.133-.3c.033-.033.033-.1-.033-.066a.454.454,0,0,0-.1.133c-.1.231-.4.231-.56.4a.532.532,0,0,1,.133-.231c.033-.033.1-.133,0-.1a.7.7,0,0,0-.362.332c-.165.266-.626.033-.791-.165a3.3,3.3,0,0,1-.266-.461,1.356,1.356,0,0,1-.1-.266v-.3c0-.461-.2-.922-.231-1.384s.033-.955.033-1.416v-.692c0-.1.033-.231.033-.332a.3.3,0,0,1,.033-.165c0-.1,0-.133.133-.133.231-.033.461-.033.659-.066.266-.033.494-.066.758-.1l.692-.1c.231-.033.461-.033.692-.066.461-.1.922-.165,1.384-.266a2.3,2.3,0,0,0,.626-.2c.2-.066.4-.133.626-.2a1.045,1.045,0,0,1,.3-.1.859.859,0,0,0,.266-.1,1.654,1.654,0,0,1,.692-.066c.066,0,.4-.033.428.033s0,.2,0,.266a1.6,1.6,0,0,0,.033.4c.066.461.332.857.4,1.318.033.2.066.428.1.659a2.338,2.338,0,0,0,.266.593,1.389,1.389,0,0,1,.1.626c0,.1-.033.231-.033.332a1.1,1.1,0,0,1,0,.332c0,.1-.1.165-.165.231s-.133.165-.2.231a2.845,2.845,0,0,1-.461.428c-.362.266-.758.494-1.12.724a2.291,2.291,0,0,0-.922.758,6.668,6.668,0,0,0-.692.988,1.539,1.539,0,0,0-.1.56c0,.066-.033.494.033.461-.033.133-.066.3-.1.428a.643.643,0,0,0-.033.266c.066.231.362.165.527.1.266-.066.527-.165.791-.231a.714.714,0,0,0,.494-.362.6.6,0,0,0,.332.231s.133.033.1,0c-.033-.066-.1-.1-.133-.165a.731.731,0,0,0,.362.165c.033,0,.3.066.332,0-.033.066-.266-.133-.3-.165a.845.845,0,0,1-.165-.4,2.538,2.538,0,0,1,.692.461c.133.1.165.033.1-.1s-.165-.2-.231-.332a.912.912,0,0,0,.3.033,1.1,1.1,0,0,1,.332,0,.913.913,0,0,0,.3.033l.133-.033a.512.512,0,0,1-.266-.2,1.968,1.968,0,0,0-.2-.362,2.011,2.011,0,0,1,.428.1c.033,0,.3.2.231.033a.593.593,0,0,0-.2-.3.25.25,0,0,0-.133-.066c-.066.033-.066.033-.1-.033a.787.787,0,0,0,.3-.066l-.231-.033a.356.356,0,0,1-.231-.1.532.532,0,0,1-.133-.231c-.033-.1-.133-.165-.133-.231a.249.249,0,0,0,.133.066s.133.033.1,0a1.183,1.183,0,0,1-.231-.332c-.133-.332.133-.494.362-.659.266-.2.56-.362.823-.56a5.628,5.628,0,0,1,.758-.428,1.97,1.97,0,0,1,.362-.2.962.962,0,0,0,.4-.231,1.741,1.741,0,0,0,.2-.332c.066-.165-.066-.332-.133-.494a4.677,4.677,0,0,1-.332-.955,2.852,2.852,0,0,1-.066-1.054c.2.066.4.1.593.165a3.647,3.647,0,0,1,.626.3c.4.231.758.461,1.12.692a4.7,4.7,0,0,1,.494.362,4.254,4.254,0,0,0,.527.3c.362.231.758.461,1.153.692a1.613,1.613,0,0,1,.428.4,2.148,2.148,0,0,1,.428.527c.231.4.362.857.56,1.285.165.428.332.857.527,1.285a1.07,1.07,0,0,0,.332.428,1.771,1.771,0,0,0,.4.3,1.838,1.838,0,0,1,.527.231.384.384,0,0,1,.2.2c.033.033.033.066.066.066.066,0,.033-.066.033-.1a1.887,1.887,0,0,0,.461.133c.066.033.332.066.362,0-.033.033-.2-.1-.2-.133a3.016,3.016,0,0,0,1.219-.066c.4-.066.231-.428.133-.692-.165-.332-.332-.823-.659-1.021a.629.629,0,0,0-.266-.1c-.1,0-.033-.066,0-.1a.874.874,0,0,1,.2-.165c.033-.033.2-.066.231-.1H62.2a1.121,1.121,0,0,0-.332.033,5.814,5.814,0,0,1,.494-.4.4.4,0,0,0,.165-.165c.033-.033.033-.133-.033-.066-.266.3-.659.133-.955.362a4.3,4.3,0,0,1,.4-.362c.033-.033.133-.1.1-.165s-.165,0-.2.033a1.982,1.982,0,0,1-.428.3c-.033,0-.461.1-.461.1,0-.033.165-.133.165-.165.066-.033.2,0,.231-.066-.033.033-.266-.1-.3-.1a1.6,1.6,0,0,0-.4-.033c-.133.033-.231.1-.362.133-.066-.1.2-.133.266-.2a.837.837,0,0,1-.231-.066c-.1-.033-.165-.066-.266-.1a.7.7,0,0,1-.362-.4L59.2,29.738a.6.6,0,0,1-.066-.332.639.639,0,0,0-.066-.494,1.185,1.185,0,0,0-.362-.461,2.8,2.8,0,0,0-.56-.2,2.136,2.136,0,0,1-1.054-.527,1.927,1.927,0,0,1-.56-1.087,3.643,3.643,0,0,1-.066-.626c0-.231.066-.461.066-.692,0-.494-.033-.955,0-1.416a4.962,4.962,0,0,0,.033-.988c.066.033.165.033.231.1a.985.985,0,0,0,.133.266.591.591,0,0,1,.133.3c0,.066-.066.231-.033.3.066.066.133.1.133.2a.685.685,0,0,1-.033.362c-.033.1-.1.231-.033.332.033.1.133.165.2.231.165.165.133.428.231.626a1.333,1.333,0,0,1,.165.3,1.235,1.235,0,0,1,.033.362c0,.033-.066.3.033.231.1-.033.1-.2.1-.3a.384.384,0,0,0,0-.332.592.592,0,0,1-.165-.231,2.068,2.068,0,0,1,.4.362c.066.066,0,.2.033.266a.284.284,0,0,0,.1.2c.133.133.428.066.527.3a1.236,1.236,0,0,1,.033.362.7.7,0,0,1,0,.266c.066-.1.033-.266.066-.362a.4.4,0,0,0-.1-.428c-.1-.1-.266-.1-.4-.2a.2.2,0,0,1-.033-.231c.231.1.461.066.659.266.033.033.1.066.066.133a.249.249,0,0,1-.033.133c0,.1-.033.231-.033.332a.532.532,0,0,0,.231.461c.1.066.066.033.033.133-.033.066-.033.133-.066.2,0,.033.1-.033.1-.033a.257.257,0,0,0,.133-.133c.1.165,0,.4,0,.56a.857.857,0,0,0,.133.494c.033.1.1.165.133.266s.066,0,.1.033c-.066-.1.033-.362.066-.461.033.2,0,.428.033.56a1.456,1.456,0,0,0,.165.494,3.77,3.77,0,0,0,.362.362,1.456,1.456,0,0,1-.362-.791v-.332a.9.9,0,0,0,0-.3.465.465,0,0,0-.066-.2.689.689,0,0,1,.133-.2,2.719,2.719,0,0,0,.231-.428c.033-.066.066-.1-.033-.1-.033,0-.033-.066,0-.1a2.9,2.9,0,0,1,.2-.332c.033.165,0,.362.133.461a.678.678,0,0,0,.494.1.538.538,0,0,1,.231,0c.033,0,0,.2,0,.231.033.165.231.231.4.266a2.494,2.494,0,0,1,.527.1.121.121,0,0,1,.1.033c.033,0,.033.1.033.133.066.2.461.165.626.133a1.468,1.468,0,0,0,.758-.1,1.638,1.638,0,0,1-.692-.033c-.133,0-.231-.033-.362-.033a1.426,1.426,0,0,1-.165-.033c.033-.033,0-.133-.033-.165a.257.257,0,0,0-.231-.1c-.2-.066-.4-.066-.56-.133-.066-.033-.2-.066-.165-.165,0-.066.033-.1.033-.165a1.02,1.02,0,0,0,.758.4,1.673,1.673,0,0,0,.56-.1C63,28,63.1,28,63.164,27.967a.611.611,0,0,0,.231-.066h-.56a.724.724,0,0,1-.461-.066c-.133-.066-.165-.231-.231-.362a1.36,1.36,0,0,0-.332-.428c.266.1.56,0,.823.066a1.756,1.756,0,0,0,.922-.033,1.856,1.856,0,0,1-.428,0l-.4-.1a4.055,4.055,0,0,0,.659-.066,2.477,2.477,0,0,1,.494,0h.231a.364.364,0,0,1,.266,0,.39.39,0,0,0,.266-.033h-.231c.066,0,.133-.033.2-.033a.355.355,0,0,1,.266.066,2.426,2.426,0,0,0,.461.133,2.963,2.963,0,0,0,.527.1,2.236,2.236,0,0,1-.659-.231.532.532,0,0,1-.3-.165.355.355,0,0,0-.266-.066c-.2,0-.362.066-.527.066a1.1,1.1,0,0,1-.461-.033l.3-.1a1.878,1.878,0,0,1,.725-.133c.2,0,.4.066.593.066a.2.2,0,0,1,.133.033c.033.033.066.1.1.133a.1.1,0,0,0,.066.033.57.57,0,0,0,.332.033,1.655,1.655,0,0,0,.4-.066,2.545,2.545,0,0,0,.791-.4,1.538,1.538,0,0,1,.332-.165,1.6,1.6,0,0,1,.4-.033.621.621,0,0,1,.266.066,1.968,1.968,0,0,0,.362.2c.121-.2.088-.234.055-.266ZM45.116,15.547Zm-8-3.755-.1.1c-.066.066-.1-.033-.2-.033.133-.133.332-.332.527-.332a.332.332,0,0,0-.133.165q-.1.051-.1.1Zm.133-.033.133-.133C37.445,11.791,37.345,11.791,37.245,11.759ZM37.344,12.055Zm.066-.165c-.033,0-.1-.033-.133-.033.066-.033.1-.066.165-.1a.249.249,0,0,0-.034.132ZM36.423,30.37ZM35.665,30.963Zm3.162-19.237a.251.251,0,0,0,.165.066c-.033.033-.066.033-.1.066-.033-.033-.066-.033-.1-.066-.033,0-.066-.033-.1-.033-.067-.1.1-.033.13-.033Zm-1.021.231c-.033-.066-.033-.165-.066-.231.033,0,.133.033.165.033-.034.065-.1.132-.1.2Zm.428-.3c-.133,0-.266-.033-.4-.033.165-.066.231-.2.428-.165a.56.56,0,0,0,.231.033c.133-.033.165.033.266.133-.033,0-.066.033-.1.066a.3.3,0,0,1-.165-.033.362.362,0,0,0-.266,0Zm.3.231c.033,0,.066.033.1.033-.066,0-.1.033-.165.066,0-.066.031-.1.064-.1Zm.362.231a.457.457,0,0,0-.3,0c.066-.033.1-.033.165-.066.1-.066.165,0,.266.066Zm.593-.133c-.066,0-.133.033-.2.033-.1.033-.165-.033-.231-.1a2.735,2.735,0,0,0,.428.066Zm.231.494C39.715,12.449,39.749,12.482,39.715,12.482Zm1.054-.133c-.033,0,0,.033,0,0a.033.033,0,0,1,.033.033c-.033,0-.2-.033-.2-.033Zm.066.461c-.033,0-.033,0-.033-.033,0,0,.065.035.032.035Zm.033.033c.033,0,.033.033.066.066-.035-.031-.068-.031-.068-.064Zm.266.033H41.2a.046.046,0,0,1-.068,0Zm-.1-.066a1.4,1.4,0,0,1-.165-.231.61.61,0,0,1,.231.066c.066.066.133.1.2.165Zm.494.362c.033.033-.033-.066,0,0-.066-.1-.1-.2-.231-.266a.235.235,0,0,1,.2.1.665.665,0,0,1,.133.266Zm.362.231c-.1-.066-.033-.033,0,0-.133-.066-.2-.3-.266-.428.1.033.165.1.266.133a.54.54,0,0,1,.231.362.476.476,0,0,1-.234-.064Zm3.393,18.512c-.066.033-.133.1-.2.133a2.007,2.007,0,0,1,.2-.13Zm.231-13.934c.033.033.033.033.066.033.066,0,.066.033.133.066.1.066.165.133.266.2-.266.033-.659.1-.791-.2-.066-.133-.1-.2-.231-.2h-.2a.719.719,0,0,1-.1-.165l-.1-.2a.476.476,0,0,1,.231.066c.066.033.165.066.231.1a3.256,3.256,0,0,1,.494.3.115.115,0,0,1-.033-.066c0,.039,0,.039.029.07Zm-.362-1.153c.133.1.266.165.4.266-.165-.033-.3-.066-.461-.1-.165-.066-.165-.2-.231-.332.1.066.2.1.3.165Zm.066.4a.171.171,0,0,1-.133-.066c.129,0,.1,0,.129.069Zm-.231-1.285c.033.066.066.1.066.165,0,.033.066.066.066.033a.591.591,0,0,0-.133-.3c.033.033.1.033.133.066s.033.066.066.1a.438.438,0,0,1,.1.266.381.381,0,0,0,.165.231.586.586,0,0,1-.362-.266c-.066-.066-.1-.133-.165-.2-.033-.033-.165-.133-.133-.2a1.1,1.1,0,0,1,.193.1Zm-.133,1.285c.165.033.2.231.3.332.066.066.2.1.266.2a.115.115,0,0,1,.033.066.635.635,0,0,1-.332-.1c-.033-.033-.1-.066-.133-.1-.066-.033-.165-.033-.231-.1a.535.535,0,0,1-.165-.3c-.033-.133-.2-.133-.3-.2.1,0,.231-.033.3.033.033.033.066.1.1.133s.1,0,.165.031Zm-.791-.659a.121.121,0,0,0,.1-.033.115.115,0,0,0,.033.066h-.1C44.1,16.632,44.032,16.565,44.065,16.565Zm-.033-.1v-.033c.033,0,.033,0,.066.033Zm.066-1.548a.332.332,0,0,1,.133.165c-.1,0-.1-.063-.136-.161Zm.2,2.537c.066.033.066.066.1.133a1.031,1.031,0,0,0,.165.332c-.1-.066-.1-.165-.165-.231-.033-.033-.1-.066-.133-.1s-.066-.165-.1-.2c.029.034.092.034.128.066Zm.362-.692c-.033-.033-.066-.033,0,0s.1.066.1.1c-.1-.033-.428-.066-.461-.2a1.485,1.485,0,0,1,.358.1ZM44.46,15.116Zm-.2-.461c.165.165.4.231.527.428h-.165c-.1,0-.133,0-.165-.066-.066-.133-.1-.231-.231-.3a.1.1,0,0,1-.066-.033c-.033,0-.066-.133-.066-.165a.579.579,0,0,0,.162.138Zm-.494-.266c-.066,0,.1.033,0,0,.133.033.2.2.266.3a.457.457,0,0,1-.4-.231c-.033-.033-.033-.066-.066-.066Zm-.362-.527a.257.257,0,0,1,.133.133,5.184,5.184,0,0,0-.758-.3,1.12,1.12,0,0,1,.332.033,1.174,1.174,0,0,1,.3.133Zm-.066.231a.251.251,0,0,0,.165.066.251.251,0,0,1-.165-.062Zm.066.332c-.033,0-.033,0-.066-.033.033.035.033.035.066.035Zm-.988-1.285c.231-.033.428-.066.56.133a1.07,1.07,0,0,0,.332.428c-.1-.033-.133-.033-.231-.066a1.431,1.431,0,0,0-.231-.2,3.339,3.339,0,0,1-.428-.3Zm-.165.4a1.218,1.218,0,0,0,.362.165H42.58c-.132-.031-.33-.031-.33-.163Zm.2.724c-.066-.033-.1-.033-.133-.066v-.033c0-.033.033-.033.066,0a.819.819,0,0,0,.266.033c-.033,0-.1.033-.133.033s-.036.035-.069.035Zm.133.033a.3.3,0,0,0,.165-.033c-.1.035-.1.068-.169.035Zm.1.066c.133-.033.2.033.231.165a.59.59,0,0,0-.235-.163Zm.4.2a.417.417,0,0,0-.2-.266c.1,0,.1,0,.165.1a.72.72,0,0,0,.133.165Zm.165.2c-.033,0-.033-.033-.066-.066a.962.962,0,0,1,.3.066.282.282,0,0,1-.231,0Zm.165.2a.488.488,0,0,0,.231-.033.3.3,0,0,0,.1.231.5.5,0,0,1-.334-.2Zm.362,2.9c.1.033.165.165.2.2-.072-.073-.171-.1-.2-.206Zm.066-.3c-.066-.066-.1-.165-.2-.231-.033-.033-.133-.066-.165-.1a.506.506,0,0,1,.461.2c.066.133.033.3.165.428a.778.778,0,0,1-.266-.3Zm.461.823c-.066-.033-.133-.033-.165-.066-.066-.033-.1-.133-.133-.165a.7.7,0,0,0,.332.133c.133.033.133.066.231.165a.792.792,0,0,1,.266.2,1.17,1.17,0,0,1,.133.3.257.257,0,0,1-.133-.133c-.066-.066-.165-.066-.231-.1-.108-.1-.173-.266-.305-.332Zm1.318.988a4.3,4.3,0,0,1-1.021-.527,1.377,1.377,0,0,1,.332.133c.066.033.165.165.231.133.1-.033.626.165.593.3-.271-.072-.205-.072-.139-.039Zm8.762,4.941a1.258,1.258,0,1,1,.882-.367,1.251,1.251,0,0,1-.882.367Zm2.306-2.174V22.3a3.476,3.476,0,0,0-.2-.791.6.6,0,0,1,.2.626ZM57.7,24.708c-.033-.066-.033-.1-.066-.165.033.033.066.066.066.1Zm.231.626c-.165-.1-.1-.3-.066-.461a.724.724,0,0,1,.066.461Zm3.492-3.36a.455.455,0,0,1-.1-.133c0-.033-.1-.133-.1-.1.128.063.193.1.193.228Zm-1.812,5.27c-.133-.1-.231-.165-.231-.332,0-.1.033-.231.033-.332.16.2.358.43.191.661Zm.231,1.021a1.351,1.351,0,0,0-.033.362.978.978,0,0,1-.066-.527,2.024,2.024,0,0,1,.1-.362.709.709,0,0,0,0,.266c0,.033.033.1.033.133a.2.2,0,0,1-.037.124Zm.165-1.186c-.033.2-.133.4-.165.626a.417.417,0,0,0-.033-.2c-.033-.066-.1-.133-.066-.2a2.9,2.9,0,0,0,.165-.494.659.659,0,0,0-.066-.428c-.033-.066-.033-.165-.066-.2s-.1-.066-.133-.1c-.1-.066-.2-.1-.231-.2a.559.559,0,0,0-.2-.266,3.1,3.1,0,0,1-.332-.332,1.462,1.462,0,0,1-.266-.362,3.14,3.14,0,0,0,.4.527,3.589,3.589,0,0,0,.56.428,1.107,1.107,0,0,1,.332.527.864.864,0,0,1,.1.659c.035-.123,0,.042,0,.009Zm.266.332a2.906,2.906,0,0,0-.2.332c.033-.165.1-.332.133-.494.033.033.1.066.066.165.026-.109-.073.089-.007-.01Zm.033-1.911c.066.1.133.133.133.266-.074-.075-.074-.173-.14-.274Zm.133.461a.121.121,0,0,0-.033-.1.257.257,0,0,1,.133.133.121.121,0,0,1-.108-.039Zm.332.332a.453.453,0,0,1-.266-.165c.033.033.066.033.1.066.033,0,.133.1.165.1Zm.1-.231c.033,0,.066.033.133.033-.1,0-.165,0-.2-.066-.011.024.022.024.055.024Zm.791,1.318c-.231-.1-.461.066-.659,0-.133-.033-.1-.2-.133-.3s-.033-.2-.066-.332c.165.1.4.1.56.231l.2.2c.033.033.066.066.066.1-.046-.009.052.09.02.09Zm.066-.758c-.033-.033-.1-.066-.133-.1.1,0,.133.033.165.133a.033.033,0,0,1-.045-.044Zm.133-.461h-.133c-.066,0-.033,0-.066-.033a.284.284,0,0,0-.2-.1l-.494-.1h.2a.62.62,0,0,0,.266.066c.1.033.2.033.266.066s.165.066.231.1Zm4.875-.033c.066,0,.165-.033.231-.033a.726.726,0,0,1-.266.033Zm-.97-.571c.1-.033.165-.033.266-.066a1.426,1.426,0,0,1,.165.033A2.026,2.026,0,0,1,65.769,25.559Zm.823-.033a.9.9,0,0,1,.428.066,2.174,2.174,0,0,1-.461.033c-.1,0-.2-.066-.266-.066a.912.912,0,0,1,.3-.033ZM66.726,25.1Zm-1.35-.332a.115.115,0,0,1,.066.033h-.2c.066,0,.1,0,.132-.028Zm-.165.362h.033c0-.033,0-.033-.033,0a1.121,1.121,0,0,1,.332-.033c.1,0,.2-.066.3-.033.033.033.1.133.133.133.133,0-.033-.133-.066-.133h.56c.133,0,.2.133.3.2h-.4c-.133,0-.332.1-.428.033a1.855,1.855,0,0,0-.4-.133c-.066,0-.133-.033-.2-.033-.033,0-.133.033-.165,0ZM65.606,25.754Zm-.033-.4a.417.417,0,0,1-.2-.033.417.417,0,0,1,.2.035Zm-.494,0c.033.033.066.033.066.066-.033-.033-.1-.033-.133-.066Zm-1.186-1.384a1.36,1.36,0,0,1,.494.231,1.34,1.34,0,0,0,.659.461.453.453,0,0,1-.362-.033c-.133-.066-.231-.165-.362-.231-.1-.1-.231-.165-.332-.266-.1-.066-.231-.133-.332-.2a.643.643,0,0,1,.235.042Zm.988,1.186c0,.033.033.033,0,0,.032.038,0,.038,0,0Zm-2.6,1.515c-.133,0-.3,0-.332-.133a1.12,1.12,0,0,1,.332.033.257.257,0,0,1,.133.133.249.249,0,0,0-.134-.029Zm-.2-.362c.066,0,.133-.033.231-.033a1.318,1.318,0,0,0,.133.1.772.772,0,0,0-.363-.061Zm.758.231a.36.36,0,0,1-.4-.133.93.93,0,0,0,.494.133Zm.1-.2a.975.975,0,0,1-.332-.066C62.7,26.278,62.87,26.278,62.936,26.344Zm.165-1.021c.231.1.461.266.692.362-.133-.033-.332-.033-.428-.133-.066-.06-.2-.157-.263-.223ZM63.562,26.509Zm.332-.3c-.133.033-.266.033-.4.066a.32.32,0,0,1-.3-.033.626.626,0,0,0,.428-.033c.066-.033.133-.1.2-.066h.231a.252.252,0,0,1-.165.066Zm.165-.758a.726.726,0,0,1-.266-.033,1.483,1.483,0,0,1,.362-.1c.133,0,.231.066.362.066a.789.789,0,0,1-.461.072ZM64.392,25.882Zm.332-.2c-.133-.033-.266,0-.4-.033a1.9,1.9,0,0,0,.461-.1c.033,0,.165-.033.2-.033a.121.121,0,0,0,.1.033.978.978,0,0,1-.373.141Zm.165.362a.389.389,0,0,1,.332.033,1.425,1.425,0,0,1-.165-.033h-.165Zm.692,0a1.867,1.867,0,0,0-.428-.266.741.741,0,0,1,.461-.033.454.454,0,0,1,.133.1l.3.2a2.15,2.15,0,0,1-.461,0Zm.56.362a1.351,1.351,0,0,1-.362-.033c-.066-.033-.066-.1-.133-.165a2.026,2.026,0,0,0,.362.1c.033.033.1.033.165.066a.033.033,0,0,1-.041.042Zm1.021-.3c.066-.033.033-.033,0,0a5.176,5.176,0,0,1-.758.3.32.32,0,0,1-.3-.033c-.1-.066-.165-.1-.266-.165.133,0,.266-.033.4-.033.1,0,.231.033.332.033a.665.665,0,0,0,.362-.1c.165-.033.3-.066.461-.1a1.6,1.6,0,0,1-.241.109Z" transform="translate(-33.206 -11.289)" fill="#9a9a9a"/>
      <path id="Path_366" data-name="Path 366" d="M84.288,33.606Z" transform="translate(-50.341 -18.775)" fill="#9a9a9a"/>
      <path id="Path_367" data-name="Path 367" d="M86.319,33.606Z" transform="translate(-51.022 -18.775)" fill="#9a9a9a"/>
      <path id="Path_368" data-name="Path 368" d="M76.308,33.655Z" transform="translate(-47.664 -18.791)" fill="#9a9a9a"/>
      <path id="Path_369" data-name="Path 369" d="M41.661,11.946Z" transform="translate(-36.042 -11.509)" fill="#9a9a9a"/>
      <path id="Path_370" data-name="Path 370" d="M39.133,11.891C39.166,11.858,39.133,11.924,39.133,11.891Z" transform="translate(-35.194 -11.488)" fill="#9a9a9a"/>
      <path id="Path_371" data-name="Path 371" d="M39.523,12.187C39.523,12.153,39.489,12.187,39.523,12.187Z" transform="translate(-35.32 -11.585)" fill="#9a9a9a"/>
      <path id="Path_372" data-name="Path 372" d="M40.769,11.846Z" transform="translate(-35.743 -11.476)" fill="#9a9a9a"/>
      <path id="Path_373" data-name="Path 373" d="M41.215,12.193Z" transform="translate(-35.893 -11.592)" fill="#9a9a9a"/>
      <path id="Path_374" data-name="Path 374" d="M47.064,15.756C47.13,15.756,47.064,15.722,47.064,15.756Z" transform="translate(-37.855 -12.782)" fill="#9a9a9a"/>
      <path id="Path_375" data-name="Path 375" d="M82.751,34.052Z" transform="translate(-49.825 -18.924)" fill="#9a9a9a"/>
      <path id="Path_376" data-name="Path 376" d="M40.118,12.277C40.118,12.211,40.084,12.277,40.118,12.277Z" transform="translate(-35.52 -11.611)" fill="#9a9a9a"/>
      <path id="Path_377" data-name="Path 377" d="M73.531,35.017C73.531,35.05,73.564,34.884,73.531,35.017Z" transform="translate(-46.733 -19.23)" fill="#9a9a9a"/>
      <path id="Path_378" data-name="Path 378" d="M84.287,33.593C84.32,33.56,84.353,33.56,84.287,33.593Z" transform="translate(-50.34 -18.762)" fill="#9a9a9a"/>
      <path id="Path_379" data-name="Path 379" d="M73.915,35.524C73.849,35.623,73.948,35.425,73.915,35.524Z" transform="translate(-46.854 -19.408)" fill="#9a9a9a"/>
      <path id="Path_380" data-name="Path 380" d="M76.01,35.49Z" transform="translate(-47.564 -19.407)" fill="#9a9a9a"/>
      <path id="Path_381" data-name="Path 381" d="M81.611,31.573Z" transform="translate(-49.443 -18.093)" fill="#9a9a9a"/>
      <path id="Path_382" data-name="Path 382" d="M79.331,30.384Z" transform="translate(-48.678 -17.694)" fill="#9a9a9a"/>
      <path id="Path_383" data-name="Path 383" d="M74.821,33.507Z" transform="translate(-47.165 -18.741)" fill="#9a9a9a"/>
      <path id="Path_384" data-name="Path 384" d="M50.434,19.529Z" transform="translate(-38.985 -14.053)" fill="#9a9a9a"/>
      <path id="Path_385" data-name="Path 385" d="M76.9,34.448Z" transform="translate(-47.863 -19.057)" fill="#9a9a9a"/>
      <path id="Path_386" data-name="Path 386" d="M49.889,20.57Z" transform="translate(-38.802 -14.402)" fill="#9a9a9a"/>
      <path id="Path_387" data-name="Path 387" d="M49.394,21.512Z" transform="translate(-38.636 -14.718)" fill="#9a9a9a"/>
      <path id="Path_388" data-name="Path 388" d="M48.551,16.8C48.584,16.869,48.584,16.8,48.551,16.8Z" transform="translate(-38.353 -13.139)" fill="#9a9a9a"/>
      <path id="Path_389" data-name="Path 389" d="M49.839,16.357C49.839,16.39,49.905,16.423,49.839,16.357Z" transform="translate(-38.786 -12.989)" fill="#9a9a9a"/>
      <path id="Path_390" data-name="Path 390" d="M48.551,15.167Z" transform="translate(-38.354 -12.59)" fill="#9a9a9a"/>
      <path id="Path_391" data-name="Path 391" d="M76.109,34.349Z" transform="translate(-47.597 -19.024)" fill="#9a9a9a"/>
      <path id="Path_392" data-name="Path 392" d="M81.358,32.112h.033C81.391,32.078,81.325,32.112,81.358,32.112Z" transform="translate(-49.355 -18.268)" fill="#9a9a9a"/>
      <path id="Path_393" data-name="Path 393" d="M76.109,34.349Z" transform="translate(-47.597 -19.024)" fill="#9a9a9a"/>
      <path id="Path_394" data-name="Path 394" d="M48.3,16.506Z" transform="translate(-38.27 -13.039)" fill="#9a9a9a"/>
      <path id="Path_395" data-name="Path 395" d="M49.087,15.96C49.186,15.993,49.02,15.96,49.087,15.96Z" transform="translate(-38.528 -12.856)" fill="#9a9a9a"/>
      <path id="Path_396" data-name="Path 396" d="M51.591,21.032c0-.033-.033-.033-.033-.066C51.525,20.966,51.492,21.032,51.591,21.032Z" transform="translate(-39.351 -14.535)" fill="#9a9a9a"/>
      <path id="Path_397" data-name="Path 397" d="M74.176,33.358Z" transform="translate(-46.949 -18.692)" fill="#9a9a9a"/>
      <path id="Path_398" data-name="Path 398" d="M51.177,19.628Z" transform="translate(-39.234 -14.086)" fill="#9a9a9a"/>
      <path id="Path_399" data-name="Path 399" d="M52.02,23.478a.332.332,0,0,0-.1-.033C51.954,23.445,51.987,23.478,52.02,23.478Z" transform="translate(-39.484 -15.366)" fill="#9a9a9a"/>
      <path id="Path_400" data-name="Path 400" d="M51.673,21.313Z" transform="translate(-39.401 -14.651)" fill="#9a9a9a"/>
      <path id="Path_401" data-name="Path 401" d="M68.525,27.559Z" transform="translate(-45.053 -16.746)" fill="#9a9a9a"/>
      <path id="Path_402" data-name="Path 402" d="M73.284,37.373Z" transform="translate(-46.65 -20.038)" fill="#9a9a9a"/>
      <path id="Path_403" data-name="Path 403" d="M51.723,21.363Z" transform="translate(-39.417 -14.668)" fill="#9a9a9a"/>
      <path id="Path_404" data-name="Path 404" d="M47.064,14.077Z" transform="translate(-37.855 -12.224)" fill="#9a9a9a"/>
      <path id="Path_405" data-name="Path 405" d="M49.882,21.955C50.015,22.054,49.815,21.922,49.882,21.955Z" transform="translate(-38.795 -14.865)" fill="#9a9a9a"/>
      <path id="Path_406" data-name="Path 406" d="M48.947,20.372Z" transform="translate(-38.486 -14.336)" fill="#9a9a9a"/>
      <path id="Path_407" data-name="Path 407" d="M77.794,34.25Z" transform="translate(-48.162 -18.991)" fill="#9a9a9a"/>
      <path id="Path_408" data-name="Path 408" d="M79.38,33.754Z" transform="translate(-48.694 -18.824)" fill="#9a9a9a"/>
      <path id="Path_409" data-name="Path 409" d="M78.191,32.416Z" transform="translate(-48.296 -18.376)" fill="#9a9a9a"/>
      <path id="Path_410" data-name="Path 410" d="M50.93,18.339Z" transform="translate(-39.151 -13.654)" fill="#9a9a9a"/>
      <path id="Path_411" data-name="Path 411" d="M83.445,32.713Z" transform="translate(-50.058 -18.475)" fill="#9a9a9a"/>
    </g>
  </g>
</svg>
