<svg xmlns="http://www.w3.org/2000/svg" width="450" height="263" viewBox="0 0 450 263">
  <g id="Group_1412" data-name="Group 1412" transform="translate(-731 -3503)">
    <g id="Rectangle_2226" data-name="Rectangle 2226" transform="translate(731 3503)" fill="#0f0f0f" stroke="rgba(10,10,10,0.1)" stroke-width="2">
      <rect width="450" height="263" stroke="none"/>
      <rect x="1" y="1" width="448" height="261" fill="none"/>
    </g>
    <g id="Group_1375" data-name="Group 1375" transform="translate(6 -2)">
      <path id="Path_3917" data-name="Path 3917" d="M1.648,17l.9-3.12H.624V12.76h2.24l.992-3.44H1.936V8.2h2.24l.9-3.12h1.28l-.9,3.12h3.36l.9-3.12h1.28L10.1,8.2h1.92V9.32H9.776l-.992,3.44H10.7v1.12H8.464L7.568,17H6.288l.9-3.12H3.824L2.928,17Zm2.5-4.24H7.5L8.5,9.32H5.136Zm14.368,4.432a4.084,4.084,0,0,1-2.472-.776,5.062,5.062,0,0,1-1.656-2.16,8.145,8.145,0,0,1-.592-3.224,8.145,8.145,0,0,1,.592-3.224,5.031,5.031,0,0,1,1.648-2.152,4.337,4.337,0,0,1,4.928,0,5.031,5.031,0,0,1,1.648,2.152,8.145,8.145,0,0,1,.592,3.224,8.3,8.3,0,0,1-.584,3.232,4.969,4.969,0,0,1-1.64,2.16A4.078,4.078,0,0,1,18.512,17.192Zm0-1.2a2.757,2.757,0,0,0,1.792-.624,4.08,4.08,0,0,0,1.2-1.736,7.159,7.159,0,0,0,.432-2.6,7.159,7.159,0,0,0-.432-2.6A4.019,4.019,0,0,0,20.3,6.7a2.938,2.938,0,0,0-3.6,0,4.019,4.019,0,0,0-1.2,1.728,7.159,7.159,0,0,0-.432,2.6,7.175,7.175,0,0,0,.432,2.592,4.043,4.043,0,0,0,1.208,1.744A2.789,2.789,0,0,0,18.512,15.992ZM25.76,17V5.08h7.36v1.2H27.04v4.144h5.6v1.2h-5.6V17Zm13.76.192a4.084,4.084,0,0,1-2.472-.776,5.062,5.062,0,0,1-1.656-2.16,8.145,8.145,0,0,1-.592-3.224,8.145,8.145,0,0,1,.592-3.224A5.031,5.031,0,0,1,37.04,5.656a4.337,4.337,0,0,1,4.928,0,5.031,5.031,0,0,1,1.648,2.152,8.145,8.145,0,0,1,.592,3.224,8.3,8.3,0,0,1-.584,3.232,4.969,4.969,0,0,1-1.64,2.16A4.078,4.078,0,0,1,39.52,17.192Zm0-1.2a2.757,2.757,0,0,0,1.792-.624,4.08,4.08,0,0,0,1.2-1.736,7.159,7.159,0,0,0,.432-2.6,7.159,7.159,0,0,0-.432-2.6,4.019,4.019,0,0,0-1.2-1.728,2.938,2.938,0,0,0-3.6,0,4.019,4.019,0,0,0-1.2,1.728,7.159,7.159,0,0,0-.432,2.6,7.175,7.175,0,0,0,.432,2.592,4.043,4.043,0,0,0,1.208,1.744A2.789,2.789,0,0,0,39.52,15.992ZM46.768,17V5.08h7.36v1.2h-6.08v4.144h5.6v1.2h-5.6V17Zm13.76.192a4.084,4.084,0,0,1-2.472-.776,5.062,5.062,0,0,1-1.656-2.16,8.145,8.145,0,0,1-.592-3.224A8.145,8.145,0,0,1,56.4,7.808a5.031,5.031,0,0,1,1.648-2.152,4.337,4.337,0,0,1,4.928,0,5.031,5.031,0,0,1,1.648,2.152,8.145,8.145,0,0,1,.592,3.224,8.3,8.3,0,0,1-.584,3.232,4.969,4.969,0,0,1-1.64,2.16A4.078,4.078,0,0,1,60.528,17.192Zm0-1.2a2.757,2.757,0,0,0,1.792-.624,4.08,4.08,0,0,0,1.2-1.736,7.159,7.159,0,0,0,.432-2.6,7.159,7.159,0,0,0-.432-2.6A4.019,4.019,0,0,0,62.32,6.7a2.938,2.938,0,0,0-3.6,0,4.019,4.019,0,0,0-1.2,1.728,7.159,7.159,0,0,0-.432,2.6,7.175,7.175,0,0,0,.432,2.592,4.043,4.043,0,0,0,1.208,1.744A2.789,2.789,0,0,0,60.528,15.992ZM67.776,17V5.08h7.36v1.2h-6.08v4.144h5.6v1.2h-5.6V17ZM1.408,47V35.08H5.5a4.391,4.391,0,0,1,2.048.456,3.338,3.338,0,0,1,1.368,1.28,3.681,3.681,0,0,1,.488,1.912,3.439,3.439,0,0,1-2.464,3.424L9.728,47h-1.5L5.312,41.864l.864.5H2.688V47Zm1.28-5.84h2.88a2.9,2.9,0,0,0,1.344-.3,2.148,2.148,0,0,0,.9-.848,2.555,2.555,0,0,0,.32-1.3,2.511,2.511,0,0,0-.32-1.3,2.163,2.163,0,0,0-.9-.84,2.9,2.9,0,0,0-1.344-.3H2.688ZM17.1,47.192a5.791,5.791,0,0,1-2.32-.456,5.463,5.463,0,0,1-1.832-1.28,5.9,5.9,0,0,1-1.208-1.944,7.243,7.243,0,0,1,0-4.928,5.988,5.988,0,0,1,1.208-1.952,5.409,5.409,0,0,1,1.832-1.288,5.791,5.791,0,0,1,2.32-.456,5.3,5.3,0,0,1,2.184.432,5.227,5.227,0,0,1,1.632,1.112,4.225,4.225,0,0,1,.952,1.432l-1.152.56a3.711,3.711,0,0,0-1.376-1.712,3.92,3.92,0,0,0-2.24-.624,4.4,4.4,0,0,0-2.336.624,4.3,4.3,0,0,0-1.6,1.736,6.138,6.138,0,0,0,0,5.192,4.236,4.236,0,0,0,1.6,1.736,4.442,4.442,0,0,0,2.336.616,4.311,4.311,0,0,0,2.1-.512,3.893,3.893,0,0,0,1.48-1.4,3.826,3.826,0,0,0,.544-2.04v-.656l.576.576H17.1V40.84h5.408v.992a5.47,5.47,0,0,1-.416,2.152A5.135,5.135,0,0,1,19.224,46.8,5.676,5.676,0,0,1,17.1,47.192ZM24.8,47V35.08h5.008a3.839,3.839,0,0,1,1.752.376A2.78,2.78,0,0,1,32.712,36.5a3.2,3.2,0,0,1-.048,3.208,2.846,2.846,0,0,1-1.3,1.08l-.016-.384a3.551,3.551,0,0,1,1.208.72,3.212,3.212,0,0,1,1.048,2.4,3.279,3.279,0,0,1-1.016,2.536,3.915,3.915,0,0,1-2.76.936Zm1.28-1.2h3.744a2.645,2.645,0,0,0,1.816-.6,2.094,2.094,0,0,0,.68-1.656,2.124,2.124,0,0,0-.68-1.656,2.6,2.6,0,0,0-1.816-.616H26.08Zm0-5.68h3.632a2.137,2.137,0,0,0,1.544-.56,1.907,1.907,0,0,0,.584-1.44,1.656,1.656,0,0,0-.584-1.368,2.382,2.382,0,0,0-1.544-.472H26.08ZM40.1,47V36.2h-2.24V35.08h3.52V47Zm7.872.192a4.549,4.549,0,0,1-1.72-.32,4.116,4.116,0,0,1-1.384-.912,3.879,3.879,0,0,1-.9-1.408l.976-.48a3.013,3.013,0,0,0,1.208,1.464,3.313,3.313,0,0,0,1.816.536,2.677,2.677,0,0,0,1.4-.368,2.641,2.641,0,0,0,.968-1,2.86,2.86,0,0,0,.352-1.416,2.83,2.83,0,0,0-.36-1.44,2.677,2.677,0,0,0-.968-.984,2.649,2.649,0,0,0-1.376-.36,2.989,2.989,0,0,0-1.448.36,2.433,2.433,0,0,0-.968.872l-1.008-.192.9-6.464h6.032V36.2H45.92l.5-.432-.72,5.088-.5-.224a3.188,3.188,0,0,1,1.312-.984,4.16,4.16,0,0,1,1.536-.3,3.828,3.828,0,0,1,2.032.536,3.893,3.893,0,0,1,1.384,1.424,3.932,3.932,0,0,1,.5,1.976,3.868,3.868,0,0,1-.52,1.992,3.778,3.778,0,0,1-1.424,1.4A4.1,4.1,0,0,1,47.968,47.192Zm6.3,1.888v-.56a1.12,1.12,0,0,0,.7-.5A1.971,1.971,0,0,0,55.2,47h-.608V45.24h1.28v1.344a3.091,3.091,0,0,1-.4,1.672A1.871,1.871,0,0,1,54.272,49.08ZM62.928,47V36.2h-2.24V35.08h3.52V47Zm7.872.192a4.549,4.549,0,0,1-1.72-.32A4.116,4.116,0,0,1,67.7,45.96a3.879,3.879,0,0,1-.9-1.408l.976-.48a3.013,3.013,0,0,0,1.208,1.464,3.313,3.313,0,0,0,1.816.536,2.677,2.677,0,0,0,1.4-.368,2.641,2.641,0,0,0,.968-1,2.86,2.86,0,0,0,.352-1.416,2.83,2.83,0,0,0-.36-1.44,2.677,2.677,0,0,0-.968-.984,2.649,2.649,0,0,0-1.376-.36,2.989,2.989,0,0,0-1.448.36,2.433,2.433,0,0,0-.968.872l-1.008-.192.9-6.464H74.32V36.2H68.752l.5-.432-.72,5.088-.5-.224a3.188,3.188,0,0,1,1.312-.984,4.16,4.16,0,0,1,1.536-.3,3.828,3.828,0,0,1,2.032.536A3.893,3.893,0,0,1,74.3,41.312a3.933,3.933,0,0,1,.5,1.976,3.868,3.868,0,0,1-.52,1.992,3.778,3.778,0,0,1-1.424,1.4A4.1,4.1,0,0,1,70.8,47.192Zm6.3,1.888v-.56a1.12,1.12,0,0,0,.7-.5A1.971,1.971,0,0,0,78.032,47h-.608V45.24H78.7v1.344a3.091,3.091,0,0,1-.4,1.672A1.871,1.871,0,0,1,77.1,49.08ZM85.76,47V36.2H83.52V35.08h3.52V47Zm7.872.192a4.549,4.549,0,0,1-1.72-.32,4.116,4.116,0,0,1-1.384-.912,3.879,3.879,0,0,1-.9-1.408l.976-.48a3.013,3.013,0,0,0,1.208,1.464,3.313,3.313,0,0,0,1.816.536,2.677,2.677,0,0,0,1.4-.368,2.641,2.641,0,0,0,.968-1,2.86,2.86,0,0,0,.352-1.416,2.83,2.83,0,0,0-.36-1.44,2.677,2.677,0,0,0-.968-.984,2.649,2.649,0,0,0-1.376-.36,2.989,2.989,0,0,0-1.448.36,2.433,2.433,0,0,0-.968.872l-1.008-.192.9-6.464h6.032V36.2H91.584l.5-.432-.72,5.088-.5-.224a3.188,3.188,0,0,1,1.312-.984,4.16,4.16,0,0,1,1.536-.3,3.828,3.828,0,0,1,2.032.536,3.893,3.893,0,0,1,1.384,1.424,3.933,3.933,0,0,1,.5,1.976,3.868,3.868,0,0,1-.52,1.992,3.778,3.778,0,0,1-1.424,1.4A4.1,4.1,0,0,1,93.632,47.192Zm-86.784,30a5.791,5.791,0,0,1-2.32-.456A5.463,5.463,0,0,1,2.7,75.456a5.9,5.9,0,0,1-1.208-1.944,7.243,7.243,0,0,1,0-4.928A5.988,5.988,0,0,1,2.7,66.632a5.409,5.409,0,0,1,1.832-1.288,5.791,5.791,0,0,1,2.32-.456,5.3,5.3,0,0,1,2.184.432,5.227,5.227,0,0,1,1.632,1.112,4.225,4.225,0,0,1,.952,1.432l-1.2.528a3.732,3.732,0,0,0-3.568-2.3,4.4,4.4,0,0,0-2.336.624,4.3,4.3,0,0,0-1.6,1.736,6.138,6.138,0,0,0,0,5.192,4.236,4.236,0,0,0,1.6,1.736,4.442,4.442,0,0,0,2.336.616,3.825,3.825,0,0,0,2.2-.624A3.768,3.768,0,0,0,10.416,73.7l1.2.528a4.274,4.274,0,0,1-.952,1.416A5.227,5.227,0,0,1,9.032,76.76,5.3,5.3,0,0,1,6.848,77.192ZM13.9,77V65.08h1.12l4.48,6.5H18.88l4.464-6.5h1.12V77h-1.28V66.808l.416.16L19.216,73.32h-.064l-4.368-6.352.4-.16V77Zm16.32,0V71.464L26.048,65.08h1.424l3.648,5.552h-.512L34.24,65.08h1.424L31.5,71.464V77Zm7.024,0V65.08h1.28v6.96L38.24,71.9l6-6.816h1.6l-4.816,5.472.064-.912L46.128,77H44.592l-4.064-5.872-2,2.272V77Zm17.648.192a4.084,4.084,0,0,1-2.472-.776,5.062,5.062,0,0,1-1.656-2.16,9.075,9.075,0,0,1,0-6.448,5.031,5.031,0,0,1,1.648-2.152,4.337,4.337,0,0,1,4.928,0,5.031,5.031,0,0,1,1.648,2.152,8.145,8.145,0,0,1,.592,3.224A8.3,8.3,0,0,1,59,74.264a4.969,4.969,0,0,1-1.64,2.16A4.078,4.078,0,0,1,54.9,77.192Zm0-1.2a2.757,2.757,0,0,0,1.792-.624,4.08,4.08,0,0,0,1.2-1.736,8.04,8.04,0,0,0,0-5.2,4.019,4.019,0,0,0-1.2-1.728,2.938,2.938,0,0,0-3.6,0,4.019,4.019,0,0,0-1.2,1.728,8.016,8.016,0,0,0,0,5.192A4.043,4.043,0,0,0,53.1,75.368,2.789,2.789,0,0,0,54.9,75.992Zm14.432,1.2a4.084,4.084,0,0,1-2.472-.776,5.062,5.062,0,0,1-1.656-2.16,9.075,9.075,0,0,1,0-6.448,5.031,5.031,0,0,1,1.648-2.152,4.337,4.337,0,0,1,4.928,0,5.031,5.031,0,0,1,1.648,2.152,8.145,8.145,0,0,1,.592,3.224,8.3,8.3,0,0,1-.584,3.232,4.969,4.969,0,0,1-1.64,2.16A4.078,4.078,0,0,1,69.328,77.192Zm0-1.2a2.757,2.757,0,0,0,1.792-.624,4.08,4.08,0,0,0,1.2-1.736,8.04,8.04,0,0,0,0-5.2,4.019,4.019,0,0,0-1.2-1.728,2.938,2.938,0,0,0-3.6,0,4.019,4.019,0,0,0-1.2,1.728,8.016,8.016,0,0,0,0,5.192,4.043,4.043,0,0,0,1.208,1.744A2.789,2.789,0,0,0,69.328,75.992Zm14.432,1.2a4.084,4.084,0,0,1-2.472-.776,5.062,5.062,0,0,1-1.656-2.16,9.075,9.075,0,0,1,0-6.448,5.031,5.031,0,0,1,1.648-2.152,4.337,4.337,0,0,1,4.928,0,5.031,5.031,0,0,1,1.648,2.152,8.145,8.145,0,0,1,.592,3.224,8.3,8.3,0,0,1-.584,3.232,4.969,4.969,0,0,1-1.64,2.16A4.078,4.078,0,0,1,83.76,77.192Zm0-1.2a2.757,2.757,0,0,0,1.792-.624,4.08,4.08,0,0,0,1.2-1.736,8.04,8.04,0,0,0,0-5.2,4.019,4.019,0,0,0-1.2-1.728,2.938,2.938,0,0,0-3.6,0,4.019,4.019,0,0,0-1.2,1.728,8.016,8.016,0,0,0,0,5.192,4.043,4.043,0,0,0,1.208,1.744A2.789,2.789,0,0,0,83.76,75.992ZM94.64,77l4.144-5.424.24-.144a2.061,2.061,0,0,1-.56.608,2.109,2.109,0,0,1-.7.32,3.5,3.5,0,0,1-.848.1,3.631,3.631,0,0,1-1.872-.488,3.588,3.588,0,0,1-1.32-1.344,3.887,3.887,0,0,1-.488-1.96,3.661,3.661,0,0,1,1.88-3.28,4.139,4.139,0,0,1,3.944.008,3.629,3.629,0,0,1,1.36,1.392,4.112,4.112,0,0,1,.5,2.04,5.322,5.322,0,0,1-.152,1.264,5.844,5.844,0,0,1-.456,1.232,7.655,7.655,0,0,1-.768,1.216L96.176,77Zm2.432-5.7A2.54,2.54,0,0,0,98.4,70.96a2.443,2.443,0,0,0,.9-.944A2.952,2.952,0,0,0,99.3,67.3a2.544,2.544,0,0,0-4.448,0,2.952,2.952,0,0,0-.008,2.72,2.425,2.425,0,0,0,.912.944A2.552,2.552,0,0,0,97.072,71.3Zm11.12,5.7V74.184h-6.064v-1.04l6.064-8.064h1.12v8.064h1.456v1.04h-1.456V77ZM103.1,73.608l-.144-.464h5.232v-6.96l.4.112Z" transform="translate(791 3620)" fill="#9a9a9a"/>
      <path id="Path_3918" data-name="Path 3918" d="M12.731,30.348a11.62,11.62,0,0,1-4.437-.841,11.036,11.036,0,0,1-3.6-2.349,10.712,10.712,0,0,1-2.392-3.553,11.341,11.341,0,0,1-.855-4.422,11.48,11.48,0,0,1,.841-4.437,10.566,10.566,0,0,1,2.378-3.538,10.845,10.845,0,0,1,3.6-2.335,11.878,11.878,0,0,1,4.466-.826,11.7,11.7,0,0,1,4.466.841,11.156,11.156,0,0,1,3.6,2.334,10.59,10.59,0,0,1,2.392,3.523,11.31,11.31,0,0,1,.856,4.437,11.176,11.176,0,0,1-.87,4.422,10.9,10.9,0,0,1-2.407,3.553,11.075,11.075,0,0,1-3.582,2.349A11.589,11.589,0,0,1,12.731,30.348Zm0-3.6a7.429,7.429,0,0,0,2.929-.565,7.176,7.176,0,0,0,2.335-1.581A6.939,6.939,0,0,0,19.531,22.2a8.316,8.316,0,0,0,.536-3.016,8.2,8.2,0,0,0-.536-3,7.123,7.123,0,0,0-1.537-2.407,6.887,6.887,0,0,0-2.335-1.58,7.6,7.6,0,0,0-2.929-.551,7.522,7.522,0,0,0-2.9.551A6.887,6.887,0,0,0,7.5,13.774a7.31,7.31,0,0,0-1.552,2.407,8.009,8.009,0,0,0-.551,3A8.121,8.121,0,0,0,5.945,22.2a7.1,7.1,0,0,0,3.886,3.987A7.354,7.354,0,0,0,12.731,26.752ZM26.651,30V14.224h3.567v3.1l-.29-.551a4.17,4.17,0,0,1,1.813-2.161,5.714,5.714,0,0,1,2.943-.74,6.22,6.22,0,0,1,3.089.754,5.363,5.363,0,0,1,2.1,2.1,6.281,6.281,0,0,1,.754,3.118V30h-3.8V20.749a3.741,3.741,0,0,0-.406-1.8,2.971,2.971,0,0,0-1.117-1.174,3.488,3.488,0,0,0-3.32,0,2.94,2.94,0,0,0-1.131,1.174,3.741,3.741,0,0,0-.406,1.8V30Zm18.241,6.409a7.573,7.573,0,0,1-1.247-.1,4.2,4.2,0,0,1-1.1-.333v-3.19q.377.087.914.174a6.273,6.273,0,0,0,1,.087,2.562,2.562,0,0,0,1.9-.609,5.793,5.793,0,0,0,1.059-1.6l1.044-2.436-.058,3.19L41.528,14.224h4.089l4.814,12.818h-1.45l4.785-12.818h4.118L51.011,31.595a9.908,9.908,0,0,1-1.479,2.61,6.012,6.012,0,0,1-2.015,1.638A5.854,5.854,0,0,1,44.892,36.409ZM57.971,30l5.51-7.917-5.539-7.859h4.466l4.321,6.38h-2l4.321-6.38h4.437l-5.51,7.859L73.457,30H69.02l-4.263-6.351H66.7L62.437,30Z" transform="translate(791 3571)" fill="#fff"/>
    </g>
  </g>
</svg>
