<svg xmlns="http://www.w3.org/2000/svg" width="450" height="263" viewBox="0 0 450 263">
  <g id="Group_1401" data-name="Group 1401" transform="translate(-731 -3503)">
    <g id="Rectangle_2226" data-name="Rectangle 2226" transform="translate(731 3503)" fill="#fff" stroke="rgba(10,10,10,0.1)" stroke-width="2">
      <rect width="450" height="263" stroke="none"/>
      <rect x="1" y="1" width="448" height="261" fill="none"/>
    </g>
    <g id="Group_1375" data-name="Group 1375" transform="translate(6 -2)">
      <path id="Path_3918" data-name="Path 3918" d="M1.648,17l.9-3.12H.624V12.76h2.24l.992-3.44H1.936V8.2h2.24l.9-3.12h1.28l-.9,3.12h3.36l.9-3.12h1.28L10.1,8.2h1.92V9.32H9.776l-.992,3.44H10.7v1.12H8.464L7.568,17H6.288l.9-3.12H3.824L2.928,17Zm2.5-4.24H7.5L8.5,9.32H5.136Zm9.9,4.24V5.08h7.36v1.2h-6.08v4.144h5.6v1.2h-5.6V17Zm9.3,0V5.08H30.7v1.2h-6.08v4.144h5.6v1.2h-5.6V17Zm9.3,0V5.08H40v1.2H33.92v4.144h5.6v1.2h-5.6V17Zm9.3,0V5.08H49.3v1.2h-6.08v4.144h5.6v1.2h-5.6V17Zm9.3,0V5.08h7.36v1.2h-6.08v4.144h5.6v1.2h-5.6V17Zm9.3,0V5.08h7.36v1.2h-6.08v4.144h5.6v1.2h-5.6V17ZM1.408,47V35.08H5.5a4.391,4.391,0,0,1,2.048.456,3.338,3.338,0,0,1,1.368,1.28,3.681,3.681,0,0,1,.488,1.912,3.439,3.439,0,0,1-2.464,3.424L9.728,47h-1.5L5.312,41.864l.864.5H2.688V47Zm1.28-5.84h2.88a2.9,2.9,0,0,0,1.344-.3,2.148,2.148,0,0,0,.9-.848,2.555,2.555,0,0,0,.32-1.3,2.511,2.511,0,0,0-.32-1.3,2.163,2.163,0,0,0-.9-.84,2.9,2.9,0,0,0-1.344-.3H2.688ZM17.1,47.192a5.791,5.791,0,0,1-2.32-.456,5.463,5.463,0,0,1-1.832-1.28,5.9,5.9,0,0,1-1.208-1.944,7.243,7.243,0,0,1,0-4.928,5.988,5.988,0,0,1,1.208-1.952,5.409,5.409,0,0,1,1.832-1.288,5.791,5.791,0,0,1,2.32-.456,5.3,5.3,0,0,1,2.184.432,5.227,5.227,0,0,1,1.632,1.112,4.225,4.225,0,0,1,.952,1.432l-1.152.56a3.711,3.711,0,0,0-1.376-1.712,3.92,3.92,0,0,0-2.24-.624,4.4,4.4,0,0,0-2.336.624,4.3,4.3,0,0,0-1.6,1.736,6.138,6.138,0,0,0,0,5.192,4.236,4.236,0,0,0,1.6,1.736,4.442,4.442,0,0,0,2.336.616,4.311,4.311,0,0,0,2.1-.512,3.893,3.893,0,0,0,1.48-1.4,3.826,3.826,0,0,0,.544-2.04v-.656l.576.576H17.1V40.84h5.408v.992a5.47,5.47,0,0,1-.416,2.152A5.135,5.135,0,0,1,19.224,46.8,5.676,5.676,0,0,1,17.1,47.192ZM24.8,47V35.08h5.008a3.839,3.839,0,0,1,1.752.376A2.78,2.78,0,0,1,32.712,36.5a3.2,3.2,0,0,1-.048,3.208,2.846,2.846,0,0,1-1.3,1.08l-.016-.384a3.551,3.551,0,0,1,1.208.72,3.212,3.212,0,0,1,1.048,2.4,3.279,3.279,0,0,1-1.016,2.536,3.915,3.915,0,0,1-2.76.936Zm1.28-1.2h3.744a2.645,2.645,0,0,0,1.816-.6,2.094,2.094,0,0,0,.68-1.656,2.124,2.124,0,0,0-.68-1.656,2.6,2.6,0,0,0-1.816-.616H26.08Zm0-5.68h3.632a2.137,2.137,0,0,0,1.544-.56,1.907,1.907,0,0,0,.584-1.44,1.656,1.656,0,0,0-.584-1.368,2.382,2.382,0,0,0-1.544-.472H26.08ZM38.128,47v-.8l3.328-3.664q.976-1.072,1.592-1.776a6.92,6.92,0,0,0,.92-1.28,2.633,2.633,0,0,0,.3-1.248,2.131,2.131,0,0,0-.624-1.648,2.357,2.357,0,0,0-1.664-.576,2.713,2.713,0,0,0-1.8.608,3.037,3.037,0,0,0-.984,1.7l-1.168-.256a4.1,4.1,0,0,1,.752-1.68,3.74,3.74,0,0,1,1.36-1.1,4.158,4.158,0,0,1,1.824-.392,3.881,3.881,0,0,1,1.872.432,3.2,3.2,0,0,1,1.712,2.912,3.132,3.132,0,0,1-.28,1.3,6.72,6.72,0,0,1-.84,1.344q-.56.72-1.44,1.68L39.968,45.88h5.9V47Zm13.5.192a4.549,4.549,0,0,1-1.72-.32,4.116,4.116,0,0,1-1.384-.912,3.879,3.879,0,0,1-.9-1.408l.976-.48a3.013,3.013,0,0,0,1.208,1.464,3.313,3.313,0,0,0,1.816.536,2.677,2.677,0,0,0,1.4-.368,2.641,2.641,0,0,0,.968-1,2.86,2.86,0,0,0,.352-1.416,2.83,2.83,0,0,0-.36-1.44,2.677,2.677,0,0,0-.968-.984,2.649,2.649,0,0,0-1.376-.36,2.989,2.989,0,0,0-1.448.36,2.433,2.433,0,0,0-.968.872l-1.008-.192.9-6.464h6.032V36.2H49.584l.5-.432-.72,5.088-.5-.224a3.188,3.188,0,0,1,1.312-.984,4.16,4.16,0,0,1,1.536-.3,3.828,3.828,0,0,1,2.032.536,3.893,3.893,0,0,1,1.384,1.424,3.932,3.932,0,0,1,.5,1.976,3.868,3.868,0,0,1-.52,1.992,3.778,3.778,0,0,1-1.424,1.4A4.1,4.1,0,0,1,51.632,47.192Zm9.856,0a4.549,4.549,0,0,1-1.72-.32,4.116,4.116,0,0,1-1.384-.912,3.879,3.879,0,0,1-.9-1.408l.976-.48a3.013,3.013,0,0,0,1.208,1.464,3.313,3.313,0,0,0,1.816.536,2.677,2.677,0,0,0,1.4-.368,2.641,2.641,0,0,0,.968-1,2.86,2.86,0,0,0,.352-1.416,2.83,2.83,0,0,0-.36-1.44,2.677,2.677,0,0,0-.968-.984A2.649,2.649,0,0,0,61.5,40.5a2.989,2.989,0,0,0-1.448.36,2.433,2.433,0,0,0-.968.872l-1.008-.192.9-6.464h6.032V36.2H59.44l.5-.432-.72,5.088-.5-.224a3.188,3.188,0,0,1,1.312-.984,4.16,4.16,0,0,1,1.536-.3,3.828,3.828,0,0,1,2.032.536,3.893,3.893,0,0,1,1.384,1.424,3.933,3.933,0,0,1,.5,1.976,3.868,3.868,0,0,1-.52,1.992,3.778,3.778,0,0,1-1.424,1.4A4.1,4.1,0,0,1,61.488,47.192ZM70.16,47v-.8l3.328-3.664q.976-1.072,1.592-1.776A6.92,6.92,0,0,0,76,39.48a2.633,2.633,0,0,0,.3-1.248,2.131,2.131,0,0,0-.624-1.648,2.357,2.357,0,0,0-1.664-.576,2.713,2.713,0,0,0-1.8.608,3.037,3.037,0,0,0-.984,1.7l-1.168-.256a4.1,4.1,0,0,1,.752-1.68,3.74,3.74,0,0,1,1.36-1.1A4.158,4.158,0,0,1,74,34.888a3.881,3.881,0,0,1,1.872.432,3.2,3.2,0,0,1,1.712,2.912,3.132,3.132,0,0,1-.28,1.3,6.721,6.721,0,0,1-.84,1.344q-.56.72-1.44,1.68L72,45.88h5.9V47Zm13.5.192a4.549,4.549,0,0,1-1.72-.32,4.116,4.116,0,0,1-1.384-.912,3.879,3.879,0,0,1-.9-1.408l.976-.48a3.013,3.013,0,0,0,1.208,1.464,3.313,3.313,0,0,0,1.816.536,2.677,2.677,0,0,0,1.4-.368,2.641,2.641,0,0,0,.968-1,2.86,2.86,0,0,0,.352-1.416,2.83,2.83,0,0,0-.36-1.44,2.677,2.677,0,0,0-.968-.984,2.649,2.649,0,0,0-1.376-.36,2.989,2.989,0,0,0-1.448.36,2.433,2.433,0,0,0-.968.872l-1.008-.192.9-6.464h6.032V36.2H81.616l.5-.432-.72,5.088-.5-.224a3.188,3.188,0,0,1,1.312-.984,4.16,4.16,0,0,1,1.536-.3,3.828,3.828,0,0,1,2.032.536,3.893,3.893,0,0,1,1.384,1.424,3.933,3.933,0,0,1,.5,1.976,3.868,3.868,0,0,1-.52,1.992,3.778,3.778,0,0,1-1.424,1.4A4.1,4.1,0,0,1,83.664,47.192Zm9.856,0a4.549,4.549,0,0,1-1.72-.32,4.116,4.116,0,0,1-1.384-.912,3.879,3.879,0,0,1-.9-1.408l.976-.48A3.013,3.013,0,0,0,91.7,45.536a3.313,3.313,0,0,0,1.816.536,2.677,2.677,0,0,0,1.4-.368,2.641,2.641,0,0,0,.968-1,2.86,2.86,0,0,0,.352-1.416,2.83,2.83,0,0,0-.36-1.44,2.677,2.677,0,0,0-.968-.984,2.649,2.649,0,0,0-1.376-.36,2.989,2.989,0,0,0-1.448.36,2.433,2.433,0,0,0-.968.872l-1.008-.192.9-6.464H97.04V36.2H91.472l.5-.432-.72,5.088-.5-.224a3.188,3.188,0,0,1,1.312-.984,4.16,4.16,0,0,1,1.536-.3,3.828,3.828,0,0,1,2.032.536,3.893,3.893,0,0,1,1.384,1.424,3.933,3.933,0,0,1,.5,1.976A3.868,3.868,0,0,1,97,45.28a3.778,3.778,0,0,1-1.424,1.4A4.1,4.1,0,0,1,93.52,47.192ZM102.192,47v-.8l3.328-3.664q.976-1.072,1.592-1.776a6.92,6.92,0,0,0,.92-1.28,2.633,2.633,0,0,0,.3-1.248,2.131,2.131,0,0,0-.624-1.648,2.357,2.357,0,0,0-1.664-.576,2.713,2.713,0,0,0-1.8.608,3.037,3.037,0,0,0-.984,1.7l-1.168-.256a4.1,4.1,0,0,1,.752-1.68,3.74,3.74,0,0,1,1.36-1.1,4.158,4.158,0,0,1,1.824-.392,3.881,3.881,0,0,1,1.872.432,3.2,3.2,0,0,1,1.712,2.912,3.132,3.132,0,0,1-.28,1.3,6.721,6.721,0,0,1-.84,1.344q-.56.72-1.44,1.68l-3.024,3.328h5.9V47Zm13.5.192a4.549,4.549,0,0,1-1.72-.32,4.116,4.116,0,0,1-1.384-.912,3.879,3.879,0,0,1-.9-1.408l.976-.48a3.013,3.013,0,0,0,1.208,1.464,3.313,3.313,0,0,0,1.816.536,2.677,2.677,0,0,0,1.4-.368,2.641,2.641,0,0,0,.968-1,2.86,2.86,0,0,0,.352-1.416,2.83,2.83,0,0,0-.36-1.44,2.677,2.677,0,0,0-.968-.984,2.649,2.649,0,0,0-1.376-.36,2.989,2.989,0,0,0-1.448.36,2.433,2.433,0,0,0-.968.872l-1.008-.192.9-6.464h6.032V36.2h-5.568l.5-.432-.72,5.088-.5-.224a3.188,3.188,0,0,1,1.312-.984,4.16,4.16,0,0,1,1.536-.3,3.828,3.828,0,0,1,2.032.536,3.893,3.893,0,0,1,1.384,1.424,3.933,3.933,0,0,1,.5,1.976,3.868,3.868,0,0,1-.52,1.992,3.778,3.778,0,0,1-1.424,1.4A4.1,4.1,0,0,1,115.7,47.192Zm9.856,0a4.549,4.549,0,0,1-1.72-.32,4.116,4.116,0,0,1-1.384-.912,3.879,3.879,0,0,1-.9-1.408l.976-.48a3.013,3.013,0,0,0,1.208,1.464,3.313,3.313,0,0,0,1.816.536,2.677,2.677,0,0,0,1.4-.368,2.641,2.641,0,0,0,.968-1,2.86,2.86,0,0,0,.352-1.416,2.83,2.83,0,0,0-.36-1.44,2.677,2.677,0,0,0-.968-.984,2.649,2.649,0,0,0-1.376-.36,2.989,2.989,0,0,0-1.448.36,2.433,2.433,0,0,0-.968.872l-1.008-.192.9-6.464h6.032V36.2H123.5l.5-.432-.72,5.088-.5-.224a3.188,3.188,0,0,1,1.312-.984,4.16,4.16,0,0,1,1.536-.3,3.828,3.828,0,0,1,2.032.536,3.893,3.893,0,0,1,1.384,1.424,3.933,3.933,0,0,1,.5,1.976,3.868,3.868,0,0,1-.52,1.992,3.778,3.778,0,0,1-1.424,1.4A4.1,4.1,0,0,1,125.552,47.192Zm-118.7,30a5.791,5.791,0,0,1-2.32-.456A5.463,5.463,0,0,1,2.7,75.456a5.9,5.9,0,0,1-1.208-1.944,7.243,7.243,0,0,1,0-4.928A5.988,5.988,0,0,1,2.7,66.632a5.409,5.409,0,0,1,1.832-1.288,5.791,5.791,0,0,1,2.32-.456,5.3,5.3,0,0,1,2.184.432,5.227,5.227,0,0,1,1.632,1.112,4.225,4.225,0,0,1,.952,1.432l-1.2.528a3.732,3.732,0,0,0-3.568-2.3,4.4,4.4,0,0,0-2.336.624,4.3,4.3,0,0,0-1.6,1.736,6.138,6.138,0,0,0,0,5.192,4.236,4.236,0,0,0,1.6,1.736,4.442,4.442,0,0,0,2.336.616,3.825,3.825,0,0,0,2.2-.624A3.768,3.768,0,0,0,10.416,73.7l1.2.528a4.274,4.274,0,0,1-.952,1.416A5.227,5.227,0,0,1,9.032,76.76,5.3,5.3,0,0,1,6.848,77.192ZM13.9,77V65.08h1.12l4.48,6.5H18.88l4.464-6.5h1.12V77h-1.28V66.808l.416.16L19.216,73.32h-.064l-4.368-6.352.4-.16V77Zm16.32,0V71.464L26.048,65.08h1.424l3.648,5.552h-.512L34.24,65.08h1.424L31.5,71.464V77Zm7.024,0V65.08h1.28v6.96L38.24,71.9l6-6.816h1.6l-4.816,5.472.064-.912L46.128,77H44.592l-4.064-5.872-2,2.272V77Zm17.648.192a4.084,4.084,0,0,1-2.472-.776,5.062,5.062,0,0,1-1.656-2.16,9.075,9.075,0,0,1,0-6.448,5.031,5.031,0,0,1,1.648-2.152,4.337,4.337,0,0,1,4.928,0,5.031,5.031,0,0,1,1.648,2.152,8.145,8.145,0,0,1,.592,3.224A8.3,8.3,0,0,1,59,74.264a4.969,4.969,0,0,1-1.64,2.16A4.078,4.078,0,0,1,54.9,77.192Zm0-1.2a2.757,2.757,0,0,0,1.792-.624,4.08,4.08,0,0,0,1.2-1.736,8.04,8.04,0,0,0,0-5.2,4.019,4.019,0,0,0-1.2-1.728,2.938,2.938,0,0,0-3.6,0,4.019,4.019,0,0,0-1.2,1.728,8.016,8.016,0,0,0,0,5.192A4.043,4.043,0,0,0,53.1,75.368,2.789,2.789,0,0,0,54.9,75.992Zm14.432,1.2a4.084,4.084,0,0,1-2.472-.776,5.062,5.062,0,0,1-1.656-2.16,9.075,9.075,0,0,1,0-6.448,5.031,5.031,0,0,1,1.648-2.152,4.337,4.337,0,0,1,4.928,0,5.031,5.031,0,0,1,1.648,2.152,8.145,8.145,0,0,1,.592,3.224,8.3,8.3,0,0,1-.584,3.232,4.969,4.969,0,0,1-1.64,2.16A4.078,4.078,0,0,1,69.328,77.192Zm0-1.2a2.757,2.757,0,0,0,1.792-.624,4.08,4.08,0,0,0,1.2-1.736,8.04,8.04,0,0,0,0-5.2,4.019,4.019,0,0,0-1.2-1.728,2.938,2.938,0,0,0-3.6,0,4.019,4.019,0,0,0-1.2,1.728,8.016,8.016,0,0,0,0,5.192,4.043,4.043,0,0,0,1.208,1.744A2.789,2.789,0,0,0,69.328,75.992Zm14.432,1.2a4.084,4.084,0,0,1-2.472-.776,5.062,5.062,0,0,1-1.656-2.16,9.075,9.075,0,0,1,0-6.448,5.031,5.031,0,0,1,1.648-2.152,4.337,4.337,0,0,1,4.928,0,5.031,5.031,0,0,1,1.648,2.152,8.145,8.145,0,0,1,.592,3.224,8.3,8.3,0,0,1-.584,3.232,4.969,4.969,0,0,1-1.64,2.16A4.078,4.078,0,0,1,83.76,77.192Zm0-1.2a2.757,2.757,0,0,0,1.792-.624,4.08,4.08,0,0,0,1.2-1.736,8.04,8.04,0,0,0,0-5.2,4.019,4.019,0,0,0-1.2-1.728,2.938,2.938,0,0,0-3.6,0,4.019,4.019,0,0,0-1.2,1.728,8.016,8.016,0,0,0,0,5.192,4.043,4.043,0,0,0,1.208,1.744A2.789,2.789,0,0,0,83.76,75.992Zm14.432,1.2a4.084,4.084,0,0,1-2.472-.776,5.062,5.062,0,0,1-1.656-2.16,9.075,9.075,0,0,1,0-6.448,5.031,5.031,0,0,1,1.648-2.152,4.337,4.337,0,0,1,4.928,0,5.031,5.031,0,0,1,1.648,2.152,8.145,8.145,0,0,1,.592,3.224,8.3,8.3,0,0,1-.584,3.232,4.969,4.969,0,0,1-1.64,2.16A4.078,4.078,0,0,1,98.192,77.192Zm0-1.2a2.757,2.757,0,0,0,1.792-.624,4.08,4.08,0,0,0,1.2-1.736,8.04,8.04,0,0,0,0-5.2,4.019,4.019,0,0,0-1.2-1.728,2.938,2.938,0,0,0-3.6,0,4.019,4.019,0,0,0-1.2,1.728,8.016,8.016,0,0,0,0,5.192,4.043,4.043,0,0,0,1.208,1.744A2.789,2.789,0,0,0,98.192,75.992Z" transform="translate(791 3620)" fill="#595959"/>
      <path id="Path_3917" data-name="Path 3917" d="M6.119,30,.319,8.4H4.553L9.106,26.81H8L12.76,8.4h4.089L21.576,26.81h-1.1L25.027,8.4h4.234L23.461,30H18.937L14.152,12.078h1.276L10.643,30Zm24.65,0V8.047h3.8v9.28l-.522-.551a4.17,4.17,0,0,1,1.813-2.161,5.714,5.714,0,0,1,2.944-.74,6.22,6.22,0,0,1,3.088.754,5.363,5.363,0,0,1,2.1,2.1,6.281,6.281,0,0,1,.754,3.118V30h-3.8V20.749a3.742,3.742,0,0,0-.406-1.8,2.971,2.971,0,0,0-1.117-1.174,3.488,3.488,0,0,0-3.32,0,2.94,2.94,0,0,0-1.131,1.174,3.742,3.742,0,0,0-.406,1.8V30Zm16.617,0V14.224h3.8V30Zm0-17.545V8.4h3.8v4.06Zm13.92,17.719a5.588,5.588,0,0,1-4.132-1.465,5.588,5.588,0,0,1-1.465-4.132v-6.96H52.983V14.224h.29a2.5,2.5,0,0,0,1.8-.609,2.332,2.332,0,0,0,.638-1.769V10.628h3.8v3.6h3.625v3.393H59.508v6.757a2.957,2.957,0,0,0,.276,1.334,1.839,1.839,0,0,0,.87.841,3.476,3.476,0,0,0,1.522.29,4.653,4.653,0,0,0,.479-.029l.536-.058V30q-.406.058-.928.116A8.72,8.72,0,0,1,61.306,30.174Zm11.542.174a8.093,8.093,0,0,1-4.263-1.1,7.676,7.676,0,0,1-2.842-2.987,8.666,8.666,0,0,1-1.015-4.176,8.5,8.5,0,0,1,1.03-4.22,7.757,7.757,0,0,1,2.813-2.914,7.585,7.585,0,0,1,3.987-1.073,8.151,8.151,0,0,1,3.263.609,6.958,6.958,0,0,1,2.392,1.682,7.531,7.531,0,0,1,1.508,2.451,8.319,8.319,0,0,1,.522,2.972q0,.406-.043.841a3.127,3.127,0,0,1-.16.754H67.86v-2.9H77.894l-1.8,1.363a4.321,4.321,0,0,0-.131-2.378,3.4,3.4,0,0,0-1.276-1.653,3.666,3.666,0,0,0-2.132-.609,3.839,3.839,0,0,0-2.117.595,3.68,3.68,0,0,0-1.407,1.74,6.039,6.039,0,0,0-.363,2.77,5.128,5.128,0,0,0,.392,2.566A3.811,3.811,0,0,0,70.572,26.4a4.345,4.345,0,0,0,2.305.609,4.22,4.22,0,0,0,2.218-.551,3.976,3.976,0,0,0,1.436-1.479L79.6,26.491a5.372,5.372,0,0,1-1.45,2,7.248,7.248,0,0,1-2.334,1.363A8.6,8.6,0,0,1,72.848,30.348Z" transform="translate(791 3571)"/>
    </g>
  </g>
</svg>
