<svg xmlns="http://www.w3.org/2000/svg" width="450" height="263" viewBox="0 0 450 263">
  <g id="Group_1404" data-name="Group 1404" transform="translate(-731 -3503)">
    <g id="Rectangle_2226" data-name="Rectangle 2226" transform="translate(731 3503)" fill="#ff5043" stroke="rgba(255,255,255,0.1)" stroke-width="2">
      <rect width="450" height="263" stroke="none"/>
      <rect x="1" y="1" width="448" height="261" fill="none"/>
    </g>
    <g id="Group_1375" data-name="Group 1375" transform="translate(6 -2)">
      <path id="Path_3924" data-name="Path 3924" d="M1.648,17l.9-3.12H.624V12.76h2.24l.992-3.44H1.936V8.2h2.24l.9-3.12h1.28l-.9,3.12h3.36l.9-3.12h1.28L10.1,8.2h1.92V9.32H9.776l-.992,3.44H10.7v1.12H8.464L7.568,17H6.288l.9-3.12H3.824L2.928,17Zm2.5-4.24H7.5L8.5,9.32H5.136Zm9.9,4.24V5.08h7.36v1.2h-6.08v4.144h5.6v1.2h-5.6V17Zm9.3,0V5.08H30.7v1.2h-6.08v4.144h5.6v1.2h-5.6V17Zm12.72.192a4.549,4.549,0,0,1-1.72-.32,4.116,4.116,0,0,1-1.384-.912,3.879,3.879,0,0,1-.9-1.408l.976-.48a3.013,3.013,0,0,0,1.208,1.464,3.313,3.313,0,0,0,1.816.536,2.677,2.677,0,0,0,1.4-.368,2.641,2.641,0,0,0,.968-1,2.86,2.86,0,0,0,.352-1.416,2.83,2.83,0,0,0-.36-1.44,2.677,2.677,0,0,0-.968-.984,2.649,2.649,0,0,0-1.376-.36,2.989,2.989,0,0,0-1.448.36,2.433,2.433,0,0,0-.968.872l-1.008-.192.9-6.464h6.032V6.2H34.016l.5-.432-.72,5.088-.5-.224a3.188,3.188,0,0,1,1.312-.984,4.16,4.16,0,0,1,1.536-.3,3.828,3.828,0,0,1,2.032.536,3.893,3.893,0,0,1,1.384,1.424,3.933,3.933,0,0,1,.5,1.976,3.868,3.868,0,0,1-.52,1.992,3.778,3.778,0,0,1-1.424,1.4A4.1,4.1,0,0,1,36.064,17.192Zm10.9,0a4.084,4.084,0,0,1-2.472-.776,5.062,5.062,0,0,1-1.656-2.16,8.145,8.145,0,0,1-.592-3.224,8.145,8.145,0,0,1,.592-3.224A5.031,5.031,0,0,1,44.48,5.656a4.337,4.337,0,0,1,4.928,0,5.031,5.031,0,0,1,1.648,2.152,8.145,8.145,0,0,1,.592,3.224,8.3,8.3,0,0,1-.584,3.232,4.969,4.969,0,0,1-1.64,2.16A4.078,4.078,0,0,1,46.96,17.192Zm0-1.2a2.757,2.757,0,0,0,1.792-.624,4.08,4.08,0,0,0,1.2-1.736,7.159,7.159,0,0,0,.432-2.6,7.159,7.159,0,0,0-.432-2.6,4.019,4.019,0,0,0-1.2-1.728,2.938,2.938,0,0,0-3.6,0,4.019,4.019,0,0,0-1.2,1.728,7.159,7.159,0,0,0-.432,2.6,7.175,7.175,0,0,0,.432,2.592,4.043,4.043,0,0,0,1.208,1.744A2.789,2.789,0,0,0,46.96,15.992ZM59.6,17V14.184H53.536v-1.04L59.6,5.08h1.12v8.064h1.456v1.04H60.72V17Zm-5.088-3.392-.144-.464H59.6V6.184L60,6.3Zm13.072,3.584a4.488,4.488,0,0,1-1.712-.32A4.05,4.05,0,0,1,64.5,15.96a3.932,3.932,0,0,1-.888-1.408l1.024-.48a3.225,3.225,0,0,0,4.368,1.688,2.316,2.316,0,0,0,.976-.9,2.771,2.771,0,0,0,.352-1.44,2.722,2.722,0,0,0-.36-1.44,2.315,2.315,0,0,0-.984-.9,3.211,3.211,0,0,0-1.424-.3q-.208,0-.456.016a3.193,3.193,0,0,0-.408.048l-.256-.56L69.664,6.2H64.176V5.08H71.1V6.2L68.1,9.992l-.16-.208a4.042,4.042,0,0,1,1.9.5,3.473,3.473,0,0,1,1.3,1.272,3.584,3.584,0,0,1,.472,1.856,3.653,3.653,0,0,1-.512,1.912,3.718,3.718,0,0,1-1.424,1.36A4.262,4.262,0,0,1,67.584,17.192ZM1.408,47V35.08H5.5a4.391,4.391,0,0,1,2.048.456,3.338,3.338,0,0,1,1.368,1.28,3.681,3.681,0,0,1,.488,1.912,3.439,3.439,0,0,1-2.464,3.424L9.728,47h-1.5L5.312,41.864l.864.5H2.688V47Zm1.28-5.84h2.88a2.9,2.9,0,0,0,1.344-.3,2.148,2.148,0,0,0,.9-.848,2.555,2.555,0,0,0,.32-1.3,2.511,2.511,0,0,0-.32-1.3,2.163,2.163,0,0,0-.9-.84,2.9,2.9,0,0,0-1.344-.3H2.688ZM17.1,47.192a5.791,5.791,0,0,1-2.32-.456,5.463,5.463,0,0,1-1.832-1.28,5.9,5.9,0,0,1-1.208-1.944,7.243,7.243,0,0,1,0-4.928,5.988,5.988,0,0,1,1.208-1.952,5.409,5.409,0,0,1,1.832-1.288,5.791,5.791,0,0,1,2.32-.456,5.3,5.3,0,0,1,2.184.432,5.227,5.227,0,0,1,1.632,1.112,4.225,4.225,0,0,1,.952,1.432l-1.152.56a3.711,3.711,0,0,0-1.376-1.712,3.92,3.92,0,0,0-2.24-.624,4.4,4.4,0,0,0-2.336.624,4.3,4.3,0,0,0-1.6,1.736,6.138,6.138,0,0,0,0,5.192,4.236,4.236,0,0,0,1.6,1.736,4.442,4.442,0,0,0,2.336.616,4.311,4.311,0,0,0,2.1-.512,3.893,3.893,0,0,0,1.48-1.4,3.826,3.826,0,0,0,.544-2.04v-.656l.576.576H17.1V40.84h5.408v.992a5.47,5.47,0,0,1-.416,2.152A5.135,5.135,0,0,1,19.224,46.8,5.676,5.676,0,0,1,17.1,47.192ZM24.8,47V35.08h5.008a3.839,3.839,0,0,1,1.752.376A2.78,2.78,0,0,1,32.712,36.5a3.2,3.2,0,0,1-.048,3.208,2.846,2.846,0,0,1-1.3,1.08l-.016-.384a3.551,3.551,0,0,1,1.208.72,3.212,3.212,0,0,1,1.048,2.4,3.279,3.279,0,0,1-1.016,2.536,3.915,3.915,0,0,1-2.76.936Zm1.28-1.2h3.744a2.645,2.645,0,0,0,1.816-.6,2.094,2.094,0,0,0,.68-1.656,2.124,2.124,0,0,0-.68-1.656,2.6,2.6,0,0,0-1.816-.616H26.08Zm0-5.68h3.632a2.137,2.137,0,0,0,1.544-.56,1.907,1.907,0,0,0,.584-1.44,1.656,1.656,0,0,0-.584-1.368,2.382,2.382,0,0,0-1.544-.472H26.08ZM38.128,47v-.8l3.328-3.664q.976-1.072,1.592-1.776a6.92,6.92,0,0,0,.92-1.28,2.633,2.633,0,0,0,.3-1.248,2.131,2.131,0,0,0-.624-1.648,2.357,2.357,0,0,0-1.664-.576,2.713,2.713,0,0,0-1.8.608,3.037,3.037,0,0,0-.984,1.7l-1.168-.256a4.1,4.1,0,0,1,.752-1.68,3.74,3.74,0,0,1,1.36-1.1,4.158,4.158,0,0,1,1.824-.392,3.881,3.881,0,0,1,1.872.432,3.2,3.2,0,0,1,1.712,2.912,3.132,3.132,0,0,1-.28,1.3,6.72,6.72,0,0,1-.84,1.344q-.56.72-1.44,1.68L39.968,45.88h5.9V47Zm13.5.192a4.549,4.549,0,0,1-1.72-.32,4.116,4.116,0,0,1-1.384-.912,3.879,3.879,0,0,1-.9-1.408l.976-.48a3.013,3.013,0,0,0,1.208,1.464,3.313,3.313,0,0,0,1.816.536,2.677,2.677,0,0,0,1.4-.368,2.641,2.641,0,0,0,.968-1,2.86,2.86,0,0,0,.352-1.416,2.83,2.83,0,0,0-.36-1.44,2.677,2.677,0,0,0-.968-.984,2.649,2.649,0,0,0-1.376-.36,2.989,2.989,0,0,0-1.448.36,2.433,2.433,0,0,0-.968.872l-1.008-.192.9-6.464h6.032V36.2H49.584l.5-.432-.72,5.088-.5-.224a3.188,3.188,0,0,1,1.312-.984,4.16,4.16,0,0,1,1.536-.3,3.828,3.828,0,0,1,2.032.536,3.893,3.893,0,0,1,1.384,1.424,3.932,3.932,0,0,1,.5,1.976,3.868,3.868,0,0,1-.52,1.992,3.778,3.778,0,0,1-1.424,1.4A4.1,4.1,0,0,1,51.632,47.192Zm9.856,0a4.549,4.549,0,0,1-1.72-.32,4.116,4.116,0,0,1-1.384-.912,3.879,3.879,0,0,1-.9-1.408l.976-.48a3.013,3.013,0,0,0,1.208,1.464,3.313,3.313,0,0,0,1.816.536,2.677,2.677,0,0,0,1.4-.368,2.641,2.641,0,0,0,.968-1,2.86,2.86,0,0,0,.352-1.416,2.83,2.83,0,0,0-.36-1.44,2.677,2.677,0,0,0-.968-.984A2.649,2.649,0,0,0,61.5,40.5a2.989,2.989,0,0,0-1.448.36,2.433,2.433,0,0,0-.968.872l-1.008-.192.9-6.464h6.032V36.2H59.44l.5-.432-.72,5.088-.5-.224a3.188,3.188,0,0,1,1.312-.984,4.16,4.16,0,0,1,1.536-.3,3.828,3.828,0,0,1,2.032.536,3.893,3.893,0,0,1,1.384,1.424,3.933,3.933,0,0,1,.5,1.976,3.868,3.868,0,0,1-.52,1.992,3.778,3.778,0,0,1-1.424,1.4A4.1,4.1,0,0,1,61.488,47.192Zm12.768,0A4.376,4.376,0,0,1,72.2,46.72a3.637,3.637,0,0,1-1.424-1.3,3.419,3.419,0,0,1-.52-1.864,3.389,3.389,0,0,1,2.4-3.28v.336A2.89,2.89,0,0,1,70.88,37.96a2.81,2.81,0,0,1,.448-1.568,3.242,3.242,0,0,1,1.208-1.1,3.578,3.578,0,0,1,1.72-.408,3.684,3.684,0,0,1,1.728.392,3.049,3.049,0,0,1,1.192,1.088,2.916,2.916,0,0,1,.44,1.592,2.736,2.736,0,0,1-.48,1.592,3.111,3.111,0,0,1-1.264,1.064l-.016-.336a3.389,3.389,0,0,1,2.4,3.28,3.419,3.419,0,0,1-.52,1.864,3.637,3.637,0,0,1-1.424,1.3A4.376,4.376,0,0,1,74.256,47.192Zm0-1.12a3.079,3.079,0,0,0,1.424-.312,2.334,2.334,0,0,0,.952-.88,2.7,2.7,0,0,0,0-2.64,2.334,2.334,0,0,0-.952-.88,3.079,3.079,0,0,0-1.424-.312,3.129,3.129,0,0,0-1.432.312,2.27,2.27,0,0,0-.952.88,2.761,2.761,0,0,0,0,2.64,2.27,2.27,0,0,0,.952.88A3.129,3.129,0,0,0,74.256,46.072Zm0-6.144a2.205,2.205,0,0,0,1.056-.248,1.964,1.964,0,0,0,.744-.688,1.881,1.881,0,0,0,.28-1.032,1.841,1.841,0,0,0-.28-1.024,1.986,1.986,0,0,0-.744-.68,2.205,2.205,0,0,0-1.056-.248,2.252,2.252,0,0,0-1.064.248,1.971,1.971,0,0,0-.752.68,1.841,1.841,0,0,0-.28,1.024,1.881,1.881,0,0,0,.28,1.032,1.949,1.949,0,0,0,.752.688A2.252,2.252,0,0,0,74.256,39.928Zm10.9,7.264a4.084,4.084,0,0,1-2.472-.776,5.062,5.062,0,0,1-1.656-2.16,9.075,9.075,0,0,1,0-6.448,5.031,5.031,0,0,1,1.648-2.152,4.337,4.337,0,0,1,4.928,0,5.031,5.031,0,0,1,1.648,2.152,8.145,8.145,0,0,1,.592,3.224,8.3,8.3,0,0,1-.584,3.232,4.969,4.969,0,0,1-1.64,2.16A4.078,4.078,0,0,1,85.152,47.192Zm0-1.2a2.757,2.757,0,0,0,1.792-.624,4.08,4.08,0,0,0,1.2-1.736,8.04,8.04,0,0,0,0-5.2,4.019,4.019,0,0,0-1.2-1.728,2.938,2.938,0,0,0-3.6,0,4.019,4.019,0,0,0-1.2,1.728,8.016,8.016,0,0,0,0,5.192,4.043,4.043,0,0,0,1.208,1.744A2.789,2.789,0,0,0,85.152,45.992Zm13.36,1.2a3.864,3.864,0,0,1-1.984-.5,3.629,3.629,0,0,1-1.36-1.392,4.112,4.112,0,0,1-.5-2.04,5.322,5.322,0,0,1,.152-1.264,5.6,5.6,0,0,1,.464-1.232,8.924,8.924,0,0,1,.76-1.216l3.36-4.464h1.536L96.8,40.5l-.24.144a1.912,1.912,0,0,1,.56-.616,2.194,2.194,0,0,1,.712-.312,3.523,3.523,0,0,1,.84-.1,3.6,3.6,0,0,1,3.192,1.824,3.875,3.875,0,0,1,.488,1.968,3.7,3.7,0,0,1-1.872,3.28A3.881,3.881,0,0,1,98.512,47.192Zm0-1.12a2.461,2.461,0,0,0,2.224-1.3,2.952,2.952,0,0,0,.008-2.72,2.458,2.458,0,0,0-.9-.936,2.72,2.72,0,0,0-2.648,0,2.44,2.44,0,0,0-.912.936,2.952,2.952,0,0,0,.008,2.72,2.461,2.461,0,0,0,2.224,1.3Zm6.016.928L109.9,36.2h-5.952V35.08h7.28V36.2L105.872,47ZM6.848,77.192a5.791,5.791,0,0,1-2.32-.456A5.463,5.463,0,0,1,2.7,75.456a5.9,5.9,0,0,1-1.208-1.944,7.243,7.243,0,0,1,0-4.928A5.988,5.988,0,0,1,2.7,66.632a5.409,5.409,0,0,1,1.832-1.288,5.791,5.791,0,0,1,2.32-.456,5.3,5.3,0,0,1,2.184.432,5.227,5.227,0,0,1,1.632,1.112,4.225,4.225,0,0,1,.952,1.432l-1.2.528a3.732,3.732,0,0,0-3.568-2.3,4.4,4.4,0,0,0-2.336.624,4.3,4.3,0,0,0-1.6,1.736,6.138,6.138,0,0,0,0,5.192,4.236,4.236,0,0,0,1.6,1.736,4.442,4.442,0,0,0,2.336.616,3.825,3.825,0,0,0,2.2-.624A3.768,3.768,0,0,0,10.416,73.7l1.2.528a4.274,4.274,0,0,1-.952,1.416A5.227,5.227,0,0,1,9.032,76.76,5.3,5.3,0,0,1,6.848,77.192ZM13.9,77V65.08h1.12l4.48,6.5H18.88l4.464-6.5h1.12V77h-1.28V66.808l.416.16L19.216,73.32h-.064l-4.368-6.352.4-.16V77Zm16.32,0V71.464L26.048,65.08h1.424l3.648,5.552h-.512L34.24,65.08h1.424L31.5,71.464V77Zm7.024,0V65.08h1.28v6.96L38.24,71.9l6-6.816h1.6l-4.816,5.472.064-.912L46.128,77H44.592l-4.064-5.872-2,2.272V77Zm17.648.192a4.084,4.084,0,0,1-2.472-.776,5.062,5.062,0,0,1-1.656-2.16,9.075,9.075,0,0,1,0-6.448,5.031,5.031,0,0,1,1.648-2.152,4.337,4.337,0,0,1,4.928,0,5.031,5.031,0,0,1,1.648,2.152,8.145,8.145,0,0,1,.592,3.224A8.3,8.3,0,0,1,59,74.264a4.969,4.969,0,0,1-1.64,2.16A4.078,4.078,0,0,1,54.9,77.192Zm0-1.2a2.757,2.757,0,0,0,1.792-.624,4.08,4.08,0,0,0,1.2-1.736,8.04,8.04,0,0,0,0-5.2,4.019,4.019,0,0,0-1.2-1.728,2.938,2.938,0,0,0-3.6,0,4.019,4.019,0,0,0-1.2,1.728,8.016,8.016,0,0,0,0,5.192A4.043,4.043,0,0,0,53.1,75.368,2.789,2.789,0,0,0,54.9,75.992Zm13.36,1.2a3.864,3.864,0,0,1-1.984-.5,3.629,3.629,0,0,1-1.36-1.392,4.112,4.112,0,0,1-.5-2.04,5.322,5.322,0,0,1,.152-1.264,5.6,5.6,0,0,1,.464-1.232,8.924,8.924,0,0,1,.76-1.216l3.36-4.464h1.536L66.544,70.5l-.24.144a1.912,1.912,0,0,1,.56-.616,2.194,2.194,0,0,1,.712-.312,3.523,3.523,0,0,1,.84-.1,3.6,3.6,0,0,1,3.192,1.824,3.875,3.875,0,0,1,.488,1.968,3.7,3.7,0,0,1-1.872,3.28A3.881,3.881,0,0,1,68.256,77.192Zm0-1.12a2.461,2.461,0,0,0,2.224-1.3,2.952,2.952,0,0,0,.008-2.72,2.458,2.458,0,0,0-.9-.936,2.72,2.72,0,0,0-2.648,0,2.44,2.44,0,0,0-.912.936,2.952,2.952,0,0,0,.008,2.72,2.461,2.461,0,0,0,2.224,1.3ZM75.008,77l4.144-5.424.24-.144a2.061,2.061,0,0,1-.56.608,2.109,2.109,0,0,1-.7.32,3.5,3.5,0,0,1-.848.1,3.631,3.631,0,0,1-1.872-.488,3.588,3.588,0,0,1-1.32-1.344,3.887,3.887,0,0,1-.488-1.96,3.661,3.661,0,0,1,1.88-3.28,4.139,4.139,0,0,1,3.944.008,3.629,3.629,0,0,1,1.36,1.392,4.112,4.112,0,0,1,.5,2.04,5.322,5.322,0,0,1-.152,1.264,5.844,5.844,0,0,1-.456,1.232,7.655,7.655,0,0,1-.768,1.216L76.544,77Zm2.432-5.7a2.54,2.54,0,0,0,1.328-.344,2.443,2.443,0,0,0,.9-.944,2.952,2.952,0,0,0-.008-2.72,2.544,2.544,0,0,0-4.448,0,2.952,2.952,0,0,0-.008,2.72,2.425,2.425,0,0,0,.912.944A2.552,2.552,0,0,0,77.44,71.3ZM86.224,77,91.6,66.2H85.648V65.08h7.28V66.2L87.568,77Zm12.784,0V74.184H92.944v-1.04l6.064-8.064h1.12v8.064h1.456v1.04h-1.456V77ZM93.92,73.608l-.144-.464h5.232v-6.96l.4.112Zm16.96,3.584a4.084,4.084,0,0,1-2.472-.776,5.062,5.062,0,0,1-1.656-2.16,9.075,9.075,0,0,1,0-6.448,5.031,5.031,0,0,1,1.648-2.152,4.337,4.337,0,0,1,4.928,0,5.031,5.031,0,0,1,1.648,2.152,8.145,8.145,0,0,1,.592,3.224,8.3,8.3,0,0,1-.584,3.232,4.969,4.969,0,0,1-1.64,2.16A4.078,4.078,0,0,1,110.88,77.192Zm0-1.2a2.757,2.757,0,0,0,1.792-.624,4.08,4.08,0,0,0,1.2-1.736,8.04,8.04,0,0,0,0-5.2,4.019,4.019,0,0,0-1.2-1.728,2.938,2.938,0,0,0-3.6,0,4.019,4.019,0,0,0-1.2,1.728,8.016,8.016,0,0,0,0,5.192,4.043,4.043,0,0,0,1.208,1.744A2.789,2.789,0,0,0,110.88,75.992Z" transform="translate(791 3620)" fill="#fff"/>
      <path id="Path_3923" data-name="Path 3923" d="M5.916,30V11.875H.319V8.4H15.4v3.48H9.889V30Zm14.036.348a6.915,6.915,0,0,1-2.871-.551,4.174,4.174,0,0,1-2.552-3.973,4.412,4.412,0,0,1,2.378-4.06,8.985,8.985,0,0,1,3.074-.986l5.162-.841v2.9l-4.437.754a3.238,3.238,0,0,0-1.682.725,1.792,1.792,0,0,0-.551,1.363,1.542,1.542,0,0,0,.624,1.29,2.473,2.473,0,0,0,1.551.479,4.257,4.257,0,0,0,2.1-.507,3.615,3.615,0,0,0,1.421-1.406,3.943,3.943,0,0,0,.508-1.972V19.5a2.142,2.142,0,0,0-.8-1.7,3.125,3.125,0,0,0-2.1-.681,3.7,3.7,0,0,0-2.16.653A3.781,3.781,0,0,0,18.241,19.5l-3.1-1.508a5.475,5.475,0,0,1,1.464-2.16A7.376,7.376,0,0,1,18.966,14.4a8.2,8.2,0,0,1,2.958-.522,7.815,7.815,0,0,1,3.422.711,5.563,5.563,0,0,1,2.306,1.972,5.249,5.249,0,0,1,.826,2.944V30h-3.6V27.3l.812-.058a6.382,6.382,0,0,1-1.45,1.7,6.124,6.124,0,0,1-1.914,1.044A7.4,7.4,0,0,1,19.952,30.348ZM31.407,30V14.224h3.567v3.1l-.29-.551A4.17,4.17,0,0,1,36.5,14.616a5.714,5.714,0,0,1,2.944-.74,6.22,6.22,0,0,1,3.088.754,5.363,5.363,0,0,1,2.1,2.1,6.281,6.281,0,0,1,.754,3.118V30h-3.8V20.749a3.742,3.742,0,0,0-.406-1.8,2.971,2.971,0,0,0-1.117-1.174,3.488,3.488,0,0,0-3.32,0,2.94,2.94,0,0,0-1.131,1.174,3.742,3.742,0,0,0-.406,1.8V30ZM55.68,36.38A9.053,9.053,0,0,1,52.4,35.8a7.8,7.8,0,0,1-2.6-1.61,6.094,6.094,0,0,1-1.581-2.421l3.538-1.334a3.287,3.287,0,0,0,1.378,1.783,4.5,4.5,0,0,0,2.537.682,4.577,4.577,0,0,0,2.045-.435A3.223,3.223,0,0,0,59.1,31.2a3.809,3.809,0,0,0,.493-1.987v-3.6l.725.87a5.4,5.4,0,0,1-2.175,2.146,6.505,6.505,0,0,1-3.1.725A7.681,7.681,0,0,1,51.1,28.347a7.252,7.252,0,0,1-2.726-2.784,8.02,8.02,0,0,1-.986-3.973,7.917,7.917,0,0,1,.986-3.973,7.268,7.268,0,0,1,2.7-2.741,7.554,7.554,0,0,1,3.886-1,6.379,6.379,0,0,1,3.118.74,6.224,6.224,0,0,1,2.247,2.132L59.8,17.7v-3.48h3.6V29.217a6.878,6.878,0,0,1-1,3.683,7.072,7.072,0,0,1-2.726,2.552A8.289,8.289,0,0,1,55.68,36.38Zm-.174-10.527a4.131,4.131,0,0,0,2.132-.537,3.812,3.812,0,0,0,1.436-1.493,4.529,4.529,0,0,0,.522-2.2,4.453,4.453,0,0,0-.536-2.189,3.913,3.913,0,0,0-3.553-2.074,4.223,4.223,0,0,0-2.146.551,3.9,3.9,0,0,0-1.493,1.522,4.453,4.453,0,0,0-.536,2.189,4.371,4.371,0,0,0,.536,2.175A3.957,3.957,0,0,0,53.346,25.3,4.2,4.2,0,0,0,55.506,25.853Zm18.328,4.495a8.093,8.093,0,0,1-4.263-1.1,7.676,7.676,0,0,1-2.842-2.987,8.666,8.666,0,0,1-1.015-4.176,8.5,8.5,0,0,1,1.03-4.22,7.757,7.757,0,0,1,2.813-2.914,7.585,7.585,0,0,1,3.987-1.073,8.151,8.151,0,0,1,3.263.609A6.958,6.958,0,0,1,79.2,16.167a7.531,7.531,0,0,1,1.508,2.451,8.319,8.319,0,0,1,.522,2.972q0,.406-.044.841a3.127,3.127,0,0,1-.16.754H68.846v-2.9H78.88l-1.8,1.363a4.321,4.321,0,0,0-.131-2.378,3.4,3.4,0,0,0-1.276-1.653,3.666,3.666,0,0,0-2.132-.609,3.839,3.839,0,0,0-2.117.595,3.68,3.68,0,0,0-1.407,1.74,6.039,6.039,0,0,0-.363,2.77,5.128,5.128,0,0,0,.392,2.566A3.811,3.811,0,0,0,71.558,26.4a4.345,4.345,0,0,0,2.305.609,4.22,4.22,0,0,0,2.218-.551,3.976,3.976,0,0,0,1.436-1.479l3.074,1.508a5.372,5.372,0,0,1-1.45,2,7.248,7.248,0,0,1-2.334,1.363A8.6,8.6,0,0,1,73.834,30.348ZM83.52,30V8.047h3.8V30Zm14.442.348a8.429,8.429,0,0,1-4.219-1.073,8.228,8.228,0,0,1-.015-14.326,8.833,8.833,0,0,1,8.439,0,8.189,8.189,0,0,1,3,2.914,8.031,8.031,0,0,1,1.117,4.249,7.973,7.973,0,0,1-1.131,4.234,8.293,8.293,0,0,1-7.192,4Zm0-3.48a4.142,4.142,0,0,0,2.247-.609,4.288,4.288,0,0,0,1.537-1.7,5.232,5.232,0,0,0,.565-2.451,5.122,5.122,0,0,0-.565-2.451,4.45,4.45,0,0,0-1.537-1.682,4.069,4.069,0,0,0-2.247-.624,4.2,4.2,0,0,0-2.291.624,4.41,4.41,0,0,0-1.551,1.682,5.122,5.122,0,0,0-.566,2.451,5.232,5.232,0,0,0,.566,2.451,4.151,4.151,0,0,0,3.842,2.306Z" transform="translate(791 3571)" fill="#fff"/>
    </g>
  </g>
</svg>
